<svg xmlns="http://www.w3.org/2000/svg" viewBox="0 0 181.57 260.98"><defs><style>.cls-1{fill:#b31628;}.cls-2{fill:#35100e;}</style></defs><title>sauce</title><g id="Layer_2" data-name="Layer 2"><g id="somen_stand" data-name="somen stand"><g id="sauce"><ellipse class="cls-1" cx="90.79" cy="48.26" rx="88.41" ry="45.89"/><path class="cls-2" d="M90.79,23.29c-41.81,0-76,19.57-78.36,44.24C27.21,82.16,56.75,92.15,90.79,92.15s63.57-10,78.35-24.62C166.75,42.86,132.59,23.29,90.79,23.29Z"/><path d="M181.26,208.8V52.18a26.91,26.91,0,0,0,.31-3.92c0-13.19-9.65-25.46-27.17-34.55C137.37,4.87,114.78,0,90.79,0S44.21,4.87,27.18,13.71C9.65,22.8,0,35.07,0,48.26a25.83,25.83,0,0,0,.32,3.93v156.6A25.83,25.83,0,0,0,0,212.72c0,13.19,9.65,25.46,27.18,34.56,17,8.84,39.62,13.7,63.61,13.7s46.58-4.86,63.61-13.7c17.52-9.1,27.17-21.37,27.17-34.56A27,27,0,0,0,181.26,208.8ZM90.79,4.75c47.44,0,86,19.52,86,43.51s-38.59,43.51-86,43.51-86-19.52-86-43.51S43.35,4.75,90.79,4.75Z"/></g></g></g></svg>