<svg xmlns="http://www.w3.org/2000/svg" viewBox="0 0 528 352"><defs><style>.cls-1{fill:#b31628;}.cls-2{fill:#faf2d3;stroke:#d2c3af;}.cls-2,.cls-3{stroke-miterlimit:10;}.cls-3{fill:none;stroke:#a3e080;stroke-width:4px;}</style></defs><title>somen</title><g id="Layer_2" data-name="Layer 2"><g id="somen_stand" data-name="somen stand"><g id="somen"><ellipse class="cls-1" cx="264.25" cy="124.51" rx="250.98" ry="115.01"/><path class="cls-2" d="M238.39,221.07q-3.09,0-6.21,0c-59.3-.9-111-17.67-135-43.75-9.53-10.36-14.15-22-13.36-33.61C86.11,109.75,142.13,84,211.2,85.06c38.37.59,71.93,11.51,87.58,28.52,6.4,7,9.51,14.82,9,22.71-1.51,22.12-36.67,39-80.56,39-.87,0-1.73,0-2.61,0-25-.38-46.91-7.57-57.21-18.77-4.41-4.79-6.54-10.23-6.16-15.73,1.06-15.55,24.63-26.9,54.85-26.46,16.42.25,30.9,5,37.78,12.53a15.06,15.06,0,0,1,4.36,11.27c-.72,10.61-15.94,18.44-35.6,18.44h-1.14c-10.93-.16-20.64-3.44-25.33-8.54a11.15,11.15,0,0,1-3.21-8.41l8.91.61a2.71,2.71,0,0,0,.88,1.75c2.49,2.71,9.3,5.51,18.89,5.66,16.42.22,27.39-5.82,27.69-10.11a6.3,6.3,0,0,0-2-4.61c-4.26-4.63-15.6-9.41-31.33-9.65-26.23-.4-45.2,9.24-45.81,18.14-.2,3,1.08,6.09,3.83,9.07,8.56,9.31,28.49,15.55,50.76,15.89,43,.66,73.07-15.34,74.12-30.68.38-5.46-1.86-10.86-6.63-16.05-13.83-15-45.68-25.09-81.14-25.63-62.21-1-116.43,22.07-118.35,50.27-.63,9.25,3.08,18.31,11,26.95,22,24,72.52,40,128.59,40.86,49,.75,95.71-7.54,131.4-23.35,34.67-15.36,54.59-35.8,56.07-57.54l8.92.61C427,157,405.19,180.13,367.34,196.9,332,212.55,286.44,221.07,238.39,221.07Z"/><path class="cls-2" d="M304.39,213.07q-3.09,0-6.21,0c-59.3-.9-111-17.67-135-43.75-9.53-10.36-14.15-22-13.36-33.61,2.32-33.91,58.32-59.66,127.41-58.6,38.37.59,71.93,11.51,87.58,28.52,6.4,7,9.51,14.82,9,22.71-1.51,22.12-36.67,39-80.56,39-.87,0-1.73,0-2.61,0-25-.38-46.91-7.57-57.21-18.77-4.41-4.79-6.54-10.23-6.16-15.73,1.06-15.55,24.66-26.9,54.85-26.46,16.42.25,30.9,5,37.78,12.53a15.06,15.06,0,0,1,4.36,11.27c-.74,10.81-16.5,18.74-36.74,18.43-10.93-.16-20.64-3.44-25.33-8.54a11.15,11.15,0,0,1-3.21-8.41l8.91.61a2.71,2.71,0,0,0,.88,1.75c2.49,2.71,9.3,5.51,18.89,5.66,16.45.23,27.39-5.82,27.69-10.11a6.3,6.3,0,0,0-2-4.61c-4.26-4.63-15.6-9.41-31.33-9.65-26.24-.4-45.2,9.24-45.81,18.14-.2,3,1.08,6.09,3.83,9.07,8.56,9.31,28.49,15.55,50.76,15.89,43,.64,73.07-15.34,74.12-30.68.38-5.46-1.86-10.86-6.63-16.05-13.83-15-45.68-25.09-81.14-25.63-62.25-1-116.43,22.07-118.35,50.27-.63,9.25,3.08,18.31,11,26.95,22.05,24,72.52,40,128.59,40.86,49,.75,95.71-7.54,131.4-23.35,34.67-15.36,54.59-35.8,56.07-57.54l8.92.61C493,149,471.19,172.13,433.34,188.9,398,204.55,352.44,213.07,304.39,213.07Z"/><path class="cls-2" d="M159.39,231.07q-3.09,0-6.21,0c-59.3-.9-111-17.67-135-43.75C8.62,176.91,4,165.28,4.79,153.66,7.11,119.75,63.11,94,132.2,95.06c38.37.59,71.93,11.51,87.58,28.52,6.4,7,9.51,14.82,9,22.71-1.51,22.12-36.67,39-80.56,39-.87,0-1.73,0-2.61,0-25-.38-46.91-7.57-57.21-18.77-4.41-4.79-6.54-10.23-6.16-15.73,1.06-15.55,24.66-26.91,54.85-26.46,16.42.25,30.9,5,37.78,12.53a15.06,15.06,0,0,1,4.36,11.27c-.72,10.61-15.94,18.44-35.6,18.44h-1.14c-10.93-.16-20.64-3.44-25.33-8.54a11.15,11.15,0,0,1-3.21-8.41l8.91.61a2.71,2.71,0,0,0,.88,1.75c2.49,2.71,9.3,5.51,18.89,5.66,16.42.24,27.39-5.82,27.69-10.11a6.3,6.3,0,0,0-2-4.61c-4.26-4.63-15.6-9.41-31.33-9.65-26.26-.41-45.2,9.24-45.81,18.14-.2,3,1.08,6.09,3.83,9.07,8.56,9.31,28.49,15.55,50.76,15.89,43,.64,73.07-15.34,74.12-30.68.38-5.46-1.86-10.86-6.63-16.05-13.83-15-45.68-25.09-81.14-25.63-62.23-1-116.43,22.07-118.35,50.27-.63,9.25,3.08,18.31,11,26.95,22.05,24,72.52,40,128.59,40.86,49,.75,95.71-7.54,131.4-23.35,34.67-15.36,54.59-35.8,56.07-57.54l8.92.61C348,167,326.19,190.13,288.34,206.9,253,222.55,207.44,231.07,159.39,231.07Z"/><path class="cls-2" d="M272.39,203.07q-3.09,0-6.21,0c-59.3-.9-111-17.67-135-43.75-9.53-10.36-14.15-22-13.36-33.61C120.11,91.75,176.13,66,245.2,67.06c38.37.59,71.93,11.51,87.58,28.52,6.4,7,9.51,14.82,9,22.71-1.51,22.12-36.67,39-80.56,39-.87,0-1.73,0-2.61,0-25-.38-46.91-7.57-57.21-18.77-4.41-4.79-6.54-10.23-6.16-15.73,1.06-15.55,24.67-26.92,54.85-26.46,16.42.25,30.9,5,37.78,12.53a15.06,15.06,0,0,1,4.36,11.27c-.72,10.61-15.94,18.44-35.6,18.44h-1.14c-10.93-.16-20.64-3.44-25.33-8.54a11.15,11.15,0,0,1-3.21-8.41l8.91.61a2.71,2.71,0,0,0,.88,1.75c2.49,2.71,9.3,5.51,18.89,5.66h1c15.91,0,26.41-5.91,26.7-10.11a6.3,6.3,0,0,0-2-4.61c-4.26-4.63-15.6-9.41-31.33-9.65-26.24-.41-45.2,9.24-45.81,18.14-.2,3,1.08,6.09,3.83,9.07,8.56,9.31,28.49,15.55,50.76,15.89l2.56,0c41.67,0,70.54-15.66,71.56-30.7.38-5.46-1.86-10.86-6.63-16.05-13.83-15-45.68-25.09-81.14-25.63-62.25-1-116.43,22.07-118.35,50.27-.63,9.25,3.08,18.31,11,27,22.05,24,72.52,40,128.59,40.86,49,.75,95.71-7.54,131.4-23.35,34.67-15.36,54.59-35.8,56.07-57.54l8.92.61C461,139,439.19,162.13,401.34,178.9,366,194.55,320.44,203.07,272.39,203.07Z"/><path class="cls-2" d="M272.39,241.07q-3.09,0-6.21,0c-59.3-.9-111-17.67-135-43.75-9.53-10.36-14.15-22-13.36-33.61,2.32-33.91,58.34-59.66,127.41-58.6,38.37.59,71.93,11.51,87.58,28.52,6.4,7,9.51,14.82,9,22.71-1.54,22.56-38.05,39.7-83.17,39-25-.38-46.91-7.57-57.21-18.77-4.41-4.79-6.54-10.23-6.16-15.73,1.06-15.55,24.67-26.9,54.85-26.46,16.42.25,30.9,5,37.78,12.53a15.06,15.06,0,0,1,4.36,11.27c-.72,10.61-15.94,18.44-35.6,18.44h-1.14c-10.93-.16-20.64-3.44-25.33-8.54a11.15,11.15,0,0,1-3.21-8.41l8.91.61a2.71,2.71,0,0,0,.88,1.75c2.49,2.71,9.3,5.51,18.89,5.66h1c15.91,0,26.41-5.91,26.7-10.11a6.3,6.3,0,0,0-2-4.61c-4.26-4.63-15.6-9.41-31.33-9.65-26.24-.4-45.2,9.24-45.81,18.14-.2,3,1.08,6.09,3.83,9.07,8.56,9.31,28.49,15.55,50.76,15.89,43.08.64,73.08-15.34,74.12-30.68.38-5.46-1.86-10.86-6.63-16.05-13.83-15-45.68-25.09-81.14-25.63-62.25-1-116.43,22.07-118.35,50.27-.63,9.25,3.08,18.31,11,26.95,22.05,24,72.52,40,128.59,40.86,49,.75,95.71-7.54,131.4-23.35,34.67-15.36,54.59-35.8,56.07-57.54l8.92.61C461,177,439.19,200.13,401.34,216.9,366,232.55,320.44,241.07,272.39,241.07Z"/><path class="cls-2" d="M175.39,203.07q-3.09,0-6.21,0c-59.3-.9-111-17.67-135-43.75-9.53-10.36-14.15-22-13.36-33.61C23.11,91.75,79.1,66,148.2,67.06c38.37.59,71.93,11.51,87.58,28.52,6.4,7,9.51,14.82,9,22.71-1.51,22.12-36.67,39-80.56,39-.87,0-1.73,0-2.61,0-25-.38-46.91-7.57-57.21-18.77-4.41-4.79-6.54-10.23-6.16-15.73,1.06-15.55,24.65-26.92,54.85-26.46,16.42.25,30.9,5,37.78,12.53a15.06,15.06,0,0,1,4.36,11.27c-.72,10.61-15.94,18.44-35.6,18.44h-1.14c-10.93-.16-20.64-3.44-25.33-8.54a11.15,11.15,0,0,1-3.21-8.41l8.91.61a2.71,2.71,0,0,0,.88,1.75c2.49,2.71,9.3,5.51,18.89,5.66,16.41.24,27.39-5.82,27.69-10.11a6.3,6.3,0,0,0-2-4.61c-4.26-4.63-15.6-9.41-31.33-9.65-26.26-.41-45.2,9.24-45.81,18.14-.2,3,1.08,6.09,3.83,9.07,8.56,9.31,28.49,15.55,50.76,15.89l2.56,0c41.67,0,70.54-15.66,71.56-30.7.38-5.46-1.86-10.86-6.63-16.05-13.83-15-45.68-25.09-81.14-25.63C85.83,75,31.63,98.07,29.71,126.27c-.63,9.25,3.08,18.31,11,27,22.05,24,72.52,40,128.59,40.86,49,.75,95.71-7.54,131.4-23.35,34.67-15.36,54.59-35.8,56.07-57.54l8.92.61C364,139,342.19,162.13,304.34,178.9,269,194.55,223.44,203.07,175.39,203.07Z"/><path class="cls-2" d="M204.39,237.07q-3.09,0-6.21,0c-59.3-.9-111-17.67-135-43.75-9.53-10.36-14.15-22-13.36-33.61,2.32-33.91,58.34-59.65,127.41-58.6,38.37.59,71.93,11.51,87.58,28.52,6.4,7,9.51,14.82,9,22.71-1.54,22.56-38.08,39.69-83.17,39-25-.38-46.91-7.57-57.21-18.77-4.41-4.79-6.54-10.23-6.16-15.73,1.06-15.55,24.65-26.91,54.85-26.46,16.42.25,30.9,5,37.78,12.53a15.06,15.06,0,0,1,4.36,11.27c-.72,10.61-15.94,18.44-35.6,18.44h-1.14c-10.93-.16-20.64-3.44-25.33-8.54a11.15,11.15,0,0,1-3.21-8.41l8.91.61a2.71,2.71,0,0,0,.88,1.75c2.49,2.71,9.3,5.51,18.89,5.66,16.44.24,27.39-5.82,27.69-10.11a6.3,6.3,0,0,0-2-4.61c-4.26-4.63-15.6-9.41-31.33-9.65-26.22-.4-45.2,9.24-45.81,18.14-.2,3,1.08,6.09,3.83,9.07,8.56,9.31,28.49,15.55,50.76,15.89,43.09.66,73.08-15.34,74.12-30.68.38-5.46-1.86-10.86-6.63-16.05-13.83-15-45.68-25.09-81.14-25.63-62.23-1-116.43,22.07-118.35,50.27-.63,9.25,3.08,18.31,11,26.95,22,24,72.52,40,128.59,40.86,49,.76,95.71-7.54,131.4-23.35,34.67-15.36,54.59-35.8,56.07-57.54l8.92.61C393,173,371.19,196.13,333.34,212.9,298,228.55,252.44,237.07,204.39,237.07Z"/><path class="cls-2" d="M175.39,237.07q-3.09,0-6.21,0c-59.3-.9-111-17.67-135-43.75-9.53-10.36-14.15-22-13.36-33.61C23.11,125.75,79.1,100,148.2,101.06c38.37.59,71.93,11.51,87.58,28.52,6.4,7,9.51,14.82,9,22.71-1.54,22.56-38.08,39.69-83.17,39-25-.38-46.91-7.57-57.21-18.77-4.41-4.79-6.54-10.23-6.16-15.73,1.06-15.55,24.65-26.91,54.85-26.46,16.42.25,30.9,5,37.78,12.53a15.06,15.06,0,0,1,4.36,11.27c-.72,10.61-15.94,18.44-35.6,18.44h-1.14c-10.93-.16-20.64-3.44-25.33-8.54a11.15,11.15,0,0,1-3.21-8.41l8.91.61a2.71,2.71,0,0,0,.88,1.75c2.49,2.71,9.3,5.51,18.89,5.66,16.41.24,27.39-5.82,27.69-10.11a6.3,6.3,0,0,0-2-4.61c-4.26-4.63-15.6-9.41-31.33-9.65-26.26-.4-45.2,9.24-45.81,18.14-.2,3,1.08,6.09,3.83,9.07,8.56,9.31,28.49,15.55,50.76,15.89,43.07.66,73.08-15.34,74.12-30.68.38-5.46-1.86-10.86-6.63-16.05-13.83-15-45.68-25.09-81.14-25.63-62.23-1-116.43,22.07-118.35,50.27-.63,9.25,3.08,18.31,11,26.95,22.05,24,72.52,40,128.59,40.86,49,.76,95.71-7.54,131.4-23.35,34.67-15.36,54.59-35.8,56.07-57.54l8.92.61C364,173,342.19,196.13,304.34,212.9,269,228.55,223.44,237.07,175.39,237.07Z"/><path class="cls-2" d="M332.39,237.07q-3.09,0-6.21,0c-59.3-.9-111-17.67-135-43.75-9.53-10.36-14.15-22-13.36-33.61,2.32-33.91,58.32-59.65,127.41-58.6,38.37.59,71.93,11.51,87.58,28.52,6.4,7,9.51,14.82,9,22.71-1.54,22.56-38.1,39.69-83.17,39-25-.38-46.91-7.57-57.21-18.77-4.41-4.79-6.54-10.23-6.16-15.73,1.06-15.55,24.66-26.91,54.85-26.46,16.42.25,30.9,5,37.78,12.53a15.06,15.06,0,0,1,4.36,11.27c-.72,10.61-15.94,18.44-35.6,18.44h-1.14c-10.93-.16-20.64-3.44-25.33-8.54a11.15,11.15,0,0,1-3.21-8.41l8.91.61a2.71,2.71,0,0,0,.88,1.75c2.49,2.71,9.3,5.51,18.89,5.66h1c15.91,0,26.41-5.91,26.7-10.11a6.3,6.3,0,0,0-2-4.61c-4.26-4.63-15.6-9.41-31.33-9.65-26.22-.4-45.2,9.24-45.81,18.14-.2,3,1.08,6.09,3.83,9.07,8.56,9.31,28.49,15.55,50.76,15.89,43.07.66,73.07-15.34,74.12-30.68.38-5.46-1.86-10.86-6.63-16.05-13.83-15-45.68-25.09-81.14-25.63-62.22-1-116.43,22.07-118.35,50.27-.63,9.25,3.08,18.31,11,26.95,22.05,24,72.52,40,128.59,40.86,49,.76,95.71-7.54,131.4-23.35,34.67-15.36,54.59-35.8,56.07-57.54l8.92.61C521,173,499.19,196.13,461.34,212.9,426,228.55,380.44,237.07,332.39,237.07Z"/><path class="cls-2" d="M225.39,221.07q-3.09,0-6.21,0c-59.3-.9-111-17.67-135-43.75-9.53-10.36-14.15-22-13.36-33.61C73.06,110.42,126.88,85,194.11,85l4.09,0c38.37.59,71.93,11.51,87.58,28.52,6.4,7,9.51,14.82,9,22.71-1.51,22.12-36.67,39-80.56,39-.87,0-1.73,0-2.61,0-25-.38-46.91-7.57-57.21-18.77-4.41-4.79-6.54-10.23-6.16-15.73,1.06-15.55,24.68-26.9,54.85-26.46,16.42.25,30.9,5,37.78,12.53a15.06,15.06,0,0,1,4.36,11.27c-.74,10.81-16.5,18.74-36.74,18.43-10.93-.16-20.64-3.44-25.33-8.54a11.15,11.15,0,0,1-3.21-8.41l8.91.61a2.71,2.71,0,0,0,.88,1.75c2.49,2.71,9.3,5.51,18.89,5.66,16.44.22,27.39-5.82,27.69-10.11a6.3,6.3,0,0,0-2-4.61c-4.26-4.63-15.6-9.41-31.33-9.65-26.23-.4-45.2,9.24-45.81,18.14-.2,3,1.08,6.09,3.83,9.07,8.56,9.31,28.49,15.55,50.76,15.89,43,.66,73.07-15.34,74.12-30.68.38-5.46-1.86-10.86-6.63-16.05-13.83-15-45.68-25.09-81.14-25.63-62.22-1-116.43,22.07-118.35,50.27-.63,9.25,3.08,18.31,11,26.95,22,24,72.52,40,128.59,40.86,49,.75,95.71-7.54,131.4-23.35,34.67-15.36,54.59-35.8,56.07-57.54l8.92.61C414,157,392.19,180.13,354.34,196.9,319,212.55,273.44,221.07,225.39,221.07Z"/><path class="cls-2" d="M289,221.07c-48,0-93.62-8.52-128.95-24.17-37.85-16.77-59.65-39.89-61.37-65.1l8.92-.61c1.48,21.74,21.4,42.18,56.07,57.54,35.69,15.81,82.38,24.11,131.4,23.35,56.07-.85,106.54-16.89,128.59-40.86,7.95-8.64,11.65-17.7,11-26.95C432.79,116.07,378.62,93,316.36,94c-35.46.54-67.31,10.6-81.14,25.63-4.77,5.19-7,10.59-6.63,16.05,1,15.34,31.08,31.33,74.12,30.68,22.27-.34,42.2-6.58,50.76-15.89,2.75-3,4-6,3.83-9.07-.61-8.9-19.57-18.56-45.81-18.14-15.73.24-27.07,5-31.33,9.65a6.3,6.3,0,0,0-2,4.61c.3,4.29,11.25,10.34,27.69,10.11,9.59-.15,16.4-2.95,18.89-5.66a2.71,2.71,0,0,0,.88-1.75l8.92-.61a11.2,11.2,0,0,1-3.22,8.41c-4.69,5.1-14.4,8.38-25.33,8.54-20.17.32-36-7.62-36.74-18.43a15.06,15.06,0,0,1,4.36-11.27c6.88-7.48,21.36-12.28,37.78-12.53,30.23-.45,53.79,10.91,54.85,26.46.38,5.5-1.75,10.94-6.16,15.73-10.3,11.2-32.22,18.39-57.21,18.77-.87,0-1.75,0-2.61,0-43.89,0-79.05-16.9-80.56-39-.54-7.89,2.57-15.74,9-22.71,15.64-17,49.2-27.93,87.57-28.52,69.14-1,125.09,24.69,127.41,58.6.79,11.62-3.83,23.25-13.36,33.61-24,26.08-75.73,42.85-135,43.75C293.17,221.05,291.09,221.07,289,221.07Z"/><path class="cls-2" d="M223,213.07c-48.05,0-93.62-8.52-128.95-24.17C56.23,172.13,34.43,149,32.71,123.8l8.92-.61c1.48,21.74,21.4,42.18,56.07,57.54,35.69,15.81,82.37,24.11,131.4,23.35,56.07-.85,106.54-16.89,128.59-40.86,7.95-8.64,11.65-17.7,11-26.95C366.79,108.07,312.62,85,250.36,86c-35.46.54-67.31,10.6-81.14,25.63-4.77,5.19-7,10.59-6.63,16.05,1,15.34,31.09,31.33,74.12,30.68,22.27-.34,42.2-6.58,50.76-15.89,2.75-3,4-6,3.83-9.07-.61-8.9-19.6-18.56-45.81-18.14-15.73.24-27.07,5-31.33,9.65a6.3,6.3,0,0,0-2,4.61c.3,4.29,11.24,10.34,27.69,10.11,9.59-.15,16.4-2.95,18.89-5.66a2.71,2.71,0,0,0,.88-1.75l8.92-.61a11.2,11.2,0,0,1-3.22,8.41c-4.69,5.1-14.4,8.38-25.33,8.54-20.2.31-36-7.62-36.74-18.43a15.06,15.06,0,0,1,4.36-11.27c6.88-7.48,21.36-12.28,37.78-12.53,30.23-.45,53.79,10.91,54.85,26.46.38,5.5-1.75,10.94-6.16,15.73-10.3,11.2-32.22,18.39-57.21,18.77-.87,0-1.75,0-2.61,0-43.89,0-79-16.9-80.56-39-.54-7.89,2.57-15.74,9-22.71,15.64-17,49.2-27.93,87.57-28.52,69.17-1,125.1,24.69,127.41,58.6.79,11.62-3.83,23.25-13.36,33.61-24,26.08-75.73,42.85-135,43.75C227.17,213.05,225.09,213.07,223,213.07Z"/><path class="cls-2" d="M368,231.07c-48,0-93.62-8.52-128.95-24.17-37.85-16.77-59.65-39.89-61.37-65.1l8.92-.61c1.48,21.74,21.4,42.18,56.07,57.54,35.69,15.81,82.37,24.1,131.4,23.35,56.07-.85,106.54-16.89,128.59-40.86,7.95-8.64,11.65-17.7,11-26.95C511.79,126.07,457.58,103,395.36,104c-35.46.54-67.31,10.6-81.14,25.63-4.77,5.19-7,10.59-6.63,16.05,1.05,15.34,31.09,31.33,74.12,30.68,22.27-.34,42.2-6.58,50.76-15.89,2.75-3,4-6,3.83-9.07-.61-8.9-19.6-18.56-45.81-18.14-15.73.24-27.07,5-31.33,9.65a6.3,6.3,0,0,0-2,4.61c.3,4.29,11.26,10.35,27.69,10.11,9.59-.15,16.4-2.95,18.89-5.66a2.71,2.71,0,0,0,.88-1.75l8.92-.61a11.2,11.2,0,0,1-3.22,8.41c-4.69,5.1-14.4,8.38-25.33,8.54-20.17.32-36-7.62-36.74-18.43a15.06,15.06,0,0,1,4.36-11.27c6.88-7.48,21.36-12.28,37.78-12.53l1.76,0c29.37,0,52.05,11.24,53.09,26.48.38,5.5-1.75,10.94-6.16,15.73-10.3,11.2-32.22,18.39-57.21,18.77-45.13.71-81.63-16.44-83.17-39-.54-7.89,2.57-15.74,9-22.71,15.64-17,49.2-27.93,87.57-28.52,69.15-1,125.09,24.69,127.41,58.6.79,11.62-3.83,23.25-13.36,33.61-24,26.08-75.73,42.85-135,43.75C372.17,231.05,370.09,231.07,368,231.07Z"/><path class="cls-2" d="M255,203.07c-48.05,0-93.62-8.52-128.95-24.17C88.23,162.13,66.43,139,64.71,113.8l8.92-.61c1.48,21.74,21.4,42.18,56.07,57.54,35.69,15.81,82.39,24.11,131.4,23.35,56.07-.85,106.54-16.89,128.59-40.86,7.95-8.64,11.65-17.7,11-26.95C398.79,98.07,344.61,75,282.36,76c-35.46.54-67.31,10.6-81.14,25.63-4.77,5.19-7,10.59-6.63,16.05,1,15.34,31.08,31.33,74.12,30.68,22.27-.34,42.2-6.58,50.76-15.89,2.75-3,4-6,3.83-9.07-.61-8.9-19.58-18.56-45.81-18.14-15.73.24-27.07,5-31.33,9.65a6.3,6.3,0,0,0-2,4.61c.3,4.29,11.23,10.33,27.69,10.11,9.59-.15,16.4-2.95,18.89-5.66a2.71,2.71,0,0,0,.88-1.75l8.92-.61a11.2,11.2,0,0,1-3.22,8.41c-4.69,5.1-14.4,8.38-25.33,8.54-20.17.31-36-7.62-36.74-18.43a15.06,15.06,0,0,1,4.36-11.27c6.88-7.48,21.36-12.28,37.78-12.53,30.23-.44,53.79,10.91,54.85,26.46.38,5.5-1.75,10.94-6.16,15.73-10.3,11.2-32.22,18.39-57.21,18.77-.87,0-1.75,0-2.61,0-43.89,0-79.05-16.9-80.56-39-.54-7.89,2.57-15.74,9-22.71,15.64-17,49.2-27.93,87.57-28.52,69.17-1,125.1,24.69,127.41,58.6.79,11.62-3.83,23.25-13.36,33.61-24,26.08-75.73,42.85-135,43.75C259.17,203.05,257.09,203.07,255,203.07Z"/><path class="cls-2" d="M255,241.07c-48.05,0-93.62-8.52-128.95-24.17C88.23,200.13,66.43,177,64.71,151.8l8.92-.61c1.48,21.74,21.4,42.18,56.07,57.54,35.69,15.81,82.38,24.11,131.4,23.35,56.07-.85,106.54-16.89,128.59-40.86,7.95-8.64,11.65-17.7,11-26.95-1.92-28.2-56.1-51.22-118.35-50.27-35.46.54-67.31,10.6-81.14,25.63-4.77,5.19-7,10.59-6.63,16.05,1,15.34,31.08,31.3,74.12,30.68,22.27-.34,42.2-6.58,50.76-15.89,2.75-3,4-6,3.83-9.07-.61-8.9-19.58-18.57-45.81-18.14-15.73.24-27.07,5-31.33,9.65a6.3,6.3,0,0,0-2,4.61c.3,4.29,11.23,10.34,27.69,10.11,9.59-.15,16.4-2.95,18.89-5.66a2.71,2.71,0,0,0,.88-1.75l8.92-.61a11.2,11.2,0,0,1-3.22,8.41c-4.69,5.1-14.4,8.38-25.33,8.54-20.17.31-36-7.62-36.74-18.43a15.06,15.06,0,0,1,4.36-11.27c6.88-7.48,21.36-12.28,37.78-12.53,30.23-.45,53.79,10.91,54.85,26.46.38,5.5-1.75,10.94-6.16,15.73-10.3,11.2-32.22,18.39-57.21,18.77-.87,0-1.75,0-2.62,0-43.88,0-79-16.9-80.55-39-.54-7.89,2.57-15.74,9-22.71,15.64-17,49.2-27.93,87.57-28.52,69.17-1,125.1,24.69,127.41,58.6.79,11.62-3.83,23.25-13.36,33.61-24,26.08-75.73,42.85-135,43.75C259.17,241.05,257.09,241.07,255,241.07Z"/><path class="cls-2" d="M352,203.07c-48,0-93.62-8.52-128.95-24.17-37.85-16.77-59.65-39.89-61.37-65.1l8.92-.61c1.48,21.74,21.4,42.18,56.07,57.54,35.69,15.81,82.38,24.11,131.4,23.35,56.07-.85,106.54-16.89,128.59-40.86,7.95-8.64,11.65-17.7,11-26.95C495.79,98.07,441.59,75,379.36,76c-35.46.54-67.31,10.6-81.14,25.63-4.77,5.19-7,10.59-6.63,16.05,1.05,15.34,31.09,31.33,74.12,30.68,22.27-.34,42.2-6.58,50.76-15.89,2.75-3,4-6,3.83-9.07-.61-8.9-19.59-18.56-45.81-18.14-15.73.24-27.07,5-31.33,9.65a6.3,6.3,0,0,0-2,4.61c.3,4.29,11.26,10.33,27.69,10.11,9.59-.15,16.4-2.95,18.89-5.66a2.71,2.71,0,0,0,.88-1.75l8.92-.61a11.2,11.2,0,0,1-3.22,8.41c-4.69,5.1-14.4,8.38-25.33,8.54-20.21.31-36-7.62-36.74-18.43a15.06,15.06,0,0,1,4.36-11.27c6.88-7.48,21.36-12.28,37.78-12.53l1.76,0c29.37,0,52.05,11.24,53.09,26.48.38,5.5-1.75,10.94-6.16,15.73-10.3,11.2-32.22,18.39-57.21,18.77-45.14.7-81.63-16.44-83.17-39-.54-7.89,2.57-15.74,9-22.71,15.64-17,49.2-27.93,87.57-28.52,69.15-1,125.09,24.69,127.41,58.6.79,11.62-3.83,23.25-13.36,33.61-24,26.08-75.73,42.85-135,43.75C356.17,203.05,354.09,203.07,352,203.07Z"/><path class="cls-2" d="M323,237.07c-48,0-93.62-8.52-128.95-24.17-37.85-16.77-59.65-39.89-61.37-65.1l8.92-.61c1.48,21.74,21.4,42.18,56.07,57.54,35.69,15.81,82.36,24.1,131.4,23.35,56.07-.85,106.54-16.89,128.59-40.86,7.95-8.64,11.65-17.7,11-26.95C466.79,132.07,412.57,109,350.36,110c-35.46.54-67.31,10.6-81.14,25.63-4.77,5.19-7,10.59-6.63,16.05,1.05,15.34,31.06,31.33,74.12,30.68,22.27-.34,42.2-6.58,50.76-15.89,2.75-3,4-6,3.83-9.07-.61-8.9-19.57-18.55-45.81-18.14-15.73.24-27.07,5-31.33,9.65a6.3,6.3,0,0,0-2,4.61c.3,4.29,11.23,10.34,27.69,10.11,9.59-.15,16.4-2.95,18.89-5.66a2.71,2.71,0,0,0,.88-1.75l8.92-.61a11.2,11.2,0,0,1-3.22,8.41c-4.69,5.1-14.4,8.38-25.33,8.54-20.17.31-36-7.62-36.74-18.43a15.06,15.06,0,0,1,4.36-11.27c6.88-7.48,21.36-12.28,37.78-12.53,30.22-.45,53.79,10.91,54.85,26.46.38,5.5-1.75,10.94-6.16,15.73-10.3,11.2-32.22,18.39-57.21,18.77-45.14.7-81.63-16.44-83.17-39-.54-7.89,2.57-15.74,9-22.71,15.64-17,49.2-27.93,87.57-28.52,69.17-1,125.1,24.69,127.41,58.6.79,11.62-3.83,23.25-13.36,33.61-24,26.08-75.73,42.85-135,43.75C327.17,237.05,325.09,237.07,323,237.07Z"/><path class="cls-2" d="M352,237.07c-48,0-93.62-8.52-128.95-24.17-37.85-16.77-59.65-39.89-61.37-65.1l8.92-.61c1.48,21.74,21.4,42.18,56.07,57.54,35.69,15.81,82.37,24.1,131.4,23.35,56.07-.85,106.54-16.89,128.59-40.86,7.95-8.64,11.65-17.7,11-26.95C495.79,132.07,441.59,109,379.36,110c-35.46.54-67.31,10.6-81.14,25.63-4.77,5.19-7,10.59-6.63,16.05,1.05,15.34,31.06,31.33,74.12,30.68,22.27-.34,42.2-6.58,50.76-15.89,2.75-3,4-6,3.83-9.07-.61-8.9-19.59-18.55-45.81-18.14-15.73.24-27.07,5-31.33,9.65a6.3,6.3,0,0,0-2,4.61c.3,4.29,11.26,10.34,27.69,10.11,9.59-.15,16.4-2.95,18.89-5.66a2.71,2.71,0,0,0,.88-1.75l8.92-.61a11.2,11.2,0,0,1-3.22,8.41c-4.69,5.1-14.4,8.38-25.33,8.54-20.21.31-36-7.62-36.74-18.43a15.06,15.06,0,0,1,4.36-11.27c6.88-7.48,21.36-12.28,37.78-12.53l1.76,0c29.37,0,52.05,11.24,53.09,26.48.38,5.5-1.75,10.94-6.16,15.73-10.3,11.2-32.22,18.39-57.21,18.77-45.14.7-81.63-16.44-83.17-39-.54-7.89,2.57-15.74,9-22.71,15.64-17,49.2-27.93,87.57-28.52,69.15-1,125.09,24.69,127.41,58.6.79,11.62-3.83,23.25-13.36,33.61-24,26.08-75.73,42.85-135,43.75C356.17,237.05,354.09,237.07,352,237.07Z"/><path class="cls-2" d="M195,237.07c-48.05,0-93.62-8.52-128.95-24.17C28.23,196.13,6.43,173,4.71,147.8l8.92-.61c1.48,21.74,21.4,42.18,56.07,57.54,35.69,15.81,82.37,24.1,131.4,23.35,56.07-.85,106.54-16.89,128.59-40.86,7.95-8.64,11.65-17.7,11-26.95C338.79,132.07,284.58,109,222.36,110c-35.46.54-67.31,10.6-81.14,25.63-4.77,5.19-7,10.59-6.63,16.05,1,15.34,31,31.33,74.12,30.68,22.27-.34,42.2-6.58,50.76-15.89,2.75-3,4-6,3.83-9.07-.61-8.9-19.57-18.55-45.81-18.14-15.73.24-27.07,5-31.33,9.65a6.3,6.3,0,0,0-2,4.61c.3,4.29,11.27,10.34,27.69,10.11,9.59-.15,16.4-2.95,18.89-5.66a2.71,2.71,0,0,0,.88-1.75l8.92-.61a11.2,11.2,0,0,1-3.22,8.41c-4.69,5.1-14.4,8.38-25.33,8.54-20.18.31-36-7.62-36.74-18.43a15.06,15.06,0,0,1,4.36-11.27c6.88-7.48,21.36-12.28,37.78-12.53,30.23-.45,53.79,10.91,54.85,26.46.38,5.5-1.75,10.94-6.16,15.73-10.3,11.2-32.22,18.39-57.21,18.77-.87,0-1.75,0-2.62,0-43.88,0-79-16.9-80.55-39-.54-7.89,2.57-15.74,9-22.71,15.64-17,49.2-27.93,87.57-28.52,69.17-1,125.1,24.69,127.41,58.6.79,11.62-3.83,23.25-13.36,33.61-24,26.08-75.73,42.85-135,43.75C199.17,237.05,197.09,237.07,195,237.07Z"/><path class="cls-2" d="M302,221.07c-48,0-93.62-8.52-128.95-24.17-37.85-16.77-59.65-39.89-61.37-65.1l8.92-.61c1.48,21.74,21.4,42.18,56.07,57.54,35.69,15.81,82.37,24.11,131.4,23.35,56.07-.85,106.54-16.89,128.59-40.86,7.95-8.64,11.65-17.7,11-26.95C445.79,116.07,391.58,93,329.36,94c-35.46.54-67.31,10.6-81.14,25.63-4.77,5.19-7,10.59-6.63,16.05,1,15.34,31.09,31.33,74.12,30.68,22.27-.34,42.2-6.58,50.76-15.89,2.75-3,4-6,3.83-9.07-.61-8.9-19.58-18.56-45.81-18.14-15.73.24-27.07,5-31.33,9.65a6.3,6.3,0,0,0-2,4.61c.3,4.29,11.24,10.34,27.69,10.11,9.59-.15,16.4-2.95,18.89-5.66a2.71,2.71,0,0,0,.88-1.75l8.92-.61a11.2,11.2,0,0,1-3.22,8.41c-4.69,5.1-14.4,8.38-25.33,8.54-20.2.32-36-7.62-36.74-18.43a15.06,15.06,0,0,1,4.36-11.27c6.88-7.48,21.36-12.28,37.78-12.53,30.22-.45,53.79,10.91,54.85,26.46.38,5.5-1.75,10.94-6.16,15.73-10.3,11.2-32.22,18.39-57.21,18.77-45.13.69-81.63-16.44-83.17-39-.54-7.89,2.57-15.74,9-22.71,15.64-17,49.2-27.93,87.57-28.52,69.13-1,125.09,24.69,127.41,58.6.79,11.62-3.83,23.25-13.36,33.61-24,26.08-75.73,42.85-135,43.75C306.17,221.05,304.09,221.07,302,221.07Z"/><path d="M448.79,35.15C399.32,12.48,333.7,0,264,0S128.68,12.48,79.21,35.15C28.13,58.56,0,90.29,0,124.5a61.87,61.87,0,0,0,.75,9.62C9,255.67,123.61,352,263.75,352c138.54,0,252.1-94.13,262.69-213.71A62.77,62.77,0,0,0,528,124.5C528,90.29,499.87,58.56,448.79,35.15ZM264.25,239.52c-138.61,0-251-51.49-251-115,0-1.51.09-3,.21-4.51h-.26a52,52,0,0,1,2.87-12.76C34.27,51.92,138.45,9.5,264.25,9.5c138.61,0,251,51.49,251,115S402.86,239.52,264.25,239.52Z"/><path class="cls-3" d="M368.75,127a10.2,10.2,0,0,1-12,8,8.16,8.16,0,0,1-6.4-9.6,6.53,6.53,0,0,1,7.68-5.12,5.23,5.23,0,0,1,4.1,6.14,4.18,4.18,0,0,1-4.92,3.28,3.34,3.34,0,0,1-2.62-3.93,2.68,2.68,0,0,1,3.15-2.1,2.14,2.14,0,0,1,1.67,2.52,1.7,1.7,0,0,1-2,1.34,1.37,1.37,0,0,1-1.07-1.61"/><path class="cls-3" d="M186.75,159a10.2,10.2,0,0,1-12,8,8.16,8.16,0,0,1-6.4-9.6,6.53,6.53,0,0,1,7.68-5.12,5.23,5.23,0,0,1,4.1,6.14,4.18,4.18,0,0,1-4.92,3.28,3.34,3.34,0,0,1-2.62-3.93,2.68,2.68,0,0,1,3.15-2.1,2.14,2.14,0,0,1,1.67,2.52,1.7,1.7,0,0,1-2,1.34,1.37,1.37,0,0,1-1.07-1.61"/><path class="cls-3" d="M252.75,104a10.2,10.2,0,0,1-12,8,8.16,8.16,0,0,1-6.4-9.6A6.53,6.53,0,0,1,242,97.28a5.23,5.23,0,0,1,4.1,6.14,4.18,4.18,0,0,1-4.92,3.28,3.34,3.34,0,0,1-2.62-3.93,2.68,2.68,0,0,1,3.15-2.1,2.14,2.14,0,0,1,1.67,2.52,1.7,1.7,0,0,1-2,1.34,1.37,1.37,0,0,1-1.07-1.61"/><path class="cls-3" d="M308.75,193a10.2,10.2,0,0,1-12,8,8.16,8.16,0,0,1-6.4-9.6,6.53,6.53,0,0,1,7.68-5.12,5.23,5.23,0,0,1,4.1,6.14,4.18,4.18,0,0,1-4.92,3.28,3.34,3.34,0,0,1-2.62-3.93,2.68,2.68,0,0,1,3.15-2.1,2.14,2.14,0,0,1,1.67,2.52,1.7,1.7,0,0,1-2,1.34,1.37,1.37,0,0,1-1.07-1.61"/><path class="cls-3" d="M293.75,142a10.2,10.2,0,0,1-12,8,8.16,8.16,0,0,1-6.4-9.6,6.53,6.53,0,0,1,7.68-5.12,5.23,5.23,0,0,1,4.1,6.14,4.18,4.18,0,0,1-4.92,3.28,3.34,3.34,0,0,1-2.62-3.93,2.68,2.68,0,0,1,3.15-2.1,2.14,2.14,0,0,1,1.67,2.52,1.7,1.7,0,0,1-2,1.34,1.37,1.37,0,0,1-1.07-1.61"/></g></g></g></svg>