<?xml version="1.0" encoding="utf-8"?>
<!-- Generator: Adobe Illustrator 22.0.1, SVG Export Plug-In . SVG Version: 6.00 Build 0)  -->
<svg version="1.1" id="Layer_1" xmlns="http://www.w3.org/2000/svg" xmlns:xlink="http://www.w3.org/1999/xlink" x="0px" y="0px"
	 viewBox="0 0 537.7 816.1" style="enable-background:new 0 0 537.7 816.1;" xml:space="preserve">
<style type="text/css">
	.st0{fill:none;}
	.st1{fill:#73B095;}
	.st2{fill:#9DC2A0;}
	.st3{fill:#237C7A;}
	.st4{fill:#3FA49B;}
</style>
<title>Layer 40</title>
<polygon class="st0" points="349.6,23.4 352.2,23.4 352.7,26 "/>
<polygon class="st0" points="464.9,131.8 464.9,131.8 462.9,133.5 460.7,146.5 460.7,135.4 "/>
<polygon class="st0" points="482.5,70.2 482.5,70.2 480.7,70.2 480.7,68.6 482.6,70.2 482.5,70.2 "/>
<polygon class="st0" points="401.7,1.6 404.8,19.5 401.7,22.1 "/>
<polygon class="st0" points="110.1,70.2 110,70.2 110,70.2 107.5,70.2 108.8,69.1 110.1,70.2 "/>
<polygon class="st0" points="135.6,46.8 135.5,46.8 135.5,46.8 135.4,46.8 136.8,45.7 138.1,46.8 "/>
<polygon class="st0" points="348.7,2.8 351.6,19.5 348.7,22 "/>
<polygon class="st0" points="207.7,431.7 222.4,419.2 228.5,384 228.7,384.9 228.7,523.8 207.7,506.2 "/>
<polygon class="st0" points="69.9,268.5 62.7,274.6 62.7,231 81,246.4 80.4,242.9 94.7,242.9 94.7,268.5 "/>
<polygon class="st0" points="112.7,268.5 112.7,268.5 112.7,268.5 "/>
<polygon class="st0" points="108.8,268.5 107.7,268.5 107.7,242 112.7,237.8 112.7,245.8 "/>
<polygon class="st0" points="366.7,635.4 366.7,635.5 363,632.3 "/>
<polygon class="st0" points="135.7,512.6 125.7,521 125.7,292 135.7,292 "/>
<polygon class="st0" points="248.8,400.5 245,397.3 256.4,407 256.7,407 256.7,410.7 254,413 256.7,413 256.7,595.1 241.7,607.7 
	241.7,425.2 255,436.4 "/>
<polygon class="st0" points="194.7,517.6 194.7,517.6 192,515.3 "/>
<rect x="181.7" y="407" class="st0" width="13" height="94.6"/>
<polygon class="st0" points="436.7,61.9 438.3,60.6 436.7,61.9 "/>
<polygon class="st0" points="462.4,40.4 461.3,46.8 460.7,46.8 460.7,41.8 464.4,38.7 464.4,38.7 "/>
<polygon class="st0" points="439.7,294.3 439.7,579.5 436.7,577 436.7,291.8 "/>
<polygon class="st0" points="379.7,50.8 379.7,48.9 388.7,41.3 388.7,58.4 "/>
<polygon class="st0" points="323,45.8 319.8,43 319.7,42.7 323,23.8 324.9,35 "/>
<polygon class="st0" points="154.8,236.5 151,233.3 157.7,238.9 157.7,253.4 "/>
<path class="st0" d="M403.4,571.5h-1.7V283.9l6.7-5.7l2.3-13.1v306.4H403.4z"/>
<polygon class="st0" points="401.7,69 401.7,23.4 402.8,23.4 405.5,23.4 407.6,35.7 410.7,38.3 410.7,61.4 "/>
<polygon class="st0" points="135.7,279 125.7,270.7 125.7,257.5 128.4,255.2 134.5,220 135.7,226.7 "/>
<polygon class="st0" points="157.7,501.5 148.9,501.5 148.7,501.7 148.7,292 151.1,292 148.7,290 148.7,262 157.7,269.6 "/>
<polygon class="st0" points="273.7,603.2 273.7,603.2 273.3,603.5 272.7,607.1 272.7,604 "/>
<polygon class="st0" points="366,618.5 359.7,618.5 359.7,613.2 "/>
<polygon class="st0" points="383.7,618.8 383.7,627.4 379.7,624 379.7,622.2 "/>
<polygon class="st0" points="321.4,610 322.6,610 321.1,618.5 319.9,618.5 319.7,618.7 319.7,608.5 "/>
<polygon class="st0" points="328.7,618.5 327,618.5 328.7,617.1 "/>
<polygon class="st0" points="480.7,93.1 480.7,81.9 482.6,70.7 487.3,97.7 481.9,93.1 "/>
<polygon class="st0" points="366.7,666.1 366.7,816.1 359.7,816.1 359.7,660.2 "/>
<rect x="436.7" y="595" class="st0" width="3" height="221.1"/>
<rect x="379.7" y="642" class="st0" width="4" height="174.1"/>
<polygon class="st0" points="403.5,572 409.6,607.2 410.7,608.1 410.7,816.1 401.7,816.1 401.7,582.6 "/>
<rect x="460.7" y="266" class="st0" width="7" height="550.1"/>
<polygon class="st0" points="483,116.5 483,116.5 480.7,116.5 480.7,114.5 483.1,116.5 483.1,116.5 "/>
<polygon class="st0" points="460.7,166.1 467.7,160.1 467.7,264.8 460.7,258.9 "/>
<polygon class="st0" points="287.4,622.2 292.1,595 294.9,595 299.6,622.2 306.7,628.2 306.7,629.6 292,642 306.7,642 306.7,816.1 
	286.7,816.1 286.7,622.8 "/>
<rect x="207.7" y="525" class="st0" width="21" height="291.1"/>
<polygon class="st0" points="328.7,633.5 328.7,633.5 326.3,635.5 320.1,671.4 328.7,664.1 328.7,816.1 319.7,816.1 319.7,641 "/>
<polygon class="st0" points="157.7,516.5 157.7,516.5 155.3,518.5 149.1,554.4 157.7,547.1 157.7,816.1 148.7,816.1 148.7,524 "/>
<rect x="125.7" y="525" class="st0" width="10" height="291.1"/>
<polygon class="st0" points="216.6,45.7 216.6,45.7 213.4,43 213.3,42.7 216.6,23.8 218.5,35 "/>
<rect x="241.7" y="610" class="st0" width="15" height="206.1"/>
<polygon class="st0" points="273.7,633.8 273.7,816.1 272.7,816.1 272.7,634.7 "/>
<polygon class="st0" points="241.8,22.3 241.7,22.2 241.7,1.4 241.8,0.4 245.2,19.5 "/>
<polygon class="st0" points="88.8,46.8 82.3,46.8 82.3,46.8 82.3,46.8 82.2,46.8 93.7,37.2 89.9,40.4 "/>
<polygon class="st0" points="187.3,23.4 184.6,23.4 188.6,0.4 191.9,19.5 "/>
<polygon class="st0" points="170.7,15.1 172.2,13.8 170.7,15.1 "/>
<polygon class="st0" points="108.8,46.8 108.8,46.8 106.2,46.8 110.2,23.8 113.5,43 "/>
<polygon class="st0" points="135.7,117.9 135.7,117.9 133.7,106.5 135.7,95.1 "/>
<polygon class="st0" points="112.1,81.8 110.2,92.5 109.5,93.1 109.3,93.1 107.8,94.4 106.9,89.5 110.2,70.7 "/>
<polygon class="st0" points="85.4,66.5 80.9,70.2 83.5,70.2 77.3,75.4 82.2,47.3 85.5,66.1 "/>
<polygon class="st0" points="295.1,22.3 291.8,19.5 295.1,0.4 298.4,19.5 "/>
<polygon class="st0" points="433.4,23.4 429.5,45.7 428.1,46.8 428.1,46.8 427,47.7 423.7,28.4 423.7,23.4 426.8,23.4 428.1,22.3 
	429.4,23.4 "/>
<polygon class="st0" points="380.1,23.4 378.5,33.1 371.3,33.1 369.6,23.4 373.6,23.4 374.9,22.3 376.2,23.4 "/>
<polygon class="st0" points="482.5,23.4 482.5,23.4 480.7,23.4 480.7,21.8 482.6,23.4 482.5,23.4 "/>
<polygon class="st0" points="480.7,46.8 480.7,35 482.6,23.8 487.5,52 481.3,46.8 "/>
<polygon class="st0" points="157.7,219.5 148.7,219.5 148.7,159.9 157.7,152.3 "/>
<polygon class="st0" points="216.5,23.4 216.5,23.4 216.4,23.4 213.9,23.4 215.2,22.3 216.6,23.4 "/>
<polygon class="st0" points="322.9,23.4 322.9,23.4 322.9,23.4 320.4,23.4 321.7,22.3 323,23.4 "/>
<polygon class="st0" points="194.7,548.2 194.7,816.1 181.7,816.1 181.7,537.3 "/>
<path class="st0" d="M348.9,93.1h-0.2v-1.3l1.6,1.3C350.3,93.1,348.9,93.1,348.9,93.1z"/>
<polygon class="st0" points="350,169.4 348.7,162 348.7,139.9 348.8,139.9 350.1,138.8 351.4,139.9 355.4,139.9 350.3,169.4 
	366.7,155.6 366.7,260.3 360,266 366.7,266 366.7,355.3 362.1,351.5 348.7,351.5 348.7,168.3 "/>
<polygon class="st0" points="305.3,131.8 305.3,131.8 303.3,133.5 297.1,169.4 306.7,161.3 306.7,353.4 286.7,370.2 286.7,139.9 
	295.6,139.9 "/>
<polygon class="st0" points="273.7,70.4 272.7,76.2 272.7,70.2 273.7,70.2 "/>
<polygon class="st0" points="243.2,70.2 244.4,70.2 244.2,71.1 "/>
<polygon class="st0" points="218.5,81.8 216.6,92.6 213.3,89.8 216.6,70.7 "/>
<polygon class="st0" points="273.7,119.8 272.7,125.6 272.7,112.3 273.7,111.5 "/>
<polygon class="st0" points="245,66.5 241.8,69.2 241.7,68.6 241.7,48.2 241.8,47.3 245.1,66.1 "/>
<polygon class="st0" points="322.9,70.2 322.9,70.2 322.9,70.2 320.4,70.2 321.7,69.1 323,70.2 "/>
<polygon class="st0" points="349.6,70.2 348.7,69.5 348.7,49.7 352.7,72.8 349.6,70.2 "/>
<polygon class="st0" points="402,115.4 401.7,115.2 401.7,95.4 402,93.6 405.3,112.7 "/>
<polygon class="st0" points="298.2,66.5 295.1,69.1 295,69.1 293.1,58.4 295.1,47.3 298.3,66.1 "/>
<polygon class="st0" points="222.8,62.8 222.8,62.8 224.9,61 224.9,61 "/>
<polygon class="st0" points="298.6,111.1 298.3,113.2 294.3,116.5 296.9,116.5 290.7,121.7 295.6,93.6 "/>
<polygon class="st0" points="244.5,93.7 256.7,93.7 256.7,103.4 241.8,115.9 241.7,115.4 241.7,91.3 "/>
<polygon class="st0" points="328.7,406.5 325,403.3 328.7,406.4 "/>
<polygon class="st0" points="208.3,400.5 207.7,404.1 207.7,401 212.1,397.3 "/>
<polygon class="st0" points="424.4,49.9 423.7,50.5 423.7,49.3 "/>
<polygon class="st0" points="406.4,119.1 403.4,116.5 406,116.5 "/>
<polygon class="st0" points="403.2,169.4 401.7,160.8 401.7,137.4 404.7,139.9 410.7,139.9 410.7,242.5 401.7,242.5 401.7,168.1 "/>
<polygon class="st0" points="131.1,121.7 131.6,118.9 133,120.1 "/>
<polygon class="st0" points="53.6,199.1 54.5,194 55.4,199.1 "/>
<polygon class="st0" points="292.2,594.8 293.5,587 294.5,592.8 "/>
<polygon class="st0" points="292.7,73.3 290.2,75.4 290.8,71.7 "/>
<polygon class="st0" points="323,93.1 322.2,93.1 322.2,93.1 320.4,93.1 319.7,89.5 323,70.7 324.9,81.8 "/>
<polygon class="st0" points="302.8,87.2 301.7,93.1 295.7,93.1 295.7,93.1 304.7,85.5 304.8,85.6 "/>
<polygon class="st0" points="328.7,389.5 326.7,389.5 328.7,387.9 "/>
<polygon class="st0" points="348.7,115.3 348.7,94.2 348.8,93.6 352.1,112.7 348.8,115.4 "/>
<polygon class="st0" points="323.4,116.5 323.4,116.5 320.9,116.5 322.2,115.4 323.5,116.5 323.5,116.5 "/>
<polygon class="st0" points="295.2,70.2 296.4,70.2 295.3,71.1 "/>
<polygon class="st0" points="322,146 320.3,135.8 323.5,117 325.5,128.1 323.6,138.8 322.2,139.9 323.4,139.9 322.4,146 
	327.8,141.4 328.7,146.7 328.7,351.5 319.7,351.5 319.7,144 "/>
<polygon class="st0" points="243.6,169.4 241.7,158.6 241.7,137.1 245,139.9 256.7,139.9 256.7,384.8 255.1,383.5 241.7,383.5 
	241.7,167.8 "/>
<polygon class="st0" points="436.7,261.1 439.7,263.6 439.7,288 436.7,270.7 "/>
<rect x="436.7" y="139.9" class="st0" width="3" height="102.6"/>
<rect x="379.7" y="70.2" class="st0" width="9" height="22.9"/>
<polygon class="st0" points="242,46.8 242,46.8 241.9,46.8 241.9,46.8 243.2,45.7 244.5,46.8 "/>
<polygon class="st0" points="295.2,46.8 295.2,46.8 295.1,46.8 295.1,46.8 296.4,45.7 297.7,46.8 "/>
<polygon class="st0" points="348.7,45 350.9,46.8 348.7,46.8 "/>
<polygon class="st0" points="364.7,60.6 366.7,62.3 366.7,62.3 "/>
<path class="st0" d="M402.1,93.1h-0.5V70.2h9v22.9H402.1z"/>
<path class="st0" d="M228.4,383.5h-20.7V155l3.3-2.8l2.1-12.2h5.3l-4.6-3.9l3.3-19.1l6.1,35.3l5.5,4.6v226.6H228.4z"/>
<polygon class="st0" points="181.7,236.8 181.7,162.1 190.3,169.4 185.2,139.9 189.2,139.9 190.5,138.8 191.8,139.9 194.7,139.9 
	194.7,146.1 190.7,169.4 194.7,166 194.7,389.6 181.7,400.5 181.7,242.9 189.1,242.9 "/>
<polygon class="st0" points="157.7,111.3 157.7,116.5 157.3,116.5 156.2,110.1 154.2,108.5 154.3,108.5 "/>
<polygon class="st0" points="379.7,609.4 379.7,595 382.2,595 "/>
<polygon class="st0" points="350.3,593.8 349,595 350.5,595 351,598.1 348.7,598.1 348.7,584.4 "/>
<rect x="272.7" y="413" class="st0" width="1" height="173.6"/>
<path class="st0" d="M302.4,425.2l4.3-24.7v182l-4.7,4h-15.3v-148L302.4,425.2z"/>
<polygon class="st0" points="379.7,249.4 379.7,142.5 381,141.4 382.9,152.2 388.7,157.2 388.7,242.5 387.9,242.5 "/>
<polygon class="st0" points="273.7,396.4 272.7,397.3 272.7,143 273.7,142.1 "/>
<polygon class="st0" points="133.9,60.8 133.5,58.4 135.4,47.3 137.3,58 "/>
<path class="st0" d="M217,116.5h-9.3v-8.2l2.8-2.3l2.1-12.3h3.9l-1,6l5.4-4.6l1.9,10.8l6,5.1v5.5L217,116.5L217,116.5z"/>
<polygon class="st0" points="328.7,571.5 319.9,571.5 319.7,571.7 319.7,429.5 328.7,437.1 "/>
<polygon class="st0" points="363,413 348.7,400.9 348.7,393.2 362,404.4 355.8,368.5 352,365.3 363.4,375 366.7,375 366.7,571.5 
	348.7,571.5 348.7,413 "/>
<polygon class="st0" points="184.7,93.7 188.6,93.7 190,92.6 191.3,93.7 194.7,93.7 194.7,96.8 191.3,116.5 190.5,116.5 
	190.5,116.5 188.4,114.8 "/>
<rect x="286.7" y="375" class="st0" width="20" height="14.6"/>
<polygon class="st0" points="256.7,127.4 243.7,116.5 256.7,116.5 "/>
<rect x="379.7" y="375" class="st0" width="9" height="196.6"/>
<polygon class="st0" points="156.3,67.6 155.8,64.8 156.3,64.3 156.8,64.8 "/>
<polygon class="st0" points="288.3,406.5 286.7,415.8 286.7,407.9 292.1,403.3 "/>
<polygon class="st0" points="328.7,586.5 326.3,588.5 325.8,591.3 324.4,590.1 328.7,586.5 "/>
<polygon class="st0" points="214,46.8 215.2,46.8 214.2,47.7 "/>
<polygon class="st0" points="460.7,88.6 464.4,85.5 464.4,85.6 462.4,87.2 461.4,93.1 460.7,93.1 "/>
<polygon class="st0" points="379.7,266 386.6,266 388.7,264.2 388.7,291.9 388.1,295.4 388.7,294.9 388.7,373.8 379.7,366.2 "/>
<polygon class="st0" points="188.6,46.8 190,45.7 191.3,46.8 "/>
<polygon class="st0" points="112.7,312.7 112.7,816.1 107.7,816.1 107.7,308.5 "/>
<polygon class="st0" points="68.6,292 80.1,282.3 76.3,285.5 70.1,321.4 90.4,304.2 94.7,279.6 94.7,816.1 62.7,816.1 62.7,292 "/>
<rect x="383.7" y="642" class="st1" width="5" height="174.1"/>
<polygon class="st1" points="388.7,614.6 388.7,631.6 383.7,627.4 383.7,618.8 "/>
<rect x="49.7" y="292" class="st1" width="13" height="524.1"/>
<polygon class="st1" points="55.4,199.1 60.6,229.2 62.7,231 62.7,274.6 49.7,285.5 49.7,221.9 53.6,199.1 "/>
<path class="st1" d="M307.6,375l11.5-9.6l-3.8,3.2l-3.6,21h-5V375H307.6z"/>
<polygon class="st1" points="319.7,618.7 316.8,621.1 313.8,603.5 310,600.3 319.7,608.5 "/>
<polygon class="st1" points="318.6,642 319.7,641 319.7,816.1 306.7,816.1 306.7,642 "/>
<polygon class="st1" points="319,143.4 319.7,144 319.7,351.5 308.9,351.5 306.7,353.4 306.7,161.3 317.4,152.2 "/>
<polygon class="st1" points="306.7,629.6 306.7,628.2 307.5,628.9 "/>
<polygon class="st1" points="310,398.8 309.1,404.4 310.8,403 314.6,425.2 319.7,429.5 319.7,571.7 306.7,582.6 306.7,400.6 
	308.5,390 "/>
<polygon class="st1" points="145.6,131.8 145.6,131.8 143.7,133.5 137.4,169.4 148.7,159.9 148.7,219.5 135.7,219.5 135.7,139.9 
	136,139.9 "/>
<polygon class="st1" points="148.7,501.7 135.7,512.6 135.7,292 148.7,292 "/>
<polygon class="st1" points="135.9,93.6 139,111.1 138.1,116.5 137.3,116.5 135.7,117.9 135.7,95.1 "/>
<polygon class="st1" points="135.7,279 135.7,226.7 140.6,255.2 148.7,262 148.7,290 "/>
<polygon class="st1" points="147.6,525 148.7,524 148.7,816.1 135.7,816.1 135.7,525 "/>
<polygon class="st1" points="136.1,93.1 136.1,93.1 136.8,92.6 137.4,93.1 "/>
<polygon class="st1" points="433.9,116.5 430,138.8 430,138.8 426.8,136.2 423.7,118.4 423.7,116.5 427.3,116.5 428.6,115.4 
	429.9,116.5 "/>
<polygon class="st1" points="434.5,63.8 429.5,92.5 428.7,93.1 428.6,93.1 428.6,93.1 423.7,93.1 423.7,70.2 426.8,70.2 436.7,61.9 
	436.7,61.9 "/>
<polygon class="st1" points="436.7,291.8 436.7,577 430.1,571.5 423.7,571.5 423.7,280.8 "/>
<polygon class="st1" points="423.7,619.1 430,624.4 423.8,588.5 423.7,588.5 423.7,588.4 431.4,595 436.7,595 436.7,816.1 
	423.7,816.1 "/>
<polygon class="st1" points="436.7,270.7 434.8,259.5 431,256.3 436.7,261.1 "/>
<polygon class="st1" points="423.7,142 428.5,146 427.4,139.9 428.6,139.9 429.8,139.9 428.8,146 435.9,139.9 436.7,139.9 
	436.7,242.5 423.7,242.5 "/>
<g>
	<polygon class="st2" points="134.4,219.5 134.4,219.5 107.9,219.5 80.3,242.7 80.4,243 94.7,243 106.6,243 107.7,242 112.7,237.8 
		118.1,233.3 125.7,226.9 	"/>
	<polygon class="st2" points="319.7,364.8 328.7,357.2 335.4,351.5 335.4,351.5 328.7,351.5 319.7,351.5 308.9,351.5 306.7,353.4 
		286.7,370.2 281,375 286.7,375 306.7,375 307.6,375 319.1,365.3 	"/>
	<polygon class="st2" points="410.7,242.5 401.7,242.5 388.7,242.5 387.9,242.5 379.7,249.4 366.7,260.3 360,266 366.7,266 
		379.7,266 386.6,266 388.7,264.2 398.1,256.3 401.7,253.3 410.7,245.7 414.4,242.5 414.4,242.5 	"/>
	<polygon class="st2" points="170.7,501.5 168.7,501.5 157.7,501.5 148.9,501.5 148.7,501.7 135.7,512.6 125.7,521 121,525 
		125.7,525 135.7,525 147.6,525 148.7,524 157.7,516.5 159.1,515.3 168.7,507.2 170.7,505.5 175.4,501.5 175.4,501.5 	"/>
	<polygon class="st2" points="207.7,383.5 201.9,383.5 194.7,389.6 181.7,400.5 174,407 181.7,407 194.7,407 200.6,407 207.7,401 
		212.1,397.3 228.4,383.5 228.4,383.5 	"/>
	<polygon class="st2" points="94.7,268.5 69.9,268.5 62.7,274.6 49.7,285.5 42,292 49.7,292 62.7,292 68.6,292 80.1,282.3 94.7,270 
		96.4,268.5 96.4,268.5 	"/>
	<polygon class="st2" points="54.4,193.5 27.9,193.5 0,217 26.6,217 38.1,207.3 54.4,193.5 	"/>
	<polygon class="st2" points="308.4,389.5 308.4,389.5 306.7,389.5 286.7,389.5 281.9,389.5 273.7,396.4 272.7,397.3 272.1,397.8 
		269.7,399.8 261.2,407 259.7,408.2 256.7,410.7 254,413 256.7,413 259.7,413 269.7,413 272.7,413 273.7,413 280.6,413 286.7,407.8 
		292.1,403.3 306.7,391 	"/>
	<polygon class="st2" points="401.7,571.5 388.7,571.5 379.7,571.5 376.9,571.5 375,573.1 379.7,577 388.3,584.3 388.7,584 
		401.7,573 403.4,571.5 403.4,571.5 	"/>
	<polygon class="st2" points="349,595 350.5,595 350.3,593.8 	"/>
	<polygon class="st2" points="363,585.3 366.7,588.5 366.8,588.5 367.9,595 374.4,595 366.7,588.4 	"/>
	<polygon class="st2" points="345.7,618.5 341.7,618.5 335.7,618.5 328.7,618.5 327,618.5 320.1,624.4 321.1,618.5 319.9,618.5 
		319.7,618.7 316.8,621.1 319.7,637.8 320,639.4 319.7,639.2 307.5,628.9 306.7,629.6 292,642 306.7,642 318.6,642 319.7,641 
		328.7,633.5 330.1,632.3 335.7,627.6 341.7,622.5 345.7,619.2 346.4,618.5 346.4,618.5 	"/>
	<polygon class="st2" points="292.1,595 294.9,595 294.5,592.8 292.2,594.8 	"/>
	<polygon class="st2" points="341.7,571.5 335.7,571.5 328.7,571.5 319.9,571.5 319.7,571.7 306.7,582.6 302,586.5 306.7,586.5 
		319.7,586.5 320.2,586.5 324.4,590.1 328.7,586.5 330.1,585.3 335.7,580.6 341.7,575.5 346.4,571.5 346.4,571.5 	"/>
	<polygon class="st2" points="293.4,586.5 286.7,586.5 273.7,586.5 272.7,586.5 269.7,586.5 266.9,586.5 259.7,592.6 256.7,595.1 
		241.7,607.7 239,610 241.7,610 256.7,610 259.7,610 265.6,610 269.7,606.5 272.7,604 273.7,603.2 277.1,600.3 286.7,592.2 
		293.4,586.5 	"/>
	<polygon class="st2" points="460.7,5 467.7,10.9 471.1,13.8 480.7,21.8 482.6,23.4 482.6,23.4 482.7,23.4 482.7,23.4 483,23.4 
		509.2,23.4 481.3,0 454.8,0 454.8,0 454.9,0.1 	"/>
	<polygon class="st2" points="414.8,11.1 417.9,13.8 423.7,18.6 428.1,22.3 429.4,23.4 433.4,23.4 439.7,23.4 447.7,23.4 
		450.7,23.4 452.7,23.4 456,23.4 452.7,20.6 451.4,19.5 447.7,16.4 441.4,11.2 441.4,11.1 441.3,11.1 428.1,0 428.1,0 401.6,0 
		401.6,0 410.7,7.7 	"/>
	<polygon class="st2" points="348.7,0.3 361.6,11.1 364.7,13.8 374.9,22.3 376.2,23.4 380.1,23.4 388.7,23.4 397.5,23.4 400.2,23.4 
		401.7,23.4 402.8,23.4 401.7,22.5 401.5,22.3 398.2,19.5 388.7,11.6 388.2,11.2 388.2,11.1 374.9,0 374.9,0 348.4,0 348.4,0 
		348.5,0.1 	"/>
	<polygon class="st2" points="311.5,13.8 321.7,22.3 323,23.4 323,23.4 323.1,23.4 323.1,23.4 323.4,23.4 326.9,23.4 328.7,23.4 
		335.7,23.4 341.7,23.4 344.3,23.4 347,23.4 348.7,23.4 349.6,23.4 348.7,22.7 348.3,22.3 345,19.5 341.7,16.8 338.5,14.1 
		335.7,11.8 335,11.2 335,11.1 321.7,0 321.7,0 295.2,0 295.2,0 308.4,11.1 	"/>
	<polygon class="st2" points="258.3,13.8 259.7,15 268.5,22.3 269.8,23.4 269.8,23.4 269.9,23.4 269.9,23.4 270.2,23.4 272.7,23.4 
		273.7,23.4 273.7,23.4 286.7,23.4 291.1,23.4 293.7,23.4 296.4,23.4 295.1,22.3 291.8,19.5 286.7,15.3 281.8,11.2 281.8,11.1 
		273.7,4.4 268.5,0 268.4,0 242,0 242,0 255.2,11.1 	"/>
	<polygon class="st2" points="241.7,22.2 238.5,19.5 228.7,11.3 228.5,11.2 228.5,11.1 215.3,0 215.2,0 188.8,0 188.8,0 201.9,11.1 
		202,11.1 205.1,13.8 207.7,16 215.2,22.3 216.5,23.4 216.6,23.4 216.7,23.4 216.7,23.4 217,23.4 220.5,23.4 228.7,23.4 237.9,23.4 
		240.5,23.4 241.7,23.4 243.2,23.4 241.8,22.3 	"/>
	<polygon class="st2" points="82.1,46.8 82.1,46.8 82.2,46.8 82.2,46.8 93.7,37.2 110,23.4 110,23.4 83.5,23.4 55.6,46.8 81.8,46.8 
			"/>
	<polygon class="st2" points="131.5,46.8 135,46.8 135.3,46.8 135.4,46.8 135.4,46.8 135.4,46.8 136.8,45.7 146.9,37.2 150,34.5 
		157.7,28.1 163.2,23.4 163.2,23.4 160.7,23.4 157.7,23.4 136.8,23.4 136.7,23.4 123.5,34.5 123.5,34.6 113.5,43 108.8,46.8 
		114.1,46.8 	"/>
	<polygon class="st2" points="241.7,46.8 241.7,46.8 241.8,46.8 241.8,46.8 241.9,46.8 243.2,45.7 251.5,38.7 253.4,37.2 
		256.5,34.5 256.7,34.4 258.2,33.1 259.7,31.8 264,28.2 269.7,23.4 269.7,23.4 267.1,23.4 263.2,23.4 259.7,23.4 245.8,23.4 
		243.2,23.4 243.2,23.4 241.7,24.7 237,28.6 229.9,34.5 229.9,34.6 228.7,35.6 219.9,43 216.7,45.7 216.6,45.7 215.3,46.8 
		216.5,46.8 217.9,46.8 220.5,46.8 222.5,46.8 228.7,46.8 237.9,46.8 241.5,46.8 	"/>
	<polygon class="st2" points="286.7,31.5 283.1,34.5 283.1,34.6 273.7,42.5 273.1,43 272.7,43.3 269.9,45.7 269.8,45.7 269.7,45.8 
		268.5,46.8 269.7,46.8 269.7,46.8 271.1,46.8 272.7,46.8 273.7,46.8 273.8,46.8 275.8,46.8 286.7,46.8 291.1,46.8 294.7,46.8 
		294.9,46.8 295,46.8 295,46.8 295.1,46.8 296.4,45.7 304.7,38.7 306.6,37.2 309.7,34.5 317.2,28.2 322.9,23.4 322.9,23.4 
		320.4,23.4 316.4,23.4 299,23.4 296.4,23.4 296.4,23.4 290.2,28.6 	"/>
	<polygon class="st2" points="449.8,28.6 447.7,30.4 439.7,37.1 429.5,45.7 428.1,46.8 429.3,46.8 435.4,46.8 439.7,46.8 
		447.7,46.8 452.7,46.8 454.3,46.8 454.6,46.8 454.6,46.8 454.7,46.8 454.7,46.8 460.7,41.8 464.4,38.7 466.2,37.2 467.7,35.9 
		476.9,28.2 480.7,25 482.5,23.4 482.5,23.4 480.7,23.4 476,23.4 467.7,23.4 460.7,23.4 458.7,23.4 456,23.4 452.7,26.2 	"/>
	<polygon class="st2" points="481.3,46.8 480.7,46.8 480.1,46.8 478.6,46.8 474,46.8 467.7,46.8 461.3,46.8 460.7,46.8 454.8,46.8 
		454.8,46.8 460.5,51.6 460.7,51.8 467.7,57.7 471.1,60.6 472.9,62.1 480.7,68.6 482.6,70.2 482.6,70.2 482.7,70.2 482.7,70.2 
		483,70.2 501.9,70.2 508,70.2 509.2,70.2 507.8,69.1 487.5,52 	"/>
	<polygon class="st2" points="401.7,69.3 401.5,69.1 388.7,58.4 379.7,50.8 378.5,49.9 375.9,47.7 374.9,46.8 373.7,46.8 
		367.6,46.8 366.7,46.8 350.9,46.8 348.7,46.8 348.4,46.8 348.4,46.8 348.7,47.1 364.7,60.6 366.7,62.3 376.2,70.2 379.7,70.2 
		388.7,70.2 400.2,70.2 401.7,70.2 402.8,70.2 	"/>
	<polygon class="st2" points="348.7,69.5 348.2,69.1 345,66.4 341.7,63.6 335.7,58.6 335,58 335,58 328.7,52.7 327.9,52 325.3,49.9 
		322.7,47.7 321.7,46.8 321.7,46.8 320.5,46.8 319,46.8 314.4,46.8 301.7,46.8 297.7,46.8 295.2,46.8 295.2,46.8 300.8,51.6 
		308.4,58 311.5,60.6 313.3,62.1 321.7,69.1 323,70.2 323,70.2 323.1,70.2 323.1,70.2 323.4,70.2 326.9,70.2 328.7,70.2 335.7,70.2 
		341.7,70.2 342.3,70.2 344.3,70.2 348.4,70.2 348.7,70.2 349.6,70.2 	"/>
	<polygon class="st2" points="267.2,46.8 265.8,46.8 261.1,46.8 259.7,46.8 256.7,46.8 248.4,46.8 244.5,46.8 242,46.8 242,46.8 
		247.6,51.6 255.2,58 256.7,59.3 258.3,60.6 259.7,61.8 260.1,62.1 268.5,69.1 269.7,70.2 269.8,70.2 272.7,70.2 273.7,70.2 
		273.7,70.2 286.7,70.2 289.1,70.2 291.1,70.2 293.7,70.2 295.2,70.2 296.4,70.2 295.1,69.1 295,69.1 291.8,66.4 286.7,62.1 
		281.8,58 281.8,58 274.7,52 273.7,51.2 272.7,50.4 272.1,49.9 269.7,47.8 269.5,47.7 268.5,46.8 268.4,46.8 	"/>
	<polygon class="st2" points="222.8,62.8 222.8,62.8 211.5,53.2 209.5,51.6 207.7,50.1 203.8,46.8 195.2,46.8 194.7,46.8 
		191.3,46.8 188.7,46.8 190,45.7 194.7,41.8 198.3,38.7 200.2,37.2 203.3,34.5 207.7,30.8 210.8,28.2 216.5,23.4 216.4,23.4 
		213.9,23.4 210,23.4 207.7,23.4 194.7,23.4 192.6,23.4 190,23.4 190,23.4 183.8,28.6 178.4,33.1 176.7,34.5 176.7,34.6 170.7,39.6 
		168.7,41.2 166.7,43 163.4,45.7 163.4,45.7 162,46.8 163.2,46.8 164.7,46.8 167.3,46.8 168.7,46.8 169.3,46.8 170.7,46.8 
		176.8,46.8 177.1,46.8 177.1,46.8 177.2,46.8 177.2,46.8 177.3,46.8 177.3,46.8 181.7,50.5 186,54.1 192.9,60 193.6,60.6 
		194.7,61.5 196.2,62.8 201.2,66.9 205.1,70.2 198.5,70.2 197.3,70.2 194.7,70.2 191.2,70.2 190,70.2 190,70.2 188.9,71.1 
		186.3,73.3 182.3,76.7 181.7,77.2 176.7,81.4 176.7,81.4 170.7,86.4 168.7,88.1 166.7,89.8 163.4,92.5 162.6,93.2 162.6,93.1 
		160.7,93.1 159.5,93.1 158.5,93.1 157.7,93.1 154.1,93.1 151.9,93.1 148.7,93.1 142.1,93.1 137.4,93.1 136.1,93.1 136.1,93.1 
		141.3,97.6 148.7,103.8 152.4,106.9 154.3,108.5 157.7,111.3 163.9,116.5 163.9,116.5 164,116.5 164,116.5 164.3,116.5 
		168.7,116.5 170.7,116.5 181.7,116.5 182,116.5 188.7,116.5 190.5,116.5 188.4,114.8 181.7,109.2 170.7,99.9 168.7,98.2 168,97.7 
		163.2,93.7 164.7,93.7 167.3,93.7 168.7,93.7 170.7,93.7 181.7,93.7 184.7,93.7 188.7,93.7 190,92.5 192.6,90.4 194.7,88.6 
		200.2,84 200.8,83.4 203.3,81.4 207.7,77.6 216.5,70.2 216.5,70.2 216.5,70.2 216.6,70.2 216.7,70.2 216.7,70.2 217,70.2 
		220.5,70.2 228.7,70.2 231.7,70.2 228.7,67.7 	"/>
	<polygon class="st2" points="188.6,69.1 181.7,63.3 179.7,61.6 175.3,58 170.7,54.1 169.6,53.2 169.6,53.2 168.7,52.4 168.2,52 
		165.7,49.9 163.1,47.7 162,46.8 159.4,46.8 157.7,46.8 150.6,46.8 142,46.8 138.1,46.8 135.6,46.8 135.5,46.8 141.2,51.6 143,53.2 
		151.8,60.6 153.7,62.1 156.3,64.3 156.8,64.8 157.7,65.5 163.3,70.2 163.4,70.2 163.4,70.2 163.5,70.2 163.8,70.2 168.7,70.2 
		170.7,70.2 173.2,70.2 181.2,70.2 181.7,70.2 182.7,70.2 187.3,70.2 188.8,70.2 190,70.2 188.6,69.1 	"/>
	<polygon class="st2" points="132.1,66.4 129.7,64.3 122.1,58 122.1,58 115,52 108.8,46.8 108.8,46.8 106.2,46.8 88.8,46.8 
		82.3,46.8 82.3,46.8 88,51.6 95.5,58 98.6,60.6 100.5,62.1 108.8,69.1 110.1,70.2 110.2,70.2 110.2,70.2 110.3,70.2 110.5,70.2 
		114.1,70.2 122.7,70.2 129.4,70.2 131.4,70.2 135.5,70.2 136.7,70.2 135.3,69.1 	"/>
	<polygon class="st2" points="62.9,93.7 82.2,93.7 91.9,85.5 93.7,84 104.4,75 110,70.2 110,70.2 107.5,70.2 103.5,70.2 90.8,70.2 
		86.2,70.2 84.8,70.2 83.5,70.2 77.3,75.4 57,92.5 55.6,93.7 56.8,93.7 	"/>
	<polygon class="st2" points="144.5,86.1 145.1,85.5 146.9,84 150,81.4 154.6,77.5 157.6,75 157.7,74.9 163.2,70.2 163.2,70.2 
		157.7,70.2 156.8,70.2 155.9,70.2 149.3,70.2 144.1,70.2 139.4,70.2 138,70.2 136.8,70.2 136.7,70.2 135.7,71.1 133.1,73.3 
		130.5,75.4 123.5,81.4 123.5,81.4 113.5,89.8 110.2,92.5 109.5,93.1 110.1,93.1 114,93.1 116.8,93.1 131.4,93.1 135.6,93.1 
		135.7,93.1 136.1,93.1 136.8,92.5 	"/>
	<polygon class="st2" points="304.7,85.5 304.7,85.5 306.6,84 306.7,83.9 310,81.1 317.2,75 322.9,70.2 322.9,70.2 320.4,70.2 
		316.4,70.2 303.7,70.2 299,70.2 297.6,70.2 296.8,74.8 297.6,70.3 296.3,70.3 295.3,71.1 296.2,76.3 293.7,74.2 296.2,76.3 
		295.3,71.1 292.7,73.3 292.7,73.3 290.2,75.4 289,82.5 286.7,84.4 286.7,93.1 295.7,93.1 295.8,93.1 	"/>
	<polygon class="st2" points="290.2,75.4 286.7,78.4 273.7,89.3 272.7,90.1 269.9,92.5 269.8,92.5 269.7,92.6 269.1,93.1 
		269.7,93.1 269.8,93.1 270.5,93.1 272.7,93.1 273.7,93.1 276.4,93.1 286.7,93.1 286.7,84.4 288.9,82.5 	"/>
	<polygon class="st2" points="460.7,81.8 459.3,73.7 459.3,73.7 460.7,81.8 460.7,88.6 464.4,85.5 466.2,84 467.7,82.8 476.9,75 
		480.7,71.8 482.5,70.2 482.5,70.2 480.7,70.2 476,70.2 467.7,70.2 463.3,70.2 460.7,70.2 458.7,70.2 457.2,70.2 456.2,76.2 
		456.2,76.2 457.2,70.2 456,70.2 452.7,73 452.7,73 449.8,75.4 447.7,77.2 439.7,83.9 436.7,86.5 429.5,92.5 428.7,93.1 429.4,93.1 
		436,93.1 436.7,93.1 439.7,93.1 447.7,93.1 452.7,93.1 455.3,93.1 460.7,88.6 	"/>
	<polygon class="st2" points="507.6,114.8 487.3,97.7 481.9,93.1 480.7,93.1 480,93.1 478.7,93.1 473.4,93.1 467.7,93.1 461.4,93.1 
		460.7,93.1 455.4,93.1 455.3,93.1 460.6,97.6 460.7,97.6 467.7,103.5 471.7,106.9 473.5,108.5 480.7,114.5 483.1,116.5 
		483.2,116.5 483.2,116.5 483.3,116.5 483.6,116.5 501.3,116.5 507.9,116.5 509.8,116.5 	"/>
	<polygon class="st2" points="451.9,112.7 447.7,109.1 441.9,104.3 441.9,104.3 439.7,102.4 436.7,99.9 432.3,96.2 429.3,93.7 
		429.3,93.7 428.7,93.2 428.6,93.1 428.6,93.1 423.7,93.1 410.7,93.1 402.1,93.1 402.1,93.1 410.7,100.3 415.3,104.3 418.4,106.9 
		423.7,111.3 428.6,115.4 429.9,116.5 433.9,116.5 436.7,116.5 439.7,116.5 447.7,116.5 451.2,116.5 452.7,116.5 456.5,116.5 
		452.7,113.3 	"/>
	<polygon class="st2" points="365.2,106.9 366.7,108.1 375.4,115.4 376.7,116.5 376.8,116.5 376.8,116.5 376.9,116.5 377.1,116.5 
		379.7,116.5 380.7,116.5 388.7,116.5 398,116.5 400.7,116.5 401.7,116.5 403.3,116.5 402,115.4 401.7,115.2 398.7,112.7 
		388.7,104.3 388.7,104.3 388.7,104.2 379.7,96.7 376.1,93.7 375.4,93.1 375.4,93.1 373.6,93.1 366.9,93.1 366.7,93.1 350.3,93.1 
		348.9,93.1 348.9,93.1 362.1,104.3 	"/>
	<polygon class="st2" points="348.7,115.3 348,114.8 345.5,112.7 341.7,109.5 335.7,104.4 335.5,104.3 335.5,104.3 328.7,98.5 
		327.7,97.7 325.9,96.2 322.9,93.7 322.2,93.1 322.2,93.1 320.4,93.1 319.7,93.1 319.1,93.1 313.7,93.1 306.7,93.1 301.7,93.1 
		295.7,93.1 295.7,93.1 295.7,93.1 301,97.6 306.7,102.4 308.9,104.3 312,106.9 313.9,108.5 319.7,113.3 322.2,115.4 323.5,116.5 
		323.5,116.5 323.6,116.5 323.6,116.5 323.9,116.5 327.5,116.5 328.7,116.5 335.7,116.5 341.7,116.5 341.7,116.5 344.8,116.5 
		347.5,116.5 348.3,116.5 348.7,116.5 350.1,116.5 348.8,115.4 	"/>
	<polygon class="st2" points="135.7,140 136,140 145.6,131.8 147.5,130.3 148.7,129.3 157.7,121.7 158.1,121.3 163.8,116.5 
		163.8,116.5 157.7,116.5 157.3,116.5 148.7,116.5 144.7,116.5 139.9,116.5 138,116.5 137.3,116.5 135.7,117.9 135.7,117.9 
		133,120.1 131.1,121.7 110.8,138.8 109.4,140 110.5,140 116.7,140 	"/>
	<polygon class="st2" points="186.2,120.1 181.7,123.9 177.2,127.7 177.2,127.7 170.7,133.1 168.7,134.8 167.2,136.1 162.6,140 
		167.9,140 168.7,140 170.7,140 181.7,140 185.2,140 189.2,140 190.5,138.8 194.7,135.3 200.7,130.3 203.8,127.7 207.7,124.4 
		217,116.5 217,116.5 207.7,116.5 197.9,116.5 194.7,116.5 191.3,116.5 190.5,116.5 190.5,116.5 188.9,117.9 	"/>
	<polygon class="st2" points="323.4,116.5 320.9,116.5 319.7,116.5 316.9,116.5 306.7,116.5 304.3,116.5 299.6,116.5 297.7,116.5 
		296.9,116.5 290.7,121.7 286.7,125.1 273.7,136 272.7,136.8 270.4,138.8 270.3,138.8 269.7,139.4 269,140 269.7,140 270.2,140 
		271.6,140 272.7,140 273.7,140 276.3,140 286.7,140 295.6,140 305.3,131.8 306.7,130.6 307.1,130.3 317.8,121.3 319.7,119.7 
		323.4,116.5 	"/>
	<polygon class="st2" points="363.4,127.7 366.7,124.9 371,121.3 376.6,116.5 376.6,116.5 374.1,116.5 370.1,116.5 366.7,116.5 
		352.8,116.5 350.2,116.5 350.1,116.5 348.7,117.7 348.5,117.9 345.9,120.1 343.9,121.7 341.7,123.6 336.8,127.7 336.8,127.7 
		335.7,128.6 328.7,134.5 326.8,136.1 323.6,138.8 322.2,140 323.4,140 327.5,140 328.7,140 329.5,140 335.7,140 341.7,140 
		344.9,140 348.7,140 348.8,140 350.1,138.8 358.5,131.8 360.3,130.3 	"/>
	<polygon class="st2" points="480.7,116.5 476.6,116.5 467.7,116.5 464,116.5 460.7,116.5 459.2,116.5 457.3,116.5 456.5,116.5 
		452.7,119.8 450.3,121.7 447.7,124 439.7,130.7 436.7,133.2 430,138.8 430,138.8 428.6,140 429.8,140 431.3,140 435.9,140 
		436.7,140 439.7,140 447.7,140 452.7,140 455.2,140 460.7,135.4 464.9,131.8 466.7,130.3 467.7,129.5 477.4,121.3 480.7,118.5 
		483,116.5 483,116.5 	"/>
</g>
<g>
	<polygon class="st3" points="460.7,93.1 460.7,88.6 455.3,93.1 455.4,93.1 	"/>
	<polygon class="st3" points="452.7,590.5 458,595 452.7,595 452.7,816.1 460.7,816.1 460.7,266 452.7,266 	"/>
	<path class="st3" d="M452.7,113.3l3.9,3.2h0.8h1.9h1.5h3.3h3.7h8.9h4.1v-2.1l-7.2-6l-1.9-1.6l-4-3.4l-7-5.9l-0.1-0.1l-5.3-4.5h0h0
		h0h0h-0.1v0.1l-0.6,0.5l-1.9,1.6l-5,4.2l-5.8,4.8l5.8,4.8l4.2,3.5l0.8-4.5V113.3z M455.3,93.1L455.3,93.1l-0.1,0.1L455.3,93.1
		L455.3,93.1z"/>
	<polygon class="st3" points="452.7,26.2 456,23.4 452.7,23.4 	"/>
	<polygon class="st3" points="452.7,119.8 456.5,116.5 452.7,116.5 	"/>
	<rect x="410.7" y="70.2" class="st3" width="13" height="22.9"/>
	<polygon class="st3" points="201.9,383.5 207.7,383.5 207.7,155 211,152.2 213.1,140 213.8,136.1 217.1,117 217.1,116.7 
		217.1,116.5 217,116.5 217,116.5 217,116.5 217,116.6 207.7,124.4 203.8,127.7 200.7,130.3 196.9,133.5 195.8,140 194.7,140 
		194.7,146.1 190.7,169.4 194.7,166 194.7,389.6 	"/>
	<path class="st3" d="M194.7,517.6L194.7,517.6l-2.7-2.3l-10.3-8.6l-6.1-5.1h6.1V407H174l7.7-6.5V243h-11v0h-2v258.6h2v0h4.7l-4.7,4
		l-2,1.7l-9.6,8.1l-1.4,1.2l-2.4,2l-6.2,35.9l8.6-7.3l11-9.3v278.2h2h11V537.3l13,11v267.8h13V525h-4.2L194.7,517.6z M175.5,501.9
		l0-0.3h0L175.5,501.9L175.5,501.9z"/>
	<polygon class="st3" points="335.7,618.5 341.7,618.5 341.7,610 337.2,610 335.7,610 328.7,610 322.6,610 321.1,618.5 320.1,624.4 
		327,618.5 328.7,617.1 328.7,618.5 	"/>
	<polygon class="st3" points="335.7,571.5 341.7,571.5 341.7,413 336.4,413 335.7,412.3 328.7,406.4 328.7,406.5 325,403.3 
		319.7,398.9 317.6,397.2 311.3,391.8 308.6,389.6 308.5,390 310,398.8 309.1,404.4 310.8,403 314.6,425.2 319.7,429.5 328.7,437.1 
		328.7,571.5 	"/>
	<polygon class="st3" points="341.7,387.3 348.7,393.2 362,404.4 355.8,368.5 352,365.3 348.7,362.6 341.7,356.7 335.7,351.6 
		335.6,351.6 335.5,352 335.5,351.7 335.5,351.6 335.5,351.5 335.7,351.5 335.9,351.5 341.7,351.5 341.7,162.4 348.7,168.3 
		350,169.4 348.7,162 344.9,140 341.7,140 335.7,140 329.5,140 328.7,140 327.5,140 323.4,140 322.4,146 327.8,141.4 328.7,146.7 
		328.7,351.5 335.4,351.5 328.7,357.2 319.7,364.8 319.1,365.3 315.3,368.5 311.7,389.5 319.7,389.5 326.7,389.5 328.7,387.8 
		328.7,389.5 335.2,389.5 335.7,390 341.7,395 	"/>
	<polygon class="st3" points="170.7,227.5 181.7,236.8 181.7,162.1 190.3,169.4 185.2,140 181.7,140 170.7,140 168.7,140 167.9,140 
		168.7,144.6 168.7,225.9 	"/>
	<polygon class="st3" points="256.7,127.4 259.7,129.9 269.7,138.3 269.7,114.8 267.7,116.5 259.7,116.5 256.7,116.5 	"/>
	<polygon class="st3" points="264.7,96.7 267.4,94.5 268.3,93.7 267.2,93.7 261.1,93.7 259.7,93.7 256.7,93.7 256.7,103.4 
		259.7,100.9 	"/>
	<polygon class="st3" points="266.9,586.5 269.7,586.5 269.7,413 259.7,413 256.7,413 256.7,595.1 259.7,592.6 	"/>
	<polygon class="st3" points="269.7,145.5 272.7,143 273.7,142.1 276.3,140 273.7,140 272.7,140 271.6,140 270.2,140 269.7,142.8 
		269.7,140 269,140 259.7,140 256.7,140 256.7,384.8 259.7,387.3 269.7,395.7 	"/>
	<polygon class="st3" points="261.2,407 259.7,407 256.7,407 256.7,410.7 259.7,408.2 	"/>
	<polygon class="st3" points="379.7,266 366.7,266 366.7,355.3 379.7,366.2 	"/>
	<polygon class="st3" points="366.7,635.4 366.7,635.5 363,632.3 359.7,629.6 358.7,628.7 348.7,620.3 346.7,618.7 346.6,618.6 
		346.5,619 346.7,619.9 348.7,631.4 352.6,654.2 358.7,659.3 359.7,660.2 366.7,666.1 366.7,816.1 379.7,816.1 379.7,642 374.4,642 
			"/>
	<path class="st3" d="M379.7,142.5l1.3-1.1l1.9,10.8l5.8,4.9l13,11l1.5,1.3l-1.5-8.6l-4.7-27.2l-3.3-2.8h0l-0.5-0.4l-4.5-3.8
		l-8.5-7.1l-0.5-0.4l-2.9-2.4l0-0.1h0l-1.3-1.1l-1.3,1.1h2.5h0l-5.6,4.8l-4.3,3.6l-3.3,2.8l-3.1,2.6l-1.8,1.5l-2,1.7l-1.1,6.4
		l-5.1,29.4l16.4-13.8v104.8l13-10.9V142.5z M372.8,140l0.7-3.9l0.1,0.1l3.2,2.7l1.2,1.1h-1.4h-2.4H372.8z"/>
	<polygon class="st3" points="366.7,571.5 373.2,571.5 375,573.1 376.9,571.5 379.7,571.5 379.7,375 366.7,375 	"/>
	<polygon class="st3" points="161,272.4 157.7,253.4 154.8,236.5 151,233.3 148.7,231.4 135.7,220.5 134.6,219.6 134.5,220 
		135.7,226.7 140.6,255.2 148.7,262 157.7,269.6 	"/>
	<polygon class="st3" points="134.5,219.6 134.5,219.6 134.5,219.5 134.5,219.5 134.4,219.5 125.7,226.9 118.1,233.3 114.3,236.5 
		112.7,245.8 108.8,268.5 112.7,268.5 112.7,268.5 125.7,257.5 128.4,255.2 134.5,220 134.5,220 134.5,220 134.5,220 134.5,219.9 	
		"/>
	<polygon class="st3" points="436.7,270.7 434.8,259.5 431,256.3 423.7,250.2 414.6,242.6 414.5,243 414.5,242.7 414.5,242.6 
		414.5,242.5 423.7,242.5 423.7,142 421.3,140 410.7,140 410.7,242.5 414.4,242.5 410.7,245.7 401.7,253.3 398.1,256.3 394.3,259.5 
		388.7,291.9 388.1,295.4 388.7,294.9 401.7,283.9 408.4,278.2 410.7,265.1 410.7,571.5 423.7,571.5 423.7,280.8 436.7,291.8 
		439.7,294.3 441,295.4 439.7,288 	"/>
	<polygon class="st3" points="245,397.3 241.7,394.6 228.7,383.6 228.6,383.6 228.5,384 228.7,384.9 234.6,419.2 241.7,425.2 
		255,436.4 248.8,400.5 	"/>
	<polygon class="st3" points="228.6,383.6 228.5,383.5 228.5,383.5 228.4,383.5 212.1,397.3 208.3,400.5 207.7,404.1 207.7,401 
		200.6,407 194.7,407 194.7,501.5 202.2,501.5 207.7,506.2 207.7,431.7 222.4,419.2 228.5,384 228.5,383.9 	"/>
	<polygon class="st3" points="113,282.3 112.7,282.1 107.7,277.9 96.6,268.6 96.5,269 96.5,268.7 96.5,268.6 96.5,268.5 96.9,268.5 
		107.7,268.6 107.7,242.1 106.6,243 94.7,243 94.7,268.5 96.4,268.5 94.7,270 80.1,282.3 76.3,285.5 70.1,321.4 90.4,304.2 
		94.7,279.6 94.7,816.1 107.7,816.1 107.7,308.5 112.7,312.7 123,321.4 116.8,285.5 	"/>
	<polygon class="st3" points="80.4,243 80.3,242.7 74.8,210.5 71,207.3 62.7,200.4 61.2,199.1 54.6,193.6 54.5,193.9 54.5,193.6 
		54.5,193.6 54.5,193.5 54.5,193.5 54.4,193.5 38.1,207.3 34.3,210.5 28.1,246.4 48.4,229.2 49.7,221.9 53.6,199.1 54.5,194 
		54.5,193.9 54.5,194 54.5,194 55.4,199.1 60.6,229.2 62.7,231 81,246.4 	"/>
	<polygon class="st3" points="308.5,389.6 308.5,389.5 308.5,389.5 308.5,389.5 308.5,389.5 308.4,389.5 306.7,391 292.1,403.3 
		288.3,406.5 286.7,415.8 282.1,442.4 286.7,438.5 302.4,425.2 306.7,400.6 308.5,390 308.5,389.8 	"/>
	<polygon class="st3" points="388.7,595 383.7,595 382.2,595 379.7,609.4 379.7,595 375.6,595 374.4,595 367.9,595 366.8,588.5 
		366.7,588.5 363,585.3 361.7,584.3 348.7,573.3 346.6,571.6 346.5,572 348.7,584.4 350.3,593.8 350.5,595 351,598.1 352.6,607.2 
		359.7,613.2 366,618.5 366.7,619.1 373,624.4 372,618.5 373.2,618.5 377.5,622.2 378.6,623.1 379.7,624 379.7,622.2 383.7,618.8 
		388.7,614.6 396.7,607.8 397.4,607.2 399.5,595 396.7,595 	"/>
	<polygon class="st3" points="423.7,588.5 423.7,588.4 420,585.3 410.7,577.5 403.6,571.6 403.5,572 409.6,607.2 410.7,608.1 
		410.7,816.1 423.7,816.1 423.7,619.1 430,624.4 423.8,588.5 	"/>
	<polygon class="st3" points="403.5,571.6 403.5,571.5 403.5,571.5 403.4,571.5 401.7,573 388.7,584 388.3,584.3 388.3,584.3 
		388.7,584.6 390.5,586.1 396.7,591.3 399.7,593.8 401.7,582.6 403.5,572 403.5,571.7 	"/>
	<polygon class="st3" points="346.5,618.6 346.5,618.5 346.5,618.5 346.4,618.5 345.7,619.2 341.7,622.5 335.7,627.6 330.1,632.3 
		328.7,633.5 328.7,633.5 326.3,635.5 320.1,671.4 328.7,664.1 328.7,816.1 335.7,816.1 341.7,816.1 341.7,646.9 345.7,623.8 
		346.5,619 346.5,618.7 	"/>
	<polygon class="st3" points="346.5,571.6 346.5,571.5 346.5,571.5 346.4,571.5 341.7,575.5 335.7,580.6 330.1,585.3 328.7,586.5 
		328.7,586.5 326.3,588.5 325.8,591.3 328.7,593.7 335.7,599.6 341,604 341.7,604.6 341.7,599.9 346.5,572 346.5,571.7 	"/>
	<polygon class="st3" points="316.8,621.1 313.8,603.5 310,600.3 306.7,597.6 303.6,595 297.8,590.1 293.6,586.6 293.5,587 
		294.5,592.8 294.9,595 299.6,622.2 306.7,628.2 307.5,628.9 319.7,639.2 320,639.4 319.7,637.8 	"/>
	<polygon class="st3" points="293.5,586.6 293.5,586.5 293.5,586.5 293.5,586.5 293.5,586.5 293.4,586.5 286.7,592.2 277.1,600.3 
		273.7,603.2 273.3,603.5 272.7,607.1 269.7,624.4 269.7,606.5 265.6,610 259.7,610 256.7,610 256.7,816.1 259.7,816.1 269.7,816.1 
		269.7,637.2 272.7,634.7 273.7,633.8 286.7,622.8 287.4,622.2 292.1,595 292.2,594.8 293.5,587 293.5,586.8 	"/>
	<polygon class="st3" points="447.7,30.4 449.8,28.6 450.7,23.4 447.7,23.4 439.7,23.4 433.4,23.4 429.5,45.7 439.7,37.1 	"/>
	<path class="st3" d="M451.4,19.5l1.3-7.5v8.6l3.3,2.8h2.7h2h7h8.3h4.7v-1.6l-9.6-8l-3.4-2.9l-7-5.9l-5.8-4.9L454.8,0h0h0h0h0h-0.1
		v0l0,0l-6.9,5.8l-6.2,5.2l-0.1,0.1l6.3,5.3L451.4,19.5z M454.8,0L454.8,0L454.8,0L454.8,0z"/>
	<polygon class="st3" points="398.2,19.5 401.5,0.4 401.7,1.6 404.8,19.5 405.5,23.4 407.6,35.7 410.7,38.3 410.7,61.4 423.7,50.5 
		423.7,49.3 424.4,49.9 427,47.7 423.7,28.4 423.7,23.4 422.8,23.4 421.7,17 417.9,13.8 414.8,11.1 410.7,7.7 401.7,0.1 401.7,0.1 
		401.7,0.1 401.6,0 401.6,0 401.5,0 401.5,0 401.5,0.1 401.5,0 401.4,0 401.4,0.1 401.4,0 401.4,0.1 388.7,10.7 388.2,11.2 
		388.7,11.6 	"/>
	<polygon class="st3" points="338.5,14.1 341.7,16.8 345,19.5 348.3,0.4 348.7,2.8 351.6,19.5 352.2,23.4 352.7,26 366.7,37.7 
		373,43 376.3,45.8 377.5,46.8 376.1,46.8 374.9,46.8 375.9,47.7 378.5,49.9 379.7,50.8 379.7,48.9 388.7,41.3 395.4,35.7 
		397.5,23.4 388.7,23.4 380.1,23.4 378.5,33.1 371.3,33.1 369.6,23.4 368.5,17 364.7,13.8 361.6,11.1 348.7,0.3 348.5,0.1 348.4,0 
		348.3,0 348.3,0 348.3,0 348.3,0.1 348.3,0 348.2,0 348.2,0.1 348.2,0 348.2,0.1 335.7,10.5 335,11.2 335.7,11.8 	"/>
	<polygon class="st3" points="299,23.4 316.4,23.4 315.3,17 311.5,13.8 308.4,11.1 295.2,0 295.1,0 295.1,0 295.1,0 295.1,0.4 
		298.4,19.5 	"/>
	<polygon class="st3" points="291.8,19.5 295.1,0.4 295,0 286.7,7 281.8,11.2 286.7,15.3 	"/>
	<polygon class="st3" points="295,0 295.1,0.4 295,0 	"/>
	<polygon class="st3" points="245.8,23.4 259.7,23.4 263.2,23.4 262.1,17 259.7,15 258.3,13.8 255.2,11.1 242,0 241.9,0 241.9,0 
		241.9,0 241.8,0.4 241.8,0 241.8,0 241.8,0.4 241.8,0.4 245.2,19.5 	"/>
	<polygon class="st3" points="238.5,19.5 241.7,1.3 241.8,0.4 241.8,0 241.7,0.1 228.7,11 228.5,11.2 228.7,11.3 	"/>
	<polygon class="st3" points="192.6,23.4 194.7,23.4 207.7,23.4 210,23.4 208.9,17 207.7,16 205.1,13.8 202,11.1 201.9,11.1 
		188.8,0 188.7,0 188.7,0 188.7,0 188.6,0.4 191.9,19.5 	"/>
	<polygon class="st3" points="184.7,23.4 188.6,0.4 188.6,0 172.2,13.8 170.7,15 168.4,17 167.3,23.4 170.7,23.4 	"/>
	<polygon class="st3" points="163.4,45.7 166.7,43 168.7,41.2 170.7,39.6 176.7,34.6 174.9,33.1 170.7,29.5 166.8,26.3 163.4,23.5 
		163.4,23.8 165.3,35 	"/>
	<polygon class="st3" points="188.6,0 188.6,0.4 188.6,0 	"/>
	<polygon class="st3" points="110.2,23.8 110.1,23.5 110.1,23.4 110.1,23.4 110,23.4 93.7,37.2 89.9,40.4 88.8,46.8 106.2,46.8 	"/>
	<polygon class="st3" points="123.5,34.6 110.2,23.5 110.2,23.8 113.5,43 	"/>
	<polygon class="st3" points="157.7,46.8 159.4,46.8 160,43 163.4,23.8 163.4,23.5 163.3,23.4 163.3,23.4 163.2,23.4 157.7,28.1 
		150,34.5 146.9,37.2 143.1,40.4 142,46.8 150.6,46.8 	"/>
	<polygon class="st3" points="203.3,34.5 200.2,37.2 198.3,38.7 196.3,40.4 195.2,46.8 203.8,46.8 207.7,50.1 209.5,51.6 
		211.6,49.9 212.1,49.4 214.2,47.7 214,46.8 212.6,46.8 213.3,43 213.4,43 213.3,42.7 216.6,23.8 218.5,35 216.7,45.7 219.9,43 
		228.7,35.6 229.9,34.6 228.7,33.6 220,26.3 216.6,23.5 216.6,23.4 216.5,23.4 216.5,23.4 216.5,23.4 210.8,28.2 207.7,30.8 	"/>
	<polygon class="st3" points="244.2,71.1 246.3,72.8 246.9,73.3 256.7,81.6 259.7,84.1 266.6,89.9 269.7,92.5 269.7,70.2 
		268.5,69.1 267.1,70.2 263.2,70.2 262.1,63.8 260.1,62.1 259.7,61.8 258.3,60.6 256.7,59.3 255.2,58 247.6,51.6 242,46.8 
		241.9,46.8 241.9,46.8 241.8,46.8 241.8,46.9 241.7,47 238.4,49.7 228.7,57.8 225.4,60.6 224.9,61 222.8,62.8 228.7,67.7 
		231.7,70.2 235.9,70.2 237.9,70.2 240.5,70.2 241.7,69.3 241.8,69.2 241.7,68.6 239.9,58.4 241.7,48.2 241.8,47.3 245.1,66.1 
		245,66.5 245.2,66.4 245.8,70.2 244.4,70.2 	"/>
	<polygon class="st3" points="258.2,33.1 256.7,34.4 256.5,34.5 253.4,37.2 251.5,38.7 249.6,40.4 248.4,46.8 256.7,46.8 
		259.7,46.8 261.1,46.8 265.8,46.8 266.5,43 266.6,43 269.7,45.6 269.7,33.1 268.2,33.1 269.8,23.8 271.7,35 269.9,45.7 272.7,43.3 
		273.1,43 273.7,42.5 283.1,34.6 273.7,26.7 273.2,26.3 272.7,25.8 269.9,23.5 269.8,23.4 269.8,23.4 269.7,23.4 269.7,23.4 
		264,28.2 259.7,31.8 	"/>
	<polygon class="st3" points="306.6,37.2 304.8,38.7 302.8,40.4 301.7,46.8 314.4,46.8 319,46.8 319.7,43 319.8,43 319.7,42.7 
		323,23.8 324.9,35 323,45.8 324.3,46.8 327,46.8 328.7,46.8 329,46.8 335.7,46.8 341.7,46.8 344.3,46.8 343.2,40.4 341.7,39.1 
		341.7,39.1 339.9,37.6 339.4,37.2 335.7,34 328.7,28.2 326.4,26.3 323.1,23.5 323,23.4 323,23.4 322.9,23.4 322.9,23.4 317.2,28.2 
		309.7,34.5 	"/>
	<polygon class="st3" points="476.9,28.2 467.7,35.9 466.2,37.2 464.4,38.7 462.4,40.4 461.3,46.8 467.7,46.8 474,46.8 478.6,46.8 
		480.1,46.8 480.7,46.8 480.7,35 482.6,23.8 487.5,52 507.8,69.1 502.9,40.4 499,37.2 482.7,23.5 482.6,23.4 482.6,23.4 482.5,23.4 
		482.5,23.4 480.7,25 	"/>
	<polygon class="st3" points="439.7,83.9 447.7,77.2 449.8,75.4 452.7,58.8 452.7,73 456,70.2 457.2,70.2 458.7,70.2 460.7,70.2 
		463.3,70.2 467.7,70.2 476,70.2 480.7,70.2 480.7,68.6 472.9,62.1 471.1,60.6 467.7,57.7 460.7,51.8 460.5,51.6 454.8,46.8 
		454.8,46.8 460.7,46.8 460.7,41.8 454.7,46.8 454.7,46.8 454.6,46.9 452.7,48.5 447.7,52.7 439.7,59.4 438.3,60.6 436.7,61.9 
		434.5,63.8 429.5,92.5 436.7,86.5 	"/>
	<polygon class="st3" points="348.7,49.7 352.7,72.8 366.7,84.6 373,89.9 376.9,93.1 379.7,93.1 379.7,70.2 376.2,70.2 366.7,62.3 
		364.7,60.6 348.7,47.1 348.4,46.8 348.3,46.8 348.3,46.8 348.3,46.9 348.3,47.3 	"/>
	<polygon class="st3" points="348.2,46.9 344.8,49.7 341.7,52.3 335.7,57.4 335,58 335.7,58.6 341.7,63.6 345,66.4 348.2,69.1 
		346.3,58.4 348.3,47.3 348.2,46.9 	"/>
	<polygon class="st3" points="313.3,62.1 311.5,60.6 308.4,58 300.8,51.6 295.2,46.8 295.1,46.8 295.1,46.8 295,46.8 295,46.9 
		291.6,49.7 286.7,53.8 281.8,58 286.7,62.1 291.8,66.4 295,69.1 293.1,58.4 295.1,47.3 298.3,66.1 298.2,66.5 298.4,66.4 299,70.2 
		303.7,70.2 316.4,70.2 315.3,63.8 	"/>
	<polygon class="st3" points="273.7,70.4 272.7,76.2 269.9,92.5 272.7,90.1 273.7,89.3 286.7,78.4 290.2,75.4 290.8,71.7 
		292.7,73.3 295.3,71.1 295.2,70.2 293.7,70.2 291.1,70.2 289.1,70.2 286.7,70.2 273.7,70.2 	"/>
	<polygon class="st3" points="215.4,99.7 220.8,95.1 222.7,105.9 228.7,111 235.2,116.5 241.1,116.5 241.7,116 241.8,115.9 
		241.7,115.4 236.8,87.2 233.5,84.4 233,84 228.7,80.4 220,73.1 216.6,70.3 216.6,70.2 216.5,70.2 216.5,70.2 216.5,70.2 
		207.7,77.6 203.3,81.4 200.8,83.4 200.2,84 196.3,87.2 195.4,92.7 195.2,93.7 194.7,93.7 194.7,96.8 191.3,116.5 194.7,116.5 
		197.9,116.5 207.7,116.5 207.7,108.3 210.5,105.9 212.6,93.7 213.3,89.8 216.6,70.7 218.5,81.8 216.6,92.6 217.9,93.7 216.5,93.7 	
		"/>
	<polygon class="st3" points="194.7,70.2 197.3,70.2 198.5,70.2 198.4,69.3 197.4,63.8 196.2,62.8 196.2,62.8 194.7,61.5 
		193.6,60.6 192.9,60 186,54.1 181.7,50.5 177.3,46.8 177.3,46.8 177.2,46.8 177.2,46.8 177.1,46.9 170.7,52.3 169.6,53.2 
		170.7,54.1 175.3,58 179.7,61.6 181.7,63.3 188.6,69.1 188.6,69.1 190,70.2 190,70.2 191.2,70.2 	"/>
	<polygon class="st3" points="129.7,64.3 132.1,66.4 132.9,61.6 133.9,60.8 133.5,58.4 135.4,47.3 137.3,58 138.7,66.1 139.4,70.2 
		144.1,70.2 149.3,70.2 155.9,70.2 156.8,70.2 157.7,70.2 163.2,70.2 163.2,70.2 157.7,74.9 157.6,75 154.6,77.5 150,81.4 146.9,84 
		145.1,85.5 144.5,86.1 143.1,87.2 142.1,93.1 148.7,93.1 151.9,93.1 154.1,93.1 157.7,93.1 158.5,93.1 159.5,93.1 159.6,92.2 
		160,89.8 160.2,89.9 161.3,90.8 166.1,86.7 166.7,89.8 168.7,88.1 170.7,86.4 176.7,81.4 172,77.4 170.7,76.4 168.7,74.7 
		163.4,70.3 163.4,70.2 163.3,70.2 157.7,65.5 156.8,64.8 156.3,67.6 155.8,64.8 155.7,63.8 153.7,62.1 151.8,60.6 143,53.2 
		141.2,51.6 135.5,46.8 135.5,46.8 135.4,46.8 135.4,46.8 135.4,46.9 132,49.7 122.1,58 	"/>
	<polygon class="st3" points="82.2,47.3 85.5,66.1 85.4,66.5 85.5,66.4 86.2,70.2 90.8,70.2 103.5,70.2 102.4,63.8 100.5,62.1 
		98.6,60.6 95.5,58 88,51.6 82.3,46.8 82.3,46.8 82.2,46.8 82.2,46.8 82.1,46.9 65.8,60.6 62,63.8 57,92.5 77.3,75.4 	"/>
	<polygon class="st3" points="56.8,93.7 55.8,99.7 62.9,93.7 	"/>
	<polygon class="st3" points="83.7,123.1 91.5,116.5 84.8,116.5 	"/>
	<polygon class="st3" points="112.1,81.8 110.2,92.5 113.5,89.8 123.5,81.4 113.6,73.1 110.2,70.3 110.2,70.2 110.1,70.2 
		110.1,70.2 110,70.2 104.4,75 93.7,84 91.9,85.5 91.9,85.5 89.9,87.2 85.4,113.2 105.1,96.7 105.7,96.1 107.8,94.5 106.9,89.5 
		110.2,70.7 	"/>
	<polygon class="st3" points="170.7,99.9 181.7,109.2 188.4,114.8 184.7,93.7 181.7,93.7 170.7,93.7 168.7,93.7 167.3,93.7 
		168,97.7 168.7,98.2 	"/>
	<polygon class="st3" points="326.4,73.1 323.1,70.3 323,70.2 323,70.2 322.9,70.2 322.9,70.2 317.2,75 310,81.1 306.7,83.9 
		306.6,84 304.7,85.5 304.8,85.5 302.8,87.2 301.7,93.1 306.7,93.1 313.7,93.1 319.1,93.1 319.7,93.1 320.4,93.1 319.7,89.5 
		323,70.7 324.9,81.8 323,93.1 326.9,93.1 328.7,93.1 329.6,93.1 335.7,93.1 341.7,93.1 344.2,93.1 343.2,87.2 341.7,85.9 
		341.7,85.9 339.9,84.4 339.4,84 335.7,80.9 328.7,75 	"/>
	<polygon class="st3" points="482.7,70.3 482.6,70.2 482.6,70.2 482.5,70.2 482.5,70.2 480.7,71.8 476.9,75 467.7,82.8 466.2,84 
		464.4,85.5 464.4,85.5 462.4,87.2 461.4,93.1 467.7,93.1 473.4,93.1 478.7,93.1 480,93.1 480.7,93.1 480.7,81.9 482.6,70.7 
		487.3,97.7 507.6,114.8 502.9,87.2 499,84 	"/>
	<polygon class="st3" points="431.3,140 429.8,140 428.8,146 435.9,140 	"/>
	<polygon class="st3" points="439.7,116.5 436.7,116.5 433.9,116.5 430,138.8 436.7,133.2 439.7,130.7 447.7,124 450.3,121.7 
		451.2,116.5 447.7,116.5 	"/>
	<polygon class="st3" points="421.3,140 423.7,142 428.5,146 427.4,140 423.7,140 	"/>
	<polygon class="st3" points="406,116.5 406.4,119.1 410.7,122.7 423.7,133.6 426.8,136.2 423.7,118.5 423.7,116.5 423.4,116.5 
		422.2,110.1 418.4,106.9 415.3,104.3 410.7,100.3 402.1,93.1 402.1,93.1 402,93.1 402.1,93.2 402,93.5 405.3,112.7 	"/>
	<polygon class="st3" points="402,93.2 402,93.2 401.9,93.2 401.7,93.4 388.7,104.3 398.7,112.7 401.7,95.4 402,93.5 402,93.5 	"/>
	<polygon class="st3" points="352.8,116.5 366.7,116.5 370.1,116.5 369,110.1 366.7,108.1 365.2,106.9 362.1,104.3 348.9,93.1 
		348.9,93.1 348.8,93.1 348.9,93.2 348.8,93.5 352.1,112.7 	"/>
	<polygon class="st3" points="326.8,136.1 328.7,134.5 335.7,128.6 336.8,127.7 335.7,126.7 328.7,120.8 327,119.4 323.6,116.6 
		323.5,116.5 323.5,116.5 323.5,116.5 323.4,116.5 319.7,119.7 317.8,121.3 307.1,130.3 306.7,130.6 305.3,131.8 305.3,131.8 
		303.3,133.5 297.1,169.4 306.7,161.3 317.4,152.2 319,143.4 319.7,144 322,146 320.3,135.8 323.5,117 325.5,128.1 323.6,138.8 	"/>
	<polygon class="st3" points="348.8,93.5 348.8,93.2 348.7,93.2 348.7,93.2 348.7,93.2 344.8,96.5 341.7,99.1 335.7,104.1 
		335.5,104.3 335.7,104.4 341.7,109.5 345.5,112.7 348,114.8 346.6,106.5 348.7,94.2 	"/>
	<path class="st3" d="M290.7,121.7l4.9-28.2l3,17.5l-0.4,2.1l0.6-0.5l0.7,3.9h4.8h2.4h10.2l-1.1-6.4l-1.9-1.6l-1.9-1.6l-3.1-2.6
		l-2.2-1.9l-5.7-4.8l-5.3-4.5h0h0h0h0h-0.1v0.1l-0.6,0.5l-8.2,6.9l-7.5,6.3l-3.8,3.2l-1.7,9.7l-1,5.8l-2.3,13.2l2.3-1.9l1-0.8
		l13-10.9L290.7,121.7z M295.6,93.1L295.6,93.1l-0.1,0.1L295.6,93.1L295.6,93.1z"/>
	<polygon class="st3" points="110.5,140 109.5,146 116.7,140 	"/>
	<polygon class="st3" points="136,93.5 139,111.1 138,116.5 139.9,116.5 144.7,116.5 148.7,116.5 157.3,116.5 156.2,110.1 
		154.2,108.5 154.3,108.5 152.4,106.9 148.7,103.8 141.3,97.6 136.1,93.1 136,93.1 136,93.1 136,93.2 135.9,93.3 135.9,93.2 
		136,93.2 136,93.2 135.9,93.2 135.9,93.2 135.9,93.2 135.7,93.3 135.3,93.7 132,96.5 119.5,106.9 118.5,107.8 118.5,107.8 
		115.7,110.1 110.8,138.8 131.1,121.7 131.6,118.9 133,120.1 135.7,117.9 133.7,106.5 135.7,95.1 	"/>
	<polygon class="st3" points="167.2,136.1 168.7,134.8 170.7,133.1 177.2,127.7 170.7,122.2 168.7,120.5 164,116.6 163.9,116.5 
		163.9,116.5 163.8,116.5 163.8,116.5 158.1,121.3 157.7,121.7 148.7,129.3 147.5,130.3 145.6,131.8 143.7,133.5 137.4,169.4 
		148.7,159.9 157.7,152.3 157.8,152.2 159.3,143.4 162.4,146 160.6,135.8 163.9,117 	"/>
	<polygon class="st3" points="228.7,156.8 241.7,167.8 243.5,169.4 241.7,158.6 237.3,133.5 233.5,130.3 228.7,126.2 217.2,116.6 
		217.1,117 223.2,152.2 	"/>
	<polygon class="st3" points="503.4,133.5 499.6,130.3 483.2,116.6 483.2,116.5 483.1,116.5 483.1,116.5 483,116.5 480.7,118.5 
		477.4,121.3 467.7,129.5 466.7,130.3 464.9,131.8 462.9,133.5 460.7,146.5 460.7,135.4 455.2,140 452.7,140 452.7,252.2 
		460.7,258.9 460.7,166 467.7,160.1 467.7,264.8 469,266 467.7,266 467.7,816.1 480.7,816.1 480.7,145.1 481.7,146 480.7,140.3 
		480.7,131.2 483.2,117 489.3,152.2 509.6,169.4 	"/>
</g>
<g>
	<polygon class="st4" points="388.7,373.8 379.7,366.2 366.7,355.3 362.2,351.5 348.7,351.5 348.7,168.3 341.7,162.4 341.7,351.5 
		335.9,351.5 335.7,351.5 335.7,351.5 335.6,351.5 335.6,351.5 335.5,351.5 335.6,351.5 335.5,351.5 335.6,351.5 335.6,351.6 
		335.6,351.6 335.7,351.6 335.7,351.5 335.7,351.6 335.7,351.6 341.7,356.7 348.7,362.6 352,365.3 363.4,375 366.7,375 379.7,375 
		388.7,375 388.7,571.5 401.7,571.5 401.7,283.9 388.7,294.9 	"/>
	<polygon class="st4" points="388.7,242.5 401.7,242.5 401.7,168.1 388.7,157.2 	"/>
	<polygon class="st4" points="401.5,22.3 401.7,22.5 402.8,23.4 405.5,23.4 404.8,19.5 401.7,22.1 401.7,1.6 401.5,0.4 398.2,19.5 	
		"/>
	<polygon class="st4" points="401.7,23.4 400.2,23.4 397.5,23.4 395.4,35.7 388.7,41.3 388.7,58.4 401.5,69.1 401.7,69.3 
		402.8,70.2 410.7,70.2 423.7,70.2 426.8,70.2 436.7,61.9 438.3,60.6 439.7,59.4 447.7,52.7 452.7,48.5 454.6,46.9 454.7,46.8 
		454.6,46.8 454.6,46.8 454.3,46.8 452.7,46.8 447.7,46.8 439.7,46.8 435.4,46.8 429.3,46.8 428.1,46.8 428.1,46.8 427,47.7 
		424.4,49.9 423.7,50.5 410.7,61.4 401.7,69 	"/>
	<polygon class="st4" points="401.7,95.4 398.7,112.7 401.7,115.2 	"/>
	<polygon class="st4" points="388.7,264.2 388.7,291.9 394.3,259.5 398.1,256.3 	"/>
	<polygon class="st4" points="167.3,93.7 164.7,93.7 163.2,93.7 168,97.7 	"/>
	<polygon class="st4" points="163.4,45.7 165.3,35 163.4,23.8 160,43 159.4,46.8 162,46.8 163.4,45.7 	"/>
	<polygon class="st4" points="157.7,516.5 159.1,515.3 157.7,516.5 	"/>
	<polygon class="st4" points="157.7,816.1 168.7,816.1 168.7,537.8 157.7,547.1 	"/>
	<polygon class="st4" points="157.7,116.5 163.8,116.5 163.8,116.5 163.8,116.5 163.9,116.5 157.7,111.3 	"/>
	<polygon class="st4" points="241.7,48.2 239.9,58.4 241.7,68.6 	"/>
	<polygon class="st4" points="241.7,1.3 238.5,19.5 241.7,22.2 	"/>
	<polygon class="st4" points="228.7,384.9 228.7,523.8 207.7,506.2 202.2,501.5 194.7,501.5 181.7,501.5 175.9,501.5 175.6,501.5 
		175.6,501.5 175.6,501.5 175.5,501.5 175.6,501.6 181.7,506.7 181.7,506.7 192,515.3 194.7,517.6 203.4,525 207.7,525 228.7,525 
		228.7,816.1 241.7,816.1 241.7,610 239,610 241.7,607.7 241.7,425.2 234.6,419.2 	"/>
	<polygon class="st4" points="114.3,236.5 118.1,233.3 112.7,237.8 112.7,245.8 	"/>
	<polygon class="st4" points="273.7,413 273.7,586.5 286.7,586.5 286.7,438.5 282.1,442.4 286.7,415.8 286.7,407.8 280.6,413 	"/>
	<polygon class="st4" points="273.7,603.2 277.1,600.3 273.7,603.2 	"/>
	<polygon class="st4" points="273.7,816.1 286.7,816.1 286.7,622.8 273.7,633.8 	"/>
	<polygon class="st4" points="273.7,142.1 273.7,396.4 281.9,389.5 286.7,389.5 286.7,375 281,375 286.7,370.2 286.7,140 276.3,140 
			"/>
	<polygon class="st4" points="273.7,70.4 273.7,70.2 273.7,70.2 	"/>
	<polygon class="st4" points="348.7,162 348.7,140 344.9,140 	"/>
	<polygon class="st4" points="346.3,58.4 348.2,69.1 348.7,69.5 348.7,49.7 348.3,47.3 	"/>
	<polygon class="st4" points="348.7,115.3 348.7,94.2 346.6,106.5 348,114.8 	"/>
	<polygon class="st4" points="348.3,22.3 348.7,22.7 349.6,23.4 348.7,23.4 347,23.4 344.3,23.4 341.7,23.4 335.7,23.4 328.7,23.4 
		326.9,23.4 323.4,23.4 323.1,23.4 323.1,23.4 323,23.4 323.1,23.5 326.4,26.3 328.7,28.2 335.7,34 339.4,37.2 339.9,37.6 
		341.7,39.1 348.7,45 350.9,46.8 366.7,46.8 367.6,46.8 373.7,46.8 374.9,46.8 376.1,46.8 377.5,46.8 376.3,45.8 373,43 366.7,37.7 
		352.7,26 349.6,23.4 352.2,23.4 351.6,19.5 348.7,22 348.7,2.8 348.3,0.4 345,19.5 	"/>
	<polygon class="st4" points="452.7,12 451.4,19.5 452.7,20.6 	"/>
	<polygon class="st4" points="449.8,28.6 452.7,26.2 452.7,23.4 450.7,23.4 	"/>
	<polygon class="st4" points="452.7,58.8 449.8,75.4 452.7,73 	"/>
	<polygon class="st4" points="452.7,108.2 451.9,112.7 452.7,113.3 	"/>
	<polygon class="st4" points="450.3,121.7 452.7,119.8 452.7,116.5 451.2,116.5 	"/>
	<polygon class="st4" points="352.6,654.2 348.7,631.4 346.7,619.9 346.5,619 345.7,623.8 341.7,646.9 341.7,816.1 345.7,816.1 
		346.7,816.1 348.7,816.1 358.7,816.1 359.7,816.1 359.7,660.2 358.7,659.3 	"/>
	<polygon class="st4" points="269.7,816.1 272.7,816.1 272.7,634.7 269.7,637.2 	"/>
	<polygon class="st4" points="269.7,395.7 259.7,387.3 256.7,384.8 255.2,383.5 241.7,383.5 241.7,167.8 228.7,156.8 228.7,383.5 
		228.6,383.5 228.6,383.5 228.6,383.5 228.5,383.5 228.6,383.6 228.6,383.5 228.7,383.6 228.7,383.6 241.7,394.6 245,397.3 
		256.4,407 256.7,407 259.7,407 261.2,407 269.7,399.8 272.1,397.8 272.7,397.3 272.7,143 269.7,145.5 	"/>
	<polygon class="st4" points="269.7,142.8 270.2,140 269.7,140 	"/>
	<polygon class="st4" points="269.7,624.4 272.7,607.1 272.7,604 269.7,606.5 	"/>
	<rect x="269.7" y="413" class="st4" width="3" height="173.6"/>
	<polygon class="st4" points="189,243 181.7,236.8 170.7,227.5 168.7,225.9 168.7,144.6 167.9,140 162.6,140 167.2,136.1 163.9,117 
		160.6,135.8 162.4,146 159.3,143.4 157.8,152.2 157.7,152.3 157.7,219.5 148.7,219.5 135.7,219.5 134.9,219.5 134.6,219.5 
		135.7,220.4 135.7,220.5 148.7,231.4 151,233.3 157.7,239 157.7,253.4 161,272.4 157.7,269.6 157.7,501.5 168.7,501.5 168.7,243 
		170.7,243 181.7,243 	"/>
	<polygon class="st4" points="134.6,219.5 134.6,219.5 134.5,219.5 134.6,219.6 134.6,219.6 135.7,220.5 135.6,220.4 	"/>
	<polygon class="st4" points="460.7,258.9 452.7,252.2 452.7,140 447.7,140 439.7,140 439.7,242.5 436.7,242.5 423.7,242.5 
		414.9,242.5 414.7,242.5 414.6,242.5 414.6,242.5 414.6,242.5 414.6,242.5 414.6,242.6 414.6,242.6 423.7,250.2 423.7,250.2 
		431,256.3 436.7,261.1 439.7,263.6 439.7,288 441,295.4 439.7,294.3 439.7,579.5 436.7,577 430.2,571.5 423.7,571.5 410.7,571.5 
		403.9,571.5 403.7,571.5 403.6,571.5 403.6,571.5 403.6,571.6 410.7,577.5 403.6,571.5 403.6,571.5 410.7,577.5 410.7,577.5 
		420,585.3 423.7,588.4 431.4,595 436.7,595 439.7,595 439.7,816.1 447.7,816.1 452.7,816.1 452.7,595 458,595 452.7,590.5 
		452.7,266 460.7,266 467.7,266 469,266 467.7,264.8 	"/>
	<polygon class="st4" points="135.7,279 125.7,270.7 125.7,257.5 112.7,268.5 112.7,268.5 112.7,268.5 108.8,268.5 107.7,268.5 
		96.9,268.5 96.6,268.5 107.7,277.9 107.7,277.9 112.7,282.1 113,282.3 116.8,285.5 123,321.4 112.7,312.7 112.7,816.1 125.7,816.1 
		125.7,525 121,525 125.7,521 125.7,292 135.7,292 148.7,292 151,292 148.7,290 	"/>
	<polygon class="st4" points="107.6,277.9 107.7,277.9 101.4,272.6 	"/>
	<polygon class="st4" points="96.6,268.5 96.5,268.5 96.6,268.6 96.6,268.6 101.4,272.6 96.6,268.5 	"/>
	<polygon class="st4" points="81.2,193.5 54.9,193.5 54.6,193.5 61.2,199.1 61.2,199.1 54.6,193.5 54.6,193.5 54.5,193.5 
		54.6,193.6 54.6,193.6 61.2,199.1 62.7,200.4 71,207.3 82.4,217 109,217 	"/>
	<polygon class="st4" points="308.6,389.6 311.3,391.8 311.2,391.8 308.6,389.5 308.6,389.5 308.5,389.5 308.6,389.6 	"/>
	<polygon class="st4" points="319.7,398.9 325,403.3 328.7,406.4 335.7,412.3 336.4,413 341.7,413 348.7,413 363,413 348.7,400.9 
		348.7,393.2 341.7,387.3 341.7,395 335.7,390 335.2,389.5 328.7,389.5 326.7,389.5 319.7,389.5 311.7,389.5 308.9,389.5 
		308.6,389.5 311.3,391.8 311.3,391.8 317.6,397.2 	"/>
	<polygon class="st4" points="396.7,591.3 390.5,586.1 388.7,584.6 388.3,584.3 388.3,584.3 379.7,577 375,573.1 373.2,571.5 
		366.7,571.5 348.7,571.5 348.7,413 341.7,413 341.7,571.5 346.4,571.5 346.6,571.5 346.6,571.6 348.7,573.3 361.7,584.3 363,585.3 
		366.7,588.4 374.4,595 375.6,595 379.7,595 382.2,595 383.7,595 388.7,595 396.7,595 399.5,595 397.4,607.2 396.7,607.8 
		388.7,614.6 388.7,631.6 383.7,627.4 379.7,624 378.6,623.1 377.5,622.2 373.2,618.5 372,618.5 373,624.4 366.7,619.1 366,618.5 
		359.7,618.5 359.7,613.2 352.6,607.2 351,598.1 348.7,598.1 348.7,584.4 346.5,572 341.7,599.9 341.7,604.6 341,604 335.7,599.6 
		328.7,593.7 325.8,591.3 324.4,590.1 320.2,586.5 319.7,586.5 306.7,586.5 302,586.5 293.9,586.5 293.7,586.5 293.6,586.5 
		293.6,586.5 293.6,586.6 293.6,586.6 297.8,590.1 293.6,586.6 293.6,586.5 297.8,590.1 297.8,590.1 303.6,595 306.7,597.6 
		310,600.3 319.7,608.5 321.4,610 322.6,610 328.7,610 335.7,610 337.2,610 341.7,610 341.7,618.5 345.7,618.5 346.4,618.5 
		346.6,618.5 346.6,618.5 346.6,618.6 346.6,618.6 346.7,618.6 346.7,618.7 348.7,620.3 358.7,628.7 359.7,629.6 363,632.3 
		366.7,635.4 374.4,642 379.7,642 383.7,642 388.7,642 388.7,816.1 396.7,816.1 401.7,816.1 401.7,582.6 399.7,593.8 	"/>
	<polygon class="st4" points="441.4,11.1 441.4,11.2 441.5,11.1 447.7,5.9 454.6,0.1 454.6,0 454.3,0 428.1,0 441.3,11.1 	"/>
	<polygon class="st4" points="422.8,23.4 423.7,23.4 426.8,23.4 428.1,22.3 423.7,18.6 417.9,13.8 421.7,17 	"/>
	<polygon class="st4" points="369.6,23.4 373.6,23.4 374.9,22.3 364.7,13.8 368.5,17 	"/>
	<polygon class="st4" points="388.2,11.2 388.7,10.7 401.4,0.1 401.4,0 401.1,0 374.9,0 388.2,11.1 	"/>
	<polygon class="st4" points="316.4,23.4 320.4,23.4 321.7,22.3 311.5,13.8 315.3,17 	"/>
	<polygon class="st4" points="296.4,23.4 299,23.4 298.4,19.5 295.1,22.3 296.4,23.4 	"/>
	<polygon class="st4" points="335,11.2 335.7,10.5 348.2,0.1 348.2,0 347.9,0 321.7,0 335,11.1 	"/>
	<polygon class="st4" points="243.2,23.4 245.8,23.4 245.2,19.5 241.8,22.3 243.2,23.4 	"/>
	<polygon class="st4" points="281.8,11.1 281.8,11.2 286.7,7 286.7,7 294.9,0 294.7,0 268.5,0 273.7,4.4 	"/>
	<polygon class="st4" points="263.2,23.4 267.1,23.4 269.7,23.4 269.7,23.4 269.7,23.4 269.8,23.4 268.5,22.3 259.7,15 262.1,17 	
		"/>
	<polygon class="st4" points="208.9,17 210,23.4 213.9,23.4 215.2,22.3 207.7,16 205.1,13.8 207.7,16 	"/>
	<polygon class="st4" points="228.5,11.2 228.7,11 241.7,0.1 241.7,0 241.7,0 241.7,0 241.5,0 228.7,0 215.3,0 228.5,11.1 	"/>
	<polygon class="st4" points="136.8,45.7 138.1,46.8 142,46.8 143.1,40.4 146.9,37.2 	"/>
	<polygon class="st4" points="136.7,23.4 136.8,23.4 157.7,23.4 160.7,23.4 170.7,15 172.2,13.8 188.5,0 188.2,0 170.7,0 162,0 
		157.7,3.6 134.1,23.4 110.5,23.4 110.3,23.4 123.5,34.5 	"/>
	<polygon class="st4" points="123.5,34.6 119.2,31 123.4,34.5 	"/>
	<polygon class="st4" points="110.2,23.5 119.2,31 110.2,23.4 110.2,23.4 110.2,23.4 110.2,23.5 	"/>
	<path class="st4" d="M184.7,23.4h-14h-3.4l1.1-6.4l2.3-1.9l-10,8.4h2.7l0,0l3.4,2.8l0,0l3.9,3.3l4.2,3.5l1.8,1.5l0,0l1.8-1.5
		l5.3-4.5l6.2-5.2h0h2.6l-0.7-3.9l-4.6,3.9H184.7z M166.8,26.3L166.8,26.3l-3.3-2.8h0L166.8,26.3L166.8,26.3z"/>
	<polygon class="st4" points="191.3,46.8 194.7,46.8 195.2,46.8 196.3,40.4 198.3,38.7 194.7,41.8 190,45.7 	"/>
	<polygon class="st4" points="244.5,46.8 248.4,46.8 249.6,40.4 251.5,38.7 243.2,45.7 	"/>
	<polygon class="st4" points="240.5,23.4 237.9,23.4 228.7,23.4 220.5,23.4 217,23.4 216.7,23.4 216.7,23.4 216.6,23.4 216.6,23.5 
		220,26.3 228.7,33.6 229.9,34.6 229.9,34.5 237,28.6 241.7,24.7 243.2,23.4 241.7,23.4 	"/>
	<polygon class="st4" points="269.8,45.7 269.9,45.7 271.7,35 269.8,23.8 268.2,33.1 269.7,33.1 269.7,45.6 266.6,43 266.5,43 
		265.8,46.8 267.2,46.8 268.4,46.8 268.5,46.8 269.7,45.8 	"/>
	<polygon class="st4" points="297.7,46.8 301.7,46.8 302.8,40.4 304.8,38.7 306.6,37.2 304.7,38.7 296.4,45.7 	"/>
	<polygon class="st4" points="291.1,23.4 286.7,23.4 273.7,23.4 273.7,23.4 272.7,23.4 270.2,23.4 269.9,23.4 269.9,23.4 
		269.8,23.4 269.9,23.5 272.7,25.8 273.2,26.3 273.7,26.7 283.1,34.6 283.1,34.5 286.7,31.5 290.2,28.6 296.4,23.4 293.7,23.4 	"/>
	<polygon class="st4" points="499,37.2 510.5,46.8 537.2,46.8 509.2,23.4 509.2,23.4 483,23.4 482.7,23.4 482.7,23.4 482.6,23.4 
		482.7,23.5 	"/>
	<polygon class="st4" points="297.6,70.2 299,70.2 298.4,66.4 298.2,66.5 295.1,69.1 296.4,70.2 	"/>
	<polygon class="st4" points="316.4,70.2 320.4,70.2 321.7,69.1 313.3,62.1 315.3,63.8 	"/>
	<polygon class="st4" points="325.3,49.9 327.9,52 328.7,52.7 335,58 335,58 335.7,57.4 341.7,52.3 344.8,49.7 344.8,49.6 
		348.2,46.8 348.2,46.8 348.2,46.8 348.2,46.8 348.2,46.8 348.4,46.8 348.7,46.8 348.7,45 341.7,39.1 343.2,40.4 344.3,46.8 
		341.7,46.8 335.7,46.8 329,46.8 328.7,46.8 327,46.8 324.3,46.8 323,45.8 319.8,43 319.7,43 319,46.8 320.5,46.8 321.7,46.8 
		321.7,46.8 322.7,47.7 	"/>
	<polygon class="st4" points="344.8,49.7 348.2,46.8 344.8,49.6 	"/>
	<polygon class="st4" points="260.1,62.1 262.1,63.8 263.2,70.2 267.1,70.2 268.5,69.1 260.1,62.1 259.7,61.8 258.3,60.6 
		259.7,61.8 	"/>
	<polygon class="st4" points="286.7,53.8 291.6,49.7 295,46.9 295,46.8 295,46.8 294.9,46.8 294.7,46.8 291.1,46.8 286.7,46.8 
		275.8,46.8 273.8,46.8 273.7,46.8 272.7,46.8 271.1,46.8 269.7,46.8 269.7,46.8 268.5,46.8 269.5,47.7 269.7,47.8 272.1,49.9 
		272.7,50.4 273.7,51.2 274.7,52 281.8,58 281.8,58 	"/>
	<polygon class="st4" points="196.2,62.8 197.4,63.8 198.4,69.3 198.5,70.2 205.1,70.2 201.2,66.9 196.2,62.8 	"/>
	<polygon class="st4" points="241.8,46.9 241.8,46.8 241.8,46.8 241.7,46.8 241.7,46.8 241.5,46.8 237.9,46.8 228.7,46.8 
		222.5,46.8 220.5,46.8 217.9,46.8 216.5,46.8 215.3,46.8 216.6,45.7 213.4,43 213.3,43 212.6,46.8 214,46.8 215.2,46.8 214.2,47.7 
		212.1,49.4 211.6,49.9 209.5,51.6 211.5,53.2 222.8,62.8 224.9,61 225.4,60.6 228.7,57.8 238.4,49.7 241.7,47 	"/>
	<polygon class="st4" points="138,70.2 139.4,70.2 138.7,66.1 137.3,58 133.9,60.8 132.9,61.6 132.1,66.4 135.3,69.1 136.7,70.2 
		136.8,70.2 	"/>
	<polygon class="st4" points="165.7,49.9 168.2,52 168.7,52.4 169.6,53.2 169.6,53.2 170.7,52.3 177.1,46.9 177.2,46.8 177.1,46.8 
		177.1,46.8 176.8,46.8 170.7,46.8 169.3,46.8 168.7,46.8 167.3,46.8 164.7,46.8 163.2,46.8 162,46.8 163.1,47.7 	"/>
	<polygon class="st4" points="153.7,62.1 155.7,63.8 155.8,64.8 156.3,64.3 153.7,62.1 151.8,60.6 	"/>
	<polygon class="st4" points="103.5,70.2 107.5,70.2 108.8,69.1 100.5,62.1 102.4,63.8 	"/>
	<polygon class="st4" points="83.5,70.2 84.8,70.2 86.2,70.2 85.5,66.4 85.4,66.5 80.9,70.2 	"/>
	<polygon class="st4" points="122.1,58 122.1,58 132,49.7 135.4,46.9 135.4,46.8 135.4,46.8 135.3,46.8 135,46.8 131.5,46.8 
		114.1,46.8 108.8,46.8 115,52 	"/>
	<polygon class="st4" points="82.1,46.9 82.2,46.8 82.1,46.8 82.1,46.8 81.8,46.8 55.6,46.8 55.6,46.8 27.7,70.2 54.3,70.2 
		65.8,60.6 	"/>
	<polygon class="st4" points="135.5,70.2 131.4,70.2 129.4,70.2 122.7,70.2 114.1,70.2 110.5,70.2 110.3,70.2 110.2,70.2 
		110.2,70.2 110.2,70.3 113.6,73.1 123.5,81.4 123.5,81.4 130.5,75.4 133.1,73.3 135.7,71.1 136.7,70.2 	"/>
	<polygon class="st4" points="142.1,93.1 143.1,87.2 144.5,86.1 145.1,85.5 146.9,84 145.1,85.5 144.5,86.1 136.8,92.5 137.4,93.1 	
		"/>
	<polygon class="st4" points="160.2,89.9 160,89.8 159.6,92.2 159.5,93.1 160.7,93.1 162.6,93.1 162.6,93.2 163.4,92.5 166.7,89.8 
		166.1,86.7 161.3,90.8 	"/>
	<polygon class="st4" points="194.7,93.7 195.2,93.7 195.4,92.7 196.3,87.2 200.2,84 194.7,88.6 192.6,90.4 190,92.5 191.3,93.7 	
		"/>
	<polygon class="st4" points="216.6,92.6 213.3,89.8 212.6,93.7 216.5,93.7 217.9,93.7 	"/>
	<polygon class="st4" points="170.7,76.4 172,77.4 176.7,81.4 176.7,81.4 181.7,77.2 182.3,76.7 186.3,73.3 188.9,71.1 190,70.2 
		188.8,70.2 187.3,70.2 182.7,70.2 181.7,70.2 181.2,70.2 173.2,70.2 170.7,70.2 168.7,70.2 163.8,70.2 163.5,70.2 163.4,70.2 
		163.4,70.2 163.4,70.3 168.7,74.7 	"/>
	<polygon class="st4" points="510.5,93.7 537.2,93.7 509.2,70.2 509.2,70.2 508,70.2 501.9,70.2 483,70.2 482.7,70.2 482.7,70.2 
		482.6,70.2 482.7,70.3 499,84 	"/>
	<polygon class="st4" points="418.4,106.9 422.2,110.1 423.4,116.5 423.7,116.5 427.3,116.5 428.6,115.4 423.7,111.3 	"/>
	<polygon class="st4" points="447.7,93.1 439.7,93.1 436.7,93.1 436,93.1 429.4,93.1 428.7,93.1 428.6,93.1 428.7,93.2 429.3,93.7 
		429.3,93.7 432.3,96.2 436.7,99.9 439.7,102.4 441.9,104.3 441.9,104.3 447.7,99.4 452.7,95.2 454.6,93.7 454.5,93.7 455.1,93.1 
		454.8,93.1 452.7,93.1 	"/>
	<polygon class="st4" points="352.8,116.5 352.1,112.7 348.8,115.4 350.1,116.5 350.2,116.5 	"/>
	<polygon class="st4" points="375.4,115.4 366.7,108.1 365.2,106.9 366.7,108.1 369,110.1 370.1,116.5 374.1,116.5 	"/>
	<polygon class="st4" points="401.9,93.1 401.7,93.1 401.7,70.2 400.2,70.2 388.7,70.2 388.7,93.1 379.7,93.1 376.9,93.1 373,89.9 
		366.7,84.6 352.7,72.8 349.6,70.2 349.6,70.2 348.7,70.2 348.4,70.2 344.3,70.2 342.3,70.2 341.7,70.2 335.7,70.2 328.7,70.2 
		326.9,70.2 323.4,70.2 323.1,70.2 323.1,70.2 323,70.2 323.1,70.3 326.4,73.1 328.7,75 335.7,80.9 339.4,84 339.9,84.4 341.7,85.9 
		341.7,85.9 343.2,87.2 344.2,93.1 341.7,93.1 335.7,93.1 329.6,93.1 328.7,93.1 326.9,93.1 323,93.1 322.2,93.1 322.9,93.7 
		325.9,96.2 327.7,97.7 328.7,98.5 335.5,104.3 335.5,104.3 335.7,104.1 341.7,99.1 344.8,96.5 348.7,93.2 348.7,93.1 348.7,91.8 
		350.3,93.1 366.7,93.1 366.9,93.1 373.6,93.1 375.4,93.1 375.4,93.1 376.1,93.7 379.7,96.7 388.7,104.2 388.7,104.3 388.7,104.3 
		401.7,93.4 	"/>
	<polygon class="st4" points="296.9,116.5 297.7,116.5 299.6,116.5 298.9,112.7 298.3,113.2 294.3,116.5 	"/>
	<polygon class="st4" points="315.8,110.1 316.9,116.5 319.7,116.5 320.9,116.5 322.2,115.4 319.7,113.3 313.9,108.5 312,106.9 
		313.9,108.5 	"/>
	<path class="st4" d="M294.9,93.7L294.9,93.7L294.9,93.7l0.7-0.5l0,0l0,0h-0.2h-8.5h-10.3h-2.7h-1h-2.2h-0.7h-0.1h-0.6l0.6-0.5
		l0.1-0.1l0.1-0.1l2.8-16.3v-6h-2.9l-0.1-0.1v22.3l-3.1-2.6l-6.9-5.8l-3-2.5l-9.8-8.2l-0.6-0.5l-2.1-1.7l-1-0.9h1.2h1.5l-0.7-3.9
		l-0.1,0.1l-3.2,2.7l-0.1,0.1l-1.2,1h-2.7h-2h-4.1h-3h-8.2H217h-0.3h0h-0.1l0,0l3.4,2.8l8.7,7.3L233,84l0.5,0.4l3.3,2.8l4.9,28.2
		V91.3l2.8,2.4h12.2h3h1.5h6.1h1.1l-1,0.8l-2.7,2.2l-5,4.2l-3,2.5l-14.9,12.5l-0.1,0.1l-0.6,0.5h-5.8l-6.5-5.5v5.5h-11.2h-0.3
		l11.5,9.7v0l4.8,4.1l3.8,3.2l4.4,25.1v-21.5l3.3,2.8h11.7h3h9.3l0.7-0.6l0.6-0.5l0.1-0.1l2.3-13.2v-13.2l1-0.8v8.3l1.7-9.7l3.8-3.2
		l7.5-6.3L294.9,93.7L294.9,93.7z M269.7,138.3l-10-8.4l-3-2.5l-13-10.9h13h3h8l2-1.7V138.3z"/>
	<polygon class="st4" points="119.5,106.9 132,96.5 135.3,93.7 135.7,93.3 135.7,93.3 135.9,93.1 135.8,93.1 135.8,93.1 135.7,93.1 
		135.6,93.1 131.4,93.1 116.8,93.1 114,93.1 110.1,93.1 109.5,93.1 109.3,93.1 107.8,94.5 105.7,96.1 105.1,96.7 85.4,113.2 
		81.4,116.5 84.8,116.5 91.5,116.5 108,116.5 118.5,107.8 	"/>
	<polygon class="st4" points="213.1,140 218.4,140 213.8,136.1 	"/>
	<polygon class="st4" points="194.7,140 195.8,140 196.9,133.5 200.7,130.3 194.7,135.3 190.5,138.8 191.8,140 	"/>
	<polygon class="st4" points="168.7,120.5 170.7,122.2 177.2,127.7 177.2,127.7 181.7,123.9 186.2,120.1 188.9,117.9 190.5,116.5 
		188.7,116.5 182,116.5 181.7,116.5 170.7,116.5 168.7,116.5 164.3,116.5 164,116.5 164,116.5 163.9,116.5 164,116.6 	"/>
	<polygon class="st4" points="217.2,116.6 228.7,126.2 217.2,116.5 	"/>
	<polygon class="st4" points="350.1,116.5 348.7,116.5 348.3,116.5 347.5,116.5 344.8,116.5 341.7,116.5 341.7,116.5 335.7,116.5 
		328.7,116.5 327.5,116.5 323.9,116.5 323.6,116.5 323.6,116.5 323.5,116.5 323.6,116.6 327,119.4 328.7,120.8 335.7,126.7 
		336.8,127.7 336.8,127.7 341.7,123.6 343.9,121.7 345.9,120.1 348.5,117.9 348.7,117.7 	"/>
	<polygon class="st4" points="355.4,140 356.5,133.5 358.5,131.8 360.3,130.3 358.5,131.8 350.1,138.8 351.4,140 	"/>
	<polygon class="st4" points="376.6,140 378,140 376.8,138.9 373.5,136.2 373.4,136.1 372.8,140 374.2,140 	"/>
	<polygon class="st4" points="410.7,140 421.3,140 423.7,140 427.4,140 428.6,140 430,138.8 426.8,136.2 423.7,133.6 410.7,122.7 
		406.4,119.1 403.4,116.5 406,116.5 405.3,112.7 402,115.4 403.3,116.5 401.7,116.5 400.7,116.5 398,116.5 388.7,116.5 380.7,116.5 
		379.7,116.5 377.1,116.5 376.9,116.5 376.8,116.5 376.8,116.5 376.8,116.6 379.7,119 380.2,119.4 388.7,126.5 393.2,130.3 
		393.7,130.7 393.7,130.7 397,133.5 401.7,160.8 401.7,137.5 404.7,140 	"/>
	<polygon class="st4" points="509.8,116.5 509.8,116.5 507.9,116.5 501.3,116.5 483.6,116.5 483.3,116.5 483.2,116.5 483.2,116.5 
		483.2,116.6 499.6,130.3 511.1,140 537.7,140 	"/>
</g>
</svg>
