<svg xmlns="http://www.w3.org/2000/svg" viewBox="0 0 572.92 628.89"><defs><style>.cls-1{fill:#b31628;}.cls-2{fill:#890b17;}.cls-3{fill:#faf2d3;}.cls-11,.cls-12,.cls-13,.cls-14,.cls-15,.cls-16,.cls-17,.cls-18,.cls-19,.cls-20,.cls-21,.cls-22,.cls-23,.cls-24,.cls-25,.cls-26,.cls-27,.cls-28,.cls-29,.cls-30,.cls-4,.cls-8{fill:none;stroke:#35100e;stroke-miterlimit:10;}.cls-4{stroke-width:0.37px;}.cls-5{fill:#121c19;}.cls-6{fill:#424242;}.cls-7{fill:#232323;}.cls-8{stroke-width:0.26px;}.cls-9{fill:#958c8e;}.cls-10{fill:#d2c3af;}.cls-11{stroke-width:0.39px;}.cls-12{stroke-width:0.28px;}.cls-13{stroke-width:0.46px;}.cls-14{stroke-width:0.33px;}.cls-15{stroke-width:0.56px;}.cls-16{stroke-width:0.4px;}.cls-17{stroke-width:0.72px;}.cls-18{stroke-width:0.52px;}.cls-19{stroke-width:0.77px;}.cls-20{stroke-width:0.55px;}.cls-21{stroke-width:0.92px;}.cls-22{stroke-width:0.66px;}.cls-23{stroke-width:0.99px;}.cls-24{stroke-width:0.71px;}.cls-25{stroke-width:1.18px;}.cls-26{stroke-width:0.84px;}.cls-27{stroke-width:1.28px;}.cls-28{stroke-width:0.92px;}.cls-29{stroke-width:1.49px;}.cls-30{stroke-width:1.07px;}</style></defs><title>Asset 43</title><g id="Layer_2" data-name="Layer 2"><g id="shrine"><g id="Layer_42" data-name="Layer 42"><path class="cls-1" d="M553.86,31.15h-4V102q2-2.31,4-4.42Z"/><path class="cls-2" d="M557.14,94.23h1.12V31.15h-4V97.22C555.21,96.19,556.18,95.19,557.14,94.23Z"/><path class="cls-2" d="M554.23,97.22V31.15h-.37V97.61Z"/><path class="cls-1" d="M540.06,46.93h-4v72.52c1.36-1.89,2.7-3.7,4-5.45Z"/><path class="cls-2" d="M544.45,108.4V46.93h-4v66.59C541.78,111.74,543.13,110,544.45,108.4Z"/><path class="cls-2" d="M540.42,113.52V46.93h-.36V114Z"/><path class="cls-1" d="M527.85,60.23h-4.28v77.38h.26q2-3.23,4-6.25Z"/><path class="cls-2" d="M532.51,124.43V60.23h-4.28v70.54Q530.41,127.47,532.51,124.43Z"/><path class="cls-2" d="M528.23,130.77V60.23h-.38v71.13C528,131.17,528.11,131,528.23,130.77Z"/><path class="cls-1" d="M511.43,74.32h-5.08v91.91h.74q2.21-4,4.34-7.78Z"/><path class="cls-2" d="M517,148.86V74.32h-5.08v83.31Q514.49,153.08,517,148.86Z"/><path class="cls-2" d="M511.89,157.63V74.32h-.46v84.13C511.59,158.18,511.74,157.9,511.89,157.63Z"/><path class="cls-1" d="M494,90.76h-6.19V202.69h.42q2.94-5.94,5.77-11.51Z"/><path class="cls-2" d="M500.69,178.13V90.76h-6.18v99.31Q497.66,183.88,500.69,178.13Z"/><path class="cls-2" d="M494.51,190.07V90.76H494V191.18C494.13,190.81,494.32,190.44,494.51,190.07Z"/><path class="cls-1" d="M469.05,120.16h-7.94v140.3q4.06-9.06,7.94-17.5Z"/><path class="cls-2" d="M477.71,224.36V120.16h-7.94V241.38Q473.84,232.55,477.71,224.36Z"/><path class="cls-2" d="M469.77,241.38V120.16h-.72V243Z"/><path class="cls-1" d="M446.22,151.68h-8.45V304.49h.56q4.4-6.42,7.89-12.43Z"/><path class="cls-2" d="M452.62,279.6l2.81-6.38V151.68H447V290.73A120.39,120.39,0,0,0,452.62,279.6Z"/><path class="cls-2" d="M447,290.73v-139h-.76V292.06C446.47,291.62,446.74,291.17,447,290.73Z"/><path class="cls-1" d="M402.76,180.39H392.63v179q5.24-5.52,10.13-10.92Z"/><path class="cls-2" d="M413.81,336V180.39H403.68v167Q409,341.6,413.81,336Z"/><path class="cls-2" d="M403.68,347.42v-167h-.92V348.44Z"/><path class="cls-1" d="M351.8,219.85H340.9V410.32q5.53-5.15,10.9-10.25Z"/><path class="cls-2" d="M363.69,388.64V219.85h-10.9V399.13Q358.34,393.85,363.69,388.64Z"/><path class="cls-2" d="M352.79,399.13V219.85h-1V400.07Z"/><path class="cls-1" d="M278.94,251.56H266v225q6.51-5.52,13-11.05Z"/><path class="cls-2" d="M293.08,453.3V251.56h-13v213Q286.63,458.92,293.08,453.3Z"/><path class="cls-2" d="M280.12,464.51V251.56h-1.18v214Z"/><path class="cls-1" d="M199.47,293.35H185.54V542.57q6.92-5.51,13.93-11.14Z"/><path class="cls-2" d="M214.65,519.15V293.35H200.73V530.41Q207.66,524.83,214.65,519.15Z"/><path class="cls-2" d="M200.73,530.41V293.35h-1.26V531.43Z"/><path class="cls-1" d="M90,339.33H73.75V628.89q7.6-5.7,16.22-12.21Z"/><path class="cls-2" d="M107.67,603.25V339.33H91.44V615.57Q99.21,609.7,107.67,603.25Zm-1.76-247.7v53.53l-12.55,4.4L93,360.09Z"/><path class="cls-2" d="M91.44,615.57V339.33H90V616.68Z"/><rect class="cls-3" x="543.23" y="12.46" width="10.63" height="1.1"/><path class="cls-2" d="M556.43,29l8.06-5.49s2.57,1.46,4.76.73l-11,8.79S555.69,30.05,556.43,29Z"/><rect class="cls-1" x="540.67" y="13.56" width="15.76" height="15.76" transform="translate(569.99 -527.11) rotate(90)"/><rect class="cls-3" x="543.23" y="16.13" width="10.63" height="10.63"/><line class="cls-4" x1="543.23" y1="24.19" x2="553.86" y2="24.19"/><line class="cls-4" x1="543.23" y1="21.99" x2="553.86" y2="21.99"/><line class="cls-4" x1="551.3" y1="16.13" x2="551.3" y2="26.75"/><line class="cls-4" x1="545.8" y1="16.13" x2="545.8" y2="26.75"/><path class="cls-1" d="M540.67,29.32a10.53,10.53,0,0,1-4.95,3.48h22.72s-2-1.65-2-3.48Z"/><rect class="cls-5" x="543.97" y="7.33" width="28.22" height="2.2" rx="0.56" ry="0.56"/><rect class="cls-6" x="544.7" y="7.33" width="28.22" height="2.2" rx="0.56" ry="0.56"/><path d="M564,1.74c3,3,6.77,6.32,8.94,6.32H544.7L552.5,2Z"/><polygon class="cls-2" points="561.56 5.13 557.16 12.83 557.3 12.88 556.43 13.5 556.43 29.26 564.49 23.52 564.49 8.8 564.49 8.8 564.49 7.76 564.49 7.7 561.56 5.13"/><path class="cls-7" d="M545.07.73s-9.53,11.36-13.56,11.36h28.22s2.56-8.43,7-11Z"/><polygon class="cls-3" points="563.18 21.89 563.18 11.26 557.74 15.13 557.74 25.76 563.18 21.89"/><line class="cls-8" x1="561.87" y1="12.19" x2="561.87" y2="22.82"/><line class="cls-8" x1="560.74" y1="12.99" x2="560.74" y2="23.62"/><line class="cls-8" x1="557.74" y1="23.19" x2="563.18" y2="19.32"/><line class="cls-8" x1="557.74" y1="17.69" x2="563.18" y2="13.83"/><rect class="cls-6" x="543.6" width="21.62" height="2.2" rx="0.56" ry="0.56"/><rect class="cls-6" x="531.87" y="11.36" width="28.22" height="2.2" rx="0.56" ry="0.56"/><path class="cls-6" d="M549.46,1.47a17,17,0,0,1-1.17,3.17,24.19,24.19,0,0,1-1.64,2.94,17.5,17.5,0,0,1-2.13,2.66,6.25,6.25,0,0,1-2.88,1.83,11,11,0,0,0,2.23-2.4c.64-.88,1.27-1.77,1.86-2.69C547,5.15,548.1,3.28,549.46,1.47Z"/><path class="cls-6" d="M559,1.83A16.72,16.72,0,0,1,557.82,5a24.31,24.31,0,0,1-1.64,3,16.94,16.94,0,0,1-2.13,2.65,6.3,6.3,0,0,1-2.88,1.83A11.22,11.22,0,0,0,553.4,10c.64-.88,1.27-1.77,1.86-2.69C556.48,5.52,557.63,3.64,559,1.83Z"/><polygon class="cls-9" points="554.71 49.11 557.82 48.04 557.82 35.08 554.62 36.18 554.71 49.11"/><ellipse class="cls-10" cx="564.49" cy="1.28" rx="0.73" ry="1.28"/><ellipse class="cls-10" cx="559.36" cy="12.28" rx="0.73" ry="1.28"/><ellipse class="cls-10" cx="572.37" cy="8.43" rx="0.55" ry="1.1"/><rect class="cls-3" x="529.43" y="28.24" width="10.63" height="1.1"/><path class="cls-2" d="M542.62,44.73l8.07-5.5s2.56,1.47,4.76.74l-11,8.79S541.89,45.83,542.62,44.73Z"/><rect class="cls-1" x="526.86" y="29.34" width="15.76" height="15.76" transform="translate(571.96 -497.53) rotate(90)"/><rect class="cls-3" x="529.43" y="31.9" width="10.63" height="10.63"/><line class="cls-4" x1="529.43" y1="39.97" x2="540.06" y2="39.97"/><line class="cls-4" x1="529.43" y1="37.77" x2="540.06" y2="37.77"/><line class="cls-4" x1="537.49" y1="31.9" x2="537.49" y2="42.53"/><line class="cls-4" x1="531.99" y1="31.9" x2="531.99" y2="42.53"/><path class="cls-1" d="M526.86,45.1a10.46,10.46,0,0,1-4.94,3.48h22.72s-2-1.65-2-3.48Z"/><rect class="cls-5" x="530.16" y="23.11" width="28.22" height="2.2" rx="0.56" ry="0.56"/><rect class="cls-6" x="530.89" y="23.11" width="28.22" height="2.2" rx="0.56" ry="0.56"/><path d="M550.18,17.51c3,3,6.77,6.33,8.94,6.33H530.89l7.81-6.05Z"/><polygon class="cls-2" points="547.75 20.91 543.36 28.6 543.5 28.65 542.62 29.27 542.62 45.03 550.69 39.3 550.69 24.58 550.69 24.57 550.69 23.54 550.69 23.47 547.75 20.91"/><path class="cls-7" d="M531.26,16.51s-9.53,11.36-13.56,11.36h28.22s2.57-8.43,7-11Z"/><polygon class="cls-3" points="549.37 37.66 549.37 27.04 543.93 30.91 543.93 41.53 549.37 37.66"/><line class="cls-8" x1="548.06" y1="27.97" x2="548.06" y2="38.6"/><line class="cls-8" x1="546.94" y1="28.77" x2="546.94" y2="39.4"/><line class="cls-8" x1="543.94" y1="38.97" x2="549.37" y2="35.1"/><line class="cls-8" x1="543.94" y1="33.47" x2="549.37" y2="29.6"/><rect class="cls-6" x="529.8" y="15.78" width="21.62" height="2.2" rx="0.56" ry="0.56"/><rect class="cls-6" x="518.07" y="27.14" width="28.22" height="2.2" rx="0.56" ry="0.56"/><path class="cls-6" d="M535.66,17.24a18.21,18.21,0,0,1-1.17,3.17,24.39,24.39,0,0,1-1.65,2.95A16.9,16.9,0,0,1,530.71,26a6.26,6.26,0,0,1-2.88,1.82,11,11,0,0,0,2.24-2.39c.64-.88,1.26-1.77,1.86-2.69C533.14,20.93,534.3,19.05,535.66,17.24Z"/><path class="cls-6" d="M545.19,17.61A18.52,18.52,0,0,1,544,20.78a25.82,25.82,0,0,1-1.65,2.95,16.83,16.83,0,0,1-2.13,2.65,6.2,6.2,0,0,1-2.88,1.83,11.27,11.27,0,0,0,2.24-2.39c.63-.88,1.26-1.77,1.86-2.7C542.67,21.3,543.83,19.42,545.19,17.61Z"/><polygon class="cls-9" points="540.9 64.89 544.02 63.82 544.02 50.86 540.81 51.96 540.9 64.89"/><ellipse class="cls-10" cx="550.69" cy="17.06" rx="0.73" ry="1.28"/><ellipse class="cls-10" cx="545.55" cy="28.05" rx="0.73" ry="1.28"/><ellipse class="cls-10" cx="558.57" cy="24.21" rx="0.55" ry="1.1"/><rect class="cls-3" x="516.57" y="40.39" width="11.28" height="1.17"/><path class="cls-2" d="M530.57,57.89l8.55-5.83s2.73,1.56,5.06.78l-11.67,9.33S529.79,59.06,530.57,57.89Z"/><rect class="cls-1" x="513.85" y="41.56" width="16.72" height="16.72" transform="translate(572.13 -472.29) rotate(90)"/><rect class="cls-3" x="516.57" y="44.28" width="11.28" height="11.28"/><line class="cls-11" x1="516.57" y1="52.84" x2="527.85" y2="52.84"/><line class="cls-11" x1="516.57" y1="50.51" x2="527.85" y2="50.51"/><line class="cls-11" x1="525.12" y1="44.28" x2="525.12" y2="55.56"/><line class="cls-11" x1="519.29" y1="44.28" x2="519.29" y2="55.56"/><path class="cls-1" d="M513.85,58.28A11.17,11.17,0,0,1,508.6,62h24.11s-2.14-1.75-2.14-3.7Z"/><rect class="cls-5" x="517.35" y="34.95" width="29.94" height="2.33" rx="0.56" ry="0.56"/><rect class="cls-6" x="518.12" y="34.95" width="29.94" height="2.33" rx="0.56" ry="0.56"/><path d="M538.58,29c3.2,3.22,7.19,6.71,9.49,6.71h-30l8.29-6.42Z"/><polygon class="cls-2" points="536.01 32.62 531.35 40.78 531.5 40.83 530.57 41.49 530.57 58.22 539.12 52.13 539.12 36.52 539.12 36.51 539.12 35.41 539.12 35.34 536.01 32.62"/><path class="cls-7" d="M518.51,28S508.4,40,504.13,40h29.94s2.72-8.95,7.39-11.67Z"/><polygon class="cls-3" points="537.73 50.4 537.73 39.12 531.96 43.23 531.96 54.5 537.73 50.4"/><line class="cls-12" x1="536.34" y1="40.11" x2="536.34" y2="51.39"/><line class="cls-12" x1="535.14" y1="40.96" x2="535.14" y2="52.24"/><line class="cls-12" x1="531.96" y1="51.78" x2="537.73" y2="47.68"/><line class="cls-12" x1="531.96" y1="45.95" x2="537.73" y2="41.84"/><rect class="cls-6" x="516.96" y="27.17" width="22.94" height="2.33" rx="0.56" ry="0.56"/><rect class="cls-6" x="504.51" y="39.23" width="29.94" height="2.33" rx="0.56" ry="0.56"/><path class="cls-6" d="M523.18,28.73a19.58,19.58,0,0,1-1.24,3.36,25.25,25.25,0,0,1-1.75,3.13A17.92,17.92,0,0,1,517.93,38a6.72,6.72,0,0,1-3,1.94,12.38,12.38,0,0,0,2.37-2.54c.67-.94,1.34-1.88,2-2.86C520.51,32.64,521.74,30.65,523.18,28.73Z"/><path class="cls-6" d="M533.29,29.12a18.78,18.78,0,0,1-1.24,3.36,26,26,0,0,1-1.75,3.13A17.92,17.92,0,0,1,528,38.43a6.72,6.72,0,0,1-3,1.94,12.38,12.38,0,0,0,2.37-2.54c.67-.94,1.34-1.88,2-2.86C530.62,33,531.85,31,533.29,29.12Z"/><polygon class="cls-9" points="528.74 79.28 532.05 78.15 532.05 64.4 528.64 65.56 528.74 79.28"/><ellipse class="cls-10" cx="539.12" cy="28.53" rx="0.78" ry="1.36"/><ellipse class="cls-10" cx="533.68" cy="40.2" rx="0.78" ry="1.36"/><ellipse class="cls-10" cx="547.48" cy="36.12" rx="0.58" ry="1.17"/><rect class="cls-3" x="498.04" y="50.77" width="13.39" height="1.39"/><path class="cls-2" d="M514.67,71.55l10.16-6.93s3.23,1.85,6,.93L517,76.63S513.74,72.94,514.67,71.55Z"/><rect class="cls-1" x="494.8" y="52.15" width="19.86" height="19.86" transform="translate(566.82 -442.65) rotate(90)"/><rect class="cls-3" x="498.04" y="55.38" width="13.39" height="13.39"/><line class="cls-13" x1="498.04" y1="65.55" x2="511.43" y2="65.55"/><line class="cls-13" x1="498.04" y1="62.77" x2="511.43" y2="62.77"/><line class="cls-13" x1="508.2" y1="55.38" x2="508.2" y2="68.78"/><line class="cls-13" x1="501.27" y1="55.38" x2="501.27" y2="68.78"/><path class="cls-1" d="M494.8,72a13.23,13.23,0,0,1-6.23,4.39h28.64s-2.54-2.08-2.54-4.39Z"/><rect class="cls-5" x="498.96" y="44.3" width="35.56" height="2.77" rx="0.56" ry="0.56"/><rect class="cls-6" x="499.89" y="44.3" width="35.56" height="2.77" rx="0.56" ry="0.56"/><path d="M524.18,37.25c3.8,3.83,8.54,8,11.27,8H499.89l9.83-7.62Z"/><polygon class="cls-2" points="521.13 41.53 515.59 51.23 515.77 51.29 514.66 52.07 514.66 71.93 524.83 64.7 524.83 46.16 524.83 46.15 524.83 44.84 524.83 44.76 521.13 41.53"/><path class="cls-7" d="M500.35,36s-12,14.31-17.09,14.31h35.56s3.24-10.62,8.78-13.85Z"/><polygon class="cls-3" points="523.17 62.65 523.17 49.25 516.32 54.13 516.32 67.52 523.17 62.65"/><line class="cls-14" x1="521.52" y1="50.43" x2="521.52" y2="63.82"/><line class="cls-14" x1="520.1" y1="51.44" x2="520.1" y2="64.83"/><line class="cls-14" x1="516.32" y1="64.29" x2="523.17" y2="59.41"/><line class="cls-14" x1="516.32" y1="57.36" x2="523.17" y2="52.48"/><rect class="cls-6" x="498.5" y="35.06" width="27.25" height="2.77" rx="0.56" ry="0.56"/><rect class="cls-6" x="483.72" y="49.38" width="35.56" height="2.77" rx="0.56" ry="0.56"/><path class="cls-6" d="M505.89,36.91a22.19,22.19,0,0,1-1.48,4,30.09,30.09,0,0,1-2.07,3.72A21.92,21.92,0,0,1,499.66,48,7.92,7.92,0,0,1,496,50.27a14.1,14.1,0,0,0,2.81-3c.81-1.11,1.6-2.23,2.35-3.39C502.72,41.55,504.18,39.19,505.89,36.91Z"/><path class="cls-6" d="M517.9,37.37a22.58,22.58,0,0,1-1.48,4,30.71,30.71,0,0,1-2.07,3.71,21,21,0,0,1-2.69,3.35,7.9,7.9,0,0,1-3.62,2.3,14.29,14.29,0,0,0,2.81-3c.81-1.11,1.6-2.24,2.35-3.4C514.73,42,516.19,39.65,517.9,37.37Z"/><polygon class="cls-9" points="512.5 96.95 516.42 95.61 516.42 79.27 512.38 80.66 512.5 96.95"/><ellipse class="cls-10" cx="524.83" cy="36.68" rx="0.92" ry="1.62"/><ellipse class="cls-10" cx="518.36" cy="50.53" rx="0.92" ry="1.62"/><ellipse class="cls-10" cx="534.76" cy="45.68" rx="0.69" ry="1.39"/><rect class="cls-3" x="477.63" y="62.07" width="16.31" height="1.69"/><path class="cls-2" d="M497.88,87.39,510.26,79s3.93,2.25,7.31,1.12l-16.88,13.5S496.76,89.07,497.88,87.39Z"/><rect class="cls-1" x="473.7" y="63.76" width="24.19" height="24.19" transform="translate(561.64 -409.93) rotate(90)"/><rect class="cls-3" x="477.63" y="67.7" width="16.31" height="16.31"/><line class="cls-15" x1="477.63" y1="80.07" x2="493.95" y2="80.07"/><line class="cls-15" x1="477.63" y1="76.7" x2="493.95" y2="76.7"/><line class="cls-15" x1="490.01" y1="67.7" x2="490.01" y2="84.01"/><line class="cls-15" x1="481.57" y1="67.7" x2="481.57" y2="84.01"/><path class="cls-1" d="M473.7,88a16.16,16.16,0,0,1-7.6,5.34H501s-3.1-2.53-3.1-5.34Z"/><rect class="cls-5" x="478.76" y="54.2" width="43.31" height="3.37" rx="0.56" ry="0.56"/><rect class="cls-6" x="479.88" y="54.2" width="43.31" height="3.37" rx="0.56" ry="0.56"/><path d="M509.47,45.62c4.63,4.66,10.4,9.7,13.72,9.7H479.88l12-9.28Z"/><polygon class="cls-2" points="505.76 50.83 499.01 62.64 499.22 62.71 497.88 63.66 497.88 87.85 510.26 79.05 510.26 56.46 510.26 56.45 510.26 54.86 510.26 54.76 505.76 50.83"/><path class="cls-7" d="M480.45,44.08s-14.63,17.43-20.82,17.43h43.31s3.94-12.94,10.69-16.87Z"/><polygon class="cls-3" points="508.24 76.54 508.24 60.23 499.9 66.17 499.9 82.48 508.24 76.54"/><line class="cls-16" x1="506.23" y1="61.66" x2="506.23" y2="77.98"/><line class="cls-16" x1="504.5" y1="62.89" x2="504.5" y2="79.2"/><line class="cls-16" x1="499.9" y1="78.54" x2="508.24" y2="72.6"/><line class="cls-16" x1="499.9" y1="70.1" x2="508.24" y2="64.17"/><rect class="cls-6" x="478.2" y="42.95" width="33.19" height="3.37" rx="0.56" ry="0.56"/><rect class="cls-6" x="460.2" y="60.39" width="43.31" height="3.37" rx="0.56" ry="0.56"/><path class="cls-6" d="M487.2,45.2a27.48,27.48,0,0,1-1.8,4.86,39.29,39.29,0,0,1-2.52,4.53,26.58,26.58,0,0,1-3.28,4.07,9.54,9.54,0,0,1-4.41,2.81,17.22,17.22,0,0,0,3.42-3.67c1-1.35,1.95-2.72,2.86-4.14l2.78-4.24C485.19,48,486.14,46.59,487.2,45.2Z"/><path class="cls-6" d="M501.82,45.76a27.88,27.88,0,0,1-1.8,4.87,38.5,38.5,0,0,1-2.52,4.52,27.08,27.08,0,0,1-3.27,4.08,9.63,9.63,0,0,1-4.42,2.8,17,17,0,0,0,3.43-3.67c1-1.35,1.94-2.72,2.85-4.14L498.88,50C499.81,48.56,500.76,47.15,501.82,45.76Z"/><polygon class="cls-9" points="495.24 118.32 500.02 116.68 500.02 96.79 495.1 98.48 495.24 118.32"/><ellipse class="cls-10" cx="510.26" cy="44.92" rx="1.12" ry="1.97"/><ellipse class="cls-10" cx="502.38" cy="61.79" rx="1.12" ry="1.97"/><ellipse class="cls-10" cx="522.35" cy="55.89" rx="0.84" ry="1.69"/><rect class="cls-3" x="448.11" y="83.34" width="20.94" height="2.17"/><path class="cls-2" d="M474.1,115.83,490,105s5.05,2.89,9.38,1.44l-21.66,17.33S472.66,118,474.1,115.83Z"/><rect class="cls-1" x="443.06" y="85.51" width="31.04" height="31.04" transform="translate(559.61 -357.55) rotate(90)"/><rect class="cls-3" x="448.11" y="90.56" width="20.94" height="20.94"/><line class="cls-17" x1="448.11" y1="106.44" x2="469.05" y2="106.44"/><line class="cls-17" x1="448.11" y1="102.11" x2="469.05" y2="102.11"/><line class="cls-17" x1="464" y1="90.56" x2="464" y2="111.5"/><line class="cls-17" x1="453.17" y1="90.56" x2="453.17" y2="111.5"/><path class="cls-1" d="M443.06,116.55s-2.89,4.33-9.75,6.86h44.76s-4-3.25-4-6.86Z"/><rect class="cls-5" x="449.56" y="73.24" width="55.59" height="4.33" rx="0.56" ry="0.56"/><rect class="cls-6" x="451" y="73.24" width="55.59" height="4.33" rx="0.56" ry="0.56"/><path d="M489,62.22c5.93,6,13.34,12.46,17.61,12.46H451l15.38-11.92Z"/><polygon class="cls-2" points="484.21 68.9 475.55 84.06 475.82 84.16 474.1 85.38 474.1 116.43 489.99 105.13 489.99 76.14 489.99 76.12 489.99 74.08 489.99 73.96 484.21 68.9"/><path class="cls-7" d="M451.72,60.24S433,82.62,425,82.62H480.6s5-16.6,13.72-21.66Z"/><polygon class="cls-3" points="487.4 101.91 487.4 80.98 476.69 88.6 476.69 109.53 487.4 101.91"/><line class="cls-18" x1="484.81" y1="82.82" x2="484.81" y2="103.75"/><line class="cls-18" x1="482.6" y1="84.39" x2="482.6" y2="105.33"/><line class="cls-18" x1="476.69" y1="104.48" x2="487.4" y2="96.86"/><line class="cls-18" x1="476.69" y1="93.65" x2="487.4" y2="86.03"/><rect class="cls-6" x="448.84" y="58.8" width="42.59" height="4.33" rx="0.56" ry="0.56"/><rect class="cls-6" x="425.73" y="81.18" width="55.59" height="4.33" rx="0.56" ry="0.56"/><path class="cls-6" d="M460.39,61.68a34.92,34.92,0,0,1-2.31,6.25,49.37,49.37,0,0,1-3.24,5.81,33.24,33.24,0,0,1-4.2,5.22A12.3,12.3,0,0,1,445,82.57a21.84,21.84,0,0,0,4.4-4.72c.62-.87,1.28-1.71,1.86-2.62s1.22-1.77,1.8-2.68l3.58-5.44C457.81,65.28,459,63.46,460.39,61.68Z"/><path class="cls-6" d="M479.16,62.41a35.11,35.11,0,0,1-2.31,6.24,48.58,48.58,0,0,1-3.24,5.81,33.78,33.78,0,0,1-4.2,5.23,12.36,12.36,0,0,1-5.67,3.6,22,22,0,0,0,4.4-4.71c.62-.88,1.28-1.72,1.86-2.63s1.22-1.77,1.8-2.68l3.58-5.44C476.58,66,477.8,64.19,479.16,62.41Z"/><polygon class="cls-9" points="470.71 155.54 476.85 153.44 476.85 127.9 470.53 130.06 470.71 155.54"/><ellipse class="cls-10" cx="489.99" cy="61.32" rx="1.44" ry="2.53"/><ellipse class="cls-10" cx="479.88" cy="82.98" rx="1.44" ry="2.53"/><ellipse class="cls-10" cx="505.51" cy="75.4" rx="1.08" ry="2.17"/><rect class="cls-3" x="423.95" y="112.52" width="22.27" height="2.3"/><path class="cls-2" d="M451.59,147.07l16.9-11.52s5.37,3.07,10,1.54l-23,18.43S450.06,149.37,451.59,147.07Z"/><rect class="cls-1" x="418.57" y="114.82" width="33.02" height="33.02" transform="translate(566.41 -303.75) rotate(90)"/><rect class="cls-3" x="423.95" y="120.19" width="22.27" height="22.27"/><line class="cls-19" x1="423.95" y1="137.09" x2="446.22" y2="137.09"/><line class="cls-19" x1="423.95" y1="132.48" x2="446.22" y2="132.48"/><line class="cls-19" x1="440.84" y1="120.19" x2="440.84" y2="142.46"/><line class="cls-19" x1="429.32" y1="120.19" x2="429.32" y2="142.46"/><path class="cls-1" d="M418.57,147.84s-3.07,4.61-10.37,7.29h47.61s-4.22-3.45-4.22-7.29Z"/><rect class="cls-5" x="425.48" y="101.76" width="59.13" height="4.61" rx="0.56" ry="0.56"/><rect class="cls-6" x="427.02" y="101.76" width="59.13" height="4.61" rx="0.56" ry="0.56"/><path d="M467.42,90.05c6.31,6.36,14.18,13.25,18.73,13.25H427l16.35-12.67Z"/><polygon class="cls-2" points="462.34 97.16 453.13 113.28 453.42 113.38 451.59 114.69 451.59 147.71 468.49 135.69 468.49 104.86 468.49 104.84 468.49 102.67 468.49 102.53 462.34 97.16"/><path class="cls-7" d="M427.79,87.94s-20,23.81-28.42,23.81H458.5s5.38-17.66,14.59-23Z"/><polygon class="cls-3" points="465.74 132.27 465.74 110 454.34 118.1 454.34 140.37 465.74 132.27"/><line class="cls-20" x1="462.98" y1="111.95" x2="462.98" y2="134.22"/><line class="cls-20" x1="460.63" y1="113.63" x2="460.63" y2="135.9"/><line class="cls-20" x1="454.34" y1="135" x2="465.73" y2="126.89"/><line class="cls-20" x1="454.34" y1="123.48" x2="465.73" y2="115.37"/><rect class="cls-6" x="424.71" y="86.41" width="45.31" height="4.61" rx="0.56" ry="0.56"/><rect class="cls-6" x="400.14" y="110.21" width="59.13" height="4.61" rx="0.56" ry="0.56"/><path class="cls-6" d="M437,89.48a37.73,37.73,0,0,1-2.45,6.64,51.23,51.23,0,0,1-3.45,6.18,36.48,36.48,0,0,1-4.46,5.56,13.18,13.18,0,0,1-6,3.83,23.56,23.56,0,0,0,4.67-5c.66-.93,1.36-1.83,2-2.8s1.3-1.88,1.92-2.85L433,95.24C434.26,93.3,435.56,91.37,437,89.48Z"/><path class="cls-6" d="M457,90.25a37.77,37.77,0,0,1-2.46,6.64,51.93,51.93,0,0,1-3.44,6.18,36.42,36.42,0,0,1-4.47,5.56,13.13,13.13,0,0,1-6,3.83,23.42,23.42,0,0,0,4.68-5c.66-.93,1.36-1.82,2-2.79s1.3-1.88,1.92-2.85L453,96C454.23,94.07,455.53,92.14,457,90.25Z"/><polygon class="cls-9" points="447.98 189.31 454.51 187.07 454.51 159.91 447.79 162.21 447.98 189.31"/><ellipse class="cls-10" cx="468.49" cy="89.09" rx="1.54" ry="2.69"/><ellipse class="cls-10" cx="457.73" cy="112.13" rx="1.54" ry="2.69"/><ellipse class="cls-10" cx="485" cy="104.07" rx="1.15" ry="2.3"/><rect class="cls-3" x="376.05" y="133.42" width="26.71" height="2.76"/><path class="cls-2" d="M409.21,174.87l20.26-13.82s6.44,3.69,12,1.84L413.81,185S407.37,177.63,409.21,174.87Z"/><rect class="cls-1" x="369.61" y="136.19" width="39.6" height="39.6" transform="translate(545.4 -233.42) rotate(90)"/><rect class="cls-3" x="376.05" y="142.63" width="26.71" height="26.71"/><line class="cls-21" x1="376.05" y1="162.89" x2="402.76" y2="162.89"/><line class="cls-21" x1="376.05" y1="157.37" x2="402.76" y2="157.37"/><line class="cls-21" x1="396.31" y1="142.63" x2="396.31" y2="169.34"/><line class="cls-21" x1="382.5" y1="142.63" x2="382.5" y2="169.34"/><path class="cls-1" d="M369.61,175.79s-3.69,5.52-12.43,8.75h57.09s-5.06-4.15-5.06-8.75Z"/><rect class="cls-5" x="377.9" y="120.53" width="70.91" height="5.53" rx="0.56" ry="0.56"/><rect class="cls-6" x="379.74" y="120.53" width="70.91" height="5.53" rx="0.56" ry="0.56"/><path d="M428.19,106.48c7.56,7.63,17,15.89,22.46,15.89H379.74l19.61-15.2Z"/><polygon class="cls-2" points="422.1 115.01 411.05 134.35 411.4 134.46 409.21 136.03 409.21 175.63 429.47 161.21 429.47 124.24 429.47 124.22 429.47 121.61 429.47 121.45 422.1 115.01"/><path class="cls-7" d="M380.66,104s-23.94,28.54-34.07,28.54H417.5s6.44-21.18,17.49-27.62Z"/><polygon class="cls-3" points="426.17 157.11 426.17 130.41 412.51 140.13 412.51 166.83 426.17 157.11"/><line class="cls-22" x1="422.87" y1="132.75" x2="422.87" y2="159.46"/><line class="cls-22" x1="420.04" y1="134.76" x2="420.04" y2="161.47"/><line class="cls-22" x1="412.51" y1="160.39" x2="426.17" y2="150.67"/><line class="cls-22" x1="412.51" y1="146.57" x2="426.17" y2="136.85"/><rect class="cls-6" x="376.98" y="102.11" width="54.33" height="5.53" rx="0.56" ry="0.56"/><rect class="cls-6" x="347.51" y="130.66" width="70.91" height="5.53" rx="0.56" ry="0.56"/><path class="cls-6" d="M391.71,105.8a45.18,45.18,0,0,1-2.94,8,57.9,57.9,0,0,1-4.13,7.42,42.06,42.06,0,0,1-5.35,6.67,23.28,23.28,0,0,1-3.31,2.79,11.1,11.1,0,0,1-3.93,1.79,28,28,0,0,0,5.61-6c1.62-2.2,3.16-4.47,4.67-6.77l4.56-7C388.42,110.39,390,108.07,391.71,105.8Z"/><path class="cls-6" d="M415.65,106.72a43.65,43.65,0,0,1-2.94,8,57.9,57.9,0,0,1-4.13,7.42,41.51,41.51,0,0,1-5.35,6.67,22.74,22.74,0,0,1-3.31,2.79,11,11,0,0,1-3.93,1.79,27.77,27.77,0,0,0,5.62-6c1.62-2.2,3.15-4.47,4.67-6.77l4.56-7C412.37,111.31,413.93,109,415.65,106.72Z"/><polygon class="cls-9" points="404.88 225.52 412.71 222.84 412.71 190.27 404.65 193.02 404.88 225.52"/><ellipse class="cls-10" cx="429.47" cy="105.34" rx="1.84" ry="3.22"/><ellipse class="cls-10" cx="416.57" cy="132.96" rx="1.84" ry="3.22"/><ellipse class="cls-10" cx="449.27" cy="123.29" rx="1.38" ry="2.76"/><rect class="cls-3" x="323.07" y="169.32" width="28.73" height="2.97"/><path class="cls-2" d="M358.74,213.91l21.79-14.86s6.94,4,12.88,2l-29.72,23.78S356.75,216.88,358.74,213.91Z"/><rect class="cls-1" x="316.13" y="172.3" width="42.6" height="42.6" transform="translate(531.03 -143.84) rotate(90)"/><rect class="cls-3" x="323.07" y="179.23" width="28.73" height="28.73"/><line class="cls-23" x1="323.07" y1="201.03" x2="351.8" y2="201.03"/><line class="cls-23" x1="323.07" y1="195.08" x2="351.8" y2="195.08"/><line class="cls-23" x1="344.87" y1="179.23" x2="344.87" y2="207.96"/><line class="cls-23" x1="330" y1="179.23" x2="330" y2="207.96"/><path class="cls-1" d="M316.13,214.9s-4,5.94-13.37,9.41h61.42s-5.44-4.46-5.44-9.41Z"/><rect class="cls-5" x="325.05" y="155.45" width="76.29" height="5.94" rx="0.56" ry="0.56"/><rect class="cls-6" x="327.03" y="155.45" width="76.29" height="5.94" rx="0.56" ry="0.56"/><path d="M379.15,140.33c8.14,8.22,18.31,17.11,24.17,17.11H327l21.1-16.36Z"/><polygon class="cls-2" points="372.61 149.51 360.72 170.31 361.1 170.44 358.74 172.12 358.74 214.72 380.53 199.22 380.53 159.44 380.53 159.42 380.53 156.62 380.53 156.44 372.61 149.51"/><path class="cls-7" d="M328,137.62s-25.76,30.71-36.65,30.71h76.28s6.94-22.78,18.83-29.72Z"/><polygon class="cls-3" points="376.98 194.81 376.98 166.08 362.28 176.53 362.28 205.26 376.98 194.81"/><line class="cls-24" x1="373.44" y1="168.6" x2="373.44" y2="197.33"/><line class="cls-24" x1="370.39" y1="170.76" x2="370.39" y2="199.5"/><line class="cls-24" x1="362.28" y1="198.33" x2="376.98" y2="187.87"/><line class="cls-24" x1="362.28" y1="183.47" x2="376.98" y2="173.01"/><rect class="cls-6" x="324.06" y="135.64" width="58.45" height="5.94" rx="0.56" ry="0.56"/><rect class="cls-6" x="292.36" y="166.35" width="76.29" height="5.94" rx="0.56" ry="0.56"/><path class="cls-6" d="M339.91,139.6a48.32,48.32,0,0,1-3.16,8.57,62.37,62.37,0,0,1-4.45,8,44.31,44.31,0,0,1-5.75,7.17,25.08,25.08,0,0,1-3.56,3,12.29,12.29,0,0,1-4.23,1.93,30.52,30.52,0,0,0,6-6.46c1.74-2.36,3.39-4.81,5-7.29l4.91-7.47C336.38,144.54,338.05,142.05,339.91,139.6Z"/><path class="cls-6" d="M365.67,140.59a47.58,47.58,0,0,1-3.17,8.57,61.11,61.11,0,0,1-4.44,8,44.82,44.82,0,0,1-5.75,7.18,25.69,25.69,0,0,1-3.56,3,12.11,12.11,0,0,1-4.23,1.93,30.28,30.28,0,0,0,6-6.46c1.74-2.36,3.39-4.81,5-7.29l4.91-7.47C362.14,145.53,363.81,143,365.67,140.59Z"/><polygon class="cls-9" points="354.08 268.4 362.51 265.51 362.51 230.47 353.84 233.44 354.08 268.4"/><ellipse class="cls-10" cx="380.53" cy="139.11" rx="1.98" ry="3.47"/><ellipse class="cls-10" cx="366.66" cy="168.83" rx="1.98" ry="3.47"/><ellipse class="cls-10" cx="401.83" cy="158.43" rx="1.49" ry="2.97"/><rect class="cls-3" x="244.77" y="191.48" width="34.17" height="3.53"/><path class="cls-2" d="M287.19,244.5l25.92-17.68s8.25,4.72,15.32,2.36l-35.35,28.28S284.83,248,287.19,244.5Z"/><rect class="cls-1" x="236.53" y="195.01" width="50.66" height="50.66" transform="translate(482.2 -41.52) rotate(90)"/><rect class="cls-3" x="244.77" y="203.26" width="34.17" height="34.17"/><line class="cls-25" x1="244.77" y1="229.18" x2="278.94" y2="229.18"/><line class="cls-25" x1="244.77" y1="222.11" x2="278.94" y2="222.11"/><line class="cls-25" x1="270.7" y1="203.26" x2="270.7" y2="237.43"/><line class="cls-25" x1="253.02" y1="203.26" x2="253.02" y2="237.43"/><path class="cls-1" d="M236.53,245.67s-4.72,7.07-15.91,11.2h73.05s-6.48-5.31-6.48-11.2Z"/><rect class="cls-5" x="247.13" y="174.98" width="90.72" height="7.07" rx="0.56" ry="0.56"/><rect class="cls-6" x="249.49" y="174.98" width="90.72" height="7.07" rx="0.56" ry="0.56"/><path d="M311.47,157c9.68,9.77,21.77,20.34,28.74,20.34H249.49l25.09-19.45Z"/><polygon class="cls-2" points="303.69 167.91 289.55 192.65 290 192.81 287.19 194.81 287.19 245.47 313.11 227.03 313.11 179.72 313.11 179.69 313.11 176.37 313.11 176.16 303.69 167.91"/><path class="cls-7" d="M250.67,153.77S220,190.3,207.07,190.3h90.72S306,163.2,320.18,155Z"/><polygon class="cls-3" points="308.89 221.78 308.89 187.61 291.41 200.05 291.41 234.22 308.89 221.78"/><line class="cls-26" x1="304.67" y1="190.62" x2="304.67" y2="224.78"/><line class="cls-26" x1="301.06" y1="193.19" x2="301.06" y2="227.36"/><line class="cls-26" x1="291.41" y1="225.97" x2="308.89" y2="213.53"/><line class="cls-26" x1="291.41" y1="208.3" x2="308.89" y2="195.86"/><rect class="cls-6" x="245.95" y="151.42" width="69.51" height="7.07" rx="0.56" ry="0.56"/><rect class="cls-6" x="208.25" y="187.94" width="90.72" height="7.07" rx="0.56" ry="0.56"/><path class="cls-6" d="M264.8,156.13a57.93,57.93,0,0,1-3.75,10.2,75.72,75.72,0,0,1-5.29,9.47,53.78,53.78,0,0,1-6.84,8.55,30.17,30.17,0,0,1-4.24,3.56,14.53,14.53,0,0,1-5,2.3,23.92,23.92,0,0,0,3.89-3.61c1.18-1.28,2.23-2.69,3.28-4.08,2.09-2.8,4-5.72,6-8.66l5.82-8.89C260.61,162,262.59,159,264.8,156.13Z"/><path class="cls-6" d="M295.44,157.31a58.37,58.37,0,0,1-3.76,10.19,75.84,75.84,0,0,1-5.29,9.48,54.24,54.24,0,0,1-6.84,8.55,30.17,30.17,0,0,1-4.24,3.56,14.44,14.44,0,0,1-5,2.3,23.52,23.52,0,0,0,3.89-3.61c1.19-1.28,2.23-2.69,3.29-4.08,2.09-2.8,4-5.72,6-8.66l5.83-8.89C291.24,163.18,293.23,160.21,295.44,157.31Z"/><polygon class="cls-9" points="281.65 309.3 291.68 305.87 291.68 264.2 281.37 267.73 281.65 309.3"/><ellipse class="cls-10" cx="313.11" cy="155.54" rx="2.36" ry="4.12"/><ellipse class="cls-10" cx="296.62" cy="190.89" rx="2.36" ry="4.12"/><ellipse class="cls-10" cx="338.44" cy="178.52" rx="1.77" ry="3.53"/><rect class="cls-3" x="162.77" y="227.12" width="36.7" height="3.9"/><path class="cls-2" d="M208.32,285.55l27.84-19.47s8.86,5.19,16.46,2.59l-38,31.17S205.79,289.45,208.32,285.55Z"/><rect class="cls-1" x="153.2" y="231.73" width="55.84" height="54.42" transform="translate(440.05 77.82) rotate(90)"/><rect class="cls-3" x="162.77" y="240.11" width="36.7" height="37.66"/><line class="cls-27" x1="162.77" y1="268.67" x2="199.47" y2="268.67"/><line class="cls-27" x1="162.77" y1="260.88" x2="199.47" y2="260.88"/><line class="cls-27" x1="190.61" y1="240.11" x2="190.61" y2="277.76"/><line class="cls-27" x1="171.62" y1="240.11" x2="171.62" y2="277.76"/><path class="cls-1" d="M153.91,286.85s-5.06,7.79-17.09,12.34h78.46s-7-5.84-7-12.34Z"/><rect class="cls-5" x="165.3" y="208.94" width="97.44" height="7.79" rx="0.56" ry="0.56"/><rect class="cls-6" x="167.83" y="208.94" width="97.44" height="7.79" rx="0.56" ry="0.56"/><path d="M234.4,189.12c10.4,10.77,23.38,22.42,30.87,22.42H167.83l26.95-21.43Z"/><polygon class="cls-2" points="226.04 201.15 210.85 228.42 211.34 228.59 208.32 230.79 208.32 286.63 236.16 266.3 236.16 214.17 236.16 214.13 236.16 210.47 236.16 210.24 226.04 201.15"/><path class="cls-7" d="M169.09,185.57s-32.9,40.25-46.82,40.25h97.44s8.86-29.86,24-38.95Z"/><polygon class="cls-3" points="231.63 260.52 231.63 222.87 212.86 236.57 212.86 274.23 231.63 260.52"/><line class="cls-28" x1="227.1" y1="226.17" x2="227.1" y2="263.83"/><line class="cls-28" x1="223.22" y1="229.01" x2="223.22" y2="266.67"/><line class="cls-28" x1="212.86" y1="265.14" x2="231.63" y2="251.43"/><line class="cls-28" x1="212.86" y1="245.66" x2="231.63" y2="231.95"/><rect class="cls-6" x="164.03" y="182.97" width="74.66" height="7.79" rx="0.56" ry="0.56"/><rect class="cls-6" x="123.54" y="223.23" width="97.44" height="7.79" rx="0.56" ry="0.56"/><path class="cls-6" d="M184.28,188.16a64.08,64.08,0,0,1-4,11.18,83.93,83.93,0,0,1-5.65,10.42,59.84,59.84,0,0,1-7.35,9.42,33.91,33.91,0,0,1-4.57,4,15.57,15.57,0,0,1-5.46,2.58,25.66,25.66,0,0,0,4.2-4,56.84,56.84,0,0,0,3.52-4.51c2.25-3.09,4.33-6.31,6.42-9.55l6.25-9.78C179.77,194.63,181.9,191.36,184.28,188.16Z"/><path class="cls-6" d="M217.18,189.46a64.08,64.08,0,0,1-4,11.18,83.93,83.93,0,0,1-5.65,10.42,59.26,59.26,0,0,1-7.35,9.42,33.3,33.3,0,0,1-4.57,4,15.57,15.57,0,0,1-5.46,2.58,24.91,24.91,0,0,0,4.2-4c1.27-1.42,2.4-3,3.53-4.5,2.24-3.09,4.33-6.31,6.41-9.55l6.25-9.79C212.67,195.93,214.8,192.66,217.18,189.46Z"/><polygon class="cls-9" points="202.38 356.98 213.14 353.19 213.14 307.27 202.07 311.16 202.38 356.98"/><ellipse class="cls-10" cx="236.16" cy="187.52" rx="2.53" ry="4.54"/><ellipse class="cls-10" cx="218.45" cy="226.47" rx="2.53" ry="4.54"/><ellipse class="cls-10" cx="263.37" cy="212.84" rx="1.9" ry="3.9"/><rect class="cls-3" x="47.2" y="262.14" width="42.77" height="4.54"/><path class="cls-2" d="M100.29,330.25l32.45-22.71s10.33,6.06,19.18,3l-44.25,36.32S97.34,334.79,100.29,330.25Z"/><rect class="cls-1" x="36.04" y="267.51" width="65.08" height="63.42" transform="translate(367.8 230.64) rotate(90)"/><rect class="cls-3" x="47.2" y="277.28" width="42.77" height="43.89"/><line class="cls-29" x1="47.2" y1="310.57" x2="89.97" y2="310.57"/><line class="cls-29" x1="47.2" y1="301.49" x2="89.97" y2="301.49"/><line class="cls-29" x1="79.64" y1="277.28" x2="79.64" y2="321.17"/><line class="cls-29" x1="57.52" y1="277.28" x2="57.52" y2="321.17"/><path class="cls-1" d="M36.87,331.76S31,340.84,17,346.14h91.45s-8.12-6.81-8.12-14.38Z"/><rect class="cls-5" x="50.15" y="240.95" width="113.57" height="9.08" rx="0.56" ry="0.56"/><rect class="cls-6" x="53.1" y="240.95" width="113.57" height="9.08" rx="0.56" ry="0.56"/><path d="M130.69,217.86c12.12,12.54,27.25,26.12,36,26.12H53.1l31.41-25Z"/><polygon class="cls-2" points="120.94 231.87 103.24 263.65 103.81 263.85 100.29 266.42 100.29 331.5 132.74 307.81 132.74 247.04 132.74 247.01 132.74 242.73 132.74 242.47 120.94 231.87"/><path class="cls-7" d="M54.57,213.71S16.22,260.63,0,260.63H113.57s10.32-34.81,28-45.41Z"/><polygon class="cls-3" points="127.46 301.07 127.46 257.18 105.58 273.15 105.58 317.05 127.46 301.07"/><line class="cls-30" x1="122.18" y1="261.04" x2="122.18" y2="304.93"/><line class="cls-30" x1="117.65" y1="264.34" x2="117.65" y2="308.23"/><line class="cls-30" x1="105.58" y1="306.45" x2="127.46" y2="290.48"/><line class="cls-30" x1="105.58" y1="283.75" x2="127.46" y2="267.77"/><rect class="cls-6" x="48.67" y="210.68" width="87.02" height="9.08" rx="0.56" ry="0.56"/><rect class="cls-6" x="1.47" y="257.6" width="113.57" height="9.08" rx="0.56" ry="0.56"/><path class="cls-6" d="M72.27,216.74a73.87,73.87,0,0,1-4.65,13A97.54,97.54,0,0,1,61,241.9a69.49,69.49,0,0,1-8.56,11,37.3,37.3,0,0,1-5.33,4.61,18.15,18.15,0,0,1-6.36,3,29.21,29.21,0,0,0,4.89-4.65c1.46-1.67,2.81-3.45,4.11-5.25,2.61-3.6,5-7.35,7.48-11.13l7.28-11.4C67,224.27,69.5,220.47,72.27,216.74Z"/><path class="cls-6" d="M110.62,218.25a75.08,75.08,0,0,1-4.65,13,99,99,0,0,1-6.59,12.14,69.87,69.87,0,0,1-8.56,11A38.58,38.58,0,0,1,85.49,259a18.33,18.33,0,0,1-6.36,3A30,30,0,0,0,84,257.38c1.46-1.68,2.8-3.45,4.11-5.26,2.61-3.6,5-7.35,7.48-11.12l7.28-11.41C105.35,225.79,107.85,222,110.62,218.25Z"/><ellipse class="cls-10" cx="132.74" cy="215.98" rx="2.95" ry="5.3"/><ellipse class="cls-10" cx="112.09" cy="261.38" rx="2.95" ry="5.3"/><ellipse class="cls-10" cx="164.45" cy="245.49" rx="2.21" ry="4.54"/><polygon class="cls-9" points="105.91 409.08 105.91 355.55 93 360.09 93.36 413.49 105.91 409.08"/></g></g></g></svg>