<svg xmlns="http://www.w3.org/2000/svg" viewBox="0 0 791.82 644.69"><defs><style>.cls-1{fill:#b31628;}.cls-2{fill:#890b17;}.cls-3{fill:#faf2d3;}.cls-11,.cls-12,.cls-13,.cls-14,.cls-15,.cls-16,.cls-17,.cls-18,.cls-19,.cls-20,.cls-21,.cls-22,.cls-23,.cls-24,.cls-25,.cls-26,.cls-27,.cls-28,.cls-29,.cls-30,.cls-4,.cls-8{fill:none;stroke:#35100e;stroke-miterlimit:10;}.cls-4{stroke-width:0.37px;}.cls-5{fill:#121c19;}.cls-6{fill:#424242;}.cls-7{fill:#232323;}.cls-8{stroke-width:0.26px;}.cls-9{fill:#958c8e;}.cls-10{fill:#d2c3af;}.cls-11{stroke-width:0.39px;}.cls-12{stroke-width:0.28px;}.cls-13{stroke-width:0.46px;}.cls-14{stroke-width:0.33px;}.cls-15{stroke-width:0.56px;}.cls-16{stroke-width:0.4px;}.cls-17{stroke-width:0.72px;}.cls-18{stroke-width:0.52px;}.cls-19{stroke-width:0.77px;}.cls-20{stroke-width:0.55px;}.cls-21{stroke-width:0.92px;}.cls-22{stroke-width:0.66px;}.cls-23{stroke-width:0.99px;}.cls-24{stroke-width:0.71px;}.cls-25{stroke-width:1.18px;}.cls-26{stroke-width:0.84px;}.cls-27{stroke-width:1.28px;}.cls-28{stroke-width:0.92px;}.cls-29{stroke-width:1.49px;}.cls-30{stroke-width:1.07px;}</style></defs><title>Asset 42</title><g id="Layer_2" data-name="Layer 2"><g id="shrine"><g id="Layer_43" data-name="Layer 43"><path class="cls-1" d="M22.43,104.09h.66V31.15h-4v70.32Z"/><path class="cls-2" d="M18.69,101.18v-70h-4v67h.15Z"/><path class="cls-2" d="M19.06,101.47V31.15h-.37v70Z"/><path class="cls-1" d="M40.26,117.89h.58V45h-4v70.26Z"/><path class="cls-2" d="M36.44,45h-4v66.85c1.28,1,2.62,2,4,3.12Z"/><path class="cls-2" d="M36.81,115.22V45h-.37v70Z"/><path class="cls-1" d="M60.71,133.67h.47V56.28H56.91v74.46Z"/><path class="cls-2" d="M56.52,56.28H52.24v70.86l4.28,3.3Z"/><path class="cls-2" d="M56.91,130.74V56.28h-.39v74.16Z"/><path class="cls-1" d="M78.4,147.29V60.52H73.32v82.86Z"/><path class="cls-2" d="M72.86,60.52H67.78v78.6L72.86,143Z"/><path class="cls-2" d="M73.32,143.38V60.52h-.46V143Z"/><path class="cls-1" d="M114.74,175.18V71h-6.18v99.4C110.59,172,112.66,173.59,114.74,175.18Z"/><path class="cls-2" d="M108,71h-6.18v94.23L108,170Z"/><path class="cls-2" d="M108.56,170.44V71H108v99Z"/><path class="cls-1" d="M165.06,213.61v-129h-7.94v122.9Z"/><path class="cls-2" d="M156.4,84.66h-8V201l8,6Z"/><path class="cls-2" d="M157.12,207.56V84.66h-.72V207Z"/><path class="cls-1" d="M214,250.81V108.29h-8.45V244.41Z"/><path class="cls-2" d="M204.82,108.29h-8.45V237.42l8.45,6.41Z"/><path class="cls-2" d="M205.59,244.41V108.29h-.77V243.83Z"/><path class="cls-1" d="M282.84,302.69V141H272.71V295.08Z"/><path class="cls-2" d="M271.79,141H261.66V286.77l10.13,7.62Z"/><path class="cls-2" d="M272.71,295.08V141h-.92V294.39Z"/><path class="cls-1" d="M372,369.21V188.3h-10.9V361.13Z"/><path class="cls-2" d="M360.15,188.3h-10.9v164l10.9,8.1Z"/><path class="cls-2" d="M361.14,361.13V188.3h-1V360.4Z"/><path class="cls-1" d="M470.62,441.5V233.82h-13V432.08Z"/><path class="cls-2" d="M456.48,233.82h-13v188l13,9.45Z"/><path class="cls-2" d="M457.66,432.08V233.82h-1.18V431.23Z"/><path class="cls-1" d="M572.75,514.42V265.74H558.83v238.9Q565.85,509.59,572.75,514.42Z"/><path class="cls-2" d="M557.57,265.74H543.65V493.9q7,5,13.92,9.85Z"/><path class="cls-2" d="M558.83,504.64V265.74h-1.26v238Z"/><path class="cls-1" d="M684.55,590.05V311.72H668.33v267.8Q676.64,585,684.55,590.05Z"/><path class="cls-2" d="M666.85,311.72H650.63V567.81q8.28,5.54,16.22,10.74Z"/><path class="cls-2" d="M668.33,579.52V311.72h-1.48V578.55Z"/><rect class="cls-3" x="19.06" y="12.46" width="10.63" height="1.1" transform="translate(48.74 26.02) rotate(-180)"/><path class="cls-2" d="M16.49,29,8.43,23.46s-2.57,1.46-4.77.73l11,8.79S17.23,30.05,16.49,29Z"/><rect class="cls-1" x="16.49" y="13.56" width="15.76" height="15.76" transform="translate(45.81 -2.93) rotate(90)"/><rect class="cls-3" x="19.06" y="16.13" width="10.63" height="10.63" transform="translate(48.74 42.88) rotate(-180)"/><line class="cls-4" x1="29.69" y1="24.19" x2="19.06" y2="24.19"/><line class="cls-4" x1="29.69" y1="21.99" x2="19.06" y2="21.99"/><line class="cls-4" x1="21.62" y1="16.13" x2="21.62" y2="26.75"/><line class="cls-4" x1="27.12" y1="16.13" x2="27.12" y2="26.75"/><path class="cls-1" d="M32.25,29.32a10.53,10.53,0,0,0,5,3.48H14.48s2-1.65,2-3.48Z"/><rect class="cls-5" x="0.73" y="7.33" width="28.22" height="2.2" rx="0.56" ry="0.56" transform="translate(29.69 16.86) rotate(-180)"/><rect class="cls-6" y="7.33" width="28.22" height="2.2" rx="0.56" ry="0.56" transform="translate(28.22 16.86) rotate(180)"/><path d="M8.94,1.74c-3,3-6.77,6.32-8.94,6.32H28.22L20.42,2Z"/><polygon class="cls-2" points="11.36 5.13 15.76 12.83 15.62 12.88 16.49 13.5 16.49 29.26 8.43 23.52 8.43 8.8 8.43 8.8 8.43 7.76 8.43 7.7 11.36 5.13"/><path class="cls-7" d="M27.85.73s9.53,11.36,13.56,11.36H13.19s-2.56-8.43-7-11Z"/><polygon class="cls-3" points="9.74 21.89 9.74 11.26 15.18 15.13 15.18 25.76 9.74 21.89"/><line class="cls-8" x1="11.05" y1="12.19" x2="11.05" y2="22.82"/><line class="cls-8" x1="12.18" y1="12.99" x2="12.18" y2="23.62"/><line class="cls-8" x1="15.18" y1="23.19" x2="9.74" y2="19.32"/><line class="cls-8" x1="15.18" y1="17.69" x2="9.74" y2="13.83"/><rect class="cls-6" x="7.7" width="21.62" height="2.2" rx="0.56" ry="0.56" transform="translate(37.02 2.2) rotate(-180)"/><rect class="cls-6" x="12.83" y="11.36" width="28.22" height="2.2" rx="0.56" ry="0.56" transform="translate(53.88 24.92) rotate(180)"/><path class="cls-6" d="M23.46,1.47C24.82,3.28,26,5.15,27.19,7c.59.92,1.22,1.81,1.86,2.69a11,11,0,0,0,2.23,2.4,6.25,6.25,0,0,1-2.88-1.83,17.5,17.5,0,0,1-2.13-2.66,24.19,24.19,0,0,1-1.64-2.94A17,17,0,0,1,23.46,1.47Z"/><path class="cls-6" d="M13.93,1.83c1.36,1.81,2.51,3.69,3.73,5.52.59.92,1.22,1.81,1.86,2.69a11.22,11.22,0,0,0,2.23,2.39,6.3,6.3,0,0,1-2.88-1.83A16.94,16.94,0,0,1,16.74,8,24.31,24.31,0,0,1,15.1,5,16.72,16.72,0,0,1,13.93,1.83Z"/><polygon class="cls-9" points="18.21 49.11 15.1 48.04 15.1 35.08 18.3 36.18 18.21 49.11"/><ellipse class="cls-10" cx="8.43" cy="1.28" rx="0.73" ry="1.28"/><ellipse class="cls-10" cx="13.56" cy="12.28" rx="0.73" ry="1.28"/><ellipse class="cls-10" cx="0.55" cy="8.43" rx="0.55" ry="1.1"/><rect class="cls-3" x="36.81" y="26.27" width="10.63" height="1.1" transform="translate(84.24 53.63) rotate(-180)"/><path class="cls-2" d="M34.24,42.76l-8.06-5.5s-2.57,1.47-4.77.73l11,8.8S35,43.86,34.24,42.76Z"/><rect class="cls-1" x="34.24" y="27.37" width="15.76" height="15.76" transform="translate(77.37 -6.88) rotate(90)"/><rect class="cls-3" x="36.81" y="29.93" width="10.63" height="10.63" transform="translate(84.24 70.49) rotate(-180)"/><line class="cls-4" x1="47.44" y1="37.99" x2="36.81" y2="37.99"/><line class="cls-4" x1="47.44" y1="35.79" x2="36.81" y2="35.79"/><line class="cls-4" x1="39.37" y1="29.93" x2="39.37" y2="40.56"/><line class="cls-4" x1="44.87" y1="29.93" x2="44.87" y2="40.56"/><path class="cls-1" d="M50,43.12a10.58,10.58,0,0,0,5,3.49H32.23s2-1.65,2-3.49Z"/><rect class="cls-5" x="18.48" y="21.13" width="28.22" height="2.2" rx="0.56" ry="0.56" transform="translate(65.18 44.47) rotate(-180)"/><rect class="cls-6" x="17.75" y="21.13" width="28.22" height="2.2" rx="0.56" ry="0.56" transform="translate(63.72 44.47) rotate(-180)"/><path d="M26.69,15.54c-3,3-6.77,6.33-8.94,6.33H46l-7.81-6.05Z"/><polygon class="cls-2" points="29.11 18.94 33.51 26.63 33.37 26.68 34.24 27.3 34.24 43.06 26.18 37.33 26.18 22.61 26.18 22.6 26.18 21.57 26.18 21.5 29.11 18.94"/><path class="cls-7" d="M45.6,14.54S55.13,25.9,59.16,25.9H30.94s-2.56-8.43-7-11Z"/><polygon class="cls-3" points="27.49 35.69 27.49 25.07 32.93 28.93 32.93 39.56 27.49 35.69"/><line class="cls-8" x1="28.8" y1="26" x2="28.8" y2="36.63"/><line class="cls-8" x1="29.93" y1="26.8" x2="29.93" y2="37.43"/><line class="cls-8" x1="32.93" y1="37" x2="27.49" y2="33.13"/><line class="cls-8" x1="32.93" y1="31.5" x2="27.49" y2="27.63"/><rect class="cls-6" x="25.45" y="13.8" width="21.62" height="2.2" rx="0.56" ry="0.56" transform="translate(72.51 29.81) rotate(-180)"/><rect class="cls-6" x="30.58" y="25.17" width="28.22" height="2.2" rx="0.56" ry="0.56" transform="translate(89.37 52.53) rotate(180)"/><path class="cls-6" d="M41.2,15.27c1.36,1.81,2.52,3.69,3.74,5.51.59.93,1.22,1.82,1.86,2.7A11,11,0,0,0,49,25.87,6.25,6.25,0,0,1,46.15,24,17.42,17.42,0,0,1,44,21.39a24.31,24.31,0,0,1-1.64-2.95A17.75,17.75,0,0,1,41.2,15.27Z"/><path class="cls-6" d="M31.68,15.64c1.35,1.81,2.51,3.68,3.73,5.51.59.92,1.22,1.82,1.86,2.7a11.22,11.22,0,0,0,2.23,2.39,6.25,6.25,0,0,1-2.88-1.83,17.42,17.42,0,0,1-2.13-2.65,24.31,24.31,0,0,1-1.64-3A17,17,0,0,1,31.68,15.64Z"/><polygon class="cls-9" points="35.96 62.92 32.85 61.85 32.85 48.89 36.05 49.98 35.96 62.92"/><ellipse class="cls-10" cx="26.18" cy="15.09" rx="0.73" ry="1.28"/><ellipse class="cls-10" cx="31.31" cy="26.08" rx="0.73" ry="1.28"/><ellipse class="cls-10" cx="18.3" cy="22.23" rx="0.55" ry="1.1"/><rect class="cls-3" x="56.91" y="36.45" width="11.28" height="1.17" transform="translate(125.09 74.07) rotate(-180)"/><path class="cls-2" d="M54.18,54l-8.55-5.83s-2.72,1.55-5.06.77l11.67,9.34S55,55.12,54.18,54Z"/><rect class="cls-1" x="54.18" y="37.62" width="16.72" height="16.72" transform="translate(108.52 -16.57) rotate(90)"/><rect class="cls-3" x="56.91" y="40.34" width="11.28" height="11.28" transform="translate(125.09 91.96) rotate(-180)"/><line class="cls-11" x1="68.18" y1="48.89" x2="56.91" y2="48.89"/><line class="cls-11" x1="68.18" y1="46.56" x2="56.91" y2="46.56"/><line class="cls-11" x1="59.63" y1="40.34" x2="59.63" y2="51.62"/><line class="cls-11" x1="65.46" y1="40.34" x2="65.46" y2="51.62"/><path class="cls-1" d="M70.91,54.34A11.13,11.13,0,0,0,76.16,58H52.05s2.13-1.75,2.13-3.69Z"/><rect class="cls-5" x="37.46" y="31.01" width="29.94" height="2.33" rx="0.56" ry="0.56" transform="translate(104.87 64.35) rotate(-180)"/><rect class="cls-6" x="36.69" y="31.01" width="29.94" height="2.33" rx="0.56" ry="0.56" transform="translate(103.31 64.35) rotate(-180)"/><path d="M46.17,25.07C43,28.3,39,31.78,36.69,31.78H66.63l-8.28-6.41Z"/><polygon class="cls-2" points="48.74 28.67 53.41 36.84 53.26 36.89 54.19 37.55 54.19 54.27 45.63 48.18 45.63 32.57 45.63 32.56 45.63 31.46 45.63 31.39 48.74 28.67"/><path class="cls-7" d="M66.24,24S76.35,36.06,80.63,36.06H50.68S48,27.12,43.3,24.4Z"/><polygon class="cls-3" points="47.02 46.45 47.02 35.18 52.79 39.28 52.79 50.56 47.02 46.45"/><line class="cls-12" x1="48.41" y1="36.17" x2="48.41" y2="47.44"/><line class="cls-12" x1="49.61" y1="37.02" x2="49.61" y2="48.29"/><line class="cls-12" x1="52.79" y1="47.84" x2="47.02" y2="43.73"/><line class="cls-12" x1="52.79" y1="42" x2="47.02" y2="37.9"/><rect class="cls-6" x="44.85" y="23.23" width="22.94" height="2.33" rx="0.56" ry="0.56" transform="translate(112.65 48.79) rotate(180)"/><rect class="cls-6" x="50.3" y="35.28" width="29.94" height="2.33" rx="0.56" ry="0.56" transform="translate(130.53 72.9) rotate(180)"/><path class="cls-6" d="M61.57,24.78c1.44,1.93,2.67,3.92,4,5.86.63,1,1.3,1.92,2,2.85A11.4,11.4,0,0,0,69.88,36a6.59,6.59,0,0,1-3.06-1.94,18.31,18.31,0,0,1-2.26-2.81,25.92,25.92,0,0,1-1.74-3.13A18.91,18.91,0,0,1,61.57,24.78Z"/><path class="cls-6" d="M51.46,25.17c1.44,1.92,2.67,3.91,4,5.85.63,1,1.3,1.93,2,2.86a11.4,11.4,0,0,0,2.37,2.54,6.67,6.67,0,0,1-3.06-1.94,18.31,18.31,0,0,1-2.26-2.81,27.44,27.44,0,0,1-1.75-3.13A19.69,19.69,0,0,1,51.46,25.17Z"/><polygon class="cls-9" points="56.01 75.34 52.7 74.2 52.7 60.45 56.11 61.62 56.01 75.34"/><ellipse class="cls-10" cx="45.63" cy="24.59" rx="0.78" ry="1.36"/><ellipse class="cls-10" cx="51.07" cy="36.26" rx="0.78" ry="1.36"/><ellipse class="cls-10" cx="37.27" cy="32.17" rx="0.58" ry="1.17"/><rect class="cls-3" x="73.32" y="36.96" width="13.39" height="1.39" transform="translate(160.03 75.31) rotate(-180)"/><path class="cls-2" d="M70.09,57.74,59.93,50.82s-3.24,1.84-6,.92L67.78,62.83S71,59.13,70.09,57.74Z"/><rect class="cls-1" x="70.09" y="38.35" width="19.86" height="19.86" transform="translate(128.29 -31.74) rotate(90)"/><rect class="cls-3" x="73.32" y="41.58" width="13.39" height="13.39" transform="translate(160.03 96.55) rotate(-180)"/><line class="cls-13" x1="86.71" y1="51.74" x2="73.32" y2="51.74"/><line class="cls-13" x1="86.71" y1="48.97" x2="73.32" y2="48.97"/><line class="cls-13" x1="76.55" y1="41.58" x2="76.55" y2="54.97"/><line class="cls-13" x1="83.48" y1="41.58" x2="83.48" y2="54.97"/><path class="cls-1" d="M90,58.21a13.25,13.25,0,0,0,6.23,4.38H67.55s2.54-2.07,2.54-4.38Z"/><rect class="cls-5" x="50.23" y="30.49" width="35.56" height="2.77" rx="0.56" ry="0.56" transform="translate(136.02 63.76) rotate(-180)"/><rect class="cls-6" x="49.3" y="30.49" width="35.56" height="2.77" rx="0.56" ry="0.56" transform="translate(134.17 63.76) rotate(-180)"/><path d="M60.57,23.45c-3.8,3.82-8.53,8-11.27,8H84.87L75,23.79Z"/><polygon class="cls-2" points="63.62 27.72 69.16 37.42 68.98 37.48 70.09 38.27 70.09 58.13 59.93 50.9 59.93 32.35 59.93 32.34 59.93 31.04 59.93 30.96 63.62 27.72"/><path class="cls-7" d="M84.41,22.18s12,14.32,17.08,14.32H65.93S62.7,25.88,57.15,22.64Z"/><polygon class="cls-3" points="61.58 48.84 61.58 35.45 68.43 40.32 68.43 53.72 61.58 48.84"/><line class="cls-14" x1="63.23" y1="36.62" x2="63.23" y2="50.02"/><line class="cls-14" x1="64.65" y1="37.63" x2="64.65" y2="51.03"/><line class="cls-14" x1="68.43" y1="50.48" x2="61.58" y2="45.61"/><line class="cls-14" x1="68.43" y1="43.56" x2="61.58" y2="38.68"/><rect class="cls-6" x="59" y="21.26" width="27.25" height="2.77" rx="0.56" ry="0.56" transform="translate(145.25 45.29) rotate(180)"/><rect class="cls-6" x="65.47" y="35.57" width="35.56" height="2.77" rx="0.56" ry="0.56" transform="translate(166.5 73.92) rotate(180)"/><path class="cls-6" d="M78.86,23.1c1.72,2.29,3.17,4.65,4.71,7,.74,1.17,1.53,2.29,2.34,3.4a14.06,14.06,0,0,0,2.81,3,7.9,7.9,0,0,1-3.62-2.3,22,22,0,0,1-2.69-3.34,30.09,30.09,0,0,1-2.07-3.72A22.58,22.58,0,0,1,78.86,23.1Z"/><path class="cls-6" d="M66.85,23.57c1.72,2.28,3.17,4.64,4.71,7,.75,1.16,1.54,2.28,2.34,3.39a14.14,14.14,0,0,0,2.82,3,7.87,7.87,0,0,1-3.63-2.31,22,22,0,0,1-2.69-3.34,31.45,31.45,0,0,1-2.07-3.72A22.19,22.19,0,0,1,66.85,23.57Z"/><polygon class="cls-9" points="72.26 83.15 68.33 81.8 68.33 65.47 72.37 66.85 72.26 83.15"/><ellipse class="cls-10" cx="59.93" cy="22.87" rx="0.92" ry="1.62"/><ellipse class="cls-10" cx="66.39" cy="36.73" rx="0.92" ry="1.62"/><ellipse class="cls-10" cx="50" cy="31.88" rx="0.69" ry="1.39"/><rect class="cls-3" x="108.56" y="42.35" width="16.31" height="1.69" transform="translate(233.42 86.39) rotate(-180)"/><path class="cls-2" d="M104.62,67.66,92.24,59.23s-3.93,2.25-7.31,1.12l16.88,13.5S105.74,69.35,104.62,67.66Z"/><rect class="cls-1" x="104.62" y="44.04" width="24.19" height="24.19" transform="translate(172.85 -60.58) rotate(90)"/><rect class="cls-3" x="108.56" y="47.98" width="16.31" height="16.31" transform="translate(233.42 112.27) rotate(-180)"/><line class="cls-15" x1="124.87" y1="60.35" x2="108.56" y2="60.35"/><line class="cls-15" x1="124.87" y1="56.98" x2="108.56" y2="56.98"/><line class="cls-15" x1="112.49" y1="47.98" x2="112.49" y2="64.29"/><line class="cls-15" x1="120.93" y1="47.98" x2="120.93" y2="64.29"/><path class="cls-1" d="M128.81,68.23a16.17,16.17,0,0,0,7.59,5.34H101.53s3.09-2.53,3.09-5.34Z"/><rect class="cls-5" x="80.43" y="34.48" width="43.31" height="3.37" rx="0.56" ry="0.56" transform="translate(204.18 72.33) rotate(-180)"/><rect class="cls-6" x="79.31" y="34.48" width="43.31" height="3.37" rx="0.56" ry="0.56" transform="translate(201.93 72.33) rotate(-180)"/><path d="M93,25.89c-4.62,4.67-10.39,9.71-13.72,9.71h43.31l-12-9.28Z"/><polygon class="cls-2" points="96.75 31.1 103.49 42.91 103.28 42.99 104.62 43.94 104.62 68.13 92.25 59.33 92.25 36.74 92.25 36.73 92.25 35.14 92.25 35.04 96.75 31.1"/><path class="cls-7" d="M122.06,24.35s14.62,17.44,20.81,17.44H99.56S95.62,28.85,88.87,24.92Z"/><polygon class="cls-3" points="94.26 56.82 94.26 40.51 102.61 46.45 102.61 62.76 94.26 56.82"/><line class="cls-16" x1="96.27" y1="41.94" x2="96.27" y2="58.25"/><line class="cls-16" x1="98" y1="43.17" x2="98" y2="59.48"/><line class="cls-16" x1="102.6" y1="58.82" x2="94.26" y2="52.88"/><line class="cls-16" x1="102.6" y1="50.38" x2="94.26" y2="44.45"/><rect class="cls-6" x="91.12" y="23.23" width="33.19" height="3.37" rx="0.56" ry="0.56" transform="translate(215.43 49.83) rotate(180)"/><rect class="cls-6" x="98.99" y="40.67" width="43.31" height="3.37" rx="0.56" ry="0.56" transform="translate(241.3 84.71) rotate(180)"/><path class="cls-6" d="M115.31,25.48c1,1.39,2,2.8,2.94,4.22L121,33.94c.91,1.42,1.88,2.79,2.86,4.14a17.26,17.26,0,0,0,3.43,3.67,9.57,9.57,0,0,1-4.42-2.81,25.93,25.93,0,0,1-3.27-4.07,37.91,37.91,0,0,1-2.53-4.53A26.69,26.69,0,0,1,115.31,25.48Z"/><path class="cls-6" d="M100.68,26c1.06,1.39,2,2.8,2.94,4.22l2.79,4.24c.91,1.42,1.87,2.79,2.86,4.14a16.74,16.74,0,0,0,3.42,3.67,9.57,9.57,0,0,1-4.42-2.81A26.51,26.51,0,0,1,105,35.43a38.5,38.5,0,0,1-2.52-4.52A27.88,27.88,0,0,1,100.68,26Z"/><polygon class="cls-9" points="107.26 98.6 102.48 96.96 102.48 77.07 107.4 78.75 107.26 98.6"/><ellipse class="cls-10" cx="92.24" cy="25.2" rx="1.12" ry="1.97"/><ellipse class="cls-10" cx="100.12" cy="42.07" rx="1.12" ry="1.97"/><ellipse class="cls-10" cx="80.15" cy="36.17" rx="0.84" ry="1.69"/><rect class="cls-3" x="157.12" y="47.84" width="20.94" height="2.17" transform="translate(335.17 97.86) rotate(-180)"/><path class="cls-2" d="M152.06,80.33,136.18,69.5s-5.05,2.89-9.38,1.45l21.65,17.32S153.51,82.5,152.06,80.33Z"/><rect class="cls-1" x="152.06" y="50.01" width="31.04" height="31.04" transform="translate(233.12 -102.05) rotate(90)"/><rect class="cls-3" x="157.12" y="55.06" width="20.94" height="20.94" transform="translate(335.17 131.06) rotate(-180)"/><line class="cls-17" x1="178.05" y1="70.95" x2="157.12" y2="70.95"/><line class="cls-17" x1="178.05" y1="66.62" x2="157.12" y2="66.62"/><line class="cls-17" x1="162.17" y1="55.06" x2="162.17" y2="76"/><line class="cls-17" x1="173" y1="55.06" x2="173" y2="76"/><path class="cls-1" d="M183.11,81.05s2.88,4.34,9.74,6.86H148.09s4-3.25,4-6.86Z"/><rect class="cls-5" x="121.02" y="37.74" width="55.59" height="4.33" rx="0.56" ry="0.56" transform="translate(297.63 79.81) rotate(-180)"/><rect class="cls-6" x="119.58" y="37.74" width="55.59" height="4.33" rx="0.56" ry="0.56" transform="translate(294.74 79.81) rotate(-180)"/><path d="M137.19,26.72c-5.94,6-13.34,12.46-17.61,12.46h55.59L159.79,27.27Z"/><polygon class="cls-2" points="141.96 33.41 150.62 48.57 150.34 48.66 152.06 49.88 152.06 80.93 136.18 69.63 136.18 40.64 136.18 40.63 136.18 38.59 136.18 38.46 141.96 33.41"/><path class="cls-7" d="M174.44,24.74s18.77,22.38,26.72,22.38H145.57s-5.06-16.6-13.72-21.66Z"/><polygon class="cls-3" points="138.77 66.42 138.77 45.48 149.48 53.1 149.48 74.03 138.77 66.42"/><line class="cls-18" x1="141.35" y1="47.32" x2="141.35" y2="68.25"/><line class="cls-18" x1="143.57" y1="48.89" x2="143.57" y2="69.83"/><line class="cls-18" x1="149.48" y1="68.98" x2="138.77" y2="61.36"/><line class="cls-18" x1="149.48" y1="58.15" x2="138.77" y2="50.53"/><rect class="cls-6" x="134.74" y="23.3" width="42.59" height="4.33" rx="0.56" ry="0.56" transform="translate(312.07 50.93) rotate(180)"/><rect class="cls-6" x="144.84" y="45.68" width="55.59" height="4.33" rx="0.56" ry="0.56" transform="translate(345.28 95.69) rotate(180)"/><path class="cls-6" d="M165.78,26.19c1.35,1.78,2.58,3.59,3.78,5.42l3.57,5.44c.59.91,1.19,1.8,1.81,2.68s1.24,1.75,1.86,2.63a22,22,0,0,0,4.4,4.71,12.39,12.39,0,0,1-5.68-3.6,34.32,34.32,0,0,1-4.19-5.23,48.58,48.58,0,0,1-3.24-5.81A35.11,35.11,0,0,1,165.78,26.19Z"/><path class="cls-6" d="M147,26.91c1.35,1.78,2.58,3.6,3.78,5.42l3.57,5.44c.59.91,1.19,1.8,1.8,2.68s1.25,1.75,1.87,2.63a22.23,22.23,0,0,0,4.39,4.71,12.33,12.33,0,0,1-5.67-3.6A34.32,34.32,0,0,1,152.56,39a48.58,48.58,0,0,1-3.24-5.81A34.82,34.82,0,0,1,147,26.91Z"/><polygon class="cls-9" points="155.46 120.04 149.31 117.94 149.31 92.4 155.63 94.57 155.46 120.04"/><ellipse class="cls-10" cx="136.18" cy="25.83" rx="1.44" ry="2.53"/><ellipse class="cls-10" cx="146.29" cy="47.48" rx="1.44" ry="2.53"/><ellipse class="cls-10" cx="120.66" cy="39.9" rx="1.08" ry="2.17"/><rect class="cls-3" x="205.59" y="69.13" width="22.27" height="2.3" transform="translate(433.45 140.56) rotate(-180)"/><path class="cls-2" d="M200.21,103.68,183.32,92.17s-5.38,3.07-10,1.53l23,18.43S201.75,106,200.21,103.68Z"/><rect class="cls-1" x="200.21" y="71.43" width="33.02" height="33.02" transform="translate(304.67 -128.78) rotate(90)"/><rect class="cls-3" x="205.59" y="76.81" width="22.27" height="22.27" transform="translate(433.45 175.88) rotate(-180)"/><line class="cls-19" x1="227.86" y1="93.7" x2="205.59" y2="93.7"/><line class="cls-19" x1="227.86" y1="89.09" x2="205.59" y2="89.09"/><line class="cls-19" x1="210.96" y1="76.81" x2="210.96" y2="99.08"/><line class="cls-19" x1="222.48" y1="76.81" x2="222.48" y2="99.08"/><path class="cls-1" d="M233.23,104.45s3.07,4.61,10.37,7.3H196s4.22-3.46,4.22-7.3Z"/><rect class="cls-5" x="167.19" y="58.38" width="59.13" height="4.61" rx="0.56" ry="0.56" transform="translate(393.52 121.36) rotate(-180)"/><rect class="cls-6" x="165.66" y="58.38" width="59.13" height="4.61" rx="0.56" ry="0.56" transform="translate(390.44 121.36) rotate(-180)"/><path d="M184.39,46.66C178.08,53,170.2,59.91,165.66,59.91h59.13L208.43,47.24Z"/><polygon class="cls-2" points="189.46 53.77 198.68 69.9 198.38 70 200.21 71.3 200.21 104.32 183.32 92.3 183.32 61.47 183.32 61.45 183.32 59.28 183.32 59.15 189.46 53.77"/><path class="cls-7" d="M224,44.56s20,23.8,28.41,23.8H193.3s-5.37-17.66-14.59-23Z"/><polygon class="cls-3" points="186.07 88.88 186.07 66.61 197.46 74.72 197.46 96.99 186.07 88.88"/><line class="cls-20" x1="188.82" y1="68.57" x2="188.82" y2="90.84"/><line class="cls-20" x1="191.18" y1="70.25" x2="191.18" y2="92.51"/><line class="cls-20" x1="197.46" y1="91.61" x2="186.07" y2="83.51"/><line class="cls-20" x1="197.46" y1="80.09" x2="186.07" y2="71.99"/><rect class="cls-6" x="181.78" y="43.02" width="45.31" height="4.61" rx="0.56" ry="0.56" transform="translate(408.87 90.65) rotate(180)"/><rect class="cls-6" x="192.53" y="66.82" width="59.13" height="4.61" rx="0.56" ry="0.56" transform="translate(444.2 138.26) rotate(180)"/><path class="cls-6" d="M214.8,46.09c1.44,1.89,2.74,3.83,4,5.77l3.8,5.78c.62,1,1.26,1.92,1.92,2.86s1.32,1.86,2,2.79a23.61,23.61,0,0,0,4.68,5,13,13,0,0,1-6-3.83,35.48,35.48,0,0,1-4.47-5.56,52.56,52.56,0,0,1-3.44-6.18A37.47,37.47,0,0,1,214.8,46.09Z"/><path class="cls-6" d="M194.84,46.86c1.44,1.89,2.74,3.83,4,5.77l3.81,5.78c.62,1,1.26,1.92,1.92,2.86s1.32,1.86,2,2.79a23.31,23.31,0,0,0,4.67,5,13.18,13.18,0,0,1-6-3.83,35.88,35.88,0,0,1-4.46-5.56,51.23,51.23,0,0,1-3.45-6.18A37.44,37.44,0,0,1,194.84,46.86Z"/><polygon class="cls-9" points="203.82 145.92 197.29 143.68 197.29 116.53 204.01 118.83 203.82 145.92"/><ellipse class="cls-10" cx="183.32" cy="45.71" rx="1.54" ry="2.69"/><ellipse class="cls-10" cx="194.07" cy="68.74" rx="1.54" ry="2.69"/><ellipse class="cls-10" cx="166.81" cy="60.68" rx="1.15" ry="2.3"/><rect class="cls-3" x="272.71" y="93.98" width="26.71" height="2.76" transform="translate(572.12 190.73) rotate(-180)"/><path class="cls-2" d="M266.26,135.42,246,121.61s-6.44,3.68-12,1.84l27.63,22.1S268.1,138.19,266.26,135.42Z"/><rect class="cls-1" x="266.26" y="96.75" width="39.6" height="39.6" transform="translate(402.61 -169.52) rotate(90)"/><rect class="cls-3" x="272.71" y="103.19" width="26.71" height="26.71" transform="translate(572.12 233.09) rotate(-180)"/><line class="cls-21" x1="299.42" y1="123.45" x2="272.71" y2="123.45"/><line class="cls-21" x1="299.42" y1="117.93" x2="272.71" y2="117.93"/><line class="cls-21" x1="279.16" y1="103.19" x2="279.16" y2="129.9"/><line class="cls-21" x1="292.97" y1="103.19" x2="292.97" y2="129.9"/><path class="cls-1" d="M305.86,136.34s3.69,5.53,12.43,8.75H261.2s5.06-4.14,5.06-8.75Z"/><rect class="cls-5" x="226.66" y="81.09" width="70.91" height="5.53" rx="0.56" ry="0.56" transform="translate(524.24 167.7) rotate(-180)"/><rect class="cls-6" x="224.82" y="81.09" width="70.91" height="5.53" rx="0.56" ry="0.56" transform="translate(520.55 167.7) rotate(-180)"/><path d="M247.28,67c-7.56,7.63-17,15.89-22.46,15.89h70.91l-19.61-15.2Z"/><polygon class="cls-2" points="253.37 75.56 264.42 94.9 264.07 95.02 266.26 96.58 266.26 136.18 246 121.77 246 84.8 246 84.77 246 82.17 246 82.01 253.37 75.56"/><path class="cls-7" d="M294.81,64.51s23.94,28.55,34.07,28.55H258s-6.44-21.18-17.49-27.63Z"/><polygon class="cls-3" points="249.3 117.67 249.3 90.96 262.96 100.69 262.96 127.39 249.3 117.67"/><line class="cls-22" x1="252.6" y1="93.31" x2="252.6" y2="120.02"/><line class="cls-22" x1="255.43" y1="95.32" x2="255.43" y2="122.03"/><line class="cls-22" x1="262.96" y1="120.94" x2="249.3" y2="111.22"/><line class="cls-22" x1="262.96" y1="107.13" x2="249.3" y2="97.41"/><rect class="cls-6" x="244.16" y="62.67" width="54.33" height="5.53" rx="0.56" ry="0.56" transform="translate(542.65 130.87) rotate(180)"/><rect class="cls-6" x="257.05" y="91.22" width="70.91" height="5.53" rx="0.56" ry="0.56" transform="translate(585.02 187.97) rotate(180)"/><path class="cls-6" d="M283.76,66.36c1.73,2.27,3.29,4.58,4.82,6.91l4.56,6.94c1.51,2.3,3.05,4.58,4.67,6.78a28.44,28.44,0,0,0,5.61,6,11.47,11.47,0,0,1-3.93-1.79,24,24,0,0,1-3.31-2.79,41.69,41.69,0,0,1-5.35-6.68,57.12,57.12,0,0,1-4.13-7.41A45.18,45.18,0,0,1,283.76,66.36Z"/><path class="cls-6" d="M259.82,67.28c1.72,2.27,3.28,4.59,4.81,6.91l4.56,7c1.52,2.29,3.05,4.57,4.67,6.77a28,28,0,0,0,5.62,6,11.38,11.38,0,0,1-3.93-1.79,22.74,22.74,0,0,1-3.31-2.79,41.14,41.14,0,0,1-5.35-6.68,57.12,57.12,0,0,1-4.13-7.41A43.65,43.65,0,0,1,259.82,67.28Z"/><polygon class="cls-9" points="270.59 186.07 262.76 183.39 262.76 150.82 270.82 153.58 270.59 186.07"/><ellipse class="cls-10" cx="246" cy="65.89" rx="1.84" ry="3.22"/><ellipse class="cls-10" cx="258.89" cy="93.52" rx="1.84" ry="3.22"/><ellipse class="cls-10" cx="226.2" cy="83.85" rx="1.38" ry="2.76"/><rect class="cls-3" x="361.14" y="137.77" width="28.73" height="2.97" transform="translate(751.01 278.51) rotate(-180)"/><path class="cls-2" d="M354.2,182.35l-21.79-14.86s-6.94,4-12.88,2l29.72,23.78S356.19,185.33,354.2,182.35Z"/><rect class="cls-1" x="354.2" y="140.74" width="42.6" height="42.6" transform="translate(537.55 -213.46) rotate(90)"/><rect class="cls-3" x="361.14" y="147.68" width="28.73" height="28.73" transform="translate(751.01 324.09) rotate(-180)"/><line class="cls-23" x1="389.87" y1="169.47" x2="361.14" y2="169.47"/><line class="cls-23" x1="389.87" y1="163.53" x2="361.14" y2="163.53"/><line class="cls-23" x1="368.07" y1="147.68" x2="368.07" y2="176.41"/><line class="cls-23" x1="382.94" y1="147.68" x2="382.94" y2="176.41"/><path class="cls-1" d="M396.81,183.34s4,5.95,13.37,9.42H348.76s5.44-4.46,5.44-9.42Z"/><rect class="cls-5" x="311.6" y="123.9" width="76.29" height="5.94" rx="0.56" ry="0.56" transform="translate(699.49 253.74) rotate(-180)"/><rect class="cls-6" x="309.62" y="123.9" width="76.29" height="5.94" rx="0.56" ry="0.56" transform="translate(695.53 253.74) rotate(-180)"/><path d="M333.79,108.78c-8.14,8.21-18.31,17.1-24.17,17.1h76.29l-21.1-16.35Z"/><polygon class="cls-2" points="340.33 117.96 352.22 138.76 351.84 138.89 354.2 140.57 354.2 183.17 332.41 167.66 332.41 127.89 332.41 127.86 332.41 125.06 332.41 124.89 340.33 117.96"/><path class="cls-7" d="M384.92,106.07s25.76,30.71,36.65,30.71H345.29s-6.94-22.79-18.83-29.72Z"/><polygon class="cls-3" points="335.96 163.25 335.96 134.52 350.66 144.98 350.66 173.71 335.96 163.25"/><line class="cls-24" x1="339.5" y1="137.05" x2="339.5" y2="165.78"/><line class="cls-24" x1="342.55" y1="139.21" x2="342.55" y2="167.94"/><line class="cls-24" x1="350.66" y1="166.78" x2="335.96" y2="156.32"/><line class="cls-24" x1="350.66" y1="151.92" x2="335.96" y2="141.46"/><rect class="cls-6" x="330.43" y="104.09" width="58.45" height="5.94" rx="0.56" ry="0.56" transform="translate(719.31 214.12) rotate(180)"/><rect class="cls-6" x="344.3" y="134.8" width="76.29" height="5.94" rx="0.56" ry="0.56" transform="translate(764.88 275.54) rotate(180)"/><path class="cls-6" d="M373,108.05c1.86,2.44,3.53,4.94,5.18,7.44l4.91,7.47c1.63,2.47,3.28,4.92,5,7.29a30.24,30.24,0,0,0,6,6.45,12.08,12.08,0,0,1-4.23-1.92,25.08,25.08,0,0,1-3.56-3,44.39,44.39,0,0,1-5.75-7.18,61.58,61.58,0,0,1-4.45-8A48.61,48.61,0,0,1,373,108.05Z"/><path class="cls-6" d="M347.27,109c1.86,2.44,3.54,4.94,5.18,7.44l4.91,7.47c1.63,2.47,3.28,4.92,5,7.29a30.52,30.52,0,0,0,6,6.46,12.29,12.29,0,0,1-4.23-1.93,25.08,25.08,0,0,1-3.56-3,44.39,44.39,0,0,1-5.75-7.18,60.35,60.35,0,0,1-4.44-8A47.86,47.86,0,0,1,347.27,109Z"/><polygon class="cls-9" points="358.86 236.84 350.43 233.96 350.43 198.92 359.1 201.89 358.86 236.84"/><ellipse class="cls-10" cx="332.41" cy="107.55" rx="1.98" ry="3.47"/><ellipse class="cls-10" cx="346.28" cy="137.28" rx="1.98" ry="3.47"/><ellipse class="cls-10" cx="311.11" cy="126.87" rx="1.49" ry="2.97"/><rect class="cls-3" x="457.66" y="173.73" width="34.17" height="3.53" transform="translate(949.49 350.99) rotate(-180)"/><path class="cls-2" d="M449.41,226.75l-25.92-17.68s-8.24,4.72-15.31,2.36l35.34,28.28S451.77,230.28,449.41,226.75Z"/><rect class="cls-1" x="449.41" y="177.26" width="50.66" height="50.66" transform="translate(677.34 -272.15) rotate(90)"/><rect class="cls-3" x="457.66" y="185.51" width="34.17" height="34.17" transform="translate(949.49 405.19) rotate(-180)"/><line class="cls-25" x1="491.83" y1="211.43" x2="457.66" y2="211.43"/><line class="cls-25" x1="491.83" y1="204.36" x2="457.66" y2="204.36"/><line class="cls-25" x1="465.91" y1="185.51" x2="465.91" y2="219.68"/><line class="cls-25" x1="483.58" y1="185.51" x2="483.58" y2="219.68"/><path class="cls-1" d="M500.08,227.92s4.71,7.07,15.9,11.2H442.93s6.48-5.3,6.48-11.2Z"/><rect class="cls-5" x="398.75" y="157.23" width="90.72" height="7.07" rx="0.56" ry="0.56" transform="translate(888.23 321.53) rotate(-180)"/><rect class="cls-6" x="396.39" y="157.23" width="90.72" height="7.07" rx="0.56" ry="0.56" transform="translate(883.51 321.53) rotate(-180)"/><path d="M425.13,139.25c-9.68,9.77-21.76,20.34-28.74,20.34h90.73L462,140.14Z"/><polygon class="cls-2" points="432.92 150.16 447.06 174.91 446.6 175.06 449.42 177.06 449.42 227.72 423.49 209.28 423.49 161.97 423.49 161.94 423.49 158.62 423.49 158.41 432.92 150.16"/><path class="cls-7" d="M485.94,136s30.63,36.53,43.59,36.53H438.81s-8.25-27.1-22.39-35.35Z"/><polygon class="cls-3" points="427.71 204.03 427.71 169.87 445.19 182.3 445.19 216.47 427.71 204.03"/><line class="cls-26" x1="431.93" y1="172.87" x2="431.93" y2="207.04"/><line class="cls-26" x1="435.55" y1="175.44" x2="435.55" y2="209.61"/><line class="cls-26" x1="445.19" y1="208.22" x2="427.71" y2="195.79"/><line class="cls-26" x1="445.19" y1="190.55" x2="427.71" y2="178.11"/><rect class="cls-6" x="421.14" y="133.67" width="69.51" height="7.07" rx="0.56" ry="0.56" transform="translate(911.79 274.4) rotate(180)"/><rect class="cls-6" x="437.63" y="170.19" width="90.72" height="7.07" rx="0.56" ry="0.56" transform="translate(965.99 347.45) rotate(180)"/><path class="cls-6" d="M471.8,138.38c2.21,2.9,4.2,5.88,6.17,8.84l5.83,8.89c1.94,2.94,3.89,5.86,6,8.66a51.62,51.62,0,0,0,3.29,4.09,23.9,23.9,0,0,0,3.89,3.6,14.61,14.61,0,0,1-5-2.29,30.93,30.93,0,0,1-4.24-3.57,53.71,53.71,0,0,1-6.84-8.54,76.56,76.56,0,0,1-5.29-9.48A58.78,58.78,0,0,1,471.8,138.38Z"/><path class="cls-6" d="M441.17,139.56c2.21,2.9,4.19,5.88,6.17,8.84l5.82,8.89c1.95,2.94,3.9,5.86,6,8.66,1.05,1.39,2.1,2.8,3.28,4.08a23.92,23.92,0,0,0,3.89,3.61,14.53,14.53,0,0,1-5-2.3,30.17,30.17,0,0,1-4.24-3.56,54.81,54.81,0,0,1-6.84-8.55,76.41,76.41,0,0,1-5.29-9.48A58.34,58.34,0,0,1,441.17,139.56Z"/><polygon class="cls-9" points="454.95 291.55 444.93 288.12 444.93 246.45 455.24 249.98 454.95 291.55"/><ellipse class="cls-10" cx="423.49" cy="137.79" rx="2.36" ry="4.12"/><ellipse class="cls-10" cx="439.99" cy="173.14" rx="2.36" ry="4.12"/><ellipse class="cls-10" cx="398.16" cy="160.77" rx="1.77" ry="3.53"/><rect class="cls-3" x="558.83" y="199.51" width="36.7" height="3.9" transform="translate(1154.37 402.92) rotate(-180)"/><path class="cls-2" d="M550,258l-27.85-19.48s-8.85,5.19-16.45,2.59l38,31.17S552.51,261.84,550,258Z"/><rect class="cls-1" x="549.26" y="204.12" width="55.84" height="54.42" transform="translate(808.51 -345.86) rotate(90)"/><rect class="cls-3" x="558.83" y="212.5" width="36.7" height="37.66" transform="translate(1154.37 462.65) rotate(-180)"/><line class="cls-27" x1="595.53" y1="241.06" x2="558.83" y2="241.06"/><line class="cls-27" x1="595.53" y1="233.27" x2="558.83" y2="233.27"/><line class="cls-27" x1="567.69" y1="212.5" x2="567.69" y2="250.15"/><line class="cls-27" x1="586.67" y1="212.5" x2="586.67" y2="250.15"/><path class="cls-1" d="M604.39,259.24s5.06,7.8,17.08,12.34H543s7-5.84,7-12.34Z"/><rect class="cls-5" x="495.56" y="181.33" width="97.44" height="7.79" rx="0.56" ry="0.56" transform="translate(1088.56 370.45) rotate(-180)"/><rect class="cls-6" x="493.03" y="181.33" width="97.44" height="7.79" rx="0.56" ry="0.56" transform="translate(1083.5 370.45) rotate(-180)"/><path d="M523.9,161.51c-10.4,10.77-23.38,22.42-30.87,22.42h97.44l-27-21.43Z"/><polygon class="cls-2" points="532.26 173.54 547.44 200.81 546.96 200.98 549.98 203.18 549.98 259.02 522.13 238.69 522.13 186.56 522.13 186.53 522.13 182.86 522.13 182.63 532.26 173.54"/><path class="cls-7" d="M589.2,158s32.91,40.25,46.83,40.25H538.59s-8.86-29.86-24.05-39Z"/><polygon class="cls-3" points="526.67 232.91 526.67 195.25 545.44 208.96 545.44 246.62 526.67 232.91"/><line class="cls-28" x1="531.2" y1="198.56" x2="531.2" y2="236.22"/><line class="cls-28" x1="535.08" y1="201.4" x2="535.08" y2="239.06"/><line class="cls-28" x1="545.44" y1="237.53" x2="526.67" y2="223.82"/><line class="cls-28" x1="545.44" y1="218.05" x2="526.67" y2="204.34"/><rect class="cls-6" x="519.6" y="155.36" width="74.66" height="7.79" rx="0.56" ry="0.56" transform="translate(1113.87 318.51) rotate(180)"/><rect class="cls-6" x="537.32" y="195.62" width="97.44" height="7.79" rx="0.56" ry="0.56" transform="translate(1172.08 399.02) rotate(180)"/><path class="cls-6" d="M574,160.55c2.38,3.2,4.51,6.47,6.63,9.74l6.25,9.78c2.09,3.24,4.17,6.46,6.42,9.55a56.84,56.84,0,0,0,3.52,4.51,25.26,25.26,0,0,0,4.2,4,15.57,15.57,0,0,1-5.46-2.58,33.91,33.91,0,0,1-4.57-4,59.84,59.84,0,0,1-7.35-9.42A83.93,83.93,0,0,1,578,171.73,64.08,64.08,0,0,1,574,160.55Z"/><path class="cls-6" d="M541.12,161.85c2.38,3.2,4.51,6.47,6.63,9.74l6.25,9.78c2.08,3.24,4.17,6.46,6.41,9.55,1.13,1.54,2.26,3.08,3.53,4.5a24.91,24.91,0,0,0,4.2,4,15.49,15.49,0,0,1-5.46-2.58,34,34,0,0,1-4.58-4,59.78,59.78,0,0,1-7.34-9.42A85.34,85.34,0,0,1,545.1,173,64,64,0,0,1,541.12,161.85Z"/><polygon class="cls-9" points="555.92 329.37 545.16 325.58 545.16 279.66 556.23 283.55 555.92 329.37"/><ellipse class="cls-10" cx="522.13" cy="159.91" rx="2.53" ry="4.54"/><ellipse class="cls-10" cx="539.85" cy="198.86" rx="2.53" ry="4.54"/><ellipse class="cls-10" cx="494.93" cy="185.23" rx="1.9" ry="3.9"/><rect class="cls-3" x="668.33" y="234.53" width="42.77" height="4.54" transform="translate(1379.43 473.6) rotate(-180)"/><path class="cls-2" d="M658,302.64l-32.44-22.71s-10.33,6.06-19.18,3l44.25,36.32S661,307.18,658,302.64Z"/><rect class="cls-1" x="657.18" y="239.9" width="65.08" height="63.42" transform="translate(961.33 -418.1) rotate(90)"/><rect class="cls-3" x="668.33" y="249.67" width="42.77" height="43.89" transform="translate(1379.43 543.22) rotate(-180)"/><line class="cls-29" x1="711.1" y1="282.96" x2="668.33" y2="282.96"/><line class="cls-29" x1="711.1" y1="273.88" x2="668.33" y2="273.88"/><line class="cls-29" x1="678.65" y1="249.67" x2="678.65" y2="293.56"/><line class="cls-29" x1="700.78" y1="249.67" x2="700.78" y2="293.56"/><path class="cls-1" d="M721.43,304.15s5.9,9.08,19.91,14.38H649.89s8.11-6.81,8.11-14.38Z"/><rect class="cls-5" x="594.58" y="213.34" width="113.57" height="9.08" rx="0.56" ry="0.56" transform="translate(1302.74 435.77) rotate(-180)"/><rect class="cls-6" x="591.63" y="213.34" width="113.57" height="9.08" rx="0.56" ry="0.56" transform="translate(1296.84 435.77) rotate(-180)"/><path d="M627.61,190.25c-12.12,12.54-27.25,26.12-36,26.12H705.2l-31.41-25Z"/><polygon class="cls-2" points="637.36 204.26 655.05 236.04 654.49 236.24 658 238.81 658 303.88 625.56 280.2 625.56 219.43 625.56 219.4 625.56 215.12 625.56 214.86 637.36 204.26"/><path class="cls-7" d="M703.73,186.1S742.07,233,758.3,233H644.73s-10.32-34.81-28-45.41Z"/><polygon class="cls-3" points="630.84 273.46 630.84 229.57 652.72 245.54 652.72 289.44 630.84 273.46"/><line class="cls-30" x1="636.12" y1="233.43" x2="636.12" y2="277.32"/><line class="cls-30" x1="640.65" y1="236.73" x2="640.65" y2="280.62"/><line class="cls-30" x1="652.72" y1="278.84" x2="630.84" y2="262.87"/><line class="cls-30" x1="652.72" y1="256.14" x2="630.84" y2="240.16"/><rect class="cls-6" x="622.61" y="183.07" width="87.02" height="9.08" rx="0.56" ry="0.56" transform="translate(1332.23 375.23) rotate(180)"/><rect class="cls-6" x="643.26" y="229.99" width="113.57" height="9.08" rx="0.56" ry="0.56" transform="translate(1400.08 469.06) rotate(180)"/><path class="cls-6" d="M686,189.13c2.77,3.73,5.26,7.53,7.73,11.34l7.28,11.4c2.43,3.78,4.86,7.53,7.48,11.13,1.3,1.8,2.65,3.58,4.11,5.26a29.56,29.56,0,0,0,4.89,4.64,18.3,18.3,0,0,1-6.36-3,38,38,0,0,1-5.33-4.62,69.49,69.49,0,0,1-8.56-11,96.25,96.25,0,0,1-6.59-12.14A73.87,73.87,0,0,1,686,189.13Z"/><path class="cls-6" d="M647.68,190.64c2.77,3.73,5.27,7.54,7.73,11.34l7.28,11.41c2.43,3.77,4.87,7.52,7.48,11.13,1.3,1.8,2.65,3.57,4.11,5.25a30,30,0,0,0,4.89,4.65,18.33,18.33,0,0,1-6.36-3,37.36,37.36,0,0,1-5.33-4.62,69.87,69.87,0,0,1-8.56-11,99,99,0,0,1-6.59-12.14A75.08,75.08,0,0,1,647.68,190.64Z"/><polygon class="cls-9" points="664.94 385.88 652.39 381.47 652.39 327.94 665.3 332.48 664.94 385.88"/><ellipse class="cls-10" cx="625.56" cy="188.37" rx="2.95" ry="5.3"/><ellipse class="cls-10" cx="646.21" cy="233.77" rx="2.95" ry="5.3"/><ellipse class="cls-10" cx="593.85" cy="217.88" rx="2.21" ry="4.54"/><path class="cls-7" d="M791.82,644.44l-4.81.08A13.49,13.49,0,0,0,791.82,644.44Z"/></g></g></g></svg>