<svg xmlns="http://www.w3.org/2000/svg" viewBox="0 0 1421.89 567.97"><defs><style>.cls-1{fill:#232323;}</style></defs><title>Layer 44</title><g id="Layer_2" data-name="Layer 2"><g id="shrine"><g id="Layer_44" data-name="Layer 44"><path class="cls-1" d="M0,568S374.7,297.79,424,185.38,502.89,25.64,528.53,0H644.88s719.82,560.08,777,546.28Z"/><path d="M528.53,0C502.89,25.64,473.31,73,424,185.38S0,568,0,568l1417.13-21.62C1333.24,535.6,644.88,0,644.88,0Zm3.94,2H642.91a2,2,0,0,1,0,4H532.47a2,2,0,0,1,0-3.95ZM1270,483.17v57.19a4,4,0,0,1-3.94,3.94H128.19a4,4,0,0,1-4-3.94V483.17a4,4,0,0,1,4-3.95H1266.1A4,4,0,0,1,1270,483.17Zm-118.33-82.83v53.25a4,4,0,0,1-3.94,3.94H236.65a4,4,0,0,1-3.94-3.94V400.34a4,4,0,0,1,3.94-3.95h911.12A4,4,0,0,1,1151.71,400.34Zm-82.82-69v41.41a4,4,0,0,1-4,3.94H317.51a4,4,0,0,1-3.94-3.94V331.32a4,4,0,0,1,3.94-3.95h747.43A4,4,0,0,1,1068.89,331.32ZM992,278.07v31.55a4,4,0,0,1-3.94,3.95H366.81a4,4,0,0,1-3.94-3.95V278.07a4,4,0,0,1,3.94-3.95H988A4,4,0,0,1,992,278.07Zm-57.19-51.28v31.56a4,4,0,0,1-3.94,3.94H410.2a4,4,0,0,1-3.94-3.94V226.79a4,4,0,0,1,3.94-3.94H930.84A4,4,0,0,1,934.78,226.79Zm-47.33-35.5V211a4,4,0,0,1-3.94,3.94H433.87a4,4,0,0,1-3.95-3.94V191.29a4,4,0,0,1,3.95-3.94H883.51A4,4,0,0,1,887.45,191.29Zm-45.36-29.58v13.81a4,4,0,0,1-3.94,3.94H447.67a4,4,0,0,1-3.94-3.94V161.71a4,4,0,0,1,3.94-3.94H838.15A4,4,0,0,1,842.09,161.71Zm-39.44-29.58v13.81a4,4,0,0,1-3.94,3.94H459.5a4,4,0,0,1-3.94-3.94V132.13a4,4,0,0,1,3.94-3.94H798.71A4,4,0,0,1,802.65,132.13Zm-35.5-23.66v9.86a4,4,0,0,1-3.94,3.94H473.31a4,4,0,0,1-3.95-3.94v-9.86a4,4,0,0,1,3.95-4h289.9A4,4,0,0,1,767.15,108.47Zm-27.61-21.7v5.92a4,4,0,0,1-3.94,3.94H485.14a4,4,0,0,1-3.94-3.94V86.77a4,4,0,0,1,3.94-3.94H735.6A4,4,0,0,1,739.54,86.77ZM725.74,71v2a4,4,0,0,1-4,3.94H495A4,4,0,0,1,491.06,73V71a4,4,0,0,1,3.94-4H721.79A4,4,0,0,1,725.74,71ZM710,55.22v2a4,4,0,0,1-3.94,4H497a4,4,0,0,1-3.94-4v-2A4,4,0,0,1,497,51.27H706A4,4,0,0,1,710,55.22Zm-13.8-9.86a4,4,0,0,1-3.95,3.94H502.89a3.95,3.95,0,1,1,0-7.89H692.21A4,4,0,0,1,696.16,45.36ZM686.3,35.5a4,4,0,0,1-3.95,3.94H508.81a3.95,3.95,0,1,1,0-7.89H682.35A4,4,0,0,1,686.3,35.5Zm-11.84-9.86a4,4,0,0,1-3.94,3.94H514.72a3.95,3.95,0,0,1,0-7.89h155.8A4,4,0,0,1,674.46,25.64ZM658.69,14.79a3,3,0,0,1-3,3H523.6a3,3,0,0,1,0-5.92H655.73A3,3,0,0,1,658.69,14.79Z"/><path d="M1421.89,546.28l-4.76.07A13.72,13.72,0,0,0,1421.89,546.28Z"/></g></g></g></svg>