<?xml version="1.0" encoding="utf-8"?>
<!-- Generator: Adobe Illustrator 22.0.1, SVG Export Plug-In . SVG Version: 6.00 Build 0)  -->
<svg version="1.1" id="Layer_1" xmlns="http://www.w3.org/2000/svg" xmlns:xlink="http://www.w3.org/1999/xlink" x="0px" y="0px"
	 viewBox="0 0 504.4 622.5" style="enable-background:new 0 0 504.4 622.5;" xml:space="preserve">
<style type="text/css">
	.st0{fill:none;}
	.st1{fill:#9DC2A0;}
	.st2{fill:#237C7A;}
	.st3{fill:#3FA49B;}
	.st4{fill:#73B095;}
</style>
<title>bamboo (2)</title>
<g id="Layer_2_1_">
	<g id="main">
		<g id="bamboo">
			<polygon class="st0" points="388.1,75 395.4,81.1 395.4,37.4 377.1,52.9 377.7,49.4 363.4,49.4 363.4,75 			"/>
			<polygon class="st0" points="345.4,75 345.4,75 345.4,75 			"/>
			<polygon class="st0" points="349.3,75 350.4,75 350.4,48.5 345.4,44.3 345.4,52.3 			"/>
			<polygon class="st0" points="91.4,441.9 91.4,441.9 95.1,438.8 			"/>
			<polygon class="st0" points="322.4,319.1 332.4,327.5 332.4,98.4 322.4,98.4 			"/>
			<polygon class="st0" points="263.4,324.1 263.4,324.1 266.1,321.8 			"/>
			<polygon class="st0" points="303.3,43 307.1,39.8 300.4,45.4 300.4,59.9 			"/>
			<polygon class="st0" points="322.4,85.5 332.4,77.1 332.4,64 329.6,61.7 323.5,26.4 322.4,33.1 			"/>
			<polygon class="st0" points="300.4,308 309.1,308 309.4,308.2 309.4,98.4 307,98.4 309.4,96.4 309.4,68.5 300.4,76.1 			"/>
			<polygon class="st0" points="184.4,409.6 184.4,409.6 184.8,410 185.4,413.5 185.4,410.5 			"/>
			<polygon class="st0" points="92,425 98.4,425 98.4,419.6 			"/>
			<polygon class="st0" points="74.4,425.3 74.4,433.8 78.4,430.5 78.4,428.7 			"/>
			<polygon class="st0" points="136.6,416.4 135.5,416.4 137,425 138.1,425 138.4,425.2 138.4,414.9 			"/>
			<polygon class="st0" points="129.4,425 131,425 129.4,423.6 			"/>
			<polygon class="st0" points="91.4,472.6 91.4,622.5 98.4,622.5 98.4,466.6 			"/>
			<rect x="18.4" y="401.4" class="st0" width="3" height="221.1"/>
			<rect x="74.4" y="448.4" class="st0" width="4" height="174.1"/>
			<polygon class="st0" points="54.5,378.4 48.4,413.7 47.4,414.6 47.4,622.5 56.4,622.5 56.4,389 			"/>
			<polygon class="st0" points="170.6,428.7 165.9,401.4 163.1,401.4 158.4,428.7 151.4,434.6 151.4,436.1 166.1,448.4 151.4,448.4 
				151.4,622.5 171.4,622.5 171.4,429.3 			"/>
			<rect x="229.4" y="331.4" class="st0" width="21" height="291.1"/>
			<polygon class="st0" points="129.4,440 129.4,440 131.8,442 138,477.9 129.4,470.6 129.4,622.5 138.4,622.5 138.4,447.5 			"/>
			<polygon class="st0" points="300.4,323 300.4,323 302.8,325 309,360.9 300.4,353.6 300.4,622.5 309.4,622.5 309.4,330.5 			"/>
			<rect x="322.4" y="331.4" class="st0" width="10" height="291.1"/>
			<rect x="201.4" y="416.4" class="st0" width="15" height="206.1"/>
			<polygon class="st0" points="184.4,440.3 184.4,622.5 185.4,622.5 185.4,441.1 			"/>
			<polygon class="st0" points="263.4,354.7 263.4,622.5 276.4,622.5 276.4,343.7 			"/>
			<polygon class="st0" points="450.4,67.6 449.5,62.4 448.6,67.6 			"/>
			<polygon class="st0" points="165.9,401.3 164.5,393.4 163.5,399.3 			"/>
			<polygon class="st0" points="78.4,415.8 78.4,401.4 75.9,401.4 			"/>
			<polygon class="st0" points="107.7,400.3 109.1,401.4 107.5,401.4 107,404.5 109.4,404.5 109.4,390.9 			"/>
			<polygon class="st0" points="129.4,393 131.8,395 132.2,397.8 133.7,396.6 129.4,393 			"/>
			<polygon class="st0" points="345.4,119.2 345.4,622.5 350.4,622.5 350.4,115 			"/>
			<polygon class="st0" points="389.4,98.4 378,88.8 381.8,92 388,127.9 367.6,110.7 363.4,86 363.4,622.5 395.4,622.5 395.4,98.4 
							"/>
			<g>
				<polygon class="st1" points="377.7,49.4 377.7,49.1 350.2,26 323.7,26 323.6,26 332.4,33.4 340,39.8 345.4,44.3 350.4,48.5 
					351.4,49.4 363.4,49.4 				"/>
				<polygon class="st1" points="300.4,323 309.4,330.5 310.4,331.4 322.4,331.4 332.4,331.4 337,331.4 332.4,327.5 322.4,319.1 
					309.4,308.2 309.2,308 300.4,308 289.4,308 287.4,308 282.7,308 282.6,308 287.4,312 289.4,313.7 299,321.8 				"/>
				<polygon class="st1" points="361.7,75 361.6,75 363.4,76.5 378,88.8 389.4,98.4 395.4,98.4 408.4,98.4 416,98.4 408.4,92 
					395.4,81.1 388.2,75 363.4,75 				"/>
				<polygon class="st1" points="449.6,62 466,75.8 477.4,85.4 504,85.4 476.2,62 449.7,62 				"/>
				<polygon class="st1" points="107.5,401.4 109,401.4 107.7,400.3 				"/>
				<polygon class="st1" points="78.4,378 69.4,378 56.4,378 54.7,378 54.6,378 56.4,379.5 69.4,390.4 69.7,390.7 78.4,383.5 
					83,379.6 81.2,378 				"/>
				<polygon class="st1" points="83.6,401.4 90.2,401.4 91.3,395 91.4,394.9 95.1,391.8 91.4,394.9 				"/>
				<polygon class="st1" points="150.5,435.4 138.4,445.6 138.1,445.9 138.4,444.2 141.2,427.6 138.4,425.2 138.2,425 137,425 
					138,430.9 131,425 129.4,425 122.4,425 116.4,425 112.4,425 111.7,425 111.6,425 112.4,425.6 116.4,429 122.4,434 128,438.8 
					129.4,440 138.4,447.5 139.4,448.4 151.4,448.4 166,448.4 151.4,436.1 				"/>
				<polygon class="st1" points="165.9,401.3 163.5,399.3 163.1,401.4 165.9,401.4 				"/>
				<polygon class="st1" points="122.4,387 128,391.8 129.4,393 133.7,396.6 137.9,393 138.4,393 151.4,393 156,393 151.4,389.1 
					138.4,378.2 138.2,378 129.4,378 122.4,378 116.4,378 111.7,378 111.6,378 116.4,382 				"/>
				<polygon class="st1" points="201.4,401.6 198.4,399.1 191.2,393 188.4,393 185.4,393 184.4,393 171.4,393 164.7,393 164.6,393 
					171.4,398.7 181,406.8 184.4,409.6 185.4,410.5 188.4,413 192.4,416.4 198.4,416.4 201.4,416.4 216.4,416.4 219,416.4 
					216.4,414.2 				"/>
				<polygon class="st1" points="233.7,7.2 233.7,7.4 233.7,7.3 				"/>
				<polygon class="st1" points="232.4,8.4 233.9,8.4 233.7,7.4 				"/>
				<polygon class="st1" points="437.4,180.2 437.2,180 428.4,180 417.4,180 415.4,180 410.7,180 410.6,180 415.4,184 417.4,185.7 
					427,193.8 428.4,195 437.4,202.5 438.4,203.4 450.4,203.4 460.4,203.4 460.4,199.5 450.4,191.1 				"/>
				<polygon class="st1" points="320.4,361.2 320.2,361 311.4,361 300.4,361 298.4,361 293.7,361 293.6,361 298.4,365 300.4,366.7 
					310,374.8 311.4,376 320.4,383.5 321.4,384.4 333.4,384.4 343.4,384.4 343.4,380.5 333.4,372.1 				"/>
				<polygon class="st1" points="383.4,338.2 383.2,338 374.4,338 363.4,338 361.4,338 356.7,338 356.6,338 361.4,342 363.4,343.7 
					373,351.8 374.4,353 383.4,360.5 384.4,361.4 396.4,361.4 406.4,361.4 406.4,357.5 396.4,349.1 				"/>
				<polygon class="st1" points="494.4,129.1 481.4,118.2 481.2,118 472.4,118 461.4,118 459.4,118 454.7,118 454.6,118 459.4,122 
					461.4,123.7 471,131.8 472.4,133 481.4,140.5 482.4,141.4 494.4,141.4 504.4,141.4 504.4,137.5 				"/>
				<polygon class="st1" points="459.4,97.4 471.4,97.4 481.4,97.4 481.4,93.5 471.4,85.1 458.4,74.2 458.2,74 449.4,74 438.4,74 
					436.4,74 431.7,74 431.6,74 436.4,78 438.4,79.7 448,87.8 449.4,89 458.4,96.5 				"/>
				<polygon class="st1" points="424.4,136 433.4,143.5 434.4,144.4 446.4,144.4 456.4,144.4 456.4,140.5 446.4,132.1 433.4,121.2 
					433.2,121 424.4,121 413.4,121 411.4,121 406.7,121 406.6,121 411.4,125 413.4,126.7 423,134.8 				"/>
				<polygon class="st1" points="391.4,132.2 391.2,132 382.4,132 371.4,132 369.4,132 364.7,132 364.6,132 369.4,136 371.4,137.7 
					381,145.8 382.4,147 391.4,154.5 392.4,155.4 404.4,155.4 414.4,155.4 414.4,151.5 404.4,143.1 				"/>
				<polygon class="st1" points="411.4,5.7 421,13.8 422.4,15 431.4,22.5 432.4,23.4 444.4,23.4 454.4,23.4 454.4,19.5 444.4,11.1 
					431.4,0.2 431.2,0 422.4,0 411.4,0 409.4,0 404.7,0 404.6,0 409.4,4 				"/>
			</g>
			<g>
				<polygon class="st2" points="116.4,411.1 117.1,410.5 122.4,406 129.4,400.2 132.2,397.8 131.8,395 129.4,393 129.4,393 
					128,391.8 122.4,387 116.4,382 111.6,378 111.6,378 111.6,378 111.5,378 111.5,378 111.5,378.3 111.5,378.4 116.4,406.3 				"/>
				<polygon class="st2" points="345.4,75 349.3,75 345.4,52.3 343.8,43 340,39.8 332.4,33.4 323.6,26 323.6,26 323.6,26 
					323.5,26.4 329.6,61.7 332.4,64 345.4,75 				"/>
				<polygon class="st2" points="322.4,27 309.4,37.9 307.1,39.8 303.3,43 300.4,59.9 297.1,78.9 300.4,76.1 309.4,68.5 317.4,61.7 
					322.4,33.1 323.5,26.4 323.5,26 				"/>
				<polygon class="st2" points="309,360.9 302.8,325 300.4,323 299,321.8 289.4,313.7 287.4,312 282.6,308 282.6,308 282.6,308 
					282.5,308 282.5,308 282.5,308.3 282.5,308.4 276.4,343.7 276.4,343.7 276.4,622.5 287.4,622.5 289.4,622.5 289.4,344.3 
					300.4,353.6 				"/>
				<polygon class="st2" points="409.6,35.7 430,52.9 429.8,51.9 431,52.9 424.8,17 422.4,15 421,13.8 411.4,5.7 409.4,4 404.6,0 
					404.5,0.4 404.6,0.9 403.6,0 403.5,0.4 404.4,5.5 408.4,28.3 				"/>
				<polygon class="st2" points="449.6,62 449.6,62 449.5,62 449.6,62 466,75.8 				"/>
				<polygon class="st2" points="449.5,62.4 449.5,62 442.9,67.5 448.6,67.5 				"/>
				<polygon class="st2" points="395.4,6.8 387.1,13.8 383.3,17 377.7,49.1 377.7,49.4 377.1,52.9 395.4,37.4 397.4,35.7 402.6,5.5 
					396.9,5.5 				"/>
				<polygon class="st2" points="449.5,62 449.5,62.4 449.6,62 				"/>
				<polygon class="st2" points="67.6,392.5 69.4,391 69.7,390.7 69.7,390.7 69.4,390.4 56.4,379.5 54.7,378 54.7,378 54.6,378 
					54.6,378 54.5,378 54.6,378.2 54.5,378.4 56.4,389 58.3,400.3 61.4,397.8 				"/>
				<polygon class="st2" points="47.4,384 38.1,391.8 34.4,394.9 34.4,394.9 34.3,395 28.1,430.9 34.4,425.6 34.4,622.5 47.4,622.5 
					47.4,414.6 48.4,413.7 54.5,378.4 54.5,378 				"/>
				<polygon class="st2" points="129.4,440 129.4,440 128,438.8 122.4,434 116.4,429 112.4,425.6 111.6,425 111.6,425 111.6,425 
					111.5,425 111.5,425 111.5,425.3 111.5,425.4 112.4,430.3 116.4,453.3 116.4,622.5 122.4,622.5 129.4,622.5 129.4,470.6 
					138,477.9 131.8,442 				"/>
				<polygon class="st2" points="111.4,425.1 109.4,426.8 99.4,435.2 98.4,436 95.1,438.8 91.4,441.9 91.3,442 85.1,477.9 
					91.4,472.6 98.4,466.6 99.4,465.8 105.4,460.7 109.4,437.9 111.4,426.3 111.5,425.4 111.5,425 				"/>
				<polygon class="st2" points="135.5,416.4 129.4,416.4 122.4,416.4 120.8,416.4 116.4,416.4 116.4,425 122.4,425 129.4,425 
					129.4,423.6 131,425 138,430.9 137,425 				"/>
				<polygon class="st2" points="85.1,430.9 91.4,425.6 92,425 98.4,419.6 105.4,413.7 107,404.5 107.5,401.4 107.7,400.3 
					109.4,390.9 111.5,378.4 111.5,378 109.4,379.8 96.3,390.7 95.1,391.8 91.4,394.9 91.3,395 90.2,401.4 83.6,401.4 82.4,401.4 
					78.4,401.4 78.4,415.8 75.9,401.4 74.4,401.4 69.4,401.4 61.4,401.4 58.5,401.4 60.6,413.7 61.4,414.3 69.4,421.1 74.4,425.3 
					78.4,428.7 78.4,430.5 79.5,429.6 80.6,428.6 84.9,425 86.1,425 				"/>
				<polygon class="st2" points="185.4,413.5 184.8,410 184.4,409.6 181,406.8 171.4,398.7 164.6,393 164.6,393 164.6,393 
					164.5,393 164.5,393 164.6,393.3 164.5,393.4 165.9,401.3 165.9,401.4 170.6,428.7 171.4,429.3 184.4,440.3 185.4,441.1 
					188.4,443.7 191,445.9 188.4,430.8 				"/>
				<polygon class="st2" points="160.3,396.6 154.5,401.4 151.4,404 148.1,406.8 144.3,410 141.2,427.6 138.4,444.2 138.1,445.9 
					138.4,445.6 150.5,435.4 151.4,434.6 158.4,428.7 163.1,401.4 163.5,399.3 164.5,393.4 164.5,393 				"/>
				<polygon class="st2" points="428.4,195 427,193.8 417.4,185.7 415.4,184 410.6,180 410.5,180.4 415.4,208.3 416.6,215.7 
					417.4,216.3 428.4,225.6 437,232.9 430.8,197 				"/>
				<polygon class="st2" points="311.4,376 310,374.8 300.4,366.7 298.4,365 293.6,361 293.5,361.4 298.4,389.3 299.6,396.7 
					300.4,397.3 311.4,406.6 320,413.9 313.8,378 				"/>
				<polygon class="st2" points="374.4,353 373,351.8 363.4,343.7 363.4,86 367.6,110.7 388,127.9 381.8,92 378,88.8 363.4,76.5 
					361.6,75 363.4,75 363.4,49.4 351.4,49.4 350.4,48.5 350.4,75 361.1,75 361.5,75 361.5,75.3 361.5,75.4 361.5,75 350.4,84.3 
					345.4,88.5 345.1,88.8 341.3,92 335.1,127.9 345.4,119.2 350.4,115 350.4,622.5 363.4,622.5 363.4,374.3 374.4,383.6 383,390.9 
					376.8,355 				"/>
				<polygon class="st2" points="474.8,135 472.4,133 471,131.8 461.4,123.7 459.4,122 456.8,119.9 451.8,91 449.4,89 448,87.8 
					438.4,79.7 436.4,78 431.6,74 431.5,74.4 436.4,102.3 437.6,109.7 438.4,110.3 449.4,119.6 455.6,124.9 459.4,146.3 
					460.6,153.7 461.4,154.3 472.4,163.6 481,170.9 				"/>
				<polygon class="st2" points="412.6,156.7 413.4,157.3 424.4,166.6 433,173.9 426.8,138 424.4,136 423,134.8 413.4,126.7 
					411.4,125 406.6,121 406.5,121.4 411.4,149.3 				"/>
				<polygon class="st2" points="382.4,147 381,145.8 371.4,137.7 369.4,136 364.6,132 364.5,132.4 369.4,160.3 370.6,167.7 
					371.4,168.3 382.4,177.6 391,184.9 384.8,149 				"/>
			</g>
			<g>
				<polygon class="st3" points="300.4,323 300.4,323 299,321.8 				"/>
				<polygon class="st3" points="345.4,52.3 345.4,44.3 340,39.8 343.8,43 				"/>
				<polygon class="st3" points="184.4,409.6 184.4,409.6 181,406.8 				"/>
				<polygon class="st3" points="171.4,622.5 184.4,622.5 184.4,440.3 171.4,429.3 				"/>
				<polygon class="st3" points="111.5,425.4 111.4,426.3 109.4,437.9 109.4,622.5 111.4,622.5 112.4,622.5 116.4,622.5 
					116.4,453.3 112.4,430.3 				"/>
				<polygon class="st3" points="369.1,88 368.4,88 368.4,88.9 369.4,88 				"/>
				<polygon class="st3" points="368.5,89 369.5,88.1 368.4,89 				"/>
				<polygon class="st3" points="309.4,37.9 322.4,27 322.4,26.9 322.4,26 309.4,26 300.4,26 296.9,26 289.4,32.3 287.4,34 
					276.4,43.2 269,49.4 276.4,49.4 287.4,49.4 289.4,49.4 295.6,49.4 300.4,45.4 307.1,39.8 				"/>
				<polygon class="st3" points="276.4,343.7 282.5,308.4 282.5,308 276.4,313.1 276.4,313.1 266.1,321.8 263.4,324.1 262.3,325 
					256.1,360.9 263.4,354.7 276.4,343.7 				"/>
				<polygon class="st3" points="229.4,331.4 229.4,330.3 228,331.4 				"/>
				<polygon class="st3" points="276.4,313.1 282.5,308 282.4,308 				"/>
				<polygon class="st3" points="361.5,75 350.4,84.3 350.5,84.3 				"/>
				<polygon class="st3" points="433.1,75.8 441.4,68.8 442.9,67.5 449.5,62 442.9,67.5 442.8,67.5 449.4,62 449.1,62 422.9,62 
					395,85.4 417.9,85.4 415.1,87.8 412.4,90.1 411.3,91 406,121.4 400.4,126.2 390.1,134.8 387.4,137.1 386.3,138 380.1,173.9 
					387.4,167.7 400.4,156.7 400.4,156.7 405.7,126.4 412.4,120.7 425.4,109.7 425.4,109.7 431,77.5 				"/>
				<polygon class="st3" points="54.1,378 47.4,378 34.4,378 27.9,378 21.4,383.5 18.4,386 10.4,392.7 5.4,396.9 0,401.4 5.4,401.4 
					10.4,401.4 18.4,401.4 21.4,401.4 26.6,401.4 34.4,394.9 38.1,391.8 47.4,384 47.4,384 54.4,378 54.4,378 				"/>
				<polygon class="st3" points="47.4,384 54.5,378 54.4,378 				"/>
				<polygon class="st3" points="109.4,379.8 111.5,378 111.4,378 109.4,379.7 				"/>
				<path class="st3" d="M164.4,393L164.4,393h-0.3H156h-4.7h-13h-0.5l-4.2,3.6l-1.4,1.2l-2.9,2.4l-7,5.9l-5.3,4.4l-0.7,0.6v-4.7
					l-4.8-27.9l-2.2,12.5v13.7H107l-1.6,9.2l-7.1,5.9v5.4H92l-0.7,0.6l-6.3,5.3l1-5.9h-1.2l-4.3,3.6l-1.1,1l-1.1,0.9l-4,3.3l-5,4.2
					v-17l-8-6.8l-0.7-0.6l-2.1-12.3h2.9h8h5h1.5h2.5h4.1h1.2l7.8-6.5l3.7-3.1l1.2-1l13-10.9v-0.1l2.1-1.7h-0.3h-1.8h-18h-6.5
					l-1.9,1.6l-4.7,3.9l-8.6,7.2h0l-0.4,0.3l-1.8,1.5l-6.2,5.2l-3,2.6l-2-11.3v233.5h5v0h8V448.4h5h4h5.2l7.8-6.5l3.7-3.1l3.3-2.7
					l1-0.8l10-8.4l2-1.7V425l0.1,0v0.1l0.1-0.1h0h0.1h0.7h0h4v-8.6h4.5h1.5h7h6.1h1.1l1.8-1.5l9.7-8.2l3.3-2.7l3.1-2.6l5.8-4.8l0,0
					L164.4,393z M99.4,422.5L99.4,422.5l0,2.5h0V422.5z M111.4,425v-2.5h0L111.4,425L111.4,425z"/>
				<polygon class="st3" points="160.3,396.5 164.5,393 164.5,393 				"/>
				<polygon class="st3" points="404.4,185.2 394.1,193.8 391.4,196.1 390.3,197 384.1,232.9 391.4,226.7 404.4,215.7 404.4,215.7 
					410.5,180.4 410.5,180 				"/>
				<polygon class="st3" points="287.4,366.1 277.1,374.8 274.4,377.1 273.3,378 267.1,413.9 274.4,407.7 287.4,396.7 287.4,396.7 
					293.5,361.4 293.5,361 				"/>
				<polygon class="st3" points="454.5,118 448.4,123.2 438.1,131.8 435.4,134.1 434.3,135 428.1,170.9 435.4,164.7 448.4,153.7 
					448.4,153.7 454.5,118.4 				"/>
				<polygon class="st3" points="358.4,137.2 348.1,145.8 345.4,148.1 345.4,119.2 335.1,127.9 341.3,92 345.1,88.8 345.4,88.5 
					350.4,84.3 350.4,84.3 361.4,75 361.1,75 350.4,75 349.3,75 345.4,75 345.4,75 345.4,75 332.4,64 332.4,77.1 322.4,85.5 
					309.4,96.4 307,98.4 309.4,98.4 322.4,98.4 332.4,98.4 332.4,327.5 337,331.4 332.4,331.4 332.4,377.7 330.1,390.9 332.4,388.9 
					332.4,622.5 345.4,622.5 345.4,378 350.4,373.7 350.4,373.7 356.5,338.4 356.5,338 350.4,343.1 345.4,347.3 345.4,178.7 
					358.4,167.7 358.4,167.7 364.5,132.4 364.5,132 				"/>
				<polygon class="st3" points="397.4,35.7 397.4,35.7 403.5,0.4 403.5,0 397.4,5.2 387.1,13.8 384.4,16.1 383.3,17 377.1,52.9 
					384.4,46.7 				"/>
			</g>
			<g>
				<rect x="69.4" y="448.4" class="st4" width="5" height="174.1"/>
				<polygon class="st4" points="74.4,425.3 69.4,421.1 69.4,438 74.4,433.8 				"/>
				<polygon class="st4" points="404.4,5.5 402.6,5.5 397.4,35.7 395.4,37.4 395.4,81.1 395.9,81.5 378.4,96.3 378.4,97.4 
					399.4,97.4 403.6,97.4 412.4,90.1 415.1,87.8 425.4,79.1 431.4,74 431.1,74 425.4,74 412.4,74 408.4,74 408.4,28.3 				"/>
				<polygon class="st4" points="144.3,410 148.1,406.8 138.4,414.9 138.4,425.2 141.2,427.6 				"/>
				<polygon class="st4" points="138.4,447.5 138.4,622.5 151.4,622.5 151.4,448.4 139.4,448.4 				"/>
				<polygon class="st4" points="151.4,436.1 151.4,434.6 150.5,435.4 				"/>
				<polygon class="st4" points="322.4,155.4 332.4,155.4 336.6,155.4 345.4,148.1 348.1,145.8 358.4,137.1 364.4,132 364.1,132 
					358.4,132 345.4,132 337.9,132 332.4,136.6 322.4,145 322.4,98.4 309.4,98.4 309.4,308.2 322.4,319.1 				"/>
				<polygon class="st4" points="322.4,33.1 317.4,61.7 309.4,68.5 309.4,96.4 322.4,85.5 				"/>
				<polygon class="st4" points="254.6,331.4 263.4,324.1 266.1,321.8 276.4,313.1 282.4,308 282.1,308 276.4,308 263.4,308 
					255.9,308 250.4,312.6 229.4,330.3 229.4,331.4 250.4,331.4 				"/>
				<polygon class="st4" points="287.4,361 274.4,361 266.9,361 261.4,365.6 240.4,383.3 240.4,384.4 261.4,384.4 265.6,384.4 
					274.4,377.1 277.1,374.8 287.4,366.1 293.4,361 293.1,361 				"/>
				<polygon class="st4" points="350.4,338 337.4,338 329.9,338 324.4,342.6 322.4,344.3 322.4,331.4 310.4,331.4 309.4,330.5 
					309.4,355.2 303.4,360.3 303.4,361.4 309.4,361.4 309.4,622.5 322.4,622.5 322.4,361.4 324.4,361.4 328.6,361.4 337.4,354.1 
					340.1,351.8 350.4,343.1 356.4,338 356.1,338 				"/>
				<polygon class="st4" points="454.1,118 448.4,118 435.4,118 427.9,118 422.4,122.7 408.4,134.4 408.4,98.4 395.4,98.4 
					395.4,121 387.4,121 379.9,121 374.4,125.7 353.4,143.3 353.4,144.4 374.4,144.4 378.6,144.4 387.4,137.1 390.1,134.8 
					395.4,130.3 395.4,180 391.4,180 383.9,180 378.4,184.6 357.4,202.3 357.4,203.4 378.4,203.4 382.6,203.4 391.4,196.1 
					394.1,193.8 395.4,192.7 395.4,622.5 408.4,622.5 408.4,181.7 410.4,180 410.1,180 408.4,180 408.4,141.4 422.4,141.4 
					426.6,141.4 435.4,134.1 438.1,131.8 448.4,123.1 454.4,118 				"/>
				<polygon class="st4" points="376.6,23.4 385.4,16.1 388.1,13.8 398.4,5.1 404.4,0 404.1,0 398.4,0 385.4,0 377.9,0 372.4,4.7 
					351.4,22.3 351.4,23.4 372.4,23.4 				"/>
			</g>
		</g>
	</g>
</g>
</svg>
