<?xml version="1.0" encoding="utf-8"?>
<!-- Generator: Adobe Illustrator 22.0.1, SVG Export Plug-In . SVG Version: 6.00 Build 0)  -->
<svg version="1.1" id="Layer_1" xmlns="http://www.w3.org/2000/svg" xmlns:xlink="http://www.w3.org/1999/xlink" x="0px" y="0px"
	 viewBox="0 0 537.7 816.1" style="enable-background:new 0 0 537.7 816.1;" xml:space="preserve">
<style type="text/css">
	.st0{fill:none;}
	.st1{fill:#D2C3AF;}
	.st2{fill:#FAF2D3;}
	.st3{fill:#FF9D00;}
	.st4{fill:#73B095;}
	.st5{fill:#9DC2A0;}
	.st6{fill:#237C7A;}
	.st7{fill:#3FA49B;}
	.st8{fill:none;stroke:#60332F;stroke-width:2;stroke-miterlimit:10;}
	.st9{fill:#3D639B;}
	.st10{fill:#20385E;}
	.st11{fill:#5D2584;}
	.st12{fill:none;stroke:#EEBBFF;stroke-width:1.2;stroke-miterlimit:10;}
	.st13{fill:#EEBBFF;}
	.st14{fill:none;stroke:#5D2584;stroke-width:1.33;stroke-miterlimit:10;}
	.st15{fill:#EB5C83;stroke:#EB5C83;stroke-width:1.33;stroke-miterlimit:10;}
	.st16{fill:#EB5C83;}
	.st17{fill:#B31628;}
	.st18{opacity:0.5;fill:url(#SVGID_1_);enable-background:new    ;}
	.st19{fill:none;stroke:#60332F;stroke-width:1.64;stroke-linecap:round;stroke-miterlimit:10;}
	.st20{fill:none;stroke:#60332F;stroke-width:1.26;stroke-miterlimit:10;}
	.st21{fill:none;stroke:#60332F;stroke-width:1.14;stroke-linecap:round;stroke-miterlimit:10;}
	.st22{opacity:0.5;fill:url(#SVGID_2_);enable-background:new    ;}
	.st23{opacity:0.5;fill:url(#SVGID_3_);enable-background:new    ;}
	.st24{opacity:0.5;fill:url(#SVGID_4_);enable-background:new    ;}
</style>
<pattern  y="816.1" width="103.1" height="98.8" patternUnits="userSpaceOnUse" id="New_Pattern_2" viewBox="25.8 -123.5 103.1 98.8" style="overflow:visible;">
	<g>
		<rect x="25.8" y="-123.5" class="st0" width="103.1" height="98.8"/>
		<rect x="25.8" y="-123.5" class="st0" width="103.2" height="98.8"/>
		<polygon class="st1" points="103.2,-99 111.1,-115.1 128.9,-117.7 116.1,-130.3 119.1,-148 103.2,-139.7 87.2,-148 90.3,-130.3 
			77.4,-117.7 95.2,-115.1 		"/>
		<polygon class="st2" points="87.9,-98.8 103.7,-107.6 119.8,-99.6 116.3,-117.2 128.9,-130.1 111.1,-132.3 102.7,-148.2 
			95.1,-131.9 77.4,-128.9 90.6,-116.6 		"/>
		<polygon class="st3" points="107.5,-131.2 102.8,-127.3 97.7,-130.6 99.9,-125 95.2,-121.1 101.3,-121.5 103.5,-115.9 105,-121.7 
			111.1,-122.1 106,-125.3 		"/>
		<polygon class="st1" points="51.6,-99 59.5,-115.1 77.4,-117.7 64.5,-130.3 67.5,-148 51.6,-139.7 35.6,-148 38.7,-130.3 
			25.8,-117.7 43.6,-115.1 		"/>
		<polygon class="st2" points="36.3,-98.8 52.1,-107.6 68.2,-99.6 64.8,-117.2 77.4,-130.1 59.5,-132.3 51.2,-148.2 43.6,-131.9 
			25.8,-128.9 39,-116.6 		"/>
		<polygon class="st3" points="55.9,-131.2 51.2,-127.3 46.2,-130.6 48.4,-125 43.7,-121.1 49.7,-121.5 51.9,-115.9 53.4,-121.7 
			59.5,-122.1 54.4,-125.3 		"/>
		<polygon class="st1" points="128.9,-49.6 136.9,-65.7 154.7,-68.3 141.8,-80.9 144.9,-98.6 128.9,-90.2 113,-98.6 116.1,-80.9 
			103.2,-68.3 121,-65.7 		"/>
		<polygon class="st2" points="113.7,-49.4 129.5,-58.2 145.6,-50.1 142.1,-67.8 154.7,-80.7 136.9,-82.9 128.5,-98.8 120.9,-82.5 
			103.2,-79.5 116.3,-67.2 		"/>
		<polygon class="st3" points="133.3,-81.8 128.6,-77.9 123.5,-81.2 125.7,-75.6 121,-71.7 127.1,-72.1 129.3,-66.4 130.8,-72.3 
			136.9,-72.7 131.8,-75.9 		"/>
		<polygon class="st1" points="77.4,-49.6 85.3,-65.7 103.2,-68.3 90.3,-80.9 93.3,-98.6 77.4,-90.2 61.4,-98.6 64.5,-80.9 
			51.6,-68.3 69.4,-65.7 		"/>
		<polygon class="st2" points="62.1,-49.4 77.9,-58.2 94,-50.1 90.6,-67.8 103.2,-80.7 85.3,-82.9 76.9,-98.8 69.3,-82.5 
			51.6,-79.5 64.8,-67.2 		"/>
		<polygon class="st3" points="81.7,-81.8 77,-77.9 71.9,-81.2 74.2,-75.6 69.5,-71.7 75.5,-72.1 77.7,-66.4 79.2,-72.3 85.3,-72.7 
			80.2,-75.9 		"/>
		<polygon class="st1" points="25.8,-49.6 33.8,-65.7 51.6,-68.3 38.7,-80.9 41.7,-98.6 25.8,-90.2 9.9,-98.6 12.9,-80.9 0,-68.3 
			17.8,-65.7 		"/>
		<polygon class="st2" points="10.6,-49.4 26.3,-58.2 42.4,-50.1 39,-67.8 51.6,-80.7 33.7,-82.9 25.4,-98.8 17.8,-82.5 0,-79.5 
			13.2,-67.2 		"/>
		<polygon class="st3" points="30.1,-81.8 25.5,-77.9 20.4,-81.2 22.6,-75.6 17.9,-71.7 23.9,-72.1 26.1,-66.4 27.7,-72.3 
			33.7,-72.7 28.6,-75.9 		"/>
		<polygon class="st1" points="103.2,-0.2 111.1,-16.3 128.9,-18.9 116.1,-31.5 119.1,-49.2 103.2,-40.8 87.2,-49.2 90.3,-31.5 
			77.4,-18.9 95.2,-16.3 		"/>
		<polygon class="st2" points="87.9,0 103.7,-8.7 119.8,-0.7 116.3,-18.4 128.9,-31.3 111.1,-33.4 102.7,-49.4 95.1,-33.1 
			77.4,-30.1 90.6,-17.8 		"/>
		<polygon class="st3" points="107.5,-32.4 102.8,-28.5 97.7,-31.8 99.9,-26.2 95.2,-22.3 101.3,-22.7 103.5,-17.1 105,-22.9 
			111.1,-23.2 106,-26.5 		"/>
		<polygon class="st1" points="51.6,-0.2 59.5,-16.3 77.4,-18.9 64.5,-31.5 67.5,-49.2 51.6,-40.8 35.6,-49.2 38.7,-31.5 
			25.8,-18.9 43.6,-16.3 		"/>
		<polygon class="st2" points="36.3,0 52.1,-8.7 68.2,-0.7 64.8,-18.4 77.4,-31.3 59.5,-33.4 51.2,-49.4 43.6,-33.1 25.8,-30.1 
			39,-17.8 		"/>
		<polygon class="st3" points="55.9,-32.4 51.2,-28.5 46.2,-31.8 48.4,-26.2 43.7,-22.3 49.7,-22.7 51.9,-17.1 53.4,-22.9 
			59.5,-23.2 54.4,-26.5 		"/>
	</g>
</pattern>
<title>decoration (2)</title>
<g id="main">
	<g id="decoration">
		<g id="bamboo">
			<polygon class="st0" points="188.1,23.4 185.4,23.4 185,26 			"/>
			<polygon class="st0" points="72.8,131.8 72.8,131.8 74.8,133.5 77,146.5 77,135.4 			"/>
			<polygon class="st0" points="55.2,70.2 55.2,70.2 57,70.2 57,68.6 55.1,70.2 55.1,70.2 			"/>
			<polygon class="st0" points="136,1.6 132.9,19.5 136,22.1 			"/>
			<polygon class="st0" points="427.6,70.2 427.6,70.2 427.7,70.2 430.2,70.2 428.9,69.1 427.6,70.2 			"/>
			<polygon class="st0" points="402.1,46.8 402.1,46.8 402.2,46.8 402.2,46.8 400.9,45.7 399.6,46.8 			"/>
			<polygon class="st0" points="189,2.8 186.1,19.5 189,22 			"/>
			<polygon class="st0" points="330,431.7 315.3,419.2 309.2,384 309,384.9 309,523.8 330,506.2 			"/>
			<polygon class="st0" points="467.8,268.5 475,274.6 475,231 456.7,246.4 457.3,242.9 443,242.9 443,268.5 			"/>
			<polygon class="st0" points="425,268.5 425,268.5 425,268.5 			"/>
			<polygon class="st0" points="428.9,268.5 430,268.5 430,242 425,237.8 425,245.8 			"/>
			<polygon class="st0" points="171,635.4 171,635.5 174.7,632.3 			"/>
			<polygon class="st0" points="402,512.6 412,521 412,292 402,292 			"/>
			<polygon class="st0" points="288.9,400.5 292.7,397.3 281.2,407 281,407 281,410.7 283.7,413 281,413 281,595.1 296,607.7 
				296,425.2 282.7,436.4 			"/>
			<polygon class="st0" points="343,517.6 343,517.6 345.7,515.3 			"/>
			<rect x="343" y="407" class="st0" width="13" height="94.6"/>
			<polygon class="st0" points="101,61.9 99.4,60.6 101,61.9 			"/>
			<polygon class="st0" points="75.3,40.4 76.4,46.8 77,46.8 77,41.8 73.3,38.7 73.3,38.7 			"/>
			<polygon class="st0" points="98,294.3 98,579.5 101,577 101,291.8 			"/>
			<polygon class="st0" points="158,50.8 158,48.9 149,41.3 149,58.4 			"/>
			<polygon class="st0" points="214.6,45.8 217.9,43 217.9,42.7 214.7,23.8 212.8,35 			"/>
			<polygon class="st0" points="382.9,236.5 386.7,233.3 380,238.9 380,253.4 			"/>
			<path class="st0" d="M134.3,571.5h1.7V283.9l-6.7-5.7l-2.3-13.1v306.4H134.3z"/>
			<polygon class="st0" points="136,69 136,23.4 134.9,23.4 132.2,23.4 130.1,35.7 127,38.3 127,61.4 			"/>
			<polygon class="st0" points="402,279 412,270.7 412,257.5 409.3,255.2 403.2,220 402,226.7 			"/>
			<polygon class="st0" points="380,501.5 388.8,501.5 389,501.7 389,292 386.6,292 389,290 389,262 380,269.6 			"/>
			<polygon class="st0" points="264,603.2 264,603.2 264.4,603.5 265,607.1 265,604 			"/>
			<polygon class="st0" points="171.7,618.5 178,618.5 178,613.2 			"/>
			<polygon class="st0" points="154,618.8 154,627.4 158,624 158,622.2 			"/>
			<polygon class="st0" points="216.2,610 215.1,610 216.6,618.5 217.8,618.5 218,618.7 218,608.5 			"/>
			<polygon class="st0" points="209,618.5 210.7,618.5 209,617.1 			"/>
			<polygon class="st0" points="57,93.1 57,81.9 55.1,70.7 50.4,97.7 55.8,93.1 			"/>
			<polygon class="st0" points="171,666.1 171,816.1 178,816.1 178,660.2 			"/>
			<rect x="98" y="595" class="st0" width="3" height="221.1"/>
			<rect x="154" y="642" class="st0" width="4" height="174.1"/>
			<polygon class="st0" points="134.2,572 128,607.2 127,608.1 127,816.1 136,816.1 136,582.6 			"/>
			<rect x="70" y="266" class="st0" width="7" height="550.1"/>
			<polygon class="st0" points="54.6,116.5 54.7,116.5 57,116.5 57,114.5 54.5,116.5 54.6,116.5 			"/>
			<polygon class="st0" points="77,166.1 70,160.1 70,264.8 77,258.9 			"/>
			<polygon class="st0" points="250.3,622.2 245.5,595 242.8,595 238,622.2 231,628.2 231,629.6 245.7,642 231,642 231,816.1 
				251,816.1 251,622.8 			"/>
			<rect x="309" y="525" class="st0" width="21" height="291.1"/>
			<polygon class="st0" points="209,633.5 209,633.5 211.4,635.5 217.6,671.4 209,664.1 209,816.1 218,816.1 218,641 			"/>
			<polygon class="st0" points="380,516.5 380,516.5 382.4,518.5 388.6,554.4 380,547.1 380,816.1 389,816.1 389,524 			"/>
			<rect x="402" y="525" class="st0" width="10" height="291.1"/>
			<polygon class="st0" points="321,45.7 321.1,45.7 324.3,43 324.4,42.7 321.1,23.8 319.2,35 			"/>
			<rect x="281" y="610" class="st0" width="15" height="206.1"/>
			<polygon class="st0" points="264,633.8 264,816.1 265,816.1 265,634.7 			"/>
			<polygon class="st0" points="295.8,22.3 296,22.2 296,1.4 295.8,0.4 292.5,19.5 			"/>
			<polygon class="st0" points="448.9,46.8 455.3,46.8 455.4,46.8 455.4,46.8 455.5,46.8 444,37.2 447.8,40.4 			"/>
			<polygon class="st0" points="350.4,23.4 353,23.4 349,0.4 345.7,19.5 			"/>
			<polygon class="st0" points="367,15.1 365.5,13.8 367,15.1 			"/>
			<polygon class="st0" points="428.9,46.8 428.9,46.8 431.5,46.8 427.5,23.8 424.2,43 			"/>
			<polygon class="st0" points="402,117.9 402,117.9 404,106.5 402,95.1 			"/>
			<polygon class="st0" points="425.6,81.8 427.5,92.5 428.2,93.1 428.4,93.1 429.9,94.4 430.8,89.5 427.5,70.7 			"/>
			<polygon class="st0" points="452.3,66.5 456.8,70.2 454.2,70.2 460.4,75.4 455.5,47.3 452.2,66.1 			"/>
			<polygon class="st0" points="242.6,22.3 245.9,19.5 242.6,0.4 239.3,19.5 			"/>
			<polygon class="st0" points="104.3,23.4 108.2,45.7 109.6,46.8 109.6,46.8 110.7,47.7 114,28.4 114,23.4 110.9,23.4 109.6,22.3 
				108.3,23.4 			"/>
			<polygon class="st0" points="157.6,23.4 159.2,33.1 166.4,33.1 168.1,23.4 164.1,23.4 162.8,22.3 161.5,23.4 			"/>
			<polygon class="st0" points="55.2,23.4 55.2,23.4 57,23.4 57,21.8 55.1,23.4 55.1,23.4 			"/>
			<polygon class="st0" points="57,46.8 57,35 55.1,23.8 50.2,52 56.4,46.8 			"/>
			<polygon class="st0" points="380,219.5 389,219.5 389,159.9 380,152.3 			"/>
			<polygon class="st0" points="321.2,23.4 321.2,23.4 321.2,23.4 323.8,23.4 322.5,22.3 321.1,23.4 			"/>
			<polygon class="st0" points="214.8,23.4 214.8,23.4 214.8,23.4 217.3,23.4 216,22.3 214.7,23.4 			"/>
			<polygon class="st0" points="343,548.2 343,816.1 356,816.1 356,537.3 			"/>
			<path class="st0" d="M188.8,93.1h0.2v-1.3l-1.6,1.3C187.4,93.1,188.8,93.1,188.8,93.1z"/>
			<polygon class="st0" points="187.7,169.4 189,162 189,139.9 188.9,139.9 187.6,138.8 186.2,139.9 182.3,139.9 187.4,169.4 
				171,155.6 171,260.3 177.7,266 171,266 171,355.3 175.5,351.5 189,351.5 189,168.3 			"/>
			<polygon class="st0" points="232.4,131.8 232.4,131.8 234.4,133.5 240.6,169.4 231,161.3 231,353.4 251,370.2 251,139.9 
				242.1,139.9 			"/>
			<polygon class="st0" points="264,70.4 265,76.2 265,70.2 264,70.2 			"/>
			<polygon class="st0" points="294.5,70.2 293.3,70.2 293.5,71.1 			"/>
			<polygon class="st0" points="319.2,81.8 321.1,92.6 324.4,89.8 321.1,70.7 			"/>
			<polygon class="st0" points="264,119.8 265,125.6 265,112.3 264,111.5 			"/>
			<polygon class="st0" points="292.6,66.5 295.9,69.2 296,68.6 296,48.2 295.8,47.3 292.6,66.1 			"/>
			<polygon class="st0" points="214.8,70.2 214.8,70.2 214.8,70.2 217.3,70.2 216,69.1 214.7,70.2 			"/>
			<polygon class="st0" points="188.1,70.2 189,69.5 189,49.7 185,72.8 188.1,70.2 			"/>
			<polygon class="st0" points="135.7,115.4 136,115.2 136,95.4 135.7,93.6 132.4,112.7 			"/>
			<polygon class="st0" points="239.4,66.5 242.6,69.1 242.7,69.1 244.6,58.4 242.6,47.3 239.4,66.1 			"/>
			<polygon class="st0" points="314.9,62.8 314.9,62.8 312.8,61 312.8,61 			"/>
			<polygon class="st0" points="239.1,111.1 239.4,113.2 243.4,116.5 240.8,116.5 247,121.7 242.1,93.6 			"/>
			<polygon class="st0" points="293.2,93.7 281,93.7 281,103.4 295.9,115.9 296,115.4 296,91.3 			"/>
			<polygon class="st0" points="209,406.5 212.7,403.3 209,406.4 			"/>
			<polygon class="st0" points="329.4,400.5 330,404.1 330,401 325.6,397.3 			"/>
			<polygon class="st0" points="113.3,49.9 114,50.5 114,49.3 			"/>
			<polygon class="st0" points="131.2,119.1 134.3,116.5 131.7,116.5 			"/>
			<polygon class="st0" points="134.5,169.4 136,160.8 136,137.4 133,139.9 127,139.9 127,242.5 136,242.5 136,168.1 			"/>
			<polygon class="st0" points="406.6,121.7 406.1,118.9 404.7,120.1 			"/>
			<polygon class="st0" points="484,199.1 483.2,194 482.3,199.1 			"/>
			<polygon class="st0" points="245.5,594.8 244.2,587 243.1,592.8 			"/>
			<polygon class="st0" points="245,73.3 247.5,75.4 246.9,71.7 			"/>
			<polygon class="st0" points="214.7,93.1 215.5,93.1 215.5,93.1 217.3,93.1 217.9,89.5 214.7,70.7 212.8,81.8 			"/>
			<polygon class="st0" points="234.9,87.2 235.9,93.1 242,93.1 242,93.1 232.9,85.5 232.9,85.6 			"/>
			<polygon class="st0" points="209,389.5 211,389.5 209,387.9 			"/>
			<polygon class="st0" points="189,115.3 189,94.2 188.9,93.6 185.6,112.7 188.9,115.4 			"/>
			<polygon class="st0" points="214.3,116.5 214.3,116.5 216.8,116.5 215.5,115.4 214.2,116.5 214.2,116.5 			"/>
			<polygon class="st0" points="242.5,70.2 241.3,70.2 242.4,71.1 			"/>
			<polygon class="st0" points="215.6,146 217.4,135.8 214.2,117 212.2,128.1 214.1,138.8 215.5,139.9 214.3,139.9 215.3,146 
				209.9,141.4 209,146.7 209,351.5 218,351.5 218,144 			"/>
			<polygon class="st0" points="294.1,169.4 296,158.6 296,137.1 292.7,139.9 281,139.9 281,384.8 282.5,383.5 296,383.5 296,167.8 
							"/>
			<polygon class="st0" points="101,261.1 98,263.6 98,288 101,270.7 			"/>
			<rect x="98" y="139.9" class="st0" width="3" height="102.6"/>
			<rect x="149" y="70.2" class="st0" width="9" height="22.9"/>
			<polygon class="st0" points="295.7,46.8 295.7,46.8 295.8,46.8 295.8,46.8 294.5,45.7 293.2,46.8 			"/>
			<polygon class="st0" points="242.5,46.8 242.5,46.8 242.6,46.8 242.6,46.8 241.3,45.7 240,46.8 			"/>
			<polygon class="st0" points="189,45 186.8,46.8 189,46.8 			"/>
			<polygon class="st0" points="173,60.6 171,62.3 171,62.3 			"/>
			<path class="st0" d="M135.5,93.1h0.5V70.2h-9v22.9H135.5z"/>
			<path class="st0" d="M309.3,383.5H330V155l-3.3-2.8l-2.1-12.2h-5.3l4.6-3.9l-3.3-19.1l-6.1,35.3l-5.5,4.6v226.7H309.3z"/>
			<polygon class="st0" points="356,236.8 356,162.1 347.4,169.4 352.5,139.9 348.5,139.9 347.2,138.8 345.9,139.9 343,139.9 
				343,146.1 347,169.4 343,166 343,389.6 356,400.5 356,242.9 348.6,242.9 			"/>
			<polygon class="st0" points="380,111.3 380,116.5 380.4,116.5 381.5,110.1 383.4,108.5 383.4,108.5 			"/>
			<polygon class="st0" points="158,609.4 158,595 155.5,595 			"/>
			<polygon class="st0" points="187.4,593.8 188.7,595 187.2,595 186.6,598.1 189,598.1 189,584.4 			"/>
			<rect x="264" y="413" class="st0" width="1" height="173.6"/>
			<path class="st0" d="M235.3,425.2l-4.3-24.7v182l4.7,3.9H251v-148L235.3,425.2z"/>
			<polygon class="st0" points="158,249.4 158,142.5 156.7,141.4 154.8,152.2 149,157.2 149,242.5 149.8,242.5 			"/>
			<polygon class="st0" points="264,396.4 265,397.3 265,143 264,142.1 			"/>
			<polygon class="st0" points="403.8,60.8 404.2,58.4 402.3,47.3 400.4,58 			"/>
			<path class="st0" d="M320.7,116.5h9.3v-8.2l-2.8-2.3l-2.1-12.3h-3.9l1,6l-5.4-4.6l-1.9,10.9l-6,5.1v5.5L320.7,116.5L320.7,116.5z
				"/>
			<polygon class="st0" points="209,571.5 217.8,571.5 218,571.7 218,429.5 209,437.1 			"/>
			<polygon class="st0" points="174.6,413 189,400.9 189,393.2 175.7,404.4 181.9,368.5 185.7,365.3 174.2,375 171,375 171,571.5 
				189,571.5 189,413 			"/>
			<polygon class="st0" points="353,93.7 349,93.7 347.7,92.6 346.4,93.7 343,93.7 343,96.8 346.4,116.5 347.2,116.5 347.2,116.5 
				349.3,114.8 			"/>
			<rect x="231" y="375" class="st0" width="20" height="14.6"/>
			<polygon class="st0" points="281,127.4 294,116.5 281,116.5 			"/>
			<rect x="149" y="375" class="st0" width="9" height="196.6"/>
			<polygon class="st0" points="381.4,67.6 381.9,64.8 381.4,64.3 380.9,64.8 			"/>
			<polygon class="st0" points="249.4,406.5 251,415.8 251,407.9 245.6,403.3 			"/>
			<polygon class="st0" points="209,586.5 211.4,588.5 211.9,591.3 213.3,590.1 209,586.5 			"/>
			<polygon class="st0" points="323.6,46.8 322.5,46.8 323.5,47.7 			"/>
			<polygon class="st0" points="77,88.6 73.3,85.5 73.3,85.6 75.3,87.2 76.3,93.1 77,93.1 			"/>
			<polygon class="st0" points="158,266 151.1,266 149,264.2 149,291.9 149.6,295.4 149,294.9 149,373.8 158,366.2 			"/>
			<polygon class="st0" points="349,46.8 347.7,45.7 346.4,46.8 			"/>
			<polygon class="st0" points="425,312.7 425,816.1 430,816.1 430,308.5 			"/>
			<polygon class="st0" points="469.1,292 457.6,282.3 461.4,285.5 467.6,321.4 447.3,304.2 443,279.6 443,816.1 475,816.1 475,292 
							"/>
			<g>
				<rect x="149" y="642" class="st4" width="5" height="174.1"/>
				<polygon class="st4" points="149,631.6 154,627.4 154,618.8 149,614.6 				"/>
				<rect x="475" y="292" class="st4" width="13" height="524.1"/>
				<polygon class="st4" points="484,199.1 482.3,199.1 477,229.2 475,231 475,274.6 488,285.5 488,221.9 				"/>
				<polygon class="st4" points="218.6,365.4 222.4,368.6 226,389.6 231,389.6 231,375 230.1,375 				"/>
				<polygon class="st4" points="223.9,603.5 227.7,600.3 218,608.5 218,618.7 220.9,621.1 				"/>
				<polygon class="st4" points="218,641 218,816.1 231,816.1 231,642 219.1,642 				"/>
				<polygon class="st4" points="231,353.4 231,161.3 220.3,152.2 218.7,143.4 218,144 218,351.5 228.8,351.5 				"/>
				<polygon class="st4" points="231,629.6 231,628.2 230.1,628.9 				"/>
				<polygon class="st4" points="227.6,398.8 228.6,404.4 226.9,403 223,425.2 218,429.5 218,571.7 231,582.6 231,400.6 229.2,390 
									"/>
				<polygon class="st4" points="392,131.8 392,131.8 394,133.5 400.2,169.4 389,159.9 389,219.5 402,219.5 402,140 401.7,140 				
					"/>
				<polygon class="st4" points="389,501.7 402,512.6 402,292 389,292 				"/>
				<polygon class="st4" points="398.7,111.1 399.6,116.5 400.4,116.5 402,117.9 402,95.1 401.7,93.5 				"/>
				<polygon class="st4" points="389,262 389,290 402,279 402,226.7 397,255.2 				"/>
				<polygon class="st4" points="389,524 389,816.1 402,816.1 402,525 390.1,525 				"/>
				<polygon class="st4" points="401.6,93.1 400.9,92.5 400.2,93.1 401.6,93.1 				"/>
				<polygon class="st4" points="109.1,115.4 107.8,116.5 103.8,116.5 107.7,138.8 107.7,138.8 110.9,136.2 114,118.5 114,116.5 
					110.4,116.5 				"/>
				<polygon class="st4" points="101,61.9 101,61.9 103.2,63.8 108.2,92.5 109,93.1 109,93.1 109.1,93.1 114,93.1 114,70.2 
					110.9,70.2 				"/>
				<polygon class="st4" points="101,577 107.5,571.5 114,571.5 114,280.8 101,291.8 				"/>
				<polygon class="st4" points="101,595 101,816.1 114,816.1 114,619.1 107.7,624.4 113.9,588.5 114,588.5 114,588.4 106.2,595 
									"/>
				<polygon class="st4" points="106.7,256.3 101,261.1 101,270.7 102.9,259.5 				"/>
				<polygon class="st4" points="110.3,140 109,140 107.9,140 108.9,146 101.8,140 101,140 101,242.5 114,242.5 114,142 109.2,146 
									"/>
			</g>
			<g>
				<polygon class="st5" points="457.3,243 457.4,242.7 429.8,219.5 403.3,219.5 403.3,219.5 412,226.9 419.6,233.3 425,237.8 
					430,242 431.1,243 443,243 				"/>
				<polygon class="st5" points="202.3,351.5 202.3,351.5 209,357.2 218,364.8 218.6,365.3 230.1,375 231,375 251,375 256.7,375 
					251,370.2 231,353.4 228.8,351.5 218,351.5 209,351.5 				"/>
				<polygon class="st5" points="158,249.4 149.8,242.5 149,242.5 136,242.5 127,242.5 123.3,242.5 123.3,242.5 127,245.7 
					136,253.3 139.6,256.3 149,264.2 151.1,266 158,266 171,266 177.7,266 171,260.3 				"/>
				<polygon class="st5" points="402,512.6 389,501.7 388.8,501.5 380,501.5 369,501.5 367,501.5 362.3,501.5 362.3,501.5 
					367,505.5 369,507.2 378.6,515.3 380,516.5 389,524 390.1,525 402,525 412,525 416.7,525 412,521 				"/>
				<polygon class="st5" points="356,400.5 343,389.6 335.8,383.5 330,383.5 309.3,383.5 309.3,383.5 325.6,397.3 330,401 
					337.1,407 343,407 356,407 363.7,407 				"/>
				<polygon class="st5" points="475,274.6 467.8,268.5 443,268.5 441.3,268.5 441.3,268.5 443,270 457.6,282.3 469.1,292 475,292 
					488,292 495.7,292 488,285.5 				"/>
				<polygon class="st5" points="509.8,193.5 483.3,193.5 483.3,193.5 499.6,207.3 511.1,217 537.7,217 				"/>
				<polygon class="st5" points="251,407.8 257.1,413 264,413 265,413 268,413 278,413 281,413 283.7,413 281,410.7 278,408.2 
					276.5,407 268,399.8 265.6,397.8 265,397.3 264,396.4 255.8,389.5 251,389.5 231,389.5 229.3,389.5 229.3,389.5 231,391 
					245.6,403.3 				"/>
				<polygon class="st5" points="187.2,595 188.7,595 187.4,593.8 				"/>
				<polygon class="st5" points="158,571.5 149,571.5 136,571.5 134.3,571.5 134.3,571.5 136,573 149,584 149.4,584.3 158,577 
					162.7,573.1 160.8,571.5 				"/>
				<polygon class="st5" points="163.2,595 169.8,595 170.9,588.5 171,588.5 174.7,585.3 171,588.4 				"/>
				<polygon class="st5" points="230.1,628.9 218,639.2 217.7,639.4 218,637.8 220.9,621.1 218,618.7 217.8,618.5 216.6,618.5 
					217.6,624.4 210.7,618.5 209,618.5 202,618.5 196,618.5 192,618.5 191.3,618.5 191.3,618.5 192,619.2 196,622.5 202,627.6 
					207.6,632.3 209,633.5 218,641 219.1,642 231,642 245.7,642 231,629.6 				"/>
				<polygon class="st5" points="245.5,594.8 243.2,592.8 242.8,595 245.5,595 				"/>
				<polygon class="st5" points="196,571.5 191.3,571.5 191.3,571.5 196,575.5 202,580.6 207.6,585.3 209,586.5 213.3,590.1 
					217.5,586.5 218,586.5 231,586.5 235.7,586.5 231,582.6 218,571.7 217.8,571.5 209,571.5 202,571.5 				"/>
				<polygon class="st5" points="281,595.1 278,592.6 270.8,586.5 268,586.5 265,586.5 264,586.5 251,586.5 244.3,586.5 
					244.3,586.5 251,592.2 260.6,600.3 264,603.2 265,604 268,606.5 272.1,610 278,610 281,610 296,610 298.7,610 296,607.7 				"/>
				<polygon class="st5" points="55,23.4 55,23.4 55,23.4 55.1,23.4 57,21.8 66.6,13.8 70,10.9 77,5 82.8,0.1 82.9,0 82.9,0 56.4,0 
					28.5,23.4 54.7,23.4 				"/>
				<polygon class="st5" points="85,23.4 87,23.4 90,23.4 98,23.4 104.3,23.4 108.3,23.4 109.6,22.3 114,18.6 119.8,13.8 
					122.9,11.1 127,7.7 136.1,0 136.1,0 109.6,0 109.6,0 96.4,11.1 96.3,11.1 96.3,11.2 90,16.4 86.3,19.5 85,20.6 81.7,23.4 				
					"/>
				<polygon class="st5" points="134.9,23.4 136,23.4 137.5,23.4 140.2,23.4 149,23.4 157.5,23.4 161.5,23.4 162.8,22.3 173,13.8 
					176.1,11.1 189,0.3 189.2,0.1 189.3,0 189.3,0 162.8,0 162.8,0 149.5,11.1 149.5,11.2 149,11.6 139.5,19.5 136.2,22.3 136,22.5 
									"/>
				<polygon class="st5" points="188.1,23.4 189,23.4 190.7,23.4 193.4,23.4 196,23.4 202,23.4 209,23.4 210.8,23.4 214.3,23.4 
					214.6,23.4 214.6,23.4 214.7,23.4 214.7,23.4 216,22.3 226.2,13.8 229.3,11.1 242.5,0 242.5,0 216,0 216,0 202.7,11.1 
					202.7,11.2 202,11.8 199.2,14.1 196,16.8 192.7,19.5 189.4,22.3 189,22.7 				"/>
				<polygon class="st5" points="243.9,23.4 246.6,23.4 251,23.4 264,23.4 264,23.4 265,23.4 267.5,23.4 267.8,23.4 267.8,23.4 
					267.9,23.4 267.9,23.4 269.2,22.3 278,15 279.4,13.8 282.5,11.1 295.7,0 295.7,0 269.2,0 269.2,0 264,4.4 255.9,11.1 
					255.9,11.2 251,15.3 245.9,19.5 242.6,22.3 241.3,23.4 				"/>
				<polygon class="st5" points="297.2,23.4 299.8,23.4 309,23.4 317.2,23.4 320.7,23.4 321,23.4 321,23.4 321.1,23.4 321.1,23.4 
					322.5,22.3 330,16 332.6,13.8 335.7,11.1 335.8,11.1 348.9,0 348.9,0 322.5,0 322.4,0 309.2,11.1 309.1,11.2 309,11.3 
					299.2,19.5 296,22.2 295.8,22.3 294.5,23.4 296,23.4 				"/>
				<polygon class="st5" points="455.5,46.8 455.5,46.8 455.5,46.8 455.6,46.8 455.9,46.8 482.1,46.8 454.2,23.4 427.7,23.4 
					427.7,23.4 444,37.2 				"/>
				<polygon class="st5" points="414.2,34.6 414.2,34.5 401,23.4 400.9,23.4 380,23.4 377,23.4 374.5,23.4 374.4,23.4 380,28.1 
					387.6,34.5 390.8,37.2 400.9,45.7 402.2,46.8 402.3,46.8 402.3,46.8 402.4,46.8 402.7,46.8 406.2,46.8 423.6,46.8 428.9,46.8 
					424.2,43 				"/>
				<polygon class="st5" points="315.1,46.8 317.1,46.8 319.8,46.8 321.2,46.8 322.4,46.8 321.1,45.7 321,45.7 317.8,43 309,35.6 
					307.8,34.6 307.8,34.5 300.7,28.6 296,24.7 294.5,23.4 294.5,23.4 291.9,23.4 278,23.4 274.5,23.4 270.5,23.4 268,23.4 
					268,23.4 273.7,28.2 278,31.8 279.5,33.1 281,34.4 281.2,34.5 284.3,37.2 286.2,38.7 294.5,45.7 295.8,46.8 295.9,46.8 
					295.9,46.8 296,46.8 296,46.8 296.2,46.8 299.8,46.8 309,46.8 				"/>
				<polygon class="st5" points="238.6,23.4 221.3,23.4 217.3,23.4 214.8,23.4 214.8,23.4 220.5,28.2 228,34.5 231.1,37.2 233,38.7 
					241.3,45.7 242.6,46.8 242.7,46.8 242.7,46.8 242.7,46.8 243,46.8 246.6,46.8 251,46.8 261.9,46.8 263.9,46.8 264,46.8 
					265,46.8 266.6,46.8 268,46.8 268,46.8 269.2,46.8 268,45.8 267.9,45.7 267.8,45.7 265,43.3 264.6,43 264,42.5 254.6,34.6 
					254.6,34.5 251,31.5 247.5,28.6 241.3,23.4 241.3,23.4 				"/>
				<polygon class="st5" points="77,23.4 70,23.4 61.7,23.4 57,23.4 55.2,23.4 55.2,23.4 57,25 60.8,28.2 70,35.9 71.5,37.2 
					73.3,38.7 77,41.8 83,46.8 83,46.8 83.1,46.8 83.1,46.8 83.4,46.8 85,46.8 90,46.8 98,46.8 102.3,46.8 108.4,46.8 109.6,46.8 
					108.2,45.7 98,37.1 90,30.4 87.9,28.6 85,26.2 81.7,23.4 79,23.4 				"/>
				<polygon class="st5" points="35.8,70.2 54.7,70.2 55,70.2 55,70.2 55,70.2 55.1,70.2 57,68.6 64.7,62.1 66.6,60.6 70,57.7 
					77,51.8 77.2,51.6 82.9,46.8 82.9,46.8 77,46.8 76.4,46.8 70,46.8 63.7,46.8 59,46.8 57.6,46.8 57,46.8 56.4,46.8 50.2,52 
					29.9,69.1 28.5,70.2 29.7,70.2 				"/>
				<polygon class="st5" points="137.5,70.2 149,70.2 158,70.2 161.5,70.2 171,62.3 173,60.6 189,47.1 189.3,46.8 189.3,46.8 
					189,46.8 186.8,46.8 171,46.8 170.1,46.8 164,46.8 162.8,46.8 161.8,47.7 159.1,49.9 158,50.8 149,58.4 136.2,69.1 136,69.3 
					134.9,70.2 136,70.2 				"/>
				<polygon class="st5" points="189.3,70.2 193.4,70.2 195.4,70.2 196,70.2 202,70.2 209,70.2 210.8,70.2 214.3,70.2 214.6,70.2 
					214.6,70.2 214.7,70.2 214.7,70.2 216,69.1 224.4,62.1 226.2,60.6 229.3,58 236.9,51.6 242.5,46.8 242.5,46.8 240,46.8 
					236,46.8 223.3,46.8 218.7,46.8 217.2,46.8 216,46.8 216,46.8 215,47.7 212.4,49.9 209.8,52 209,52.7 202.7,58 202.7,58 
					202,58.6 196,63.6 192.7,66.4 189.5,69.1 189,69.5 188.1,70.2 189,70.2 				"/>
				<polygon class="st5" points="268,47.8 265.6,49.9 265,50.4 264,51.2 263,52 255.9,58 255.9,58 251,62.1 245.9,66.4 242.7,69.1 
					242.6,69.1 241.3,70.2 242.5,70.2 243.9,70.2 246.6,70.2 248.6,70.2 251,70.2 264,70.2 264,70.2 265,70.2 267.9,70.2 268,70.2 
					269.2,69.1 277.6,62.1 278,61.8 279.4,60.6 281,59.3 282.5,58 290.1,51.6 295.7,46.8 295.7,46.8 293.2,46.8 289.2,46.8 
					281,46.8 278,46.8 276.5,46.8 271.9,46.8 270.4,46.8 269.2,46.8 269.2,46.8 268.2,47.7 				"/>
				<polygon class="st5" points="320.7,70.2 321,70.2 321,70.2 321.1,70.2 321.1,70.2 321.2,70.2 321.2,70.2 330,77.6 334.4,81.4 
					336.9,83.4 337.5,84 343,88.6 345.1,90.4 347.7,92.5 349,93.7 353,93.7 356,93.7 367,93.7 369,93.7 370.3,93.7 373,93.7 
					374.5,93.7 369.6,97.7 369,98.2 367,99.9 356,109.2 349.3,114.8 347.2,116.5 349,116.5 355.7,116.5 356,116.5 367,116.5 
					369,116.5 373.4,116.5 373.7,116.5 373.7,116.5 373.8,116.5 373.8,116.5 380,111.3 383.4,108.5 385.3,106.9 389,103.8 
					396.4,97.6 401.6,93.1 402,93.1 402.1,93.1 406.3,93.1 420.9,93.1 423.7,93.1 427.6,93.1 428.2,93.1 427.5,92.5 424.2,89.8 
					414.2,81.4 414.2,81.4 407.2,75.4 404.6,73.3 402,71.1 401,70.2 400.9,70.2 399.7,70.2 398.3,70.2 393.6,70.2 388.4,70.2 
					381.8,70.2 380.9,70.2 380,70.2 374.5,70.2 374.4,70.2 380,74.9 380.1,75 383.1,77.5 387.6,81.4 390.8,84 392.6,85.5 
					393.2,86.1 400.9,92.5 401.6,93.1 401.6,93.1 400.2,93.1 395.6,93.1 389,93.1 385.8,93.1 383.6,93.1 380,93.1 379.2,93.1 
					378.2,93.1 377,93.1 375.1,93.1 375.1,93.2 374.3,92.5 371,89.8 369,88.1 367,86.4 361,81.4 361,81.4 356,77.2 355.4,76.7 
					351.4,73.3 348.8,71.1 347.7,70.2 347.7,70.2 346.5,70.2 343,70.2 340.4,70.2 339.2,70.2 332.6,70.2 336.5,66.9 341.5,62.8 
					343,61.5 344.1,60.6 344.7,60 351.7,54.1 356,50.5 360.4,46.8 360.4,46.8 360.5,46.8 360.5,46.8 360.6,46.8 360.6,46.8 
					360.9,46.8 367,46.8 368.3,46.8 369,46.8 370.3,46.8 373,46.8 374.5,46.8 375.6,46.8 374.3,45.7 374.2,45.7 371,43 369,41.2 
					367,39.6 361,34.6 361,34.5 359.3,33.1 353.9,28.6 347.7,23.4 347.7,23.4 345.1,23.4 343,23.4 330,23.4 327.7,23.4 323.8,23.4 
					321.2,23.4 321.2,23.4 326.9,28.2 330,30.8 334.4,34.5 337.5,37.2 339.4,38.7 343,41.8 347.7,45.7 349,46.8 346.4,46.8 
					343,46.8 342.5,46.8 333.9,46.8 330,50.1 328.2,51.6 326.2,53.2 314.9,62.8 314.9,62.8 309,67.7 306,70.2 309,70.2 317.2,70.2 
									"/>
				<polygon class="st5" points="372,49.9 369.4,52 369,52.4 368.1,53.2 368.1,53.2 367,54.1 362.4,58 358,61.6 356,63.3 
					349.1,69.1 349,69.1 347.7,70.2 348.9,70.2 350.4,70.2 355,70.2 356,70.2 356.5,70.2 364.5,70.2 367,70.2 369,70.2 373.9,70.2 
					374.2,70.2 374.2,70.2 374.3,70.2 374.3,70.2 380,65.5 380.9,64.8 381.4,64.3 384,62.1 385.8,60.6 394.7,53.2 396.5,51.6 
					402.2,46.8 402.1,46.8 399.6,46.8 395.7,46.8 387.1,46.8 380,46.8 378.3,46.8 375.6,46.8 374.6,47.7 				"/>
				<polygon class="st5" points="406.2,70.2 408.2,70.2 415,70.2 423.6,70.2 427.1,70.2 427.4,70.2 427.5,70.2 427.5,70.2 
					427.6,70.2 428.9,69.1 437.2,62.1 439,60.6 442.2,58 449.7,51.6 455.4,46.8 455.3,46.8 448.9,46.8 431.5,46.8 428.9,46.8 
					428.9,46.8 422.7,52 415.6,58 415.6,58 408,64.3 405.6,66.4 402.3,69.1 401,70.2 402.1,70.2 				"/>
				<polygon class="st5" points="454.2,70.2 452.9,70.2 451.5,70.2 446.8,70.2 434.1,70.2 430.2,70.2 427.7,70.2 427.7,70.2 
					433.3,75 444,84 445.8,85.5 455.5,93.7 474.8,93.7 480.9,93.7 482.1,93.7 480.7,92.5 460.4,75.4 				"/>
				<path class="st5" d="M227.7,81.1l3.3,2.8l0.1,0.1l1.8,1.5l0,0l9,7.6l0,0h9h10.3h2.7h1h2.2h0.7h0.1h0.6l-0.6-0.5l-0.1-0.1
					l-0.1-0.1l-2.8-2.4l-1-0.8l-13-10.9l-3.5-2.9l-2.5-2.1l-3.5,3l0-0.1l3.5-2.9l-2.6-2.2l0,0l-1-0.8h-1.2l1,6l0,0l-1-6h-1.5H234
					h-12.7h-3.9h-2.5h0l5.7,4.8L227.7,81.1z M238.1,73.7l-1.5,8.8l-2.5,2.1l2.5-2.1L238.1,73.7L238.1,73.7z"/>
				<polygon class="st5" points="64.2,108.5 66,106.9 70,103.5 77,97.6 77.1,97.6 82.3,93.1 85,93.1 90,93.1 98,93.1 101,93.1 
					101.7,93.1 108.3,93.1 109,93.1 108.2,92.5 101,86.5 98,83.9 90,77.2 87.9,75.4 85,73 85,73 81.7,70.2 80.5,70.2 80.6,71.1 
					80.5,70.2 79,70.2 77,70.2 74.3,70.2 70,70.2 61.7,70.2 57,70.2 55.2,70.2 55.2,70.2 57,71.8 60.8,75 70,82.8 71.5,84 
					73.3,85.5 77,88.6 82.3,93.1 82.3,93.1 77,93.1 76.3,93.1 70,93.1 64.3,93.1 59,93.1 57.7,93.1 57,93.1 55.8,93.1 50.4,97.7 
					30.1,114.8 27.9,116.5 29.8,116.5 36.4,116.5 54.1,116.5 54.4,116.5 54.5,116.5 54.5,116.5 54.5,116.5 57,114.5 				"/>
				<polygon class="st5" points="135.6,93.1 135.5,93.1 127,93.1 114,93.1 109.1,93.1 109,93.1 109,93.2 108.4,93.7 108.4,93.7 
					105.3,96.2 101,99.9 98,102.4 95.8,104.3 95.8,104.3 90,109.1 85.8,112.7 85,113.3 81.2,116.5 85,116.5 86.4,116.5 90,116.5 
					98,116.5 101,116.5 103.8,116.5 107.8,116.5 109.1,115.4 114,111.3 119.2,106.9 122.4,104.3 127,100.3 				"/>
				<polygon class="st5" points="136,116.5 137,116.5 139.7,116.5 149,116.5 157,116.5 158,116.5 160.5,116.5 160.8,116.5 
					160.9,116.5 160.9,116.5 161,116.5 162.3,115.4 171,108.1 172.5,106.9 175.6,104.3 188.8,93.1 188.8,93.1 187.4,93.1 171,93.1 
					170.8,93.1 164.1,93.1 162.3,93.1 162.3,93.1 161.6,93.7 158,96.7 149,104.2 149,104.3 149,104.3 139,112.7 136,115.2 
					135.7,115.4 134.4,116.5 				"/>
				<polygon class="st5" points="189.4,116.5 190.2,116.5 192.9,116.5 196,116.5 196,116.5 202,116.5 209,116.5 210.2,116.5 
					213.8,116.5 214,116.5 214.1,116.5 214.1,116.5 214.2,116.5 215.5,115.4 218,113.3 223.8,108.5 225.7,106.9 228.8,104.3 
					231,102.4 236.7,97.6 242,93.1 242,93.1 235.9,93.1 231,93.1 224,93.1 218.6,93.1 218,93.1 217.3,93.1 215.5,93.1 215.5,93.1 
					214.8,93.7 211.8,96.2 210,97.7 209,98.5 202.2,104.3 202.2,104.3 202,104.4 196,109.5 192.2,112.7 189.7,114.8 189,115.3 
					188.9,115.4 187.6,116.5 189,116.5 				"/>
				<polygon class="st5" points="406.6,121.7 404.7,120.1 402,117.9 400.4,116.5 399.6,116.5 397.8,116.5 393,116.5 389,116.5 
					380.4,116.5 380,116.5 373.9,116.5 373.9,116.5 379.6,121.3 380,121.7 389,129.3 390.2,130.3 392,131.8 401.7,140 402,140 
					421,140 427.1,140 428.3,140 426.9,138.8 				"/>
				<polygon class="st5" points="346.4,116.5 343,116.5 339.8,116.5 330,116.5 320.7,116.5 320.7,116.5 330,124.4 333.9,127.7 
					337,130.3 343,135.3 347.2,138.8 348.5,140 352.5,140 356,140 367,140 369,140 369.8,140 375.1,140 370.5,136.1 369,134.8 
					367,133.1 360.5,127.7 360.5,127.7 356,123.9 351.5,120.1 348.8,117.9 347.2,116.5 347.2,116.5 				"/>
				<polygon class="st5" points="240,116.5 238.1,116.5 233.4,116.5 231,116.5 220.8,116.5 218,116.5 216.8,116.5 214.3,116.5 
					214.3,116.5 218,119.7 219.9,121.3 230.6,130.3 231,130.6 232.4,131.8 242.1,140 251,140 261.4,140 264,140 265,140 266.1,140 
					267.5,140 268,140 268.7,140 268,139.4 267.4,138.8 267.3,138.8 265,136.8 264,136 251,125.1 247,121.7 240.8,116.5 				"/>
				<polygon class="st5" points="196,140 202,140 208.2,140 209,140 210.2,140 214.3,140 215.5,140 214.1,138.8 210.9,136.1 
					209,134.5 202,128.6 200.9,127.7 200.9,127.7 196,123.6 193.8,121.7 191.8,120.1 189.2,117.9 189,117.7 187.6,116.5 
					187.5,116.5 184.9,116.5 171,116.5 167.5,116.5 163.6,116.5 161.1,116.5 161.1,116.5 166.7,121.3 171,124.9 174.3,127.7 
					177.4,130.3 179.2,131.8 187.5,138.8 188.9,140 189,140 192.8,140 				"/>
				<polygon class="st5" points="78.5,116.5 77,116.5 73.7,116.5 70,116.5 61.1,116.5 57,116.5 54.7,116.5 54.6,116.5 57,118.5 
					60.3,121.3 70,129.5 71,130.3 72.8,131.8 77,135.4 82.4,140 85,140 90,140 98,140 101,140 101.8,140 106.4,140 107.9,140 
					109,140 107.7,138.8 107.7,138.8 101,133.2 98,130.7 90,124 87.3,121.7 85,119.8 81.2,116.5 80.4,116.5 				"/>
			</g>
			<g>
				<polygon class="st6" points="57.7,93.1 59,93.1 64.3,93.1 70,93.1 76.3,93.1 75.3,87.2 73.3,85.5 73.3,85.5 71.5,84 70,82.8 
					60.8,75 57,71.8 55.2,70.2 55.1,70.2 55.1,70.2 55,70.2 55,70.3 38.6,84 34.8,87.2 30.1,114.8 50.4,97.7 55.1,70.7 57,81.9 
					57,93.1 				"/>
				<polygon class="st6" points="77,93.1 82.3,93.1 82.3,93.1 77,88.6 				"/>
				<polygon class="st6" points="85,58.8 87.9,75.4 90,77.2 98,83.9 101,86.5 108.2,92.5 103.2,63.8 101,61.9 99.4,60.6 98,59.4 
					90,52.7 85,48.5 83.1,46.9 83,46.8 83,46.8 77,41.8 77,46.8 82.9,46.8 82.9,46.8 77.2,51.6 77,51.8 70,57.7 66.6,60.6 
					64.7,62.1 57,68.6 57,70.2 61.7,70.2 70,70.2 74.3,70.2 77,70.2 79,70.2 80.5,70.2 81.7,70.2 85,73 				"/>
				<polygon class="st6" points="77,816.1 85,816.1 85,595 79.6,595 85,590.5 85,266 77,266 				"/>
				<polygon class="st6" points="77,135.4 77,146.5 74.8,133.5 72.8,131.8 72.8,131.8 71,130.3 70,129.5 60.3,121.3 57,118.5 
					54.6,116.5 54.6,116.5 54.5,116.5 54.5,116.5 54.5,116.6 38.1,130.3 34.3,133.5 28.1,169.4 48.4,152.2 54.5,117 57,131.2 
					57,140.3 56,146 57,145.1 57,816.1 70,816.1 70,266 68.6,266 70,264.8 70,160.1 77,166 77,258.9 85,252.2 85,140 82.4,140 				
					"/>
				<polygon class="st6" points="85,23.4 81.7,23.4 85,26.2 				"/>
				<polygon class="st6" points="85,116.5 81.2,116.5 85,119.8 				"/>
				<rect x="114" y="70.2" class="st6" width="13" height="22.9"/>
				<polygon class="st6" points="114,118.5 110.9,136.2 114,133.6 127,122.7 131.2,119.1 131.7,116.5 132.4,112.7 135.7,93.5 
					135.6,93.2 135.7,93.1 135.6,93.1 135.6,93.1 127,100.3 122.4,104.3 119.2,106.9 115.5,110.1 114.3,116.5 114,116.5 				"/>
				<path class="st6" d="M114,571.5h13V265.1l2.3,13.1l6.7,5.7l13,11l0.6,0.5l-0.6-3.5l-5.6-32.4l-3.8-3.2l-3.6-3l-9-7.6l-3.7-3.2
					h3.7V140h-10.6l-2.4,2v100.5c0,0,9,0,9.2,0v0.1l0,0.1l0,0.2l-0.1-0.4l-9.1,7.6l-7.3,6.1l-3.8,3.2l-1.9,11.2L98,288l-1.3,7.4
					l1.3-1.1l3-2.5l13-11V571.5z"/>
				<polygon class="st6" points="342.5,93.7 342.3,92.7 341.3,87.2 337.5,84 336.9,83.4 334.4,81.4 330,77.6 321.2,70.2 321.2,70.2 
					321.1,70.2 321.1,70.2 321,70.3 317.7,73.1 309,80.4 304.7,84 304.2,84.4 300.9,87.2 296,115.4 295.9,115.9 296,116 
					296.6,116.5 302.5,116.5 309,111 315,105.9 316.9,95.1 322.3,99.7 321.2,93.7 319.8,93.7 321.1,92.6 319.2,81.8 321.1,70.7 
					324.4,89.8 325.1,93.7 327.2,105.9 330,108.3 330,116.5 339.8,116.5 343,116.5 346.4,116.5 343,96.8 343,93.7 				"/>
				<polygon class="st6" points="335.8,383.5 343,389.6 343,166 347,169.4 343,146.1 343,140 341.9,140 340.8,133.5 337,130.3 
					333.9,127.7 330,124.4 320.7,116.5 320.7,116.5 320.7,116.5 320.6,116.5 320.6,116.5 320.6,116.8 320.6,117 323.9,136.1 
					324.6,140 326.7,152.2 330,155 330,383.5 				"/>
				<polygon class="st6" points="330,506.2 335.5,501.5 343,501.5 343,407 337.1,407 330,401 330,404.1 329.4,400.5 325.6,397.3 
					309.3,383.5 309.2,383.5 309.2,383.5 309.1,383.6 309.2,383.9 309.2,384 315.3,419.2 330,431.7 				"/>
				<polygon class="st6" points="196,604.6 196.7,604 202,599.6 209,593.7 211.9,591.3 211.4,588.5 209,586.5 209,586.5 
					207.6,585.3 202,580.6 196,575.5 191.3,571.5 191.2,571.5 191.2,571.5 191.2,571.6 191.2,571.7 191.2,572 196,599.9 				"/>
				<polygon class="st6" points="367,227.5 369,225.9 369,144.6 369.8,140 369,140 367,140 356,140 352.5,140 347.4,169.4 
					356,162.1 356,236.8 				"/>
				<polygon class="st6" points="270,116.5 268,114.8 268,138.3 278,129.9 281,127.4 281,116.5 278,116.5 				"/>
				<polygon class="st6" points="276.5,93.7 270.4,93.7 269.4,93.7 270.3,94.5 273,96.7 278,100.9 281,103.4 281,93.7 278,93.7 				
					"/>
				<polygon class="st6" points="268,413 268,586.5 270.8,586.5 278,592.6 281,595.1 281,413 278,413 				"/>
				<polygon class="st6" points="272.1,610 268,606.5 268,624.4 265,607.1 264.4,603.5 264,603.2 260.6,600.3 251,592.2 
					244.3,586.5 244.3,586.5 244.3,586.5 244.2,586.5 244.2,586.5 244.1,586.5 244.1,586.6 244.2,586.8 244.2,587 245.5,594.8 
					245.5,595 250.3,622.2 251,622.8 264,633.8 265,634.7 268,637.2 268,816.1 278,816.1 281,816.1 281,610 278,610 				"/>
				<polygon class="st6" points="268.7,140 268,140 268,142.8 267.5,140 266.1,140 265,140 264,140 261.4,140 264,142.1 265,143 
					268,145.5 268,395.7 278,387.3 281,384.8 281,140 278,140 				"/>
				<polygon class="st6" points="276.5,407 278,408.2 281,410.7 281,407 278,407 				"/>
				<polygon class="st6" points="171,266 158,266 158,366.2 171,355.3 				"/>
				<path class="st6" d="M171,155.6l16.4,13.8l-5.1-29.4l-1.1-6.4l-2-1.7l-1.8-1.5l-3.1-2.6l-3.3-2.8l-4.3-3.6l-5.7-4.8h0h2.5
					l-1.3-1.1l-1.3,1.1h0l0,0.1L158,119l-0.5,0.4l-8.5,7.1l-4.5,3.8l-0.5,0.4l-3.3,2.8l-4.7,27.2l-1.5,8.6l1.5-1.3l13-11l5.8-4.9
					l1.9-10.8l1.3,1.1v106.9l13,10.9V155.6z M163.5,140h-2.4h-1.4l1.3-1.1l3.2-2.7l0.1-0.1l0.7,3.9H163.5z"/>
				<polygon class="st6" points="158,571.5 160.8,571.5 162.7,573.1 164.5,571.5 171,571.5 171,375 158,375 				"/>
				<polygon class="st6" points="158,624 159.1,623.1 160.2,622.2 164.5,618.5 165.7,618.5 164.7,624.4 171,619.1 171.7,618.5 
					178,613.2 185,607.2 186.6,598.1 187.2,595 187.4,593.8 189,584.4 191.2,572 191.1,571.6 189,573.3 176,584.3 174.7,585.3 
					171,588.5 170.9,588.5 169.8,595 163.2,595 162.1,595 158,595 158,609.4 155.5,595 154,595 149,595 141,595 138.1,595 
					140.3,607.2 141,607.8 149,614.6 154,618.8 158,622.2 				"/>
				<polygon class="st6" points="425,268.5 428.9,268.5 425,245.8 423.4,236.5 419.6,233.3 412,226.9 403.3,219.5 403.2,219.5 
					403.2,219.5 403.2,219.6 403.2,219.6 403.2,219.6 403.1,219.6 403.2,219.9 403.1,219.6 402,220.5 389,231.4 386.7,233.3 
					382.9,236.5 380,253.4 376.7,272.4 380,269.6 389,262 397,255.2 402,226.7 403.2,220 403.2,220 403.2,220 409.3,255.2 
					412,257.5 425,268.5 				"/>
				<polygon class="st6" points="196,387.3 196,395 202,390 202.5,389.5 209,389.5 209,387.8 211,389.5 218,389.5 226,389.5 
					222.4,368.5 218.6,365.3 218,364.8 209,357.2 202.3,351.5 209,351.5 209,146.7 208,152.2 202,157.3 208,152.2 209,146.7 
					209.9,141.4 215.3,146 214.3,140 210.2,140 209,140 208.2,140 202,140 196,140 192.8,140 189,162 187.7,169.4 189,168.3 
					196,162.4 196,351.5 201.8,351.5 202,351.5 202.2,351.5 202.2,351.6 202.2,351.7 202.2,352 202.1,351.6 202,351.6 196,356.7 
					189,362.6 185.7,365.3 181.9,368.5 175.7,404.4 189,393.2 				"/>
				<polygon class="st6" points="380,516.5 378.6,515.3 369,507.2 367,505.5 362.3,501.5 367,501.5 367,501.5 369,501.5 369,243 
					367,243 367,243 356,243 356,400.5 363.7,407 356,407 356,501.5 362.2,501.5 362.1,501.6 362.2,501.9 362.2,502 362.1,501.6 
					356,506.7 345.7,515.3 343,517.6 343,517.6 334.2,525 330,525 330,816.1 343,816.1 343,548.2 356,537.3 356,816.1 367,816.1 
					369,816.1 369,537.8 380,547.1 388.6,554.4 382.4,518.5 				"/>
				<polygon class="st6" points="309,383.6 296,394.6 292.7,397.3 288.9,400.5 282.7,436.4 296,425.2 303,419.2 309,384.9 
					309.2,384 309.1,383.6 				"/>
				<polygon class="st6" points="457.6,282.3 443,270 441.3,268.5 443,268.5 443,243 431.1,243 430,242 430,268.5 440.8,268.5 
					441.2,268.5 441.1,268.6 441.2,268.9 441.2,269 441.1,268.6 430,277.9 425,282.1 424.7,282.3 420.9,285.5 414.7,321.4 
					425,312.7 430,308.5 430,816.1 443,816.1 443,279.6 447.3,304.2 467.6,321.4 461.4,285.5 				"/>
				<polygon class="st6" points="503.4,210.5 499.6,207.3 483.3,193.5 483.2,193.5 483.2,193.5 483.2,193.6 483.2,193.6 
					483.2,193.6 483.1,193.6 483.2,193.9 483.1,193.6 476.5,199.1 475,200.4 466.7,207.3 462.9,210.5 457.4,242.7 457.3,243 
					456.7,246.4 475,231 477,229.2 482.3,199.1 483.2,194 483.2,194 483.2,194 484,199.1 488,221.9 489.3,229.2 509.6,246.4 				"/>
				<polygon class="st6" points="235.3,425.2 251,438.5 255.6,442.4 251,415.8 249.4,406.5 245.6,403.3 231,391 229.3,389.5 
					229.3,389.5 229.3,389.5 229.2,389.5 229.2,389.5 229.1,389.5 229.1,389.6 229.2,389.8 229.2,390 231,400.6 				"/>
				<polygon class="st6" points="229.1,389.6 226.4,391.8 220,397.2 218,398.9 212.7,403.3 209,406.5 209,406.4 202,412.3 
					201.2,413 196,413 196,571.5 202,571.5 209,571.5 209,437.1 218,429.5 223,425.2 226.9,403 228.6,404.4 227.6,398.8 229.2,390 
									"/>
				<polygon class="st6" points="147.2,586.1 149,584.6 149.4,584.3 149,584 136,573 134.3,571.5 134.2,571.5 134.2,571.5 
					134.2,571.6 134.2,571.7 134.2,572 136,582.6 138,593.8 141,591.3 				"/>
				<polygon class="st6" points="127,577.5 117.7,585.3 114,588.4 114,588.5 113.9,588.5 107.7,624.4 114,619.1 114,816.1 
					127,816.1 127,608.1 128,607.2 134.2,572 134.1,571.6 				"/>
				<polygon class="st6" points="209,633.5 209,633.5 207.6,632.3 202,627.6 196,622.5 192,619.2 191.3,618.5 191.2,618.5 
					191.2,618.5 191.2,618.6 191.2,618.7 191.2,619 192,623.8 196,646.9 196,816.1 202,816.1 209,816.1 209,664.1 217.6,671.4 
					211.4,635.5 				"/>
				<polygon class="st6" points="191,618.7 189,620.3 179,628.7 178,629.6 174.7,632.3 171,635.5 171,635.4 163.2,642 158,642 
					158,816.1 171,816.1 171,666.1 178,660.2 179,659.3 185,654.2 189,631.4 191,619.9 191.2,619 191.1,618.6 				"/>
				<polygon class="st6" points="215.1,610 209,610 202,610 200.5,610 196,610 196,618.5 202,618.5 209,618.5 209,617.1 
					210.7,618.5 217.6,624.4 216.6,618.5 				"/>
				<polygon class="st6" points="239.9,590.1 234.1,595 231,597.6 227.7,600.3 223.9,603.5 220.9,621.1 218,637.8 217.7,639.4 
					218,639.2 230.1,628.9 231,628.2 238,622.2 242.8,595 243.2,592.8 244.2,587 244.1,586.6 				"/>
				<polygon class="st6" points="70,23.4 77,23.4 79,23.4 81.7,23.4 85,20.6 85,12 86.3,19.5 90,16.4 96.3,11.2 96.2,11.1 90,5.9 
					83.1,0.1 83.1,0 83,0.1 83,0 82.9,0.1 82.9,0 83,0 82.9,0 82.9,0 82.8,0.1 77,5 70,10.9 66.6,13.8 57,21.8 57,23.4 61.7,23.4 
									"/>
				<polygon class="st6" points="87,23.4 87.9,28.6 90,30.4 98,37.1 108.2,45.7 104.3,23.4 98,23.4 90,23.4 				"/>
				<path class="st6" d="M114,49.3v1.2l13,10.9V38.3l3.1-2.6l2.1-12.3l0.7-3.9L136,1.6l0.2-1.2l3.3,19.1l9.5-8l0.5-0.4l-0.5-0.4
					L136.3,0.1l0,0v0h0h0h0h0h0L127,7.7l-4.1,3.5l-3.1,2.6L116,17l-1.1,6.4H114v5l-3.3,19.3l2.6,2.2L114,49.3z M136.2,0L136.2,0
					L136.2,0L136.2,0z"/>
				<polygon class="st6" points="140.2,23.4 142.3,35.7 149,41.3 158,48.9 158,50.8 159.1,49.9 161.8,47.7 162.8,46.8 161.6,46.8 
					160.2,46.8 161.4,45.8 164.7,43 171,37.7 185,26 185.4,23.4 186.1,19.5 189,2.8 189.4,0.4 192.7,19.5 196,16.8 199.2,14.1 
					202,11.8 202.7,11.2 202,10.5 189.5,0.1 189.5,0 189.5,0 189.4,0 189.4,0.1 189.4,0 189.4,0 189.3,0 189.3,0 189.2,0.1 189,0.3 
					176.1,11.1 173,13.8 169.2,17 168.1,23.4 166.4,33.1 159.2,33.1 157.5,23.4 149,23.4 				"/>
				<polygon class="st6" points="239.3,19.5 242.6,0.4 242.6,0 242.6,0 242.5,0 242.5,0 229.3,11.1 226.2,13.8 222.4,17 221.3,23.4 
					238.6,23.4 				"/>
				<polygon class="st6" points="251,15.3 255.9,11.2 251,7 242.7,0 242.6,0.4 245.9,19.5 				"/>
				<polygon class="st6" points="242.7,0 242.6,0.4 242.7,0 				"/>
				<polygon class="st6" points="291.9,23.4 292.5,19.5 295.8,0.4 295.8,0 295.8,0 295.8,0 295.7,0 282.5,11.1 279.4,13.8 278,15 
					275.6,17 274.5,23.4 278,23.4 				"/>
				<polygon class="st6" points="299.2,19.5 309,11.3 309.1,11.2 309,11 296,0.1 295.9,0 295.9,0 295.8,0 295.8,0.4 296,1.3 				"/>
				<polygon class="st6" points="343,23.4 345.1,23.4 345.7,19.5 349,0.4 349,0 349,0 349,0 348.9,0 335.8,11.1 335.7,11.1 
					332.6,13.8 330,16 328.8,17 327.7,23.4 330,23.4 				"/>
				<polygon class="st6" points="367,23.4 370.4,23.4 369.3,17 367,15 365.5,13.8 349.1,0 349.1,0 349,0.4 353,23.4 				"/>
				<polygon class="st6" points="448.9,46.8 447.8,40.4 444,37.2 427.7,23.4 427.6,23.4 427.6,23.4 427.6,23.4 427.6,23.5 
					427.5,23.8 431.5,46.8 				"/>
				<polygon class="st6" points="427.5,23.8 427.5,23.5 414.2,34.6 424.2,43 				"/>
				<polygon class="st6" points="378.3,46.8 380,46.8 387.1,46.8 395.7,46.8 394.5,40.4 390.8,37.2 387.6,34.5 380,28.1 374.4,23.4 
					374.4,23.4 374.3,23.4 374.3,23.5 374.3,23.8 377.6,43 				"/>
				<polygon class="st6" points="362.8,33.1 361,34.6 367,39.6 369,41.2 371,43 374.2,45.7 372.4,35 374.3,23.8 374.3,23.5 
					370.9,26.3 367,29.5 				"/>
				<polygon class="st6" points="307.8,34.6 309,35.6 317.8,43 321,45.7 319.2,35 321.1,23.8 324.4,42.7 324.3,43 324.4,43 
					325.1,46.8 323.7,46.8 323.5,47.7 325.5,49.4 326.1,49.9 328.2,51.6 330,50.1 333.9,46.8 342.5,46.8 341.3,40.4 339.4,38.7 
					337.5,37.2 334.4,34.5 330,30.8 326.9,28.2 321.2,23.4 321.2,23.4 321.1,23.4 321.1,23.4 321,23.5 317.7,26.3 309,33.6 				"/>
				<polygon class="st6" points="245.9,66.4 251,62.1 255.9,58 251,53.8 246.1,49.7 242.7,46.9 242.7,46.8 242.6,46.8 242.5,46.8 
					242.5,46.8 236.9,51.6 229.3,58 226.2,60.6 224.4,62.1 222.4,63.8 221.3,70.2 234,70.2 238.6,70.2 239.3,66.4 239.4,66.5 
					239.4,66.1 242.6,47.3 244.6,58.4 242.7,69.1 				"/>
				<polygon class="st6" points="264,42.5 264.6,43 265,43.3 267.8,45.7 266,35 267.9,23.8 269.5,33.1 268,33.1 268,45.6 271.1,43 
					271.2,43 271.9,46.8 276.5,46.8 278,46.8 281,46.8 289.2,46.8 288.1,40.4 286.2,38.7 284.3,37.2 281.2,34.5 281,34.4 
					279.5,33.1 278,31.8 273.7,28.2 268,23.4 268,23.4 267.9,23.4 267.9,23.4 267.8,23.5 265,25.8 264.5,26.3 264,26.7 254.6,34.6 
									"/>
				<polygon class="st6" points="189.5,69.1 192.7,66.4 196,63.6 202,58.6 202.7,58 202,57.4 196,52.3 192.9,49.7 189.5,46.9 
					189.4,46.9 189.4,47.3 191.4,58.4 				"/>
				<polygon class="st6" points="198.3,37.2 197.8,37.6 196,39.1 196,39.1 194.5,40.4 193.4,46.8 196,46.8 202,46.8 208.7,46.8 
					209,46.8 210.7,46.8 213.4,46.8 214.6,45.8 212.8,35 214.7,23.8 218,42.7 217.9,43 218,43 218.7,46.8 223.3,46.8 236,46.8 
					234.9,40.4 232.9,38.7 231.1,37.2 228,34.5 220.5,28.2 214.8,23.4 214.8,23.4 214.7,23.4 214.7,23.4 214.6,23.5 211.2,26.3 
					209,28.2 202,34 				"/>
				<polygon class="st6" points="55.1,23.8 57,35 57,46.8 57.6,46.8 59,46.8 63.7,46.8 70,46.8 76.4,46.8 75.3,40.4 73.3,38.7 
					71.5,37.2 70,35.9 60.8,28.2 57,25 55.2,23.4 55.1,23.4 55.1,23.4 55,23.4 55,23.5 38.6,37.2 34.8,40.4 29.9,69.1 50.2,52 				
					"/>
				<polygon class="st6" points="189.3,46.8 189.3,46.8 189,47.1 173,60.6 171,62.3 161.5,70.2 158,70.2 158,93.1 160.8,93.1 
					164.7,89.9 171,84.6 185,72.8 189,49.7 189.4,47.3 189.4,46.9 189.4,46.8 				"/>
				<polygon class="st6" points="265,76.2 264,70.4 264,70.2 251,70.2 248.6,70.2 246.6,70.2 243.9,70.2 242.5,70.2 242.4,71.1 
					245,73.3 246.9,71.7 247.5,75.4 251,78.4 264,89.3 265,90.1 267.8,92.5 				"/>
				<polygon class="st6" points="291.4,72.8 293.5,71.1 293.3,70.2 291.9,70.2 292.5,66.4 292.7,66.5 292.6,66.1 295.8,47.3 
					296,48.2 297.8,58.4 296,68.6 295.9,69.2 296,69.3 297.2,70.2 299.8,70.2 301.8,70.2 306,70.2 309,67.7 314.9,62.8 312.8,61 
					312.3,60.6 309,57.8 299.3,49.7 296,47 295.9,46.9 295.9,46.8 295.8,46.8 295.8,46.8 295.7,46.8 290.1,51.6 282.5,58 281,59.3 
					279.4,60.6 278,61.8 277.6,62.1 275.6,63.8 274.5,70.2 270.5,70.2 269.2,69.1 268,70.2 268,92.5 271.1,89.9 278,84.1 281,81.6 
					290.8,73.3 				"/>
				<polygon class="st6" points="347.7,70.2 349,69.1 349.1,69.1 356,63.3 358,61.6 362.4,58 367,54.1 368.1,53.2 367,52.3 
					360.6,46.9 360.5,46.8 360.5,46.8 360.4,46.8 360.4,46.8 356,50.5 351.7,54.1 344.7,60 344.1,60.6 343,61.5 341.5,62.8 
					341.5,62.8 340.3,63.8 339.3,69.3 339.2,70.2 340.4,70.2 343,70.2 346.5,70.2 347.7,70.2 				"/>
				<polygon class="st6" points="385.8,60.6 384,62.1 382,63.8 381.9,64.8 381.4,67.6 380.9,64.8 380,65.5 374.3,70.2 374.3,70.2 
					374.3,70.3 369,74.7 367,76.4 365.7,77.4 361,81.4 367,86.4 369,88.1 371,89.8 371.5,86.7 376.4,90.8 377.5,89.9 377.6,89.8 
					378.1,92.2 378.2,93.1 379.2,93.1 380,93.1 383.6,93.1 385.8,93.1 389,93.1 395.6,93.1 394.5,87.2 393.2,86.1 392.6,85.5 
					390.8,84 387.6,81.4 383.1,77.5 380.1,75 380,74.9 374.4,70.2 374.5,70.2 380,70.2 380.9,70.2 381.8,70.2 388.4,70.2 
					393.6,70.2 398.3,70.2 399,66.1 400.4,58 402.3,47.3 404.2,58.4 403.8,60.8 404.8,61.6 405.6,66.4 408,64.3 415.6,58 
					405.7,49.7 402.3,46.9 402.3,46.8 402.2,46.8 402.2,46.8 402.2,46.8 396.5,51.6 394.7,53.2 				"/>
				<polygon class="st6" points="432,96.1 432.6,96.7 452.3,113.2 447.8,87.2 445.8,85.5 445.8,85.5 444,84 433.3,75 427.7,70.2 
					427.6,70.2 427.6,70.2 427.5,70.2 427.5,70.3 424.1,73.1 414.2,81.4 424.2,89.8 427.5,92.5 425.6,81.8 427.5,70.7 430.8,89.5 
					429.9,94.5 				"/>
				<polygon class="st6" points="439,60.6 437.2,62.1 435.2,63.8 434.1,70.2 446.8,70.2 451.5,70.2 452.2,66.4 452.3,66.5 
					452.2,66.1 455.5,47.3 460.4,75.4 480.7,92.5 475.7,63.8 471.9,60.6 455.5,46.9 455.5,46.8 455.5,46.8 455.4,46.8 455.4,46.8 
					449.7,51.6 442.2,58 				"/>
				<polygon class="st6" points="481.9,99.7 480.9,93.7 474.8,93.7 				"/>
				<polygon class="st6" points="452.9,116.5 446.2,116.5 454,123.1 				"/>
				<polygon class="st6" points="404.7,120.1 406.1,118.9 406.6,121.7 426.9,138.8 422,110.1 419.2,107.8 419.2,107.8 418.2,106.9 
					405.7,96.5 402.4,93.7 402,93.3 401.8,93.2 401.8,93.3 401.8,93.2 401.7,93.2 401.7,93.2 401.7,93.1 401.7,93.1 401.6,93.1 
					396.4,97.6 389,103.8 385.3,106.9 383.4,108.5 383.4,108.5 381.5,110.1 380.4,116.5 389,116.5 393,116.5 397.8,116.5 
					399.6,116.5 398.7,111.1 401.7,93.5 402,95.1 404,106.5 402,117.9 				"/>
				<polygon class="st6" points="353,93.7 349.3,114.8 356,109.2 367,99.9 369,98.2 369.6,97.7 370.3,93.7 369,93.7 367,93.7 
					356,93.7 				"/>
				<polygon class="st6" points="214.8,70.2 214.8,70.2 214.7,70.2 214.7,70.2 214.6,70.3 211.2,73.1 209,75 202,80.9 198.3,84 
					197.8,84.4 196,85.9 196,85.9 194.5,87.2 193.4,93.1 196,93.1 202,93.1 208.1,93.1 209,93.1 210.8,93.1 214.7,93.1 212.8,81.8 
					214.7,70.7 218,89.5 217.3,93.1 218,93.1 218.6,93.1 224,93.1 231,93.1 235.9,93.1 234.9,87.2 232.9,85.5 233,85.5 231.1,84 
					231,83.9 227.7,81.1 220.5,75 				"/>
				<polygon class="st6" points="192.2,112.7 196,109.5 202,104.4 202.2,104.3 202,104.1 196,99.1 192.9,96.5 189,93.2 189,93.2 
					188.9,93.2 188.9,93.5 189,94.2 191.1,106.5 189.7,114.8 				"/>
				<polygon class="st6" points="101,133.2 107.7,138.8 103.8,116.5 101,116.5 98,116.5 90,116.5 86.4,116.5 87.3,121.7 90,124 
					98,130.7 				"/>
				<polygon class="st6" points="101.8,140 108.9,146 107.9,140 106.4,140 				"/>
				<polygon class="st6" points="95.8,104.3 90,99.4 85,95.2 83.1,93.7 82.6,93.2 82.6,93.1 82.5,93.1 82.5,93.2 82.5,93.3 
					82.4,93.2 82.4,93.1 82.4,93.1 82.3,93.1 77.1,97.6 77,97.6 70,103.5 66,106.9 64.2,108.5 57,114.5 57,116.5 61.1,116.5 
					70,116.5 73.7,116.5 77,116.5 78.5,116.5 80.4,116.5 81.2,116.5 85,113.3 85,108.2 85.8,112.7 90,109.1 				"/>
				<polygon class="st6" points="116.4,140 114,140 110.3,140 109.2,146 114,142 				"/>
				<polygon class="st6" points="139,112.7 149,104.3 136,93.4 135.7,93.2 135.7,93.2 135.7,93.5 136,95.4 				"/>
				<polygon class="st6" points="188.9,93.1 188.8,93.1 188.8,93.1 175.6,104.3 172.5,106.9 171,108.1 168.7,110.1 167.5,116.5 
					171,116.5 184.9,116.5 185.6,112.7 188.9,93.5 188.8,93.2 				"/>
				<polygon class="st6" points="218,144 218.7,143.4 220.3,152.2 231,161.3 240.6,169.4 234.4,133.5 232.4,131.8 231,130.6 
					230.6,130.3 219.9,121.3 218,119.7 214.3,116.5 214.2,116.5 214.2,116.5 214.1,116.5 214.1,116.6 210.7,119.4 209,120.8 
					202,126.7 200.9,127.7 202,128.6 209,134.5 210.9,136.1 214.1,138.8 212.2,128.1 214.2,117 217.4,135.8 215.7,146 				"/>
				<path class="st6" d="M265,136.8l2.3,1.9l-2.3-13.2l-1-5.8l-1.7-9.7l-3.8-3.2l-7.5-6.3l-8.2-6.9l-0.6-0.5v-0.1h-0.1h0h0h0h0
					l-5.3,4.5l-5.7,4.8l-2.2,1.9l-3.1,2.6l-1.9,1.6l-1.9,1.6l-1.1,6.4H231h2.4h4.8l0.7-3.9l0.6,0.5l-0.4-2.1l3-17.5l4.9,28.2l4,3.4
					l13,10.9L265,136.8z M242,93.2L242,93.2l0.1,0l0,0.1L242,93.2z"/>
				<polygon class="st6" points="378.4,143.4 379.9,152.2 380,152.3 389,159.9 400.2,169.4 394,133.5 392,131.8 392,131.8 
					390.2,130.3 389,129.3 380,121.7 379.6,121.3 373.9,116.5 373.9,116.5 373.8,116.5 373.8,116.5 373.7,116.6 369,120.5 
					367,122.2 360.5,127.7 367,133.1 369,134.8 370.5,136.1 373.8,117 377.1,135.8 375.3,146 				"/>
				<polygon class="st6" points="427.1,140 421,140 428.2,146 				"/>
				<polygon class="st6" points="309,126.2 304.2,130.3 300.4,133.5 296,158.6 294.1,169.4 296,167.8 309,156.8 314.5,152.2 
					320.6,117 320.5,116.6 				"/>
			</g>
			<g>
				<polygon class="st7" points="149,375 158,375 171,375 174.2,375 185.7,365.3 189,362.6 196,356.7 202,351.6 202,351.6 
					202,351.5 202,351.6 202.1,351.5 202.1,351.5 202,351.5 202,351.5 202,351.5 201.8,351.5 196,351.5 196,162.4 189,168.3 
					189,351.5 175.5,351.5 171,355.3 158,366.2 149,373.8 149,294.9 136,283.9 136,571.5 149,571.5 				"/>
				<polygon class="st7" points="149,157.2 136,168.1 136,242.5 149,242.5 				"/>
				<polygon class="st7" points="137.5,70.2 136,70.2 136,93.1 135.8,93.1 136,93.4 149,104.3 149,104.3 149,104.2 158,96.7 
					161.6,93.7 162.3,93.1 162.3,93.1 164.1,93.1 170.8,93.1 171,93.1 187.4,93.1 189,91.8 189,93.1 189,93.2 192.9,96.5 196,99.1 
					202,104.1 202.2,104.3 202.2,104.3 209,98.5 210,97.7 211.8,96.2 214.8,93.7 215.5,93.1 214.7,93.1 210.8,93.1 209,93.1 
					208.1,93.1 202,93.1 196,93.1 193.4,93.1 194.5,87.2 196,85.9 196,85.9 197.8,84.4 198.3,84 202,80.9 209,75 211.2,73.1 
					214.6,70.3 214.7,70.2 214.6,70.2 214.6,70.2 214.3,70.2 210.8,70.2 209,70.2 202,70.2 196,70.2 195.4,70.2 193.4,70.2 
					189.3,70.2 189,70.2 188.1,70.2 188.1,70.2 185,72.8 171,84.6 164.7,89.9 160.8,93.1 158,93.1 149,93.1 149,70.2 				"/>
				<polygon class="st7" points="136,115.2 139,112.7 136,95.4 				"/>
				<polygon class="st7" points="149,291.9 149,264.2 139.6,256.3 143.4,259.5 				"/>
				<polygon class="st7" points="373,93.7 370.3,93.7 369.6,97.7 374.5,93.7 				"/>
				<polygon class="st7" points="380,516.5 380,516.5 378.6,515.3 				"/>
				<polygon class="st7" points="369,816.1 380,816.1 380,547.1 369,537.8 				"/>
				<polygon class="st7" points="373.9,116.5 373.9,116.5 380,116.5 380,111.3 373.8,116.5 373.9,116.5 				"/>
				<polygon class="st7" points="296,68.6 297.8,58.4 296,48.2 				"/>
				<polygon class="st7" points="296,22.2 299.2,19.5 296,1.3 				"/>
				<polygon class="st7" points="425,245.8 425,237.8 419.6,233.3 423.4,236.5 				"/>
				<polygon class="st7" points="251,407.8 251,415.8 255.6,442.4 251,438.5 251,586.5 264,586.5 264,413 257.1,413 				"/>
				<polygon class="st7" points="264,603.2 264,603.2 260.6,600.3 				"/>
				<polygon class="st7" points="251,816.1 264,816.1 264,633.8 251,622.8 				"/>
				<polygon class="st7" points="251,140 251,370.2 256.7,375 251,375 251,389.5 255.8,389.5 264,396.4 264,142.1 261.4,140 				"/>
				<polygon class="st7" points="264,70.2 264,70.2 264,70.4 				"/>
				<polygon class="st7" points="196,39.1 189,45 189,46.9 189.3,46.8 189.4,46.8 189.5,46.8 189.5,46.8 189.5,46.8 192.9,49.6 
					192.9,49.7 196,52.3 202,57.4 202.7,58 202.7,58 209,52.7 209.8,52 212.4,49.9 215,47.7 216,46.8 216,46.8 217.2,46.8 
					218.7,46.8 218,43 217.9,43 214.6,45.8 213.4,46.8 210.7,46.8 209,46.8 208.7,46.8 202,46.8 196,46.8 193.4,46.8 194.5,40.4 
									"/>
				<polygon class="st7" points="189,162 192.8,140 189,140 				"/>
				<polygon class="st7" points="189,69.5 189.5,69.1 191.4,58.4 189.4,47.3 189,49.7 				"/>
				<polygon class="st7" points="191.1,106.5 189,94.2 189,115.3 189.7,114.8 				"/>
				<polygon class="st7" points="191.2,619 191,619.9 189,631.4 185,654.2 179,659.3 178,660.2 178,816.1 179,816.1 189,816.1 
					191,816.1 192,816.1 196,816.1 196,646.9 192,623.8 				"/>
				<polygon class="st7" points="85,20.6 86.3,19.5 85,12 				"/>
				<polygon class="st7" points="85,26.2 87.9,28.6 87,23.4 85,23.4 				"/>
				<polygon class="st7" points="85,73 87.9,75.4 85,58.8 				"/>
				<polygon class="st7" points="85,113.3 85.8,112.7 85,108.2 				"/>
				<polygon class="st7" points="85,119.8 87.3,121.7 86.4,116.5 85,116.5 				"/>
				<path class="st7" d="M265,125.5l2.3,13.2l0.1,0.1l0.6,0.5l0.7,0.6h9.3h3h11.7l3.3-2.8v21.5l4.4-25.1l3.8-3.2l4.8-4.1v0l11.5-9.7
					l0,0h-0.3H309V111l-6.5,5.5h-5.8L296,116l-0.1-0.1L281,103.4l-3-2.5l-5-4.2l-2.7-2.2l-0.9-0.8h1.1h6.1h1.5h3h12.2l2.8-2.4v24.1
					l4.9-28.2l3.3-2.8l0.5-0.4l4.3-3.6l8.7-7.3l3.4-2.8l0.1,0H321h0h-0.3h-3.5H309h-3h-4.2h-2h-2.7l-1.2-1l-0.1-0.1l-3.2-2.7
					l-0.1-0.1l-0.7,3.9h1.4h1.2l-1,0.9l-2,1.7l-0.6,0.5l-9.8,8.2l-3,2.5l-6.9,5.8l-3.1,2.6V70.2l-0.1,0.1H265v6l2.8,16.3l0.1,0.1
					l0.1,0.1l0.6,0.5H268h-0.1h-0.7H265h-1h-2.7H251h-8.5h-0.2l0,0l0,0l0.6,0.5h0l0,0h-0.1l8.2,6.9l7.5,6.3l3.8,3.2l1.7,9.7v-8.3
					l1,0.8V125.5z M270,116.5h8h3h13l-13,10.9l-3,2.5l-10,8.4v-23.5L270,116.5z"/>
				<polygon class="st7" points="265,816.1 268,816.1 268,637.2 265,634.7 				"/>
				<polygon class="st7" points="268,140 267.5,140 268,142.8 				"/>
				<polygon class="st7" points="265,607.1 268,624.4 268,606.5 265,604 				"/>
				<rect x="265" y="413" class="st7" width="3" height="173.6"/>
				<polygon class="st7" points="268,23.4 268,23.4 268,23.4 270.5,23.4 274.5,23.4 275.6,17 278,15 269.2,22.3 267.9,23.4 				"/>
				<polygon class="st7" points="389,231.4 402,220.5 402,220.4 403,219.5 402.8,219.5 402,219.5 389,219.5 380,219.5 380,152.3 
					379.9,152.2 378.4,143.4 375.3,146 377.1,135.8 373.8,117 370.5,136.1 375.1,140 369.8,140 369,144.6 369,225.9 367,227.5 
					356,236.8 348.6,243 356,243 367,243 369,243 369,501.5 380,501.5 380,269.6 376.7,272.4 380,253.4 380,239 386.7,233.3 				"/>
				<polygon class="st7" points="403.1,219.5 403.1,219.5 402,220.4 402,220.5 403.1,219.6 				"/>
				<polygon class="st7" points="123.1,242.5 123.1,242.5 123,242.5 114,250.2 				"/>
				<polygon class="st7" points="362.1,501.5 362,501.5 361.8,501.5 356,501.5 343,501.5 335.5,501.5 330,506.2 309,523.8 
					309,384.9 303,419.2 296,425.2 296,607.7 298.7,610 296,610 296,816.1 309,816.1 309,525 330,525 334.2,525 343,517.6 
					345.7,515.3 356,506.7 362.1,501.6 362.1,501.6 362.1,501.5 362.1,501.5 				"/>
				<polygon class="st7" points="309,383.6 309,383.6 309.1,383.5 309.1,383.6 309.1,383.5 309.1,383.5 309.1,383.5 309,383.5 
					309,383.5 309,156.8 296,167.8 296,383.5 282.5,383.5 281,384.8 278,387.3 268,395.7 268,145.5 265,143 265,397.3 265.6,397.8 
					268,399.8 276.5,407 278,407 281,407 281.2,407 292.7,397.3 296,394.6 				"/>
				<polygon class="st7" points="441.1,268.5 430,277.9 441,268.5 440.8,268.5 430,268.5 428.9,268.5 425,268.5 425,268.5 
					425,268.5 412,257.5 412,270.7 402,279 389,290 386.6,292 389,292 402,292 412,292 412,521 416.7,525 412,525 412,816.1 
					425,816.1 425,312.7 414.7,321.4 420.9,285.5 424.7,282.3 425,282.1 430,277.9 441.1,268.6 441.1,268.6 441.1,268.5 
					441.1,268.5 				"/>
				<polygon class="st7" points="476.5,199.1 476.5,199.1 483,193.5 482.8,193.5 456.5,193.5 428.6,217 455.2,217 466.7,207.3 
					475,200.4 476.5,199.1 476.5,199.1 483.1,193.6 483.1,193.5 483.1,193.5 				"/>
				<polygon class="st7" points="218,389.5 211,389.5 209,389.5 202.5,389.5 202,390 196,395 196,387.3 189,393.2 189,400.9 
					174.6,413 189,413 196,413 201.2,413 202,412.3 209,406.4 212.7,403.3 218,398.9 220,397.2 226.4,391.8 226.4,391.8 229,389.5 
					228.8,389.5 226,389.5 				"/>
				<polygon class="st7" points="229.1,389.5 226.5,391.8 226.4,391.8 229.1,389.6 				"/>
				<polygon class="st7" points="134,571.5 133.8,571.5 127,571.5 114,571.5 107.5,571.5 101,577 98,579.5 98,294.3 96.7,295.4 
					98,288 98,263.6 101,261.1 106.7,256.3 114,250.2 114,250.2 123,242.5 122.8,242.5 114,242.5 101,242.5 98,242.5 98,140 90,140 
					85,140 85,252.2 77,258.9 70,264.8 68.6,266 70,266 77,266 85,266 85,590.5 79.6,595 85,595 85,816.1 90,816.1 98,816.1 98,595 
					101,595 106.2,595 114,588.4 117.7,585.3 127,577.5 127,577.5 				"/>
				<polygon class="st7" points="127,577.5 134.1,571.6 134.1,571.5 134,571.5 				"/>
				<polygon class="st7" points="244,586.5 243.8,586.5 235.7,586.5 231,586.5 218,586.5 217.5,586.5 213.3,590.1 211.9,591.3 
					209,593.7 202,599.6 196.7,604 196,604.6 196,599.9 191.2,572 189,584.4 189,598.1 186.6,598.1 185,607.2 178,613.2 178,618.5 
					171.7,618.5 171,619.1 164.7,624.4 165.7,618.5 164.5,618.5 160.2,622.2 159.1,623.1 158,624 154,627.4 149,631.6 149,614.6 
					141,607.8 140.3,607.2 138.1,595 141,595 149,595 154,595 155.5,595 158,595 162.1,595 163.2,595 171,588.4 174.7,585.3 
					176,584.3 189,573.3 191.1,571.6 191.1,571.5 191.3,571.5 196,571.5 196,413 189,413 189,571.5 171,571.5 164.5,571.5 
					162.7,573.1 158,577 149.4,584.3 149,584.6 147.2,586.1 141,591.3 138,593.8 136,582.6 136,816.1 141,816.1 149,816.1 149,642 
					154,642 158,642 163.2,642 171,635.4 174.7,632.3 178,629.6 179,628.7 189,620.3 191,618.7 191,618.6 191.1,618.5 191.1,618.5 
					191.3,618.5 192,618.5 196,618.5 196,610 200.5,610 202,610 209,610 215.1,610 216.2,610 218,608.5 227.7,600.3 231,597.6 
					234.1,595 239.9,590.1 239.9,590.1 				"/>
				<polygon class="st7" points="239.9,590.1 244.1,586.6 244.1,586.5 				"/>
				<polygon class="st7" points="136,22.5 136.2,22.3 139.5,19.5 136.2,0.4 136,1.6 136,22.1 132.9,19.5 132.2,23.4 134.9,23.4 				
					"/>
				<polygon class="st7" points="114,23.4 114.9,23.4 116,17 119.8,13.8 114,18.6 109.6,22.3 110.9,23.4 				"/>
				<polygon class="st7" points="96.2,11.1 96.3,11.2 96.3,11.1 96.4,11.1 109.6,0 83.4,0 83.1,0 83.1,0.1 90,5.9 				"/>
				<polygon class="st7" points="168.1,23.4 169.2,17 173,13.8 162.8,22.3 164.1,23.4 				"/>
				<polygon class="st7" points="149.5,11.2 149.5,11.1 162.8,0 136.6,0 136.3,0 136.3,0.1 136.3,0.1 149,10.7 				"/>
				<polygon class="st7" points="221.3,23.4 222.4,17 226.2,13.8 216,22.3 217.3,23.4 				"/>
				<polygon class="st7" points="241.3,23.4 242.6,22.3 239.3,19.5 238.6,23.4 241.3,23.4 				"/>
				<polygon class="st7" points="202.7,11.2 202.7,11.1 216,0 189.8,0 189.5,0 189.5,0.1 202,10.5 				"/>
				<polygon class="st7" points="294.5,23.4 295.8,22.3 292.5,19.5 291.9,23.4 294.5,23.4 				"/>
				<polygon class="st7" points="251,7 255.9,11.2 255.9,11.1 264,4.4 269.2,0 243,0 242.7,0 251,7 				"/>
				<polygon class="st7" points="327.7,23.4 328.8,17 330,16 332.6,13.8 330,16 322.5,22.3 323.8,23.4 				"/>
				<polygon class="st7" points="347.7,23.4 353.9,28.6 359.3,33.1 361,34.5 361,34.6 362.8,33.1 367,29.5 370.9,26.3 370.9,26.2 
					374.2,23.4 374.2,23.4 370.9,26.2 370.9,26.3 374.3,23.5 374.3,23.5 374.3,23.4 377,23.4 377,23.4 380,23.4 400.9,23.4 
					401,23.4 414.2,34.5 427.4,23.4 427.1,23.4 403.6,23.4 380,3.6 375.7,0 367,0 349.5,0 349.2,0 365.5,13.8 367,15 375,21.7 
					367,15.1 369.3,17 370.4,23.4 367,23.4 353,23.4 350.4,23.4 345.7,19.5 345.1,23.4 347.7,23.4 				"/>
				<polygon class="st7" points="296,0.1 309,11 309.1,11.2 309.2,11.1 322.4,0 309,0 296.2,0 296,0 296,0 296,0 				"/>
				<polygon class="st7" points="395.7,46.8 399.6,46.8 400.9,45.7 390.8,37.2 394.5,40.4 				"/>
				<polygon class="st7" points="377.6,43 374.3,23.8 372.4,35 374.2,45.7 374.3,45.7 375.6,46.8 378.3,46.8 				"/>
				<polygon class="st7" points="414.3,34.5 417.3,32 414.2,34.6 				"/>
				<polygon class="st7" points="417.3,32 427.5,23.5 427.5,23.5 427.5,23.4 427.5,23.4 427.5,23.4 				"/>
				<polygon class="st7" points="341.3,40.4 342.5,46.8 343,46.8 346.4,46.8 347.7,45.7 343,41.8 339.4,38.7 337.5,37.2 339.4,38.7 
									"/>
				<polygon class="st7" points="288.1,40.4 289.2,46.8 293.2,46.8 294.5,45.7 286.2,38.7 284.3,37.2 286.2,38.7 				"/>
				<polygon class="st7" points="300.7,28.6 307.8,34.5 307.8,34.6 309,33.6 317.7,26.3 321,23.5 321.1,23.4 321,23.4 321,23.4 
					320.7,23.4 317.2,23.4 309,23.4 299.8,23.4 297.2,23.4 296,23.4 294.5,23.4 296,24.7 				"/>
				<polygon class="st7" points="270.4,46.8 271.9,46.8 271.2,43 271.1,43 268,45.6 268,33.1 269.5,33.1 267.9,23.8 266,35 
					267.8,45.7 267.9,45.7 268,45.8 269.2,46.8 269.2,46.8 				"/>
				<polygon class="st7" points="234.9,40.4 236,46.8 240,46.8 241.3,45.7 233,38.7 231.1,37.2 232.9,38.7 				"/>
				<polygon class="st7" points="251,31.5 254.6,34.5 254.6,34.6 264,26.7 264.5,26.3 265,25.8 267.8,23.5 267.9,23.4 267.8,23.4 
					267.8,23.4 267.5,23.4 265,23.4 264,23.4 264,23.4 251,23.4 246.6,23.4 243.9,23.4 241.3,23.4 247.5,28.6 				"/>
				<polygon class="st7" points="171,37.7 164.7,43 161.4,45.8 160.2,46.8 161.6,46.8 162.8,46.8 164,46.8 170.1,46.8 171,46.8 
					186.8,46.8 189,45 196,39.1 197.8,37.6 198.3,37.2 202,34 209,28.2 211.2,26.3 214.6,23.5 214.7,23.4 214.6,23.4 214.6,23.4 
					214.3,23.4 210.8,23.4 209,23.4 202,23.4 196,23.4 193.4,23.4 190.7,23.4 189,23.4 188.1,23.4 189,22.7 189.4,22.3 192.7,19.5 
					189.4,0.4 189,2.8 189,22 186.1,19.5 185.4,23.4 188.1,23.4 185,26 				"/>
				<polygon class="st7" points="55,23.4 54.7,23.4 28.5,23.4 28.4,23.4 0.5,46.8 27.1,46.8 38.6,37.2 55,23.5 55,23.4 55,23.4 				
					"/>
				<polygon class="st7" points="113.3,49.9 110.7,47.7 109.6,46.8 109.6,46.8 108.4,46.8 102.3,46.8 98,46.8 90,46.8 85,46.8 
					83.4,46.8 83.1,46.8 83.1,46.8 83,46.8 83.1,46.9 85,48.5 90,52.7 98,59.4 99.4,60.6 101,61.9 110.9,70.2 114,70.2 127,70.2 
					134.9,70.2 136,69.3 136.2,69.1 149,58.4 149,41.3 142.3,35.7 140.2,23.4 137.5,23.4 136,23.4 136,69 127,61.4 114,50.5 				"/>
				<polygon class="st7" points="239.4,66.5 239.3,66.4 238.6,70.2 240.1,70.2 241.3,70.2 242.6,69.1 				"/>
				<polygon class="st7" points="217.3,70.2 221.3,70.2 222.4,63.8 224.4,62.1 216,69.1 				"/>
				<polygon class="st7" points="189.5,46.8 192.9,49.7 192.9,49.6 				"/>
				<polygon class="st7" points="265,50.4 265.6,49.9 268,47.8 268.2,47.7 269.2,46.8 268,46.8 268,46.8 266.6,46.8 265,46.8 
					264,46.8 263.9,46.8 261.9,46.8 251,46.8 246.6,46.8 243,46.8 242.7,46.8 242.7,46.8 242.7,46.8 242.7,46.9 246.1,49.7 
					251,53.8 255.9,58 255.9,58 263,52 264,51.2 				"/>
				<polygon class="st7" points="274.5,70.2 275.6,63.8 277.6,62.1 269.2,69.1 270.5,70.2 				"/>
				<polygon class="st7" points="279.4,60.6 278,61.8 277.6,62.1 278,61.8 				"/>
				<polygon class="st7" points="339.2,70.2 339.3,69.3 340.3,63.8 341.5,62.8 341.5,62.8 336.5,66.9 332.6,70.2 				"/>
				<polygon class="st7" points="328.2,51.6 326.1,49.9 325.5,49.4 323.5,47.7 322.5,46.8 323.7,46.8 325.1,46.8 324.4,43 324.3,43 
					321.1,45.7 322.4,46.8 321.2,46.8 319.8,46.8 317.1,46.8 315.1,46.8 309,46.8 299.8,46.8 296.2,46.8 296,46.8 296,46.8 
					295.9,46.8 295.9,46.8 295.9,46.9 296,47 299.3,49.7 309,57.8 312.3,60.6 312.8,61 314.9,62.8 326.2,53.2 				"/>
				<polygon class="st7" points="402.3,69.1 405.6,66.4 404.8,61.6 403.8,60.8 400.4,58 399,66.1 398.3,70.2 399.7,70.2 400.9,70.2 
					401,70.2 				"/>
				<polygon class="st7" points="382,63.8 384,62.1 381.4,64.3 381.9,64.8 				"/>
				<polygon class="st7" points="373,46.8 370.3,46.8 369,46.8 368.3,46.8 367,46.8 360.9,46.8 360.6,46.8 360.6,46.8 360.5,46.8 
					360.6,46.9 367,52.3 368.1,53.2 368.1,53.2 369,52.4 369.4,52 372,49.9 374.6,47.7 375.6,46.8 374.5,46.8 				"/>
				<polygon class="st7" points="434.1,70.2 435.2,63.8 437.2,62.1 439,60.6 437.2,62.1 428.9,69.1 430.2,70.2 				"/>
				<polygon class="st7" points="454.2,70.2 456.8,70.2 452.3,66.5 452.2,66.4 451.5,70.2 452.9,70.2 				"/>
				<polygon class="st7" points="406.2,46.8 402.7,46.8 402.4,46.8 402.3,46.8 402.3,46.8 402.3,46.9 405.7,49.7 415.6,58 415.6,58 
					422.7,52 428.9,46.8 423.6,46.8 				"/>
				<polygon class="st7" points="482.1,46.8 482.1,46.8 455.9,46.8 455.6,46.8 455.5,46.8 455.5,46.8 455.5,46.9 471.9,60.6 
					483.4,70.2 510,70.2 				"/>
				<polygon class="st7" points="404.6,73.3 407.2,75.4 414.2,81.4 414.2,81.4 424.1,73.1 427.5,70.3 427.5,70.2 427.5,70.2 
					427.4,70.2 427.1,70.2 423.6,70.2 415,70.2 408.2,70.2 406.2,70.2 402.1,70.2 401,70.2 402,71.1 				"/>
				<polygon class="st7" points="392.6,85.5 393.2,86.1 394.5,87.2 395.6,93.1 400.2,93.1 400.9,92.5 393.2,86.1 392.6,85.5 
					390.8,84 				"/>
				<polygon class="st7" points="377.5,89.9 376.4,90.8 371.5,86.7 371,89.8 374.3,92.5 375.1,93.2 375.1,93.1 377,93.1 378.2,93.1 
					378.1,92.2 377.6,89.8 				"/>
				<polygon class="st7" points="324.4,89.8 321.1,92.6 319.8,93.7 321.2,93.7 325.1,93.7 				"/>
				<polygon class="st7" points="345.1,90.4 343,88.6 337.5,84 341.3,87.2 342.3,92.7 342.5,93.7 343,93.7 346.4,93.7 347.7,92.5 
									"/>
				<polygon class="st7" points="356,70.2 355,70.2 350.4,70.2 348.9,70.2 347.7,70.2 348.8,71.1 351.4,73.3 355.4,76.7 356,77.2 
					361,81.4 361,81.4 365.7,77.4 367,76.4 369,74.7 374.3,70.3 374.3,70.2 374.2,70.2 374.2,70.2 373.9,70.2 369,70.2 367,70.2 
					364.5,70.2 356.5,70.2 				"/>
				<polygon class="st7" points="55,70.2 54.7,70.2 35.8,70.2 29.7,70.2 28.5,70.2 28.4,70.2 0.5,93.7 27.1,93.7 38.6,84 55,70.3 
					55,70.2 55,70.2 				"/>
				<polygon class="st7" points="114.3,116.5 115.5,110.1 119.2,106.9 114,111.3 109.1,115.4 110.4,116.5 114,116.5 				"/>
				<polygon class="st7" points="83.2,93.6 83.2,93.7 83.1,93.7 85,95.2 90,99.4 95.8,104.3 95.8,104.3 98,102.4 101,99.9 
					105.3,96.2 108.4,93.7 108.4,93.7 109,93.2 109,93.1 109,93.1 108.3,93.1 101.7,93.1 101,93.1 98,93.1 90,93.1 85,93.1 
					82.9,93.1 82.6,93.1 83.2,93.6 				"/>
				<polygon class="st7" points="185.6,112.7 184.9,116.5 187.5,116.5 187.6,116.5 188.9,115.4 				"/>
				<polygon class="st7" points="168.7,110.1 171,108.1 172.5,106.9 171,108.1 162.3,115.4 163.6,116.5 167.5,116.5 				"/>
				<polygon class="st7" points="218,113.3 215.5,115.4 216.8,116.5 218,116.5 220.8,116.5 221.9,110.1 223.8,108.5 225.7,106.9 
					223.8,108.5 				"/>
				<polygon class="st7" points="238.8,112.7 238.1,116.5 240,116.5 240.8,116.5 243.4,116.5 239.4,113.2 				"/>
				<polygon class="st7" points="446.2,116.5 452.9,116.5 456.3,116.5 452.3,113.2 432.6,96.7 432,96.1 429.9,94.5 428.4,93.1 
					428.2,93.1 427.6,93.1 423.7,93.1 420.9,93.1 406.3,93.1 402.1,93.1 402,93.1 401.9,93.1 401.9,93.1 401.8,93.1 402,93.3 
					402,93.3 402.4,93.7 405.7,96.5 418.2,106.9 419.2,107.8 429.7,116.5 				"/>
				<polygon class="st7" points="324.6,140 323.9,136.1 319.3,140 				"/>
				<polygon class="st7" points="337,130.3 340.8,133.5 341.9,140 343,140 345.9,140 347.2,138.8 343,135.3 				"/>
				<polygon class="st7" points="351.5,120.1 356,123.9 360.5,127.7 360.5,127.7 367,122.2 369,120.5 373.7,116.6 373.8,116.5 
					373.7,116.5 373.7,116.5 373.4,116.5 369,116.5 367,116.5 356,116.5 355.7,116.5 349,116.5 347.2,116.5 348.8,117.9 				"/>
				<polygon class="st7" points="181.2,133.5 182.3,140 186.2,140 187.5,138.8 179.2,131.8 				"/>
				<polygon class="st7" points="160.9,138.9 159.6,140 161.1,140 163.5,140 164.9,140 164.3,136.1 164.1,136.2 				"/>
				<polygon class="st7" points="210.7,119.4 214.1,116.6 214.1,116.5 214.1,116.5 214,116.5 213.8,116.5 210.2,116.5 209,116.5 
					202,116.5 196,116.5 196,116.5 192.9,116.5 190.2,116.5 189.4,116.5 189,116.5 187.6,116.5 189,117.7 189.2,117.9 191.8,120.1 
					193.8,121.7 196,123.6 200.9,127.7 200.9,127.7 202,126.7 209,120.8 				"/>
				<polygon class="st7" points="109,140 110.3,140 114,140 116.4,140 127,140 133,140 136,137.5 136,160.8 140.7,133.5 144,130.7 
					144.5,130.3 149,126.5 157.5,119.4 158,119 160.9,116.6 160.9,116.5 160.9,116.5 160.8,116.5 160.5,116.5 158,116.5 157,116.5 
					149,116.5 139.7,116.5 137,116.5 136,116.5 134.4,116.5 135.7,115.4 132.4,112.7 131.7,116.5 134.3,116.5 131.2,119.1 
					127,122.7 114,133.6 110.9,136.2 107.7,138.8 				"/>
				<polygon class="st7" points="54.4,116.5 54.1,116.5 36.4,116.5 29.8,116.5 27.9,116.5 27.9,116.5 0,140 26.6,140 38.1,130.3 
					54.5,116.6 54.5,116.5 54.5,116.5 				"/>
			</g>
		</g>
		<line class="st8" x1="459" y1="268.1" x2="459" y2="343.1"/>
		<line class="st8" x1="213" y1="116.1" x2="213" y2="205.1"/>
		<line class="st8" x1="308" y1="383.1" x2="308" y2="434.1"/>
		<line class="st8" x1="131" y1="571.1" x2="131" y2="623.1"/>
		<g id="decoration-2">
			<polygon class="st9" points="124.6,571.1 112,558.6 125.4,561 			"/>
			<polygon class="st10" points="132.4,571.1 124.6,571.1 125.4,561 			"/>
			<polygon class="st9" points="125.4,561 121.9,556.2 121.9,518.5 134.7,535.4 158,566.2 152.7,571.1 132.4,571.1 			"/>
			<polygon class="st10" points="149.1,554.4 134.7,535.4 139.4,521 153.3,546.2 			"/>
			<polygon class="st10" points="159.2,560.5 158,566.2 149.1,554.4 			"/>
			<polygon class="st9" points="158.3,536 161.9,528.5 172,541.1 163.9,538.2 			"/>
			<polygon class="st9" points="163.1,542.3 159.2,560.5 149.1,554.4 153.3,546.2 158.3,536 			"/>
			<polygon class="st10" points="158.3,536 163.9,538.2 163.1,542.3 			"/>
			<polygon class="st9" points="110.6,241.1 98,228.6 111.4,231 			"/>
			<polygon class="st10" points="118.4,241.1 110.6,241.1 111.4,231 			"/>
			<polygon class="st9" points="111.4,231 107.9,226.2 107.9,188.5 120.7,205.4 144,236.2 138.7,241.1 118.4,241.1 			"/>
			<polygon class="st10" points="135.1,224.4 120.7,205.4 125.4,191 139.3,216.2 			"/>
			<polygon class="st10" points="145.2,230.5 144,236.2 135.1,224.4 			"/>
			<polygon class="st9" points="144.3,206 147.9,198.5 158,211.1 149.9,208.2 			"/>
			<polygon class="st9" points="149.1,212.3 145.2,230.5 135.1,224.4 139.3,216.2 144.3,206 			"/>
			<polygon class="st10" points="144.3,206 149.9,208.2 149.1,212.3 			"/>
			<polygon class="st9" points="325.5,383.1 338,370.6 324.6,373 			"/>
			<polygon class="st10" points="317.6,383.1 325.5,383.1 324.6,373 			"/>
			<polygon class="st9" points="324.6,373 328.1,368.2 328.1,330.5 315.3,347.4 292,378.2 297.3,383.1 317.6,383.1 			"/>
			<polygon class="st10" points="300.9,366.4 315.3,347.4 310.6,333 296.6,358.2 			"/>
			<polygon class="st10" points="290.8,372.5 292,378.2 300.9,366.4 			"/>
			<polygon class="st9" points="291.7,348 288.1,340.5 278,353.1 286.1,350.2 			"/>
			<polygon class="st9" points="286.9,354.3 290.8,372.5 300.9,366.4 296.6,358.2 291.7,348 			"/>
			<polygon class="st10" points="291.7,348 286.1,350.2 286.9,354.3 			"/>
			<polygon class="st9" points="264.5,68.1 277,55.6 263.6,58 			"/>
			<polygon class="st10" points="256.6,68.1 264.5,68.1 263.6,58 			"/>
			<polygon class="st9" points="263.6,58 267.1,53.2 267.1,15.5 254.3,32.4 231,63.2 236.3,68.1 256.6,68.1 			"/>
			<polygon class="st10" points="239.9,51.4 254.3,32.4 249.6,18 235.7,43.2 			"/>
			<polygon class="st10" points="229.8,57.5 231,63.2 239.9,51.4 			"/>
			<polygon class="st9" points="230.7,33 227.1,25.5 217,38.1 225.1,35.2 			"/>
			<polygon class="st9" points="225.9,39.3 229.8,57.5 239.9,51.4 235.7,43.2 230.7,33 			"/>
			<polygon class="st10" points="230.7,33 225.1,35.2 225.9,39.3 			"/>
			<circle class="st11" cx="263.3" cy="432.1" r="7"/>
			<path class="st12" d="M268.6,440.9c0,0,0.5,32.8,5.6,45.2s-1.2,20-1.2,20"/>
			<path class="st11" d="M269.4,472.1v-31.6c0.9-1.4,0.5-3.4-1-4.3c-0.9-0.6-2.1-0.6-3-0.1c-0.4-0.2-0.8-0.3-1.2-0.3
				c-0.5,0-1,0.2-1.4,0.5c-0.7-0.5-1.7-0.6-2.5-0.2c-0.3-0.2-0.7-0.3-1.1-0.3c-1.3,0-2.4,1-2.4,2.3c0,1.2,0.8,2.2,1.9,2.4v31.6
				c-1.3,0.3-2.1,1.6-1.8,2.9c0.2,0.9,0.9,1.6,1.8,1.8v45.2h1.1v-45.2c0.2,0,0.4-0.1,0.6-0.2c0.2,0.1,0.4,0.2,0.6,0.2v45.2h1.1
				v-45.2c0.3-0.1,0.6-0.2,0.9-0.4c0.3,0.2,0.6,0.3,0.9,0.4v45.2h1.1v-45.2c0.2-0.1,0.5-0.1,0.7-0.3c0.2,0.1,0.4,0.2,0.7,0.3v45.2
				h1.1v-45.2c0.3-0.3,0.9-0.3,1.2,0v45.2h1.1v-45.2c1.3-0.3,2.1-1.6,1.8-2.9C271,473.1,270.3,472.4,269.4,472.1L269.4,472.1z
				 M264.7,472.1v-31.6c0.2-0.1,0.5-0.1,0.7-0.3c0.2,0.1,0.4,0.2,0.7,0.3v31.6c-0.2,0.1-0.5,0.1-0.7,0.3
				C265.2,472.3,265,472.2,264.7,472.1L264.7,472.1z M267.1,472.1v-31.6c0.3-0.3,0.9-0.3,1.2,0v31.6
				C268,472.5,267.5,472.5,267.1,472.1z M263.7,472.1c-0.3,0.1-0.6,0.2-0.9,0.4c-0.3-0.2-0.6-0.3-0.9-0.4v-31.6
				c0.3-0.1,0.6-0.2,0.9-0.4c0.3,0.2,0.5,0.3,0.9,0.4V472.1z M259.7,472.1v-31.6c0.2,0,0.4-0.1,0.6-0.2c0.2,0.1,0.4,0.2,0.6,0.2
				v31.6c-0.2,0.1-0.4,0.1-0.6,0.2C260.1,472.3,259.9,472.2,259.7,472.1L259.7,472.1z"/>
			<path class="st13" d="M268.1,472.1v-31.6c1.3-0.3,2.1-1.6,1.8-2.9c-0.3-1.3-1.6-2.1-2.9-1.8c-1.3,0.3-2.1,1.6-1.8,2.9
				c0.2,0.9,0.9,1.6,1.8,1.8v31.6c-1.3,0.3-2.1,1.6-1.8,2.9c0.2,0.9,0.9,1.6,1.8,1.8v45.2h1.1v-45.2c1.3-0.3,2.1-1.6,1.8-2.9
				C269.7,473.1,269,472.4,268.1,472.1z"/>
			<path class="st13" d="M258.3,472.1v-31.6c1.3-0.3,2.1-1.6,1.8-2.9c-0.3-1.3-1.6-2.1-2.9-1.8c-1.3,0.3-2.1,1.6-1.8,2.9
				c0.2,0.9,0.9,1.6,1.8,1.8v31.6c-1.3,0.3-2.1,1.6-1.8,2.9c0.2,0.9,0.9,1.6,1.8,1.8v45.2h1.1v-45.2c1.3-0.3,2.1-1.6,1.8-2.9
				C259.9,473.1,259.2,472.4,258.3,472.1z"/>
			<path class="st14" d="M257.4,440.4c0,0,0.8,23.3-4.4,32"/>
			<path class="st15" d="M261.9,476.4c0,0-8.1,39-4.5,45.2"/>
			<path class="st13" d="M263.4,472.1v-31.6c1.3-0.3,2.1-1.6,1.8-2.9c-0.3-1.3-1.6-2.1-2.9-1.8s-2.1,1.6-1.8,2.9
				c0.2,0.9,0.9,1.6,1.8,1.8v31.6c-1.3,0.3-2.1,1.6-1.8,2.9c0.2,0.9,0.9,1.6,1.8,1.8v45.2h1.1v-45.2c1.3-0.3,2.1-1.6,1.8-2.9
				C265,473.1,264.3,472.4,263.4,472.1z"/>
			<path class="st16" d="M260.6,472.1v-31.6c1.3-0.3,2.1-1.6,1.8-2.9c-0.3-1.3-1.6-2.1-2.9-1.8s-2.1,1.6-1.8,2.9
				c0.2,0.9,0.9,1.6,1.8,1.8v31.6c-1.3,0.3-2.1,1.6-1.8,2.9c0.2,0.9,0.9,1.6,1.8,1.8v45.2h1.1v-45.2c1.3-0.3,2.1-1.6,1.8-2.9
				C262.2,473.1,261.5,472.4,260.6,472.1z"/>
			<path class="st16" d="M265.8,472.1v-31.6c1.3-0.3,2.1-1.6,1.8-2.9c-0.3-1.3-1.6-2.1-2.9-1.8s-2.1,1.6-1.8,2.9
				c0.2,0.9,0.9,1.6,1.8,1.8v31.6c-1.3,0.3-2.1,1.6-1.8,2.9c0.2,0.9,0.9,1.6,1.8,1.8v45.2h1.1v-45.2c1.3-0.3,2.1-1.6,1.8-2.9
				C267.4,473.1,266.7,472.4,265.8,472.1z"/>
			<circle class="st11" cx="354.3" cy="66.1" r="7"/>
			<path class="st12" d="M359.6,74.9c0,0,0.5,32.8,5.6,45.2s-1.2,20-1.2,20"/>
			<path class="st11" d="M360.4,106.2V74.6c0.9-1.4,0.5-3.4-1-4.3c-0.9-0.6-2.1-0.6-3-0.1c-0.4-0.2-0.8-0.3-1.2-0.3
				c-0.5,0-1,0.2-1.4,0.4c-0.7-0.5-1.7-0.6-2.5-0.2c-0.3-0.2-0.7-0.3-1.1-0.3c-1.3,0-2.4,1-2.4,2.3c0,1.2,0.8,2.2,1.9,2.4v31.6
				c-1.3,0.3-2.1,1.6-1.8,2.9c0.2,0.9,0.9,1.6,1.8,1.8v45.3h1.1v-45.3c0.2,0,0.4-0.1,0.6-0.2c0.2,0.1,0.4,0.2,0.6,0.2v45.2h1.1
				v-45.2c0.3-0.1,0.6-0.2,0.9-0.4c0.3,0.2,0.6,0.3,0.9,0.4v45.2h1.1v-45.2c0.2-0.1,0.5-0.1,0.7-0.3c0.2,0.1,0.4,0.2,0.7,0.3v45.2
				h1.1v-45.2c0.3-0.3,0.9-0.3,1.2,0v45.2h1.1v-45.2c1.3-0.3,2.1-1.6,1.8-2.9C362,107.1,361.3,106.4,360.4,106.2L360.4,106.2z
				 M355.7,106.2V74.6c0.2-0.1,0.5-0.1,0.7-0.3c0.2,0.1,0.4,0.2,0.7,0.3v31.6c-0.2,0.1-0.5,0.1-0.7,0.3
				C356.2,106.3,356,106.2,355.7,106.2L355.7,106.2z M358.1,106.2V74.6c0.3-0.3,0.9-0.3,1.2,0v31.6
				C359,106.5,358.5,106.5,358.1,106.2z M354.7,106.2c-0.3,0.1-0.6,0.2-0.9,0.4c-0.3-0.2-0.6-0.3-0.9-0.4V74.6
				c0.3-0.1,0.6-0.2,0.9-0.4c0.3,0.2,0.5,0.3,0.9,0.4V106.2z M350.7,106.2V74.6c0.2,0,0.4-0.1,0.6-0.2c0.2,0.1,0.4,0.2,0.6,0.2v31.6
				c-0.2,0.1-0.4,0.1-0.6,0.2C351.1,106.3,350.9,106.2,350.7,106.2L350.7,106.2z"/>
			<path class="st13" d="M359.1,106.2V74.6c1.3-0.3,2.1-1.6,1.8-2.9c-0.3-1.3-1.6-2.1-2.9-1.8s-2.1,1.6-1.8,2.9
				c0.2,0.9,0.9,1.6,1.8,1.8v31.6c-1.3,0.3-2.1,1.6-1.8,2.9c0.2,0.9,0.9,1.6,1.8,1.8v45.2h1.1v-45.2c1.3-0.3,2.1-1.6,1.8-2.9
				C360.7,107.1,360,106.4,359.1,106.2z"/>
			<path class="st13" d="M349.3,106.2V74.6c1.3-0.3,2.1-1.6,1.8-2.9c-0.3-1.3-1.6-2.1-2.9-1.8s-2.1,1.6-1.8,2.9
				c0.2,0.9,0.9,1.6,1.8,1.8v31.6c-1.3,0.3-2.1,1.6-1.8,2.9c0.2,0.9,0.9,1.6,1.8,1.8v45.2h1.1v-45.2c1.3-0.3,2.1-1.6,1.8-2.9
				C350.9,107.1,350.2,106.4,349.3,106.2z"/>
			<path class="st14" d="M348.4,74.4c0,0,0.8,23.3-4.4,32"/>
			<path class="st15" d="M352.9,110.4c0,0-8.1,39-4.5,45.2"/>
			<path class="st13" d="M354.4,106.2V74.6c1.3-0.3,2.1-1.6,1.8-2.9c-0.3-1.3-1.6-2.1-2.9-1.8c-1.3,0.3-2.1,1.6-1.8,2.9
				c0.2,0.9,0.9,1.6,1.8,1.8v31.6c-1.3,0.3-2.1,1.6-1.8,2.9c0.2,0.9,0.9,1.6,1.8,1.8v45.2h1.1v-45.2c1.3-0.3,2.1-1.6,1.8-2.9
				C356,107.1,355.3,106.4,354.4,106.2z"/>
			<path class="st16" d="M351.6,106.2V74.6c1.3-0.3,2.1-1.6,1.8-2.9s-1.6-2.1-2.9-1.8c-1.3,0.3-2.1,1.6-1.8,2.9
				c0.2,0.9,0.9,1.6,1.8,1.8v31.6c-1.3,0.3-2.1,1.6-1.8,2.9c0.2,0.9,0.9,1.6,1.8,1.8v45.2h1.1v-45.2c1.3-0.3,2.1-1.6,1.8-2.9
				C353.2,107.1,352.5,106.4,351.6,106.2z"/>
			<path class="st16" d="M356.8,106.2V74.6c1.3-0.3,2.1-1.6,1.8-2.9c-0.3-1.3-1.6-2.1-2.9-1.8c-1.3,0.3-2.1,1.6-1.8,2.9
				c0.2,0.9,0.9,1.6,1.8,1.8v31.6c-1.3,0.3-2.1,1.6-1.8,2.9c0.2,0.9,0.9,1.6,1.8,1.8v45.2h1.1v-45.2c1.3-0.3,2.1-1.6,1.8-2.9
				C358.4,107.1,357.7,106.4,356.8,106.2z"/>
			<circle class="st11" cx="146.3" cy="122.1" r="7"/>
			<path class="st12" d="M151.6,130.9c0,0,0.5,32.8,5.6,45.2s-1.2,20-1.2,20"/>
			<path class="st11" d="M152.4,162.1v-31.6c1.3-0.3,2.1-1.6,1.8-2.9c-0.3-1.3-1.6-2.1-2.9-1.8c-0.2,0-0.4,0.1-0.6,0.2
				c-0.7-0.4-1.6-0.4-2.3,0c-0.4-0.2-0.8-0.3-1.2-0.3c-0.5,0-1,0.2-1.4,0.4c-0.7-0.5-1.7-0.6-2.5-0.2c-0.3-0.2-0.7-0.3-1.1-0.3
				c-1.3,0-2.4,1-2.4,2.3c0,1.2,0.8,2.2,1.9,2.4v31.6c-1.3,0.3-2.1,1.6-1.8,2.9c0.2,0.9,0.9,1.6,1.8,1.8V212h1.1v-45.2
				c0.2,0,0.4-0.1,0.6-0.2c0.2,0.1,0.4,0.2,0.6,0.2v45.2h1.1v-45.2c0.3-0.1,0.6-0.2,0.9-0.4c0.3,0.2,0.6,0.3,0.9,0.4v45.2h1.1v-45.2
				c0.2-0.1,0.5-0.1,0.7-0.3c0.2,0.1,0.4,0.2,0.7,0.3v45.2h1.1v-45.2c0.2-0.1,0.4-0.1,0.6-0.2c0.2,0.1,0.4,0.2,0.6,0.2v45.2h1.1
				v-45.2c1.3-0.3,2.1-1.6,1.8-2.9C154,163.1,153.3,162.4,152.4,162.1L152.4,162.1z M147.7,162.1v-31.6c0.2-0.1,0.5-0.1,0.7-0.3
				c0.2,0.1,0.4,0.2,0.7,0.3v31.6c-0.2,0.1-0.5,0.1-0.7,0.3C148.2,162.3,148,162.2,147.7,162.1z M150.1,162.1v-31.6
				c0.2,0,0.4-0.1,0.6-0.2c0.2,0.1,0.4,0.2,0.6,0.2v31.6c-0.2,0.1-0.4,0.1-0.6,0.2C150.5,162.3,150.3,162.2,150.1,162.1L150.1,162.1
				z M146.7,162.1c-0.3,0.1-0.6,0.2-0.9,0.4c-0.3-0.2-0.6-0.3-0.9-0.4v-31.6c0.3-0.1,0.6-0.2,0.9-0.4c0.3,0.2,0.5,0.3,0.9,0.4V162.1
				z M142.7,162.1v-31.6c0.2,0,0.4-0.1,0.6-0.2c0.2,0.1,0.4,0.2,0.6,0.2v31.6c-0.2,0.1-0.4,0.1-0.6,0.2
				C143.1,162.3,142.9,162.2,142.7,162.1L142.7,162.1z"/>
			<path class="st13" d="M151.1,162.1v-31.6c1.3-0.3,2.1-1.6,1.8-2.9c-0.3-1.3-1.6-2.1-2.9-1.8s-2.1,1.6-1.8,2.9
				c0.2,0.9,0.9,1.6,1.8,1.8v31.6c-1.3,0.3-2.1,1.6-1.8,2.9c0.2,0.9,0.9,1.6,1.8,1.8v45.2h1.1v-45.2c1.3-0.3,2.1-1.6,1.8-2.9
				C152.7,163.1,152,162.4,151.1,162.1L151.1,162.1z"/>
			<path class="st13" d="M141.3,162.1v-31.6c1.3-0.3,2.1-1.6,1.8-2.9c-0.3-1.3-1.6-2.1-2.9-1.8s-2.1,1.6-1.8,2.9
				c0.2,0.9,0.9,1.6,1.8,1.8v31.6c-1.3,0.3-2.1,1.6-1.8,2.9c0.2,0.9,0.9,1.6,1.8,1.8v45.2h1.1v-45.2c1.3-0.3,2.1-1.6,1.8-2.9
				C142.9,163.1,142.2,162.4,141.3,162.1L141.3,162.1z"/>
			<path class="st14" d="M140.4,130.4c0,0,0.8,23.3-4.4,32"/>
			<path class="st15" d="M144.9,166.4c0,0-8.1,39-4.5,45.2"/>
			<path class="st13" d="M146.4,162.1v-31.6c1.3-0.3,2.1-1.6,1.8-2.9s-1.6-2.1-2.9-1.8c-1.3,0.3-2.1,1.6-1.8,2.9
				c0.2,0.9,0.9,1.6,1.8,1.8v31.6c-1.3,0.3-2.1,1.6-1.8,2.9c0.2,0.9,0.9,1.6,1.8,1.8v45.2h1.1v-45.2c1.3-0.3,2.1-1.6,1.8-2.9
				C148,163.1,147.3,162.4,146.4,162.1L146.4,162.1z"/>
			<path class="st16" d="M143.6,162.1v-31.6c1.3-0.3,2.1-1.6,1.8-2.9c-0.3-1.3-1.6-2.1-2.9-1.8c-1.3,0.3-2.1,1.6-1.8,2.9
				c0.2,0.9,0.9,1.6,1.8,1.8v31.6c-1.3,0.3-2.1,1.6-1.8,2.9c0.2,0.9,0.9,1.6,1.8,1.8v45.2h1.1v-45.2c1.3-0.3,2.1-1.6,1.8-2.9
				C145.2,163.1,144.5,162.4,143.6,162.1L143.6,162.1z"/>
			<path class="st16" d="M148.8,162.1v-31.6c1.3-0.3,2.1-1.6,1.8-2.9s-1.6-2.1-2.9-1.8c-1.3,0.3-2.1,1.6-1.8,2.9
				c0.2,0.9,0.9,1.6,1.8,1.8v31.6c-1.3,0.3-2.1,1.6-1.8,2.9c0.2,0.9,0.9,1.6,1.8,1.8v45.2h1.1v-45.2c1.3-0.3,2.1-1.6,1.8-2.9
				C150.4,163.1,149.7,162.4,148.8,162.1L148.8,162.1z"/>
			<circle class="st11" cx="249.3" cy="635.1" r="7"/>
			<path class="st12" d="M254.6,643.9c0,0,0.5,32.8,5.6,45.2s-1.2,20-1.2,20"/>
			<path class="st11" d="M255.4,675.2v-31.6c0.9-1.4,0.5-3.4-1-4.3c-0.9-0.6-2.1-0.6-3-0.1c-0.4-0.2-0.8-0.3-1.2-0.3
				c-0.5,0-1,0.2-1.4,0.5c-0.7-0.5-1.7-0.6-2.5-0.2c-0.3-0.2-0.7-0.3-1.1-0.3c-1.3,0-2.4,1-2.4,2.3c0,1.2,0.8,2.2,1.9,2.4v31.6
				c-1.3,0.3-2.1,1.6-1.8,2.9c0.2,0.9,0.9,1.6,1.8,1.8v45.2h1.1v-45.2c0.2,0,0.4-0.1,0.6-0.2c0.2,0.1,0.4,0.2,0.6,0.2v45.2h1.1
				v-45.2c0.3-0.1,0.6-0.2,0.9-0.4c0.3,0.2,0.6,0.3,0.9,0.4v45.2h1.1v-45.2c0.2-0.1,0.5-0.1,0.7-0.3c0.2,0.1,0.4,0.2,0.7,0.3v45.2
				h1.1v-45.2c0.3-0.3,0.9-0.3,1.2,0v45.2h1.1v-45.2c1.3-0.3,2.1-1.6,1.8-2.9C257,676.1,256.3,675.4,255.4,675.2L255.4,675.2z
				 M250.7,675.2v-31.6c0.2-0.1,0.5-0.1,0.7-0.3c0.2,0.1,0.4,0.2,0.7,0.3v31.6c-0.2,0.1-0.5,0.1-0.7,0.3
				C251.2,675.3,251,675.2,250.7,675.2z M253.1,675.2v-31.6c0.3-0.3,0.9-0.3,1.2,0v31.6C254,675.5,253.5,675.5,253.1,675.2z
				 M249.7,675.2c-0.3,0.1-0.6,0.2-0.9,0.4c-0.3-0.2-0.6-0.3-0.9-0.4v-31.6c0.3-0.1,0.6-0.2,0.9-0.4c0.3,0.2,0.5,0.3,0.9,0.4V675.2z
				 M245.7,675.2v-31.6c0.2,0,0.4-0.1,0.6-0.2c0.2,0.1,0.4,0.2,0.6,0.2v31.6c-0.2,0.1-0.4,0.1-0.6,0.2
				C246.1,675.3,245.9,675.2,245.7,675.2L245.7,675.2z"/>
			<path class="st13" d="M254.1,675.2v-31.6c1.3-0.3,2.1-1.6,1.8-2.9c-0.3-1.3-1.6-2.1-2.9-1.8c-1.3,0.3-2.1,1.6-1.8,2.9
				c0.2,0.9,0.9,1.6,1.8,1.8v31.6c-1.3,0.3-2.1,1.6-1.8,2.9c0.2,0.9,0.9,1.6,1.8,1.8v45.2h1.1v-45.2c1.3-0.3,2.1-1.6,1.8-2.9
				C255.7,676.1,255,675.4,254.1,675.2z"/>
			<path class="st13" d="M244.3,675.2v-31.6c1.3-0.3,2.1-1.6,1.8-2.9c-0.3-1.3-1.6-2.1-2.9-1.8c-1.3,0.3-2.1,1.6-1.8,2.9
				c0.2,0.9,0.9,1.6,1.8,1.8v31.6c-1.3,0.3-2.1,1.6-1.8,2.9c0.2,0.9,0.9,1.6,1.8,1.8v45.2h1.1v-45.2c1.3-0.3,2.1-1.6,1.8-2.9
				C245.9,676.1,245.2,675.4,244.3,675.2z"/>
			<path class="st14" d="M243.4,643.4c0,0,0.8,23.3-4.4,32"/>
			<path class="st15" d="M247.9,679.4c0,0-8.1,39-4.5,45.2"/>
			<path class="st13" d="M249.4,675.2v-31.6c1.3-0.3,2.1-1.6,1.8-2.9s-1.6-2.1-2.9-1.8s-2.1,1.6-1.8,2.9c0.2,0.9,0.9,1.6,1.8,1.8
				v31.6c-1.3,0.3-2.1,1.6-1.8,2.9c0.2,0.9,0.9,1.6,1.8,1.8v45.2h1.1v-45.2c1.3-0.3,2.1-1.6,1.8-2.9
				C251,676.1,250.3,675.4,249.4,675.2z"/>
			<path class="st16" d="M246.6,675.2v-31.6c1.3-0.3,2.1-1.6,1.8-2.9c-0.3-1.3-1.6-2.1-2.9-1.8s-2.1,1.6-1.8,2.9
				c0.2,0.9,0.9,1.6,1.8,1.8v31.6c-1.3,0.3-2.1,1.6-1.8,2.9c0.2,0.9,0.9,1.6,1.8,1.8v45.2h1.1v-45.2c1.3-0.3,2.1-1.6,1.8-2.9
				C248.2,676.1,247.5,675.4,246.6,675.2z"/>
			<path class="st16" d="M251.8,675.2v-31.6c1.3-0.3,2.1-1.6,1.8-2.9s-1.6-2.1-2.9-1.8s-2.1,1.6-1.8,2.9c0.2,0.9,0.9,1.6,1.8,1.8
				v31.6c-1.3,0.3-2.1,1.6-1.8,2.9c0.2,0.9,0.9,1.6,1.8,1.8v45.2h1.1v-45.2c1.3-0.3,2.1-1.6,1.8-2.9
				C253.4,676.1,252.7,675.4,251.8,675.2z"/>
			<path class="st17" d="M153.9,614.6c-1.1-3.7-4-6.9-8-9.3l4.6-5.7c0,0-5.1-4.2-10.7-4.4s-5.4,4.9-14.9,1.3s-14.5,0.9-14.5,0.9
				l4.5,8c-4,2.3-6.8,5.6-7.9,9.2c-0.3,0.7-0.5,1.5-0.5,2.3v9.8c0,4.6,5.7,8.4,12.6,8.4h22.7c6.9,0,12.6-3.8,12.6-8.4v-9.8
				C154.4,616.1,154.3,615.3,153.9,614.6z"/>
			<pattern  id="SVGID_1_" xlink:href="#New_Pattern_2" patternTransform="matrix(1 0 0 -1 22.85 -16838.3691)">
			</pattern>
			<path class="st18" d="M153.9,614.6c-1.1-3.7-4-6.9-8-9.3l4.6-5.7c0,0-5.1-4.2-10.7-4.4s-5.4,4.9-14.9,1.3s-14.5,0.9-14.5,0.9
				l4.5,8c-4,2.3-6.8,5.6-7.9,9.2c-0.3,0.7-0.5,1.5-0.5,2.3v9.8c0,4.6,5.7,8.4,12.6,8.4h22.7c6.9,0,12.6-3.8,12.6-8.4v-9.8
				C154.4,616.1,154.3,615.3,153.9,614.6z"/>
			<line class="st19" x1="114.9" y1="605.3" x2="145.9" y2="605.3"/>
			
				<ellipse transform="matrix(0.6746 -0.7382 0.7382 0.6746 -406.1685 297.3234)" class="st20" cx="134.1" cy="609.3" rx="1.4" ry="6"/>
			
				<ellipse transform="matrix(0.2959 -0.9552 0.9552 0.2959 -494.1014 551.8989)" class="st20" cx="127.3" cy="611.1" rx="6.1" ry="1.5"/>
			<path class="st21" d="M129.5,605.3c0,0,6,13.1,10,13.8"/>
			<path class="st21" d="M129.8,605.7c0,0,2.8,14.2,0.1,17"/>
			<path class="st17" d="M331.9,445.6c-1.1-3.7-4-6.9-8-9.3l4.5-5.7c0,0-5-4.2-10.7-4.4s-5.4,4.9-14.9,1.3s-14.5,0.9-14.5,0.9l4.5,8
				c-4,2.4-6.8,5.6-7.9,9.2c-0.3,0.7-0.5,1.5-0.5,2.3v9.8c0,4.6,5.7,8.4,12.6,8.4h22.7c6.9,0,12.6-3.8,12.6-8.4v-9.8
				C332.4,447.1,332.3,446.3,331.9,445.6z"/>
			<pattern  id="SVGID_2_" xlink:href="#New_Pattern_2" patternTransform="matrix(1 0 0 -1 22.85 -16838.3691)">
			</pattern>
			<path class="st22" d="M331.9,445.6c-1.1-3.7-4-6.9-8-9.3l4.5-5.7c0,0-5-4.2-10.7-4.4s-5.4,4.9-14.9,1.3s-14.5,0.9-14.5,0.9l4.5,8
				c-4,2.4-6.8,5.6-7.9,9.2c-0.3,0.7-0.5,1.5-0.5,2.3v9.8c0,4.6,5.7,8.4,12.6,8.4h22.7c6.9,0,12.6-3.8,12.6-8.4v-9.8
				C332.4,447.1,332.3,446.3,331.9,445.6z"/>
			<line class="st19" x1="292.9" y1="436.3" x2="323.9" y2="436.3"/>
			
				<ellipse transform="matrix(0.6746 -0.7382 0.7382 0.6746 -223.484 373.7131)" class="st20" cx="312.1" cy="440.3" rx="1.5" ry="6"/>
			
				<ellipse transform="matrix(0.2959 -0.9552 0.9552 0.2959 -207.3361 602.9225)" class="st20" cx="305.3" cy="442.1" rx="6" ry="1.5"/>
			<path class="st21" d="M307.5,436.3c0,0,6,13.1,10,13.8"/>
			<path class="st21" d="M307.8,436.7c0,0,2.8,14.2,0,17"/>
			<path class="st17" d="M235.9,218.6c-1.1-3.7-4-6.9-8-9.3l4.6-5.7c0,0-5.1-4.2-10.7-4.4s-5.4,4.9-14.9,1.3s-14.5,0.9-14.5,0.9
				l4.5,8c-4,2.4-6.8,5.6-7.9,9.2c-0.3,0.7-0.5,1.5-0.5,2.3v9.8c0,4.6,5.7,8.4,12.6,8.4h22.7c6.9,0,12.6-3.8,12.6-8.4v-9.8
				C236.4,220.1,236.3,219.3,235.9,218.6z"/>
			<pattern  id="SVGID_3_" xlink:href="#New_Pattern_2" patternTransform="matrix(1 0 0 -1 22.85 -16838.3691)">
			</pattern>
			<path class="st23" d="M235.9,218.6c-1.1-3.7-4-6.9-8-9.3l4.6-5.7c0,0-5.1-4.2-10.7-4.4s-5.4,4.9-14.9,1.3s-14.5,0.9-14.5,0.9
				l4.5,8c-4,2.4-6.8,5.6-7.9,9.2c-0.3,0.7-0.5,1.5-0.5,2.3v9.8c0,4.6,5.7,8.4,12.6,8.4h22.7c6.9,0,12.6-3.8,12.6-8.4v-9.8
				C236.4,220.1,236.3,219.3,235.9,218.6z"/>
			<line class="st19" x1="196.9" y1="209.3" x2="227.9" y2="209.3"/>
			
				<ellipse transform="matrix(0.6746 -0.7382 0.7382 0.6746 -87.1585 228.9783)" class="st20" cx="216.1" cy="213.3" rx="1.4" ry="6.1"/>
			
				<ellipse transform="matrix(0.2959 -0.9552 0.9552 0.2959 -58.1038 351.3897)" class="st20" cx="209.3" cy="215.1" rx="6.1" ry="1.4"/>
			<path class="st21" d="M211.5,209.3c0,0,6,13.1,10,13.8"/>
			<path class="st21" d="M211.8,209.7c0,0,2.8,14.2,0.1,17"/>
			<path class="st17" d="M482.9,352.6c-1.1-3.7-4-6.9-8-9.3l4.5-5.7c0,0-5-4.2-10.7-4.4s-5.4,4.9-14.9,1.3s-14.5,0.9-14.5,0.9l4.5,8
				c-4,2.4-6.8,5.6-7.9,9.2c-0.3,0.7-0.5,1.5-0.5,2.3v9.8c0,4.6,5.7,8.4,12.6,8.4h22.7c6.9,0,12.6-3.8,12.6-8.4v-9.8
				C483.4,354.1,483.3,353.3,482.9,352.6z"/>
			<pattern  id="SVGID_4_" xlink:href="#New_Pattern_2" patternTransform="matrix(1 0 0 -1 22.85 -16838.3691)">
			</pattern>
			<path class="st24" d="M482.9,352.6c-1.1-3.7-4-6.9-8-9.3l4.5-5.7c0,0-5-4.2-10.7-4.4s-5.4,4.9-14.9,1.3s-14.5,0.9-14.5,0.9l4.5,8
				c-4,2.4-6.8,5.6-7.9,9.2c-0.3,0.7-0.5,1.5-0.5,2.3v9.8c0,4.6,5.7,8.4,12.6,8.4h22.7c6.9,0,12.6-3.8,12.6-8.4v-9.8
				C483.4,354.1,483.3,353.3,482.9,352.6z"/>
			<line class="st19" x1="443.9" y1="343.3" x2="474.9" y2="343.3"/>
			
				<ellipse transform="matrix(0.6746 -0.7382 0.7382 0.6746 -105.6861 454.9123)" class="st20" cx="463.1" cy="347.3" rx="1.5" ry="6"/>
			
				<ellipse transform="matrix(0.2959 -0.9552 0.9552 0.2959 -12.1806 681.6823)" class="st20" cx="456.3" cy="349.1" rx="6" ry="1.5"/>
			<path class="st21" d="M458.5,343.3c0,0,6,13.1,10,13.8"/>
			<path class="st21" d="M458.8,343.7c0,0,2.8,14.2,0,17"/>
			<path class="st16" d="M77.6,55.4c0.2-0.6,0.3-1.1,0.4-1.7c0.3-3.2,0.3-6.3,0-9.5c-0.2-1.9-0.5-2.1-0.8-2.1s-0.6,0.3-0.8,2.1
				c-0.2,1.6-0.2,3.2-0.2,4.8c0,1.6,0.1,3.2,0.2,4.8c0.1,0.6,0.2,1.2,0.4,1.7H67v68.4h20V55.4H77.6z M77.2,42.5
				c0.3,0.4,0.6,2.8,0.6,6.4s-0.3,6-0.6,6.4c-0.3-0.4-0.6-2.8-0.6-6.4S76.9,43,77.2,42.5z"/>
			<path class="st16" d="M403.6,233.4c0.2-0.6,0.3-1.1,0.4-1.7c0.3-3.2,0.3-6.3,0-9.5c-0.2-1.9-0.5-2.1-0.8-2.1s-0.6,0.3-0.8,2.1
				c-0.3,3.2-0.3,6.3,0,9.5c0.1,0.6,0.2,1.2,0.4,1.7H393v68.4h20v-68.4H403.6z M403.2,220.5c0.3,0.4,0.6,2.8,0.6,6.4s-0.4,6-0.6,6.4
				c-0.3-0.4-0.6-2.8-0.6-6.4S402.9,221,403.2,220.5L403.2,220.5z"/>
			<path class="st16" d="M226.6,404.4c0.2-0.6,0.3-1.1,0.4-1.7c0.3-3.2,0.3-6.3,0-9.5c-0.2-1.9-0.5-2.1-0.8-2.1s-0.6,0.3-0.8,2.1
				c-0.3,3.2-0.3,6.3,0,9.5c0.1,0.6,0.2,1.2,0.4,1.7H216v68.4h20v-68.4H226.6z M226.2,391.5c0.3,0.4,0.6,2.8,0.6,6.4s-0.4,6-0.6,6.4
				c-0.3-0.4-0.6-2.8-0.6-6.4S225.9,392,226.2,391.5L226.2,391.5z"/>
			<path class="st16" d="M362.6,517.4c0.2-0.6,0.3-1.1,0.4-1.7c0.3-3.2,0.3-6.3,0-9.5c-0.2-1.9-0.5-2.1-0.8-2.1s-0.6,0.3-0.8,2.1
				c-0.3,3.2-0.3,6.3,0,9.5c0.1,0.6,0.2,1.2,0.4,1.7H352v68.4h20v-68.4H362.6z M362.2,504.5c0.3,0.4,0.6,2.8,0.6,6.4s-0.4,6-0.6,6.4
				c-0.3-0.4-0.6-2.8-0.6-6.4S361.9,505,362.2,504.5L362.2,504.5z"/>
			<path class="st16" d="M203.6,364.4c0.2-0.6,0.3-1.1,0.4-1.7c0.3-3.2,0.3-6.3,0-9.5c-0.2-1.9-0.5-2.1-0.8-2.1s-0.6,0.3-0.8,2.1
				c-0.3,3.2-0.3,6.3,0,9.5c0.1,0.6,0.2,1.2,0.4,1.7H193v68.4h20v-68.4H203.6z M203.2,351.5c0.3,0.4,0.6,2.8,0.6,6.4s-0.4,6-0.6,6.4
				c-0.3-0.4-0.6-2.8-0.6-6.4S202.9,352,203.2,351.5L203.2,351.5z"/>
		</g>
	</g>
</g>
</svg>
