<svg xmlns="http://www.w3.org/2000/svg" viewBox="0 0 737 272.42"><title>bridge</title><g id="Layer_2" data-name="Layer 2"><g id="main"><g id="bridge"><path d="M687.3,31.34V58.56q-27.13-12.48-55.11-22.31v-.34h-1A633.51,633.51,0,0,0,524.28,8.56,668.25,668.25,0,0,0,338.11,4.72a729.43,729.43,0,0,0-155.81,36c-51.51,18-88.57,37.47-110.59,50.6l-2.59,1.56H69V93c-7,4.24-13.47,8.46-19.3,12.54V80H0V272.42H49.7V258.49c8.13-6.6,20.58-15.37,38.15-25.47,25-14.36,66.86-35.24,124.44-53.18,76.58-23.86,154.45-34.43,231.44-31.41A617.7,617.7,0,0,1,687.3,208.59v15.19H737V31.34ZM658,56.74V163.13q-12.82-5.06-25.81-9.53V46.85Q645.18,51.52,658,56.74Zm-73.62,82.35q-12.86-3.37-25.82-6.2V25.44q13.13,3,26.1,6.47h-.28Zm11-104.17q13,3.77,25.81,8.09V149.9q-12.84-4.18-25.81-7.83ZM484.94,13.42q13,1.34,25.81,3.18V124.36q-12.86-1.8-25.81-3.09Zm-11,106.84q-12.87-1.07-25.82-1.64V10.69q13,.59,25.82,1.7Zm-73.63-110v108q-12.88.35-25.81,1.15V11.46Q387.43,10.62,400.31,10.25Zm-43.18,2.54c2.13-.19,4.25-.35,6.37-.52V120.14q-12.88,1-25.81,2.51V14.84Q347.41,13.69,357.13,12.79ZM264.06,27.61q12.88-2.92,25.82-5.38V129.8q-13.22,2.41-25.82,5.19Zm-11,109.89q-13.29,3.15-25.81,6.6V37q12.85-3.65,25.81-6.82ZM300.88,20.23q12.89-2.24,25.81-4V124q-13.17,1.74-25.81,3.86ZM153.62,62.29q12.7-5.16,25.82-9.89V159q-13.56,4.76-25.82,9.61Zm-11,110.77c-9.26,3.84-17.87,7.64-25.81,11.33V78.91h-.66q12.85-6.22,26.47-12ZM49.7,221.31V117.86c4.89-3.65,11.26-8.08,19.3-13.13V209.28l-2.41,1.42C60.31,214.45,54.7,218,49.7,221.31ZM80,203v-105q6.82-4,14.91-8.35,5.36-2.88,10.9-5.69v105.6C95.91,194.47,87.28,199,80,203Zm110.44-47.76V48.53q8.19-2.81,16.47-5.43,4.67-1.47,9.34-2.87v107Q202.87,151.11,190.44,155.26ZM411.31,118V10.05q12.94-.13,25.81.24V118.23Q424.25,117.87,411.31,118Zm110.44,8V18.28q5.47.9,10.92,1.88c5,.9,9.94,1.88,14.89,2.9V130.59q-10.78-2.16-21.66-4C524.52,126.41,523.13,126.21,521.75,126ZM687.3,175.5q-9.1-4.09-18.3-7.91V61.35q9.19,4,18.3,8.22Z"/></g></g></g></svg>