<svg xmlns="http://www.w3.org/2000/svg" viewBox="0 0 826 177"><defs><style>.cls-1{fill:#fff;opacity:0.5;}</style></defs><title>clouds (2)</title><g id="Layer_2" data-name="Layer 2"><g id="main"><g id="clouds"><path class="cls-1" d="M456,32H290a17,17,0,0,0,9-15h0A17,17,0,0,0,282,0H140a17,17,0,0,0-17,17h0a17,17,0,0,0,17,17h62.66A28.1,28.1,0,0,0,185,60v1.76c0,.76,0,1.5.1,2.24H17A17,17,0,0,0,0,81v6a17,17,0,0,0,17,17H282a17,17,0,0,0,16.75-14.24H456a28.08,28.08,0,0,0,28-28V60A28.08,28.08,0,0,0,456,32Z"/><path class="cls-1" d="M791.5,88h-102A31.5,31.5,0,0,0,658,119.5h0a34.22,34.22,0,0,0,2.37,12.5H545.5A22.5,22.5,0,0,0,523,154.5h0A22.5,22.5,0,0,0,545.5,177h171A22.5,22.5,0,0,0,739,154.5h0c0-.17,0-.33,0-.5H794.5A31.5,31.5,0,0,0,826,122.5h0A34.59,34.59,0,0,0,791.5,88Z"/></g></g></g></svg>