<svg xmlns="http://www.w3.org/2000/svg" viewBox="0 0 220.3 226.86"><title>couple</title><g id="Layer_2" data-name="Layer 2"><g id="main"><g id="couple"><path d="M97.82,141c-.64-1.52-1-2.39-1-2.39s3.6,6,12,2c10.31-8.15,7.42-27.52,4.42-39.34a19.1,19.1,0,0,0,1.93-.28c5.19-1,9-3.66,8.6-5.93s-5-3.3-10.19-2.29a21.77,21.77,0,0,0-2.62.68c-.4-1.2-.66-1.88-.66-1.88S93.15,103.93,90.35,102s-9.45-7.92-9.45-7.92S77,93,73.75,91.83c-2.22-.8-2.16-4.29-1.89-6.45a11.06,11.06,0,0,0,1.52-.18c7.3-1.41,11.8-9.91,10-19A20.08,20.08,0,0,0,81.13,60a6,6,0,0,0,.42-3.47c-1-5.24-9.54-8-19.2-6.33a21.5,21.5,0,0,0-2.8-4.73c-4.1-5.28-9.65-7.84-12.39-5.72-1.94,1.51-1.95,5-.32,8.75-4.49-1.1-8.26-.54-9.38,1.72-1.47,3,2.21,7.83,8.28,11.07a5.47,5.47,0,0,0,0,2.17A5.81,5.81,0,0,0,47,66c-.36,1.24-.78,2.6-1.27,4a31.69,31.69,0,0,0-7.59,13.47c-1.07-.38-2.16-.75-3.26-1.08a45,45,0,0,0-13-2,27.11,27.11,0,0,0-3.72.3,20.19,20.19,0,0,0-4,1A15.63,15.63,0,0,0,9.6,84a13.42,13.42,0,0,0-3.88,4.64,13.54,13.54,0,0,0-1.36,5.89,16.31,16.31,0,0,0,.78,5,20.82,20.82,0,0,0,1.66,3.83,28.35,28.35,0,0,0,2,3.15,45.11,45.11,0,0,0,9.44,9.18c1.14.84,2.32,1.63,3.5,2.39-3.83,3.3-7.66,5.43-10.62,6C2.32,125.75,5.08,152.64,0,157.89c0,0,6.59-3.72,9.08-6.63,0,0-1.08,3.86-3.21,5.49s15.11,1,24.11-7.59c-1.13,2-3.72,6.9-1.33,5.62a46.71,46.71,0,0,0,12-9.95,70.45,70.45,0,0,1-12.82,21.68c-17,19.14-1.6,29.56-1.6,29.56s21.81-16.4,28.19,13.44,35,14,35.16,5.39,9.23-12.15,9.23-12.15,8.55,3.23,13.08-8c2.56-6.35-2.61-23.48-7.59-37.17,14.48,6.29,32.33,17.5,32.36,34.51l4.51-8.18,8.43,2.64S127.59,152.57,97.82,141ZM18.68,94.74v0Zm-.3.6h0Zm8,11a47,47,0,0,1-6.12-7.65,13.41,13.41,0,0,1-1.48-3.25,2.15,2.15,0,0,1-.06-.29A1.87,1.87,0,0,1,19,95a8.68,8.68,0,0,1,1.49-.45c.59-.14,1.29-.22,2-.32a47.39,47.39,0,0,1,9.78.29c1.33.15,2.68.36,4,.58a45.41,45.41,0,0,1-6.78,14.32C28.41,108.4,27.36,107.37,26.36,106.32Z"/><path d="M197.88,86.74c-3.58-2.26-9.16-45.09-28.89-41.65l.46-4.3a17.79,17.79,0,0,0,3.49-4,7.55,7.55,0,0,0,1.82-.18c8.29-1.87,7.16-16,2.36-23.6l-1.25-1.93c.19-.36.37-.73.53-1.12,1.6-4.12.4-8.43-2.68-9.63s-6.9,1.15-8.5,5.26c-.09.23-.16.45-.23.67a6.31,6.31,0,0,0-1.67.13l-19.51,4.41a6,6,0,0,0-2.93,10.08A18,18,0,0,0,159.59,45a12.25,12.25,0,0,1,1.28,5,34.47,34.47,0,0,1-.21,4c-3.95,7.79-11.25,22.47-13.4,28.93,0,0-20,0-21,6l.11.29c-3.79,1.56-6.28,4.26-5.55,6s4.26,2,8,.51l.43,1.16s3.5-.32,7.81-1.14A3.29,3.29,0,0,0,136,98.68c.49,2.15,3.94,3.21,7.71,2.36a11.86,11.86,0,0,0,1.91-.61l0,.17h0l.57,2.3s14.56-2.65,21.6-5.79c0,12.34.41,65.67,5.72,77.14a8,8,0,0,0,4.87,4.65c-1.26,4.09-.85,7.71,1.12,8.56,2.29,1,5.81-2.15,7.87-7a19.05,19.05,0,0,0,1.1-3.42,46.12,46.12,0,0,0,8.89-6.16,33.55,33.55,0,0,0,6,1.75c-.15.31-.3.62-.44,1-2.06,4.83-1.87,9.53.41,10.51s5.81-2.15,7.87-7a18.12,18.12,0,0,0,1.28-4.44,10.62,10.62,0,0,0,6.76-4.7C225.37,158.45,201.47,89,197.88,86.74Z"/></g></g></g></svg>