<svg xmlns="http://www.w3.org/2000/svg" viewBox="0 0 129.71 314"><defs><style>.cls-1{fill:#d2c3af;}.cls-2{fill:#f9e5bd;}.cls-3,.cls-9{fill:none;stroke:#000;stroke-miterlimit:10;}.cls-3{stroke-width:3px;}.cls-4{fill:#b31628;}.cls-5{fill:#eb5c83;}.cls-6{fill:#ffcad2;}.cls-7{fill:#c5e2b5;}.cls-8{fill:#ffe1e8;}</style></defs><title>girl</title><g id="Layer_2" data-name="Layer 2"><g id="main"><g id="girl"><rect class="cls-1" x="57.75" y="93" width="14" height="19"/><ellipse class="cls-2" cx="64.86" cy="55.77" rx="38.97" ry="48.23"/><path d="M77.64,28.62S69,75.56,28.93,74.45c0,0-5.59,15.5.16,29.55C29.09,104-13.72-8.44,77.64.51c0,0,54.94,10.86,26.19,103.49,0,0,3.2-18.53,0-30.66S77.64,56.73,77.64,28.62Z"/><path class="cls-3" d="M39.31,77.81s10.22,5.11,17.25,0"/><path class="cls-3" d="M89.78,77.81s-10.22,5.11-17.25,0"/><ellipse class="cls-2" cx="101.92" cy="72.06" rx="5.11" ry="7.67"/><ellipse class="cls-4" cx="63.9" cy="97.93" rx="4.15" ry="1.6"/><polygon class="cls-5" points="51.75 111 57.75 105 64.75 112 72.25 104.5 80.25 112.5 65.75 127 51.75 111"/><path class="cls-6" d="M88.45,128.32l4.62-6.91a7,7,0,0,0-1.93-9.71l-6.66-4.44a7,7,0,0,0-9.71,1.93l-9,13.5-9-13.5A7,7,0,0,0,47,107.26l-6.66,4.44a7,7,0,0,0-1.93,9.71l4.77,7.13A12.05,12.05,0,0,0,34.75,140V302a12,12,0,0,0,12,12h39a12,12,0,0,0,12-12V140A12,12,0,0,0,88.45,128.32Z"/><rect class="cls-5" x="32.75" y="151" width="67" height="35" rx="3" ry="3"/><rect class="cls-7" x="30.75" y="163" width="71" height="10" rx="3" ry="3"/><ellipse class="cls-2" cx="49.25" cy="144.5" rx="18.5" ry="7.5" transform="matrix(0.87, -0.5, 0.5, 0.87, -65.65, 43.98)"/><path class="cls-6" d="M48.75,142c0-4-10.5-26-10.5-26S1.75,144,.75,151Z"/><path class="cls-8" d="M.75,151c-2,2,0,62,6,70s32-2,37-4,5-68,5-75C49.75,123,2.75,149,.75,151Z"/><ellipse class="cls-2" cx="80.46" cy="144.5" rx="7.5" ry="18.5" transform="translate(-84.91 141.93) rotate(-60)"/><path class="cls-6" d="M81,142c0-4,10.5-26,10.5-26S128,144,129,151Z"/><path class="cls-8" d="M129,151c2,2,0,62-6,70s-32-2-37-4-5-68-5-75C80,123,127,149,129,151Z"/><line class="cls-9" x1="73.75" y1="61" x2="90.75" y2="63"/></g></g></g></svg>