<svg xmlns="http://www.w3.org/2000/svg" viewBox="0 0 275.5 124.35"><defs><style>.cls-1{fill:#ffea94;}</style></defs><title>stars1</title><g id="Layer_2" data-name="Layer 2"><g id="main"><g id="stars1"><polygon class="cls-1" points="70.56 79.24 71.56 55.54 52.62 41.28 75.46 34.91 83.17 12.48 96.29 32.24 120 32.65 105.26 51.23 112.2 73.9 89.98 65.62 70.56 79.24"/><polygon class="cls-1" points="39.67 16.44 28.77 25.09 29.71 38.99 18.11 31.29 5.2 36.48 8.93 23.07 0 12.39 13.91 11.79 21.31 0 26.17 13.05 39.67 16.44"/><polygon class="cls-1" points="275.5 93.54 253.14 101.44 246.97 124.35 232.54 105.53 208.86 106.74 222.3 87.2 213.82 65.05 236.56 71.8 255.01 56.89 255.62 80.6 275.5 93.54"/><polygon class="cls-1" points="189.65 14.23 185.59 17.64 186.09 22.91 181.6 20.1 176.74 22.21 178.02 17.07 174.52 13.1 179.8 12.73 182.49 8.17 184.47 13.08 189.65 14.23"/></g></g></g></svg>