<svg xmlns="http://www.w3.org/2000/svg" viewBox="0 0 211.49 204.61"><defs><style>.cls-1{fill:#ffea94;}</style></defs><title>stars 3</title><g id="Layer_2" data-name="Layer 2"><g id="main"><g id="stars_3" data-name="stars 3"><polygon class="cls-1" points="180.03 91 192.13 97.89 204.66 91.83 201.85 105.46 211.49 115.51 197.65 117.05 191.07 129.32 185.33 116.64 171.63 114.17 181.92 104.79 180.03 91"/><polygon class="cls-1" points="183.7 189.26 187.94 192.62 193.1 191.03 191.22 196.1 194.33 200.52 188.93 200.29 185.68 204.62 184.23 199.41 179.12 197.66 183.62 194.67 183.7 189.26"/><polygon class="cls-1" points="44.64 102.08 40.59 105.48 41.09 110.75 36.6 107.95 31.74 110.05 33.02 104.91 29.52 100.94 34.8 100.58 37.49 96.02 39.47 100.93 44.64 102.08"/><polygon class="cls-1" points="158.65 148.29 154.59 151.69 155.09 156.96 150.6 154.16 145.75 156.26 147.03 151.12 143.52 147.15 148.81 146.79 151.5 142.23 153.48 147.14 158.65 148.29"/><polygon class="cls-1" points="36.51 0 48.6 6.89 61.14 0.83 58.33 14.46 67.97 24.51 54.13 26.05 47.55 38.32 41.81 25.64 28.11 23.17 38.4 13.79 36.51 0"/><polygon class="cls-1" points="15.13 57.29 11.07 60.69 11.57 65.96 7.08 63.16 2.22 65.26 3.51 60.12 0 56.15 5.28 55.79 7.98 51.23 9.96 56.14 15.13 57.29"/></g></g></g></svg>