<svg xmlns="http://www.w3.org/2000/svg" viewBox="0 0 120 118.89"><defs><style>.cls-1{fill:#ffea94;}</style></defs><title>stars 2</title><g id="Layer_2" data-name="Layer 2"><g id="main"><g id="stars_2" data-name="stars 2"><polygon class="cls-1" points="70.56 79.24 71.56 55.54 52.62 41.28 75.46 34.91 83.17 12.48 96.29 32.24 120 32.65 105.26 51.23 112.2 73.9 89.98 65.62 70.56 79.24"/><polygon class="cls-1" points="39.67 16.44 28.77 25.09 29.71 38.99 18.11 31.29 5.2 36.48 8.93 23.07 0 12.39 13.91 11.79 21.31 0 26.17 13.05 39.67 16.44"/><polygon class="cls-1" points="115.93 110.83 111.24 113.51 110.78 118.89 106.79 115.25 101.52 116.49 103.75 111.56 100.95 106.94 106.32 107.53 109.86 103.44 110.95 108.73 115.93 110.83"/></g></g></g></svg>