<svg xmlns="http://www.w3.org/2000/svg" viewBox="0 0 48 196"><defs><style>.cls-1{fill:#eb5c83;}</style></defs><title>charm (2)</title><g id="Layer_2" data-name="Layer 2"><g id="landing"><g id="charm"><path class="cls-1" d="M25.54,32a17.13,17.13,0,0,0,.87-4.12A97,97,0,0,0,27,16.5a97,97,0,0,0-.59-11.38C25.85.62,25.16,0,24.5,0s-1.35.62-1.91,5.12A97,97,0,0,0,22,16.5a97,97,0,0,0,.59,11.38A17.13,17.13,0,0,0,23.46,32H0V196H48V32Zm-1-30.9c.65,1,1.5,6.71,1.5,15.4s-.85,14.37-1.5,15.4c-.65-1-1.5-6.71-1.5-15.4S23.85,2.13,24.5,1.1ZM20.7,61.7l1,.07a2.62,2.62,0,0,0,1.05-.19,6.8,6.8,0,0,0,2.75-.91.71.71,0,0,0,.24-.17.29.29,0,0,1,.21-.12.15.15,0,0,0,0,.06s.16-.13.48-.4a2.27,2.27,0,0,1,1-.54,2,2,0,0,1,.9,0q.33.09.36.21c.15.27,0,.73-.55,1.38-1.53,1.9-4.07,2.87-7.6,2.93a3.28,3.28,0,0,1-1.3-.43c-.38-.23-.63-.38-.72-.45L18,62.75l-.43-.3a4.08,4.08,0,0,1-1-2.2,5.09,5.09,0,0,1,.12-2,10.35,10.35,0,0,1,.63-2.07A32.45,32.45,0,0,1,19.72,52l.16-.2a8.29,8.29,0,0,1,.72-1.55c.42-.45.53-.8.35-1.05s.2-.54.95-1.17A5.65,5.65,0,0,1,23,47.25a2.25,2.25,0,0,1,1.16-.51c.39,0,.61,0,.67.24a2,2,0,0,0,.83-.07l.81-.16a3.74,3.74,0,0,1,1.68-.4l1.75-.05c.12,0,.29,0,.51.22a1.93,1.93,0,0,1,.53.72.6.6,0,0,1-.29.77,4,4,0,0,1-1.75.49c-.85.1-1.61.22-2.29.36l-1.4.29-.5.1-.36.11a1.34,1.34,0,0,0-.38.19,4.52,4.52,0,0,0-.67.8,7.33,7.33,0,0,0-1,1.7c-.12.17-.38.52-.79,1.06s-.57.87-.49,1c.45.09.72.15.81.15A6.15,6.15,0,0,1,23,54c2.27-.58,3.57-.9,3.91-1a.51.51,0,0,1,.68,0,1.9,1.9,0,0,1,.58.87.64.64,0,0,1-.24.86,9.23,9.23,0,0,1-2.14.66c-1.12.26-2,.47-2.61.64s-1.1.29-1.45.37a5.38,5.38,0,0,1-.95.16,1.37,1.37,0,0,1-.63-.08.32.32,0,0,1-.17-.35c-.18-.08-.39.12-.62.62a6.28,6.28,0,0,0-.63,2.71,1.44,1.44,0,0,0,.08.57A2.59,2.59,0,0,0,20.7,61.7Zm4.88,29.72c.45,0,1.26-2.39,2.45-7.17a19.33,19.33,0,0,0,.64-3.3,30.78,30.78,0,0,0,.8-3.35v-.55c.07,0,.14-.11.22-.32a2.78,2.78,0,0,0,.11-.83,1.17,1.17,0,0,1,.35-.85.89.89,0,0,1,1.13-.45,1,1,0,0,1,.82.79,16.91,16.91,0,0,1-.68,3.86,11.17,11.17,0,0,1-.31,1.66c-.21.91-.34,1.56-.41,1.94-.17,1.08-.32,1.61-.45,1.57a45.24,45.24,0,0,1-2.63,8,3,3,0,0,1-1.53,1.78,1.48,1.48,0,0,1-1.74-.65,6.91,6.91,0,0,1-1.1-2,15.49,15.49,0,0,1-.58-2.91A34.37,34.37,0,0,1,22.2,83c0-1.59,0-2.4-.2-2.42s-.37.42-.66,1.28-.65,1.8-1.08,2.86-.64,1.62-.66,1.69a8.91,8.91,0,0,0-.68,1.82c-.66,1.77-1.14,3.22-1.45,4.36s-.5,1.87-.62,2.18a1.19,1.19,0,0,1-.38.59c-.13.08-.41,0-.85-.22a1.35,1.35,0,0,1-.76-1A2.75,2.75,0,0,1,15,92.72a15.09,15.09,0,0,1,.65-1.81,11.58,11.58,0,0,0,.68-2.16c.56-1.32,1-2.53,1.37-3.63,0-.08.43-1,1.25-2.79a22.18,22.18,0,0,1,2.4-4.91,1.32,1.32,0,0,1,1.37-.65,1.26,1.26,0,0,1,1.18.85,15.8,15.8,0,0,1,.55,5c0,.71,0,1.23,0,1.54s.05.73.08,1.23a10,10,0,0,0,.33,2.27c0,.24.09.71.17,1.43C25.25,90.63,25.42,91.42,25.58,91.42ZM26.5,109a8.31,8.31,0,0,1-1,.08,8.89,8.89,0,0,1-.5,1.22c-.06.18-.11.38-.18.6a5.16,5.16,0,0,0-.25.82,19.58,19.58,0,0,0-.85,2.37L23,116.38l-1.2,3.27a11.49,11.49,0,0,0-.86,2.26,11.85,11.85,0,0,1-.59,1.78,1.32,1.32,0,0,1-.36.53,1.12,1.12,0,0,1-.48.11.79.79,0,0,1-.65-.41,1.29,1.29,0,0,1-.28-.88,8.64,8.64,0,0,1,.41-1.76,16.66,16.66,0,0,1,.71-2,6.82,6.82,0,0,1,.19-.71,3.2,3.2,0,0,0,.11-.42,2.18,2.18,0,0,0,.41-1c.09-.45.7-2.41,1.81-5.9a4.37,4.37,0,0,0,.43-.94.6.6,0,0,0,.2-.53l.18-.37a.08.08,0,0,1,.11,0s.09,0,.16-.07h0l-3.45.34a2,2,0,0,1-1.36-.23.75.75,0,0,1-.3-.77c.11-.41.58-.7,1.43-.87.33-.08,1.12-.2,2.35-.35s2.71-.3,4.88-.45c.14,0,.5,0,1.07.11a7.19,7.19,0,0,1,1.2.24,1.64,1.64,0,0,1,1.37,1.2.55.55,0,0,1-.27.72l-.55.17-.55.16a1,1,0,0,1-.55,0,2.73,2.73,0,0,0-.3-.22A5.54,5.54,0,0,0,26.5,109Zm-5.8,42.7,1,.08a2.62,2.62,0,0,0,1.05-.2,6.8,6.8,0,0,0,2.75-.91.71.71,0,0,0,.24-.17.29.29,0,0,1,.21-.12l0,.06.48-.4a2.27,2.27,0,0,1,1-.54,2,2,0,0,1,.9,0q.33.09.36.21c.15.27,0,.73-.55,1.38-1.53,1.9-4.07,2.87-7.6,2.92a3.12,3.12,0,0,1-1.3-.42c-.38-.23-.63-.38-.72-.45l-.52-.35-.43-.3a4.08,4.08,0,0,1-1-2.2,5,5,0,0,1,.12-2,10.27,10.27,0,0,1,.63-2.08A32.45,32.45,0,0,1,19.72,142l.16-.2a8.29,8.29,0,0,1,.72-1.55c.42-.45.53-.8.35-1s.2-.54.95-1.18a6.11,6.11,0,0,1,1.05-.72,2.25,2.25,0,0,1,1.16-.51c.39,0,.61,0,.67.23a1.69,1.69,0,0,0,.83-.06l.81-.16a3.74,3.74,0,0,1,1.68-.4l1.75,0c.12,0,.29,0,.51.23a1.82,1.82,0,0,1,.53.71.6.6,0,0,1-.29.77,4,4,0,0,1-1.75.49c-.85.1-1.61.22-2.29.36l-1.4.29-.5.1-.36.11a1.34,1.34,0,0,0-.38.19,4.52,4.52,0,0,0-.67.8,7.33,7.33,0,0,0-1,1.7c-.12.17-.38.52-.79,1.06s-.57.86-.49,1a7.3,7.3,0,0,0,.81.14A7.56,7.56,0,0,1,23,144c2.27-.58,3.57-.9,3.91-.95a.5.5,0,0,1,.68,0,1.82,1.82,0,0,1,.58.86.64.64,0,0,1-.24.86,9.23,9.23,0,0,1-2.14.66c-1.12.26-2,.47-2.61.64s-1.1.29-1.45.37a5.38,5.38,0,0,1-.95.16,1.37,1.37,0,0,1-.63-.08.32.32,0,0,1-.17-.35c-.18-.08-.39.13-.62.63a6.2,6.2,0,0,0-.63,2.69,1.49,1.49,0,0,0,.08.58A2.59,2.59,0,0,0,20.7,151.7Zm1.65,14.6a6.67,6.67,0,0,1,4.75.53,5.54,5.54,0,0,1,1.74,1.56,3.09,3.09,0,0,1,.62,1.7,5.07,5.07,0,0,1-.21,1.56,6.83,6.83,0,0,1-2,2.36,12.17,12.17,0,0,1-3,2,13.44,13.44,0,0,1-3.32,1.25,16.34,16.34,0,0,0,3.9,4.58,11.33,11.33,0,0,0,2.32,1.65c.13.15.13.43,0,.85s-.25.64-.35.67a1.85,1.85,0,0,1-1.7-.35,19.41,19.41,0,0,1-4.67-4.07,3.4,3.4,0,0,1-.58-.83c-.13-.26-.22-.44-.27-.52a8,8,0,0,1-.48-1.12q-.75,2.52-2.22,6.42c0,.18-.28.27-.68.26a1.59,1.59,0,0,1-1-.34c-.27-.26-.4-.46-.4-.59a9.85,9.85,0,0,1,.7-1.78,8,8,0,0,1,.72-2.08c.09-.28.74-1.92,2-4.91s2.09-5,2.61-6.16a.54.54,0,0,0-.09-.54.67.67,0,0,0-.58-.26.94.94,0,0,1-.29-.59.43.43,0,0,1,.26-.43Zm3.43,2.12a5.58,5.58,0,0,0-2-.27c-.33.07-.55.34-.67.82a1.78,1.78,0,0,1-.2.45,23.08,23.08,0,0,0-1,2.36c-1,2-1.48,3-1.49,3.14a.3.3,0,0,0,.06.25,12.13,12.13,0,0,0,2.72-.89q4.08-1.91,3.95-4a2.41,2.41,0,0,0-1.34-1.88Z"/></g></g></g></svg>