<svg xmlns="http://www.w3.org/2000/svg" viewBox="0 0 853.23 760.89"><defs><style>.cls-1{opacity:0.5;}.cls-2{fill:#97d3ff;}</style></defs><title>circle</title><g id="Layer_2" data-name="Layer 2"><g id="landing"><g id="circle"><g class="cls-1"><path class="cls-2" d="M424.38,760.89A506,506,0,0,1,272.1,737.28c-12.34-4-24.57-8.36-36.58-13.39L231,722.07c-1.49-.64-3-1.34-4.45-2l-8.91-4-4.46-2c-1.47-.7-2.91-1.47-4.37-2.2l-8.73-4.46a412.47,412.47,0,0,1-66-42.94,367.6,367.6,0,0,1-56.64-55.84A349.18,349.18,0,0,1,34.24,541,340.56,340.56,0,0,1,7.78,465,335.55,335.55,0,0,1,.1,384.94a347.52,347.52,0,0,1,3.29-40,340.9,340.9,0,0,1,8-39.24,361,361,0,0,1,28.79-74,394.92,394.92,0,0,1,43.28-65.73c8.25-10.15,16.92-19.93,26.08-29.22s18.61-18.25,28.58-26.59a454.24,454.24,0,0,1,63.3-45.32l8.43-4.88c1.41-.8,2.8-1.64,4.23-2.42l4.32-2.24L227,50.75c1.44-.75,2.87-1.53,4.32-2.25l4.41-2.07,8.83-4.12L249,40.25l4.49-1.88,9-3.76,4.5-1.88,4.58-1.68A477.15,477.15,0,0,1,424.38.26a455.32,455.32,0,0,1,78.72,4.1c3.29.35,6.53,1,9.79,1.52l9.77,1.66c1.62.3,3.27.51,4.88.89l4.85,1.05,9.7,2.11c12.87,3.08,25.67,6.61,38.25,10.87s25,9,37.15,14.48a397.26,397.26,0,0,1,35.67,18,421.36,421.36,0,0,1,65.53,46c2.56,2.15,5.15,4.28,7.61,6.56s5,4.47,7.4,6.8,4.88,4.6,7.24,7,4.78,4.72,7.08,7.16a395.74,395.74,0,0,1,26.49,30.44,377.91,377.91,0,0,1,42.83,68.6A354.69,354.69,0,0,1,772.11,609.1,369,369,0,0,1,745,638.55a358.76,358.76,0,0,1-29.92,26.23,417.77,417.77,0,0,1-66.2,42.87l-8.75,4.44c-1.46.73-2.9,1.5-4.38,2.21l-4.46,2-8.91,4c-1.49.67-3,1.36-4.46,2l-4.54,1.82c-12,5-24.27,9.43-36.62,13.39A501,501,0,0,1,424.38,760.89Zm0-3.9a394.59,394.59,0,0,0,148.81-29.26A391.24,391.24,0,0,0,698,645.29a385.05,385.05,0,0,0,83.82-119.76,346.71,346.71,0,0,0,22.48-68.83A336.36,336.36,0,0,0,809.84,421a344.67,344.67,0,0,0,1.7-36.07,338.14,338.14,0,0,0-8-71.59A342.57,342.57,0,0,0,780.41,245a357.63,357.63,0,0,0-86-116.31C658.13,95.84,615.48,70.07,569.62,52L561,48.67,556.64,47c-1.45-.52-2.93-1-4.39-1.48l-8.8-2.92-4.4-1.47c-1.47-.48-3-.86-4.45-1.29l-8.93-2.56L521.2,36c-1.48-.46-3-.75-4.51-1.13l-9.05-2.17c-3-.7-6-1.51-9.08-2a445.93,445.93,0,0,0-74.18-9.06,427.72,427.72,0,0,0-75.05,4c-3.13.34-6.21.95-9.31,1.48l-9.29,1.65c-1.54.3-3.11.5-4.64.88l-4.6,1-9.21,2.08c-12.22,3-24.36,6.47-36.26,10.64s-23.64,8.79-35.09,14.1a376.75,376.75,0,0,0-94.56,62.07A341.26,341.26,0,0,0,38.31,311.78a346.16,346.16,0,0,0-4.73,36.49,350.68,350.68,0,0,0-.92,36.67,359.38,359.38,0,0,0,9.23,72.35,364.07,364.07,0,0,0,23.63,68.92,388.84,388.84,0,0,0,36.65,63.42A404.74,404.74,0,0,0,275.46,728,391.33,391.33,0,0,0,424.38,757Z"/></g><g class="cls-1"><path class="cls-2" d="M424.38,28A481.79,481.79,0,0,1,569.09,49.78l4.43,1.35c1.47.45,2.91,1,4.37,1.5l8.74,3L591,57.2c1.47.5,2.87,1.13,4.32,1.69l8.61,3.44c5.81,2.17,11.37,4.88,17.05,7.39s11.18,5.38,16.76,8.16a397.39,397.39,0,0,1,63.14,40.36A333.77,333.77,0,0,1,729.48,143a350.86,350.86,0,0,1,25.93,27.86,335.35,335.35,0,0,1,43.4,362.85c-22.54,46.35-55.36,87.33-94.34,120A401,401,0,0,1,642,697.25c-5.57,3-11,6.25-16.78,9s-11.33,5.68-17.19,8.08L599.3,718c-1.46.61-2.89,1.3-4.38,1.84l-4.44,1.66-8.88,3.31c-1.48.54-3,1.13-4.45,1.62l-4.51,1.46-9,2.89c-1.5.47-3,1-4.51,1.41l-4.57,1.23-9.13,2.44-4.56,1.22-4.61,1-9.22,2-4.61,1c-1.54.31-3.1.53-4.64.81l-9.29,1.56c-3.1.52-6.18,1.08-9.3,1.41a436.05,436.05,0,0,1-74.81,3.72,458,458,0,0,1-145.17-29.28l-4.34-1.59c-1.45-.54-2.86-1.18-4.28-1.77l-8.54-3.57c-5.74-2.27-11.26-5-16.86-7.62s-11-5.54-16.51-8.36-10.79-6-16.14-9a436,436,0,0,1-60.26-42.83c-37.77-31.76-70.16-70.61-93.61-115A340.48,340.48,0,0,1,31,459.29,320,320,0,0,1,23.3,422a327.22,327.22,0,0,1-3.2-38.05,315.72,315.72,0,0,1,7.32-76.18A321.16,321.16,0,0,1,52.77,235.5a329.44,329.44,0,0,1,41.3-64.08,337.13,337.13,0,0,1,25.71-27.94,326.23,326.23,0,0,1,28.45-24.83,392.64,392.64,0,0,1,63-40.45c5.56-2.78,11-5.72,16.73-8.16s11.23-5.23,17-7.4l8.6-3.44c1.44-.56,2.84-1.19,4.31-1.69L262.26,56l8.73-3c1.46-.5,2.89-1,4.36-1.51l4.42-1.34A487.36,487.36,0,0,1,424.38,28Zm0,3.9a368.41,368.41,0,0,0-259.8,105.5,374.16,374.16,0,0,0-45.78,53,368.64,368.64,0,0,0-34.79,60,344.15,344.15,0,0,0-22.5,65.15,340,340,0,0,0-8.85,68.42,334.65,334.65,0,0,0,5.27,69.23,321.52,321.52,0,0,0,102.6,182,345.58,345.58,0,0,0,58,42.11c5.21,2.94,10.33,6,15.72,8.66s10.63,5.5,16.15,7.82l8.19,3.66c1.38.59,2.72,1.25,4.12,1.78l4.18,1.62,8.37,3.22c1.4.52,2.78,1.1,4.2,1.58l4.25,1.41,8.51,2.83c1.42.46,2.83.94,4.26,1.38l4.32,1.19,8.64,2.39,4.31,1.2,4.37,1,8.73,2,4.37,1c1.46.31,2.94.53,4.4.8l8.81,1.55c2.94.52,5.87,1,8.83,1.37a406.65,406.65,0,0,0,71.16,3.64,426,426,0,0,0,70.29-8.68c2.9-.51,5.75-1.24,8.61-1.93l8.57-2.07c1.42-.35,2.86-.66,4.27-1.05l4.23-1.23,8.46-2.44c11.24-3.34,22.3-7.19,33.17-11.46C605.44,681.27,645.86,657,680.23,626a337.63,337.63,0,0,0,81.7-109.8,323,323,0,0,0,21.94-64.57,318.32,318.32,0,0,0,7.67-67.65,323.61,323.61,0,0,0-1.61-34.11,315.12,315.12,0,0,0-5.28-33.72,326.11,326.11,0,0,0-21.35-65.05,364.56,364.56,0,0,0-79.48-113.27A368.9,368.9,0,0,0,424.38,31.89Z"/></g><ellipse class="cls-2" cx="424.38" cy="383.94" rx="391.15" ry="354"/></g></g></g></svg>