<svg xmlns="http://www.w3.org/2000/svg" viewBox="0 0 398 257"><defs><style>.cls-1{fill:#fff;}</style></defs><title>clouds</title><g id="Layer_2" data-name="Layer 2"><g id="landing"><g id="clouds"><path class="cls-1" d="M352.53,136.09A54.92,54.92,0,0,0,298,74a54.8,54.8,0,0,0-25.43,6.23A66.5,66.5,0,1,0,142.21,53.91a52.51,52.51,0,0,0-77.13,62.32,70.49,70.49,0,1,0,58.05,117.16C138.9,248,160.8,257,185,257a91.68,91.68,0,0,0,55.79-18.5,56,56,0,0,0,84.08-28A56.39,56.39,0,0,0,349.5,216c26.79,0,48.5-17.91,48.5-40C398,154.75,377.9,137.38,352.53,136.09Z"/></g></g></g></svg>