<svg xmlns="http://www.w3.org/2000/svg" viewBox="0 0 808.71 239.77"><defs><style>.cls-1{fill:#ffea94;}</style></defs><title>stars</title><g id="Layer_2" data-name="Layer 2"><g id="landing"><g id="stars"><polygon class="cls-1" points="747.54 171.68 735.51 192.13 745.54 213.62 722.38 208.5 705.03 224.68 702.74 201.07 682 189.57 703.75 180.1 708.27 156.82 724 174.57 747.54 171.68"/><polygon class="cls-1" points="65.54 146.68 53.51 167.13 63.54 188.62 40.38 183.5 23.03 199.68 20.74 176.07 0 164.57 21.75 155.1 26.27 131.82 42 149.57 65.54 146.68"/><polygon class="cls-1" points="727.28 70.63 740.98 68.11 746.67 55.41 753.29 67.65 767.14 69.14 757.54 79.22 760.4 92.85 747.84 86.83 735.77 93.77 737.61 79.97 727.28 70.63"/><polygon class="cls-1" points="63.28 216.63 76.98 214.11 82.67 201.41 89.29 213.65 103.14 215.14 93.54 225.22 96.4 238.85 83.84 232.83 71.77 239.77 73.61 225.97 63.28 216.63"/><polygon class="cls-1" points="664.05 0 676.09 7.01 688.68 1.07 685.73 14.67 695.27 24.82 681.42 26.22 674.73 38.43 669.11 25.69 655.43 23.09 665.81 13.81 664.05 0"/><polygon class="cls-1" points="635.33 112.47 640.74 112.31 643.67 107.78 645.49 112.86 650.71 114.25 646.43 117.55 646.73 122.95 642.27 119.9 637.23 121.85 638.75 116.66 635.33 112.47"/><polygon class="cls-1" points="793.33 143.47 798.74 143.31 801.67 138.78 803.49 143.86 808.71 145.25 804.43 148.55 804.73 153.95 800.27 150.9 795.23 152.85 796.75 147.66 793.33 143.47"/><polygon class="cls-1" points="40.33 97.47 45.73 97.31 48.67 92.78 50.49 97.86 55.71 99.25 51.43 102.55 51.73 107.95 47.27 104.9 42.23 106.85 43.74 101.66 40.33 97.47"/><polygon class="cls-1" points="630.79 166.23 629.87 171.45 633.65 175.16 628.41 175.9 626.04 180.64 623.72 175.88 618.48 175.1 622.29 171.42 621.41 166.19 626.09 168.68 630.79 166.23"/><polygon class="cls-1" points="747.79 128.23 746.87 133.45 750.65 137.16 745.41 137.9 743.04 142.64 740.72 137.88 735.48 137.1 739.29 133.42 738.41 128.19 743.09 130.68 747.79 128.23"/></g></g></g></svg>