<svg xmlns="http://www.w3.org/2000/svg" viewBox="0 0 147.56 588"><defs><style>.cls-1{fill:#5d2584;}.cls-2,.cls-4{fill:none;}.cls-2{stroke:#ebf;stroke-width:7.27px;}.cls-2,.cls-4,.cls-5{stroke-miterlimit:10;}.cls-3{fill:#ebf;}.cls-4{stroke:#5d2584;}.cls-4,.cls-5{stroke-width:8.08px;}.cls-5,.cls-6{fill:#eb5c83;}.cls-5{stroke:#eb5c83;}</style></defs><title>fukinashi</title><g id="Layer_2" data-name="Layer 2"><g id="close_up_bamboo" data-name="close up bamboo"><g id="fukinashi"><circle class="cls-1" cx="66.17" cy="42.64" r="42.64"/><path class="cls-2" d="M98,95.92s3.23,198.77,33.94,273.92S124.67,491,124.67,491"/><path class="cls-1" d="M102.85,285.37V93.93a14.54,14.54,0,1,0-10.1-27,14.45,14.45,0,0,0-14.14.24A14.44,14.44,0,0,0,62.85,68a14.47,14.47,0,0,0-15.35-1,14.54,14.54,0,1,0-10.1,27V285.37a14.53,14.53,0,0,0,0,28.34V588h6.47V313.71a14.31,14.31,0,0,0,3.63-1.37,14.24,14.24,0,0,0,3.64,1.37V588H57.6V313.71a14.41,14.41,0,0,0,5.25-2.38,14.53,14.53,0,0,0,5.26,2.38V588h6.46V313.71a14.51,14.51,0,0,0,4-1.6,14.51,14.51,0,0,0,4,1.6V588h6.46V313.71a14.24,14.24,0,0,0,3.64-1.37,14.24,14.24,0,0,0,3.64,1.37V588h6.46V313.71a14.53,14.53,0,0,0,0-28.34Zm-28.28,0V93.93a14.51,14.51,0,0,0,4-1.6,14.51,14.51,0,0,0,4,1.6V285.37a14.21,14.21,0,0,0-4,1.6A14.21,14.21,0,0,0,74.57,285.37Zm14.54,0V93.93a14.24,14.24,0,0,0,3.64-1.37,14.24,14.24,0,0,0,3.64,1.37V285.37a14.24,14.24,0,0,0-3.64,1.37A14.24,14.24,0,0,0,89.11,285.37Zm-21,0a14.37,14.37,0,0,0-5.26,2.38,14.25,14.25,0,0,0-5.25-2.38V93.93a14.41,14.41,0,0,0,5.25-2.38,14.53,14.53,0,0,0,5.26,2.38Zm-24.24,0V93.93a14.31,14.31,0,0,0,3.63-1.37,14.24,14.24,0,0,0,3.64,1.37V285.37a14.24,14.24,0,0,0-3.64,1.37A14.31,14.31,0,0,0,43.87,285.37Z"/><path class="cls-3" d="M94.77,285.37V93.93a14.55,14.55,0,1,0-6.46,0V285.37a14.53,14.53,0,0,0,0,28.34V588h6.46V313.71a14.53,14.53,0,0,0,0-28.34Z"/><path class="cls-3" d="M35.78,285.37V93.93a14.54,14.54,0,1,0-6.46,0V285.37a14.53,14.53,0,0,0,0,28.34V588h6.46V313.71a14.53,14.53,0,0,0,0-28.34Z"/><path class="cls-4" d="M30.13,92.69S35,234.09,3.46,286.61"/><path class="cls-5" d="M57.6,311.29S8.31,547.6,30.13,585.58"/><path class="cls-3" d="M66.49,285.37V93.93a14.55,14.55,0,1,0-6.46,0V285.37a14.53,14.53,0,0,0,0,28.34V588h6.46V313.71a14.53,14.53,0,0,0,0-28.34Z"/><path class="cls-6" d="M49.52,285.37V93.93a14.55,14.55,0,1,0-6.46,0V285.37a14.53,14.53,0,0,0,0,28.34V588h6.46V313.71a14.53,14.53,0,0,0,0-28.34Z"/><path class="cls-6" d="M81,285.37V93.93a14.54,14.54,0,1,0-6.46,0V285.37a14.53,14.53,0,0,0,0,28.34V588H81V313.71a14.53,14.53,0,0,0,0-28.34Z"/></g></g></g></svg>