<svg xmlns="http://www.w3.org/2000/svg" xmlns:xlink="http://www.w3.org/1999/xlink" viewBox="0 0 336.69 281"><defs><style>.cls-1,.cls-7,.cls-8,.cls-9{fill:none;}.cls-2{fill:#d2c3af;}.cls-3{fill:#faf2d3;}.cls-4{fill:#ff9d00;}.cls-5{fill:#b31628;}.cls-6{opacity:0.5;fill:url(#New_Pattern_2);}.cls-7,.cls-8,.cls-9{stroke:#60332f;stroke-miterlimit:10;}.cls-7,.cls-9{stroke-linecap:round;}.cls-7{stroke-width:11.52px;}.cls-8{stroke-width:8.86px;}.cls-9{stroke-width:7.97px;}</style><pattern id="New_Pattern_2" data-name="New Pattern 2" width="103.15" height="98.81" patternUnits="userSpaceOnUse" viewBox="0 0 103.15 98.81"><rect class="cls-1" width="103.15" height="98.81"/><polygon class="cls-2" points="77.36 74.29 85.33 90.44 103.15 93.03 90.26 105.59 93.3 123.34 77.36 114.96 61.43 123.34 64.47 105.59 51.58 93.03 69.4 90.44 77.36 74.29"/><polygon class="cls-3" points="62.13 74.11 77.87 82.86 94 74.85 90.55 92.52 103.15 105.38 85.27 107.56 76.93 123.52 69.34 107.19 51.58 104.19 64.76 91.92 62.13 74.11"/><polygon class="cls-4" points="81.72 106.47 77.04 102.64 71.95 105.91 74.14 100.28 69.46 96.45 75.5 96.8 77.69 91.16 79.23 97.01 85.27 97.35 80.18 100.62 81.72 106.47"/><polygon class="cls-2" points="25.79 74.29 33.76 90.44 51.58 93.03 38.68 105.59 41.73 123.34 25.79 114.96 9.85 123.34 12.89 105.59 0 93.03 17.82 90.44 25.79 74.29"/><polygon class="cls-3" points="10.55 74.11 26.3 82.86 42.42 74.85 38.97 92.52 51.57 105.38 33.7 107.56 25.36 123.52 17.76 107.19 0.01 104.19 13.19 91.92 10.55 74.11"/><polygon class="cls-4" points="30.14 106.47 25.46 102.64 20.38 105.91 22.57 100.28 17.89 96.45 23.92 96.8 26.12 91.16 27.65 97.01 33.69 97.35 28.6 100.62 30.14 106.47"/><polygon class="cls-2" points="103.15 24.88 111.12 41.03 128.94 43.62 116.05 56.19 119.09 73.93 103.15 65.55 87.22 73.93 90.26 56.19 77.36 43.62 95.18 41.03 103.15 24.88"/><polygon class="cls-3" points="87.92 24.7 103.66 33.45 119.79 25.44 116.33 43.11 128.94 55.98 111.06 58.15 102.72 74.11 95.13 57.78 77.37 54.78 90.55 42.52 87.92 24.7"/><polygon class="cls-4" points="107.51 57.06 102.83 53.23 97.74 56.5 99.93 50.87 95.25 47.04 101.29 47.39 103.48 41.75 105.02 47.6 111.06 47.95 105.97 51.21 107.51 57.06"/><polygon class="cls-2" points="51.58 24.88 59.55 41.03 77.36 43.62 64.47 56.19 67.52 73.93 51.58 65.55 35.64 73.93 38.68 56.19 25.79 43.62 43.61 41.03 51.58 24.88"/><polygon class="cls-3" points="36.34 24.7 52.08 33.45 68.21 25.44 64.76 43.11 77.36 55.98 59.48 58.15 51.14 74.11 43.55 57.78 25.8 54.78 38.98 42.52 36.34 24.7"/><polygon class="cls-4" points="55.93 57.06 51.25 53.23 46.16 56.5 48.36 50.87 43.67 47.04 49.71 47.39 51.9 41.75 53.44 47.6 59.48 47.95 54.39 51.21 55.93 57.06"/><polygon class="cls-2" points="0 24.88 7.97 41.03 25.79 43.62 12.89 56.19 15.94 73.93 0 65.55 -15.94 73.93 -12.89 56.19 -25.79 43.62 -7.97 41.03 0 24.88"/><polygon class="cls-3" points="-15.23 24.7 0.51 33.45 16.63 25.44 13.18 43.11 25.78 55.98 7.91 58.15 -0.43 74.11 -8.03 57.78 -25.78 54.78 -12.6 42.52 -15.23 24.7"/><polygon class="cls-4" points="4.35 57.06 -0.33 53.23 -5.41 56.5 -3.22 50.87 -7.9 47.04 -1.86 47.39 0.33 41.75 1.86 47.6 7.9 47.95 2.82 51.21 4.35 57.06"/><polygon class="cls-2" points="77.36 -24.53 85.33 -8.38 103.15 -5.79 90.26 6.78 93.3 24.53 77.36 16.15 61.43 24.53 64.47 6.78 51.58 -5.79 69.4 -8.38 77.36 -24.53"/><polygon class="cls-3" points="62.13 -24.7 77.87 -15.96 94 -23.97 90.55 -6.3 103.15 6.57 85.27 8.74 76.93 24.7 69.34 8.38 51.58 5.38 64.76 -6.89 62.13 -24.7"/><polygon class="cls-4" points="81.72 7.65 77.04 3.83 71.95 7.1 74.14 1.46 69.46 -2.36 75.5 -2.02 77.69 -7.65 79.23 -1.81 85.27 -1.46 80.18 1.81 81.72 7.65"/><polygon class="cls-2" points="25.79 -24.53 33.76 -8.38 51.58 -5.79 38.68 6.78 41.73 24.53 25.79 16.15 9.85 24.53 12.89 6.78 0 -5.79 17.82 -8.38 25.79 -24.53"/><polygon class="cls-3" points="10.55 -24.7 26.3 -15.96 42.42 -23.97 38.97 -6.3 51.57 6.57 33.7 8.74 25.36 24.7 17.76 8.38 0.01 5.38 13.19 -6.89 10.55 -24.7"/><polygon class="cls-4" points="30.14 7.65 25.46 3.83 20.38 7.1 22.57 1.46 17.89 -2.36 23.92 -2.02 26.12 -7.65 27.65 -1.81 33.69 -1.46 28.6 1.81 30.14 7.65"/></pattern></defs><title>kinchaku</title><g id="Layer_2" data-name="Layer 2"><g id="close_up_bamboo" data-name="close up bamboo"><g id="kinchaku"><path class="cls-5" d="M333.29,137.05c-7.67-25.86-27.84-48.59-56-65.06l31.91-39.88S273.79,2.79,233.91,1s-38.09,34.56-104.49,9-101.95,6.1-101.95,6.1L58.8,72.33C31,88.77,11,111.36,3.4,137.05A40.88,40.88,0,0,0,0,153.25v68.61C0,254.39,39.87,281,88.6,281H248.09c48.73,0,88.6-26.61,88.6-59.14V153.25A40.88,40.88,0,0,0,333.29,137.05Z"/><path class="cls-6" d="M333.29,137.05c-7.67-25.86-27.84-48.59-56-65.06l31.91-39.88S273.79,2.79,233.91,1s-38.09,34.56-104.49,9-101.95,6.1-101.95,6.1L58.8,72.33C31,88.77,11,111.36,3.4,137.05A40.88,40.88,0,0,0,0,153.25v68.61C0,254.39,39.87,281,88.6,281H248.09c48.73,0,88.6-26.61,88.6-59.14V153.25A40.88,40.88,0,0,0,333.29,137.05Z"/><line class="cls-7" x1="58.92" y1="71.9" x2="276.89" y2="71.9"/><ellipse class="cls-8" cx="194.04" cy="100.25" rx="10.19" ry="42.53" transform="translate(-10.86 175.86) rotate(-47.58)"/><ellipse class="cls-8" cx="146.2" cy="112.65" rx="42.53" ry="10.19" transform="translate(-4.67 218.97) rotate(-72.79)"/><path class="cls-9" d="M161.7,71.9s42.53,92.14,70,96.57"/><path class="cls-9" d="M163.76,74.72s19.9,99.52.32,119.28"/></g></g></g></svg>