<svg xmlns="http://www.w3.org/2000/svg" viewBox="0 0 1916.87 815"><defs><style>.cls-1{fill:#237c7a;}.cls-2{fill:#3fa49b;}.cls-3{fill:#9dc2a0;}</style></defs><title>leaves</title><g id="Layer_2" data-name="Layer 2"><g id="close_up_bamboo" data-name="close up bamboo"><g id="leaves"><rect class="cls-1" x="487.44" y="1" width="122" height="814"/><rect class="cls-1" x="736.44" y="1" width="122" height="814"/><rect class="cls-1" x="1218.44" width="122" height="815"/><rect class="cls-1" x="1481.44" width="122" height="815"/><rect class="cls-2" x="1349.44" width="122" height="815"/><rect class="cls-2" x="1058.44" width="122" height="815"/><rect class="cls-2" x="643.44" y="1" width="122" height="814"/><rect class="cls-3" x="894.44" width="122" height="815"/><rect class="cls-3" x="1301.44" width="122" height="815"/><rect class="cls-3" x="417.44" y="69" width="122" height="746"/><polygon class="cls-3" points="211.87 0 107 88 207 88 311.87 0 311.44 0 211.87 0"/><path class="cls-1" d="M311.51,0,235.92,63.8,212.54,198.7,289,134.2,312.22,0Z"/><path class="cls-1" d="M411.34,198.7,388,63.8,312.36,0h-.7l23.26,134.2Z"/><polygon class="cls-2" points="412 0 313.44 0 312 0 416.87 88 516.87 88 412 0"/><polygon class="cls-3" points="411.87 0 307 88 407 88 511.87 0 511.44 0 411.87 0"/><path class="cls-1" d="M511.51,0,435.92,63.8,412.54,198.7,489,134.2,512.22,0Z"/><path class="cls-1" d="M611.34,198.7,588,63.8,512.36,0h-.7l23.26,134.2Z"/><polygon class="cls-2" points="612 0 513.44 0 512 0 616.87 88 716.87 88 612 0"/><polygon class="cls-3" points="611.87 0 507 88 607 88 711.87 0 711.44 0 611.87 0"/><path class="cls-1" d="M711.51,0,635.92,63.8,612.54,198.7,689,134.2,712.22,0Z"/><path class="cls-1" d="M811.34,198.7,788,63.8,712.36,0h-.7l23.26,134.2Z"/><polygon class="cls-2" points="812 0 713.44 0 712 0 816.87 88 916.87 88 812 0"/><polygon class="cls-3" points="811.87 0 707 88 807 88 911.87 0 911.44 0 811.87 0"/><path class="cls-1" d="M911.51,0,835.92,63.8,812.54,198.7,889,134.2,912.22,0Z"/><path class="cls-1" d="M1011.34,198.7,988,63.8,912.36,0h-.7l23.26,134.2Z"/><polygon class="cls-2" points="1012 0 913.44 0 912 0 1016.87 88 1116.87 88 1012 0"/><polygon class="cls-3" points="1011.87 0 907 88 1007 88 1111.87 0 1111.44 0 1011.87 0"/><path class="cls-1" d="M1111.51,0l-75.59,63.8-23.38,134.9L1089,134.2,1112.22,0Z"/><path class="cls-1" d="M1211.34,198.7,1188,63.8,1112.36,0h-.7l23.26,134.2Z"/><polygon class="cls-2" points="1212 0 1113.44 0 1112 0 1216.87 88 1316.87 88 1212 0"/><polygon class="cls-3" points="1211.87 0 1107 88 1207 88 1311.87 0 1311.44 0 1211.87 0"/><path class="cls-1" d="M1311.51,0l-75.59,63.8-23.38,134.9L1289,134.2,1312.22,0Z"/><path class="cls-1" d="M1411.34,198.7,1388,63.8,1312.36,0h-.7l23.26,134.2Z"/><polygon class="cls-2" points="1412 0 1313.44 0 1312 0 1416.87 88 1516.87 88 1412 0"/><polygon class="cls-3" points="1707 88 1811.87 176 1711.87 176 1607 88 1607.44 88 1707 88"/><path class="cls-1" d="M1607.36,88,1683,151.8l23.39,134.9-76.42-64.5L1606.66,88Z"/><path class="cls-1" d="M1507.54,286.7l23.38-134.9L1606.51,88h.71L1584,222.2Z"/><polygon class="cls-2" points="1506.87 88 1605.44 88 1606.87 88 1502 176 1402 176 1506.87 88"/><polygon class="cls-3" points="1507 88 1611.87 176 1511.87 176 1407 88 1407.44 88 1507 88"/><path class="cls-1" d="M1407.36,88,1483,151.8l23.39,134.9-76.42-64.5L1406.66,88Z"/><path class="cls-1" d="M1307.54,286.7l23.38-134.9L1406.51,88h.71L1384,222.2Z"/><polygon class="cls-2" points="1306.87 88 1405.44 88 1406.87 88 1302 176 1202 176 1306.87 88"/><polygon class="cls-3" points="1307 88 1411.87 176 1311.87 176 1207 88 1207.44 88 1307 88"/><path class="cls-1" d="M1207.36,88,1283,151.8l23.39,134.9-76.42-64.5L1206.66,88Z"/><path class="cls-1" d="M1107.54,286.7l23.38-134.9L1206.51,88h.71L1184,222.2Z"/><polygon class="cls-2" points="1106.87 88 1205.44 88 1206.87 88 1102 176 1002 176 1106.87 88"/><polygon class="cls-3" points="1107 88 1211.87 176 1111.87 176 1007 88 1007.44 88 1107 88"/><path class="cls-1" d="M1007.36,88,1083,151.8l23.39,134.9-76.42-64.5L1006.66,88Z"/><path class="cls-1" d="M907.54,286.7l23.38-134.9L1006.51,88h.71L984,222.2Z"/><polygon class="cls-2" points="906.87 88 1005.44 88 1006.87 88 902 176 802 176 906.87 88"/><polygon class="cls-3" points="907 88 1011.87 176 911.87 176 807 88 807.44 88 907 88"/><path class="cls-1" d="M807.36,88,883,151.8l23.39,134.9-76.42-64.5L806.66,88Z"/><path class="cls-1" d="M707.54,286.7l23.38-134.9L806.51,88h.71L784,222.2Z"/><polygon class="cls-2" points="706.87 88 805.44 88 806.87 88 702 176 602 176 706.87 88"/><polygon class="cls-3" points="307 88 411.87 176 311.87 176 207 88 207.44 88 307 88"/><path class="cls-1" d="M207.36,88,283,151.8l23.39,134.9-76.42-64.5L206.66,88Z"/><path class="cls-1" d="M107.54,286.7l23.38-134.9L206.51,88h.71L184,222.2Z"/><polygon class="cls-2" points="106.87 88 205.44 88 206.87 88 102 176 2 176 106.87 88"/><polygon class="cls-3" points="211.87 176 107 264 207 264 311.87 176 311.44 176 211.87 176"/><path class="cls-1" d="M311.51,176l-75.59,63.8L212.54,374.7,289,310.2,312.22,176Z"/><path class="cls-1" d="M411.34,374.7,388,239.8,312.36,176h-.7l23.26,134.2Z"/><polygon class="cls-2" points="412 176 313.44 176 312 176 416.87 264 516.87 264 412 176"/><polygon class="cls-3" points="611.87 176 507 264 607 264 711.87 176 711.44 176 611.87 176"/><path class="cls-1" d="M711.51,176l-75.59,63.8L612.54,374.7,689,310.2,712.22,176Z"/><path class="cls-1" d="M811.34,374.7,788,239.8,712.36,176h-.7l23.26,134.2Z"/><polygon class="cls-2" points="812 176 713.44 176 712 176 816.87 264 916.87 264 812 176"/><polygon class="cls-3" points="811.87 176 707 264 807 264 911.87 176 911.44 176 811.87 176"/><path class="cls-1" d="M911.51,176l-75.59,63.8L812.54,374.7,889,310.2,912.22,176Z"/><path class="cls-1" d="M1011.34,374.7,988,239.8,912.36,176h-.7l23.26,134.2Z"/><polygon class="cls-2" points="1012 176 913.44 176 912 176 1016.87 264 1116.87 264 1012 176"/><polygon class="cls-3" points="1011.87 176 907 264 1007 264 1111.87 176 1111.44 176 1011.87 176"/><path class="cls-1" d="M1111.51,176l-75.59,63.8-23.38,134.9L1089,310.2,1112.22,176Z"/><path class="cls-1" d="M1211.34,374.7,1188,239.8,1112.36,176h-.7l23.26,134.2Z"/><polygon class="cls-2" points="1212 176 1113.44 176 1112 176 1216.87 264 1316.87 264 1212 176"/><polygon class="cls-3" points="1254.87 176 1150 264 1250 264 1354.87 176 1354.44 176 1254.87 176"/><path class="cls-1" d="M1354.51,176l-75.59,63.8-23.38,134.9L1332,310.2,1355.22,176Z"/><path class="cls-1" d="M1454.34,374.7,1431,239.8,1355.36,176h-.7l23.26,134.2Z"/><polygon class="cls-2" points="1455 176 1356.44 176 1355 176 1459.87 264 1559.87 264 1455 176"/><polygon class="cls-3" points="1411.87 176 1307 264 1407 264 1511.87 176 1511.44 176 1411.87 176"/><path class="cls-1" d="M1511.51,176l-75.59,63.8-23.38,134.9L1489,310.2,1512.22,176Z"/><path class="cls-1" d="M1611.34,374.7,1588,239.8,1512.36,176h-.7l23.26,134.2Z"/><polygon class="cls-2" points="1612 176 1513.44 176 1512 176 1616.87 264 1716.87 264 1612 176"/><polygon class="cls-3" points="1611.87 176 1507 264 1607 264 1711.87 176 1711.44 176 1611.87 176"/><path class="cls-1" d="M1711.51,176l-75.59,63.8-23.38,134.9L1689,310.2,1712.22,176Z"/><path class="cls-1" d="M1811.34,374.7,1788,239.8,1712.36,176h-.7l23.26,134.2Z"/><polygon class="cls-2" points="1812 176 1713.44 176 1712 176 1816.87 264 1916.87 264 1812 176"/><polygon class="cls-3" points="1707 264 1811.87 352 1711.87 352 1607 264 1607.44 264 1707 264"/><path class="cls-1" d="M1607.36,264,1683,327.8l23.39,134.9-76.42-64.5L1606.66,264Z"/><path class="cls-1" d="M1507.54,462.7l23.38-134.9,75.59-63.8h.71L1584,398.2Z"/><polygon class="cls-2" points="1506.87 264 1605.44 264 1606.87 264 1502 352 1402 352 1506.87 264"/><polygon class="cls-3" points="1507 264 1611.87 352 1511.87 352 1407 264 1407.44 264 1507 264"/><path class="cls-1" d="M1407.36,264,1483,327.8l23.39,134.9-76.42-64.5L1406.66,264Z"/><path class="cls-1" d="M1307.54,462.7l23.38-134.9,75.59-63.8h.71L1384,398.2Z"/><polygon class="cls-2" points="1306.87 264 1405.44 264 1406.87 264 1302 352 1202 352 1306.87 264"/><polygon class="cls-3" points="1307 264 1411.87 352 1311.87 352 1207 264 1207.44 264 1307 264"/><path class="cls-1" d="M1207.36,264,1283,327.8l23.39,134.9-76.42-64.5L1206.66,264Z"/><path class="cls-1" d="M1107.54,462.7l23.38-134.9,75.59-63.8h.71L1184,398.2Z"/><polygon class="cls-2" points="1106.87 264 1205.44 264 1206.87 264 1102 352 1002 352 1106.87 264"/><polygon class="cls-3" points="907 264 1011.87 352 911.87 352 807 264 807.44 264 907 264"/><path class="cls-1" d="M807.36,264,883,327.8l23.39,134.9-76.42-64.5L806.66,264Z"/><path class="cls-1" d="M707.54,462.7l23.38-134.9L806.51,264h.71L784,398.2Z"/><polygon class="cls-2" points="706.87 264 805.44 264 806.87 264 702 352 602 352 706.87 264"/><polygon class="cls-3" points="307 264 411.87 352 311.87 352 207 264 207.44 264 307 264"/><path class="cls-1" d="M207.36,264,283,327.8l23.39,134.9-76.42-64.5L206.66,264Z"/><path class="cls-1" d="M107.54,462.7l23.38-134.9L206.51,264h.71L184,398.2Z"/><polygon class="cls-2" points="106.87 264 205.44 264 206.87 264 102 352 2 352 106.87 264"/><polygon class="cls-3" points="209.87 350 105 438 205 438 309.87 350 309.44 350 209.87 350"/><path class="cls-1" d="M309.51,350l-75.59,63.8L210.54,548.7,287,484.2,310.22,350Z"/><path class="cls-1" d="M409.34,548.7,386,413.8,310.36,350h-.7l23.26,134.2Z"/><polygon class="cls-2" points="410 350 311.44 350 310 350 414.87 438 514.87 438 410 350"/><polygon class="cls-3" points="409.87 350 305 438 405 438 509.87 350 509.44 350 409.87 350"/><path class="cls-1" d="M509.51,350l-75.59,63.8L410.54,548.7,487,484.2,510.22,350Z"/><path class="cls-1" d="M609.34,548.7,586,413.8,510.36,350h-.7l23.26,134.2Z"/><polygon class="cls-2" points="610 350 511.44 350 510 350 614.87 438 714.87 438 610 350"/><polygon class="cls-3" points="609.87 350 505 438 605 438 709.87 350 709.44 350 609.87 350"/><path class="cls-1" d="M709.51,350l-75.59,63.8L610.54,548.7,687,484.2,710.22,350Z"/><path class="cls-1" d="M809.34,548.7,786,413.8,710.36,350h-.7l23.26,134.2Z"/><polygon class="cls-2" points="810 350 711.44 350 710 350 814.87 438 914.87 438 810 350"/><polygon class="cls-3" points="809.87 350 705 438 805 438 909.87 350 909.44 350 809.87 350"/><path class="cls-1" d="M909.51,350l-75.59,63.8L810.54,548.7,887,484.2,910.22,350Z"/><path class="cls-1" d="M1009.34,548.7,986,413.8,910.36,350h-.7l23.26,134.2Z"/><polygon class="cls-2" points="1010 350 911.44 350 910 350 1014.87 438 1114.87 438 1010 350"/><polygon class="cls-3" points="1409.87 350 1305 438 1405 438 1509.87 350 1509.44 350 1409.87 350"/><path class="cls-1" d="M1509.51,350l-75.59,63.8-23.38,134.9L1487,484.2,1510.22,350Z"/><path class="cls-1" d="M1609.34,548.7,1586,413.8,1510.36,350h-.7l23.26,134.2Z"/><polygon class="cls-2" points="1610 350 1511.44 350 1510 350 1614.87 438 1714.87 438 1610 350"/><polygon class="cls-3" points="1505 438 1609.87 526 1509.87 526 1405 438 1405.44 438 1505 438"/><path class="cls-1" d="M1405.36,438,1481,501.8l23.39,134.9-76.42-64.5L1404.66,438Z"/><path class="cls-1" d="M1305.54,636.7l23.38-134.9,75.59-63.8h.71L1382,572.2Z"/><polygon class="cls-2" points="1304.87 438 1403.44 438 1404.87 438 1300 526 1200 526 1304.87 438"/><polygon class="cls-3" points="1305 438 1409.87 526 1309.87 526 1205 438 1205.44 438 1305 438"/><path class="cls-1" d="M1205.36,438,1281,501.8l23.39,134.9-76.42-64.5L1204.66,438Z"/><path class="cls-1" d="M1105.54,636.7l23.38-134.9,75.59-63.8h.71L1182,572.2Z"/><polygon class="cls-2" points="1104.87 438 1203.44 438 1204.87 438 1100 526 1000 526 1104.87 438"/><polygon class="cls-3" points="905 438 1009.87 526 909.87 526 805 438 805.44 438 905 438"/><path class="cls-1" d="M805.36,438,881,501.8l23.39,134.9-76.42-64.5L804.66,438Z"/><path class="cls-1" d="M705.54,636.7l23.38-134.9L804.51,438h.71L782,572.2Z"/><polygon class="cls-2" points="704.87 438 803.44 438 804.87 438 700 526 600 526 704.87 438"/><polygon class="cls-3" points="705 438 809.87 526 709.87 526 605 438 605.44 438 705 438"/><path class="cls-1" d="M605.36,438,681,501.8l23.39,134.9-76.42-64.5L604.66,438Z"/><path class="cls-1" d="M505.54,636.7l23.38-134.9L604.51,438h.71L582,572.2Z"/><polygon class="cls-2" points="504.87 438 603.44 438 604.87 438 500 526 400 526 504.87 438"/><polygon class="cls-3" points="305 438 409.87 526 309.87 526 205 438 205.44 438 305 438"/><path class="cls-1" d="M205.36,438,281,501.8l23.39,134.9-76.42-64.5L204.66,438Z"/><path class="cls-1" d="M105.54,636.7l23.38-134.9L204.51,438h.71L182,572.2Z"/><polygon class="cls-2" points="104.87 438 203.44 438 204.87 438 100 526 0 526 104.87 438"/></g></g></g></svg>