<svg xmlns="http://www.w3.org/2000/svg" viewBox="0 0 270.44 237"><defs><style>.cls-1{fill:#3d639b;}.cls-2{fill:#20385e;}</style></defs><title>orizuru</title><g id="Layer_2" data-name="Layer 2"><g id="close_up_bamboo" data-name="close up bamboo"><g id="orizuru"><polygon class="cls-1" points="56.55 237 0 180.95 60.48 191.76 56.55 237"/><polygon class="cls-2" points="91.95 237 56.55 237 60.48 191.76 91.95 237"/><polygon class="cls-1" points="60.48 191.76 44.74 170.13 44.74 0 102.27 76.21 207.5 214.87 183.41 237 91.95 237 60.48 191.76"/><polygon class="cls-2" points="167.19 161.76 102.27 76.21 123.42 11.31 186.35 124.89 167.19 161.76"/><polygon class="cls-2" points="212.89 189.3 207.5 214.87 167.19 161.76 212.89 189.3"/><polygon class="cls-1" points="208.59 78.71 224.71 45.24 270.44 101.78 234.05 89 208.59 78.71"/><polygon class="cls-1" points="230.21 107.21 212.89 189.3 167.19 161.76 186.35 124.89 208.59 78.71 230.21 107.21"/><polygon class="cls-2" points="208.59 78.71 234.05 89 230.21 107.21 208.59 78.71"/></g></g></g></svg>