<svg xmlns="http://www.w3.org/2000/svg" viewBox="0 0 154.78 632"><defs><style>.cls-1{fill:#eb5c83;}</style></defs><title>tanzaku</title><g id="Layer_2" data-name="Layer 2"><g id="close_up_bamboo" data-name="close up bamboo"><g id="tanzaku"><path class="cls-1" d="M82.36,103.18c1-2.38,1.94-6.42,2.8-13.29a311.25,311.25,0,0,0,1.9-36.69,311.19,311.19,0,0,0-1.9-36.68C83.35,2,81.13,0,79,0s-4.35,2-6.16,16.52a311.19,311.19,0,0,0-1.9,36.68,311.25,311.25,0,0,0,1.9,36.69c.86,6.87,1.81,10.91,2.8,13.29H0V632H154.78V103.18ZM79,3.56c2.09,3.31,4.84,21.62,4.84,49.64S81.09,99.54,79,102.85c-2.09-3.31-4.84-21.62-4.84-49.65S76.91,6.87,79,3.56Z"/></g></g></g></svg>